<?xml version="1.0" encoding="utf-8"?>
<!-- Generator: Adobe Illustrator 16.0.0, SVG Export Plug-In . SVG Version: 6.00 Build 0)  -->
<!DOCTYPE svg PUBLIC "-//W3C//DTD SVG 1.1//EN" "http://www.w3.org/Graphics/SVG/1.1/DTD/svg11.dtd">
<svg version="1.1" id="lake" xmlns="http://www.w3.org/2000/svg" xmlns:xlink="http://www.w3.org/1999/xlink" x="0px" y="0px"
	 width="584.402px" height="120.437px" viewBox="601.675 894.482 584.402 120.437"
	 enable-background="new 601.675 894.482 584.402 120.437" xml:space="preserve">
<path fill="#EDE0AB" d="M605.281,898.705c3.104-0.71,16.667-2.333,23.667-2.5s29.167-1.563,30.667-1.563s13,1.862,21,2.048
	c8,0.185,17.667-2.94,21.167-2.048c3.5,0.896,7.167,2.396,14.5,2.729s55.667-0.528,64-0.765s40.833-0.6,43.833,0
	c3,0.598,9.334,0.4,10.167,0c0.833-0.402,3-0.902,3-0.902s5.833,0.306,6.5,0.902s12.833,0.932,14.5,0.765s5.333-1.194,6.5-0.765
	s7.833,0.931,8.5,0.931s25.832,2.227,31.166,1.196s13.834-1.786,16.334-1.991s32.834,2.229,34,2.264c1.166,0.033,9,0.864,10.5,1.031
	s12.334,0.833,13.5,1s4.833,0,4.833,0l4,0.833c0,0,43.666,1.834,45.833,1.834s15.334,0.5,15.834,0s3.833,0.224,3.833,0.224
	s33,0.725,36.667,0c3.667-0.724,11.5-1.391,22.5-0.391s44.5,3.167,44.5,3.167s22.666,3,23.833,3s6.334,2.166,5.334,5.666
	s-9.667,4.667-9.667,4.667s3.333,3.001,1,8.667s-9.667,9.667-12.167,11c-0.16,0.086-0.042-0.018-2.184,1.513
	c-0.25,0.178-9.024-2.887-9.024-2.887s-3.53,1.621-3.593,1.665c-0.364,0.262,9.51,3.418,9.51,3.418
	c-7.606,5.472-20.688,15.103-22.542,17.291c-3.667,4.333-11,6.667-11,6.667s-14.001,5.334-17.834,6.5s-18.999,6.833-23.499,5.833
	s-7.667-2.834-8.167-3.167s-6.667,0.668-7.167,0.834s-37.333,11.666-42.833,12.833s-29.334,5-33.167,5s-8.167,2-8.667,2
	s-9.666,1-9.666,1l-6.834,3.833c0,0-35.165,1.666-41.999,1.333s-25.499,7.334-33.333,8.167s-12.501,0.501-19.834-0.833
	s-32.666,3.396-33.166,4.166c-0.5,0.771-41.667-8-41.667-8s-21.667-7.166-23.167-7.666s-18.167-4-18.167-4
	S573.948,905.871,605.281,898.705z"/>
<g id="bote">
	<path fill="#A81D45" d="M1039.904,934.571c0.125,1.723,2.188,3.711,5.546,4.8c3.059-0.717,4.101,1.38,7.063,0.757
		c1.348-0.383,3.046,0.032,4.584-0.188c0.928-0.133,1.819-1.053,2.694-0.461c2.782-0.571,4.894-1.377,4.666-2.408
		C1061.25,938.334,1043.684,936.046,1039.904,934.571z"/>
	<path fill="#82153C" d="M1039.904,934.609c-0.077-0.49,20.255-0.179,24.551,2.501
		C1060.934,938.843,1040.101,935.895,1039.904,934.609z"/>
</g>
<polygon fill="#82153C" points="1051.729,936.291 1053,922.5 1064.125,934.571 1052.594,934.125 1052.438,936.291 "/>
</svg>
