<?xml version="1.0" encoding="utf-8"?>
<!-- Generator: Adobe Illustrator 16.0.0, SVG Export Plug-In . SVG Version: 6.00 Build 0)  -->
<!DOCTYPE svg PUBLIC "-//W3C//DTD SVG 1.1//EN" "http://www.w3.org/Graphics/SVG/1.1/DTD/svg11.dtd">
<svg version="1.1" id="Capa_1" xmlns="http://www.w3.org/2000/svg" xmlns:xlink="http://www.w3.org/1999/xlink" x="0px" y="0px"
	 width="400px" height="400px" viewBox="0 0 400 400" enable-background="new 0 0 400 400" xml:space="preserve">
<g>
	<path id="LinkedIn" d="M372.279,237.239v127.385h-73.85V245.77c0-29.857-10.682-50.234-37.413-50.234
		c-20.406,0-32.55,13.732-37.892,27.015c-1.949,4.75-2.451,11.359-2.451,18.006v124.066h-73.875c0,0,0.995-201.3,0-222.156h73.869
		v31.489c-0.15,0.236-0.346,0.49-0.485,0.718h0.485v-0.718c9.813-15.115,27.34-36.708,66.569-36.708
		C335.842,137.247,372.279,168.999,372.279,237.239z M69.523,35.377c-25.272,0-41.803,16.576-41.803,38.375
		c0,21.324,16.052,38.404,40.822,38.404h0.494c25.762,0,41.784-17.077,41.784-38.404C110.334,51.953,94.798,35.377,69.523,35.377z
		 M32.108,364.622h73.847V142.467H32.108V364.622z"/>
</g>
</svg>
