<?xml version="1.0" encoding="utf-8"?>
<!-- Generator: Adobe Illustrator 16.0.0, SVG Export Plug-In . SVG Version: 6.00 Build 0)  -->
<!DOCTYPE svg PUBLIC "-//W3C//DTD SVG 1.1//EN" "http://www.w3.org/Graphics/SVG/1.1/DTD/svg11.dtd">
<svg version="1.1" id="Capa_1" xmlns="http://www.w3.org/2000/svg" xmlns:xlink="http://www.w3.org/1999/xlink" x="0px" y="0px"
	 width="226.771px" height="226.771px" viewBox="-0.001 -42.521 226.771 226.771"
	 enable-background="new -0.001 -42.521 226.771 226.771" xml:space="preserve">
<g>
	<rect x="21.6" y="72.108" width="190.933" height="111.17"/>
	<polygon points="60.425,63.776 60.054,64.324 91.35,64.324 91.72,63.776 111.467,34.473 80.172,34.473 	"/>
	<polygon points="122.36,63.776 121.99,64.324 153.285,64.324 153.654,63.776 173.403,34.473 142.108,34.473 	"/>
	<polygon points="21.6,64.324 29.414,64.324 29.784,63.776 49.532,34.473 21.6,34.473 21.6,63.776 	"/>
	<polygon points="183.926,64.324 212.532,64.324 212.532,63.776 212.532,34.473 204.044,34.473 184.297,63.776 	"/>
	<polygon points="51.503,-3.942 78.363,20.027 108.691,12.308 81.833,-11.661 	"/>
	<polygon points="111.526,-19.217 138.385,4.752 168.714,-2.966 141.854,-26.935 	"/>
	<polygon points="171.549,-34.492 198.409,-10.524 206.636,-12.616 199.272,-41.548 	"/>
	<polygon points="21.81,3.615 14.237,5.542 21.6,34.473 48.669,27.584 	"/>
</g>
</svg>
