<?xml version="1.0" encoding="utf-8"?>
<!-- Generator: Adobe Illustrator 16.0.0, SVG Export Plug-In . SVG Version: 6.00 Build 0)  -->
<!DOCTYPE svg PUBLIC "-//W3C//DTD SVG 1.1//EN" "http://www.w3.org/Graphics/SVG/1.1/DTD/svg11.dtd">
<svg version="1.1" id="Capa_1" xmlns="http://www.w3.org/2000/svg" xmlns:xlink="http://www.w3.org/1999/xlink" x="0px" y="0px"
	 width="600px" height="600px" viewBox="0 0 600 600" enable-background="new 0 0 600 600" xml:space="preserve">
<g>
	<path d="M11.128,434.1V165.9h71.349c26.587,0,43.967,1.28,52.139,3.842c13.05,4.148,23.812,12.989,32.29,26.527
		c8.476,13.538,12.715,30.98,12.715,52.323c0,19.392-3.659,35.646-10.978,48.755c-7.317,13.111-16.465,22.319-27.441,27.624
		c-10.978,5.307-29.883,7.959-56.714,7.959H55.401V434.1H11.128z M55.401,211.271v76.288h24.572c16.502,0,27.719-1.16,33.648-3.484
		c5.928-2.321,10.788-6.509,14.579-12.561s5.686-13.478,5.686-22.282c0-8.924-1.958-16.442-5.868-22.557
		c-3.914-6.111-8.742-10.208-14.487-12.285c-5.746-2.078-17.909-3.119-36.49-3.119H55.401z"/>
	<path d="M215.845,165.9h80.964c20.468,0,35.914,2.287,46.33,6.861c10.416,4.573,20.012,12.289,28.785,23.143
		c8.771,10.856,15.654,24.943,20.652,42.261c4.996,17.319,7.496,38.847,7.496,64.579c0,23.174-2.621,43.33-7.861,60.464
		c-5.24,17.137-11.881,30.707-19.922,40.705c-8.041,10.002-17.756,17.535-29.148,22.595c-11.395,5.063-26.043,7.592-43.955,7.592
		h-83.341V165.9z M260.117,211.271v177.457h33.296c14.27,0,24.606-1.337,31.008-4.019c6.404-2.682,11.646-6.731,15.734-12.154
		c4.086-5.42,7.471-13.981,10.154-25.679c2.682-11.696,4.025-27.106,4.025-46.236c0-19.857-1.373-35.514-4.117-46.969
		c-2.744-11.452-7.016-20.467-12.807-27.048c-5.795-6.58-12.836-10.904-21.129-12.978c-6.223-1.583-18.236-2.375-36.041-2.375
		H260.117z"/>
	<path d="M438.125,434.1V165.9h150.746v45.371H482.396v63.482h92.205v45.37h-92.205V434.1H438.125z"/>
</g>
</svg>
