<?xml version="1.0" encoding="utf-8"?>
<!-- Generator: Adobe Illustrator 16.0.0, SVG Export Plug-In . SVG Version: 6.00 Build 0)  -->
<!DOCTYPE svg PUBLIC "-//W3C//DTD SVG 1.1//EN" "http://www.w3.org/Graphics/SVG/1.1/DTD/svg11.dtd">
<svg version="1.1" id="Layer_2" xmlns="http://www.w3.org/2000/svg" xmlns:xlink="http://www.w3.org/1999/xlink" x="0px" y="0px"
	 width="200px" height="200px" viewBox="0 0 200 200" enable-background="new 0 0 200 200" xml:space="preserve">
<g>
	<path d="M131.957,97.82c-7.346-16.347-5.876-60.427-5.876-60.427H100H73.918c0,0,1.469,44.08-5.877,60.427
		c-7.346,16.346-6.061,14.981-6.061,19.101c0,3.929,20.312,25.376,35.816,67.457c-2.467,0.979-4.214,3.383-4.214,6.197
		c0,3.379,2.515,6.166,5.774,6.605v-78.343l-2.273-3.938l-2.916-5.05H100h5.831l-2.915,5.05l-2.273,3.938v78.391
		c3.502-0.202,6.284-3.1,6.284-6.653c0-2.984-1.961-5.51-4.663-6.362c15.495-41.973,35.755-63.367,35.755-67.292
		C138.019,112.802,139.304,114.166,131.957,97.82z"/>
</g>
<path d="M138.019,29.679c0,2.435-1.337,4.408-2.989,4.408H66.806c-1.65,0-2.988-1.974-2.988-4.408V26.74
	c0-2.435,1.337-4.408,2.988-4.408h68.224c1.652,0,2.989,1.974,2.989,4.408V29.679z"/>
<rect x="69.419" y="2.771" width="61.161" height="16.622"/>
<g>
</g>
<g>
</g>
<g>
</g>
<g>
</g>
<g>
</g>
<g>
</g>
</svg>
