<?xml version="1.0" encoding="utf-8"?>
<!-- Generator: Adobe Illustrator 16.0.0, SVG Export Plug-In . SVG Version: 6.00 Build 0)  -->
<!DOCTYPE svg PUBLIC "-//W3C//DTD SVG 1.1//EN" "http://www.w3.org/Graphics/SVG/1.1/DTD/svg11.dtd">
<svg version="1.1" id="Layer_1" xmlns="http://www.w3.org/2000/svg" xmlns:xlink="http://www.w3.org/1999/xlink" x="0px" y="0px"
	 width="200px" height="200px" viewBox="0 0 200 200" enable-background="new 0 0 200 200" xml:space="preserve">
<g>
	<path d="M167.031,114.824l-2.238,1.29h-15.652V101.23c0-1.468-1.191-2.658-2.658-2.658H27.007c-1.469,0-2.66,1.19-2.66,2.658
		v79.794c0,1.47,1.191,2.659,2.66,2.659h119.476c1.467,0,2.658-1.189,2.658-2.659v-37.65h15.652l2.238,1.293l25.844,14.923v-29.845
		V99.902L167.031,114.824z M86.744,152.381L67.25,163.637v-22.509v-22.51l19.493,11.257l19.493,11.253L86.744,152.381z"/>
	<circle cx="45.777" cy="54.968" r="38.652"/>
	<circle cx="128.377" cy="54.968" r="38.652"/>
	<rect x="9.907" y="99.902" width="9.308" height="28.909"/>
</g>
<g>
</g>
<g>
</g>
<g>
</g>
<g>
</g>
<g>
</g>
<g>
</g>
</svg>
