<?xml version="1.0" encoding="utf-8"?>
<!-- Generator: Adobe Illustrator 16.0.0, SVG Export Plug-In . SVG Version: 6.00 Build 0)  -->
<!DOCTYPE svg PUBLIC "-//W3C//DTD SVG 1.1//EN" "http://www.w3.org/Graphics/SVG/1.1/DTD/svg11.dtd">
<svg version="1.1" id="Capa_1" xmlns="http://www.w3.org/2000/svg" xmlns:xlink="http://www.w3.org/1999/xlink" x="0px" y="0px"
	 width="226.771px" height="226.771px" viewBox="-0.001 -42.521 226.771 226.771"
	 enable-background="new -0.001 -42.521 226.771 226.771" xml:space="preserve">
<g>
	<g>
		<path fill="#030104" d="M210.391-31.852H16.42c-8.243,0-14.934,6.733-14.934,15.032v137.777c0,8.314,6.691,15.031,14.934,15.031
			h74.403c0,0-13.072,30.078-48.888,30.078v7.517h26.313h63.934h48.888v-7.517c-36.822,0-45.151-30.078-45.151-30.078h74.46
			c8.228,0,14.905-6.717,14.905-15.031V-16.821C225.311-25.119,218.621-31.852,210.391-31.852z M113.399,132.897
			c-4.633,0-8.384-3.753-8.384-8.386c0-4.617,3.751-8.369,8.384-8.369c4.618,0,8.383,3.752,8.383,8.369
			C121.769,129.144,118.017,132.897,113.399,132.897z M209.313,111.607H17.484V-15.868h191.843L209.313,111.607L209.313,111.607z"/>
	</g>
</g>
<path d="M126.707,51.44l12.563-14.952c2.967-0.012,8.64-0.809,13.764-5.935c10.403-10.402,1.928-30.063,1.563-30.896
	c-0.409-0.932-1.396-1.472-2.403-1.315c-1.006,0.154-1.784,0.969-1.896,1.982c-0.008,0.077-0.899,7.732-5.644,8.226
	c-0.577,0.06-1.124,0.089-1.671,0.089c-1.37,0-2.437-0.186-3.467-0.366c-0.913-0.161-1.773-0.311-2.717-0.311
	c-2.085,0-3.984,0.787-6.159,2.551c-4.464,3.623-5.042,9.892-5.057,12.761l-14.695,12.348L94.784,19.517
	c-0.007-0.008-0.017-0.013-0.025-0.021c-0.087-0.084-0.182-0.162-0.283-0.232c-0.019-0.013-0.037-0.027-0.056-0.04
	c-0.086-0.056-0.175-0.108-0.27-0.153l-15.961-7.514l-6.406-3.016c-0.86-0.405-1.881-0.226-2.552,0.446
	c-0.075,0.076-0.143,0.158-0.205,0.242c-0.007,0.009-0.015,0.017-0.022,0.025c-0.04,0.056-0.072,0.115-0.106,0.172
	c-0.024,0.042-0.053,0.081-0.075,0.123c-0.021,0.041-0.036,0.085-0.055,0.127C68.742,9.738,68.711,9.8,68.69,9.864
	c-0.012,0.035-0.018,0.073-0.028,0.11c-0.02,0.072-0.042,0.145-0.055,0.219c-0.007,0.038-0.007,0.078-0.011,0.117
	c-0.01,0.074-0.021,0.147-0.021,0.222c-0.002,0.036,0.004,0.073,0.005,0.108c0.001,0.079,0.003,0.156,0.012,0.234
	c0.005,0.033,0.016,0.065,0.021,0.098c0.014,0.08,0.027,0.161,0.051,0.239c0.011,0.037,0.029,0.074,0.041,0.11
	c0.026,0.073,0.049,0.147,0.083,0.217l10.53,22.368c0.043,0.091,0.094,0.178,0.147,0.263c0.011,0.017,0.024,0.033,0.035,0.049
	c0.073,0.106,0.154,0.207,0.243,0.298c0.008,0.008,0.012,0.016,0.019,0.022l17.746,17.746c-6.425,6.769-13.05,14.347-18.171,20.831
	c-3.449,4.367-6.049,8.01-7.73,10.823c-1.859,3.113-3.315,6.263-1.397,8.181c0.411,0.41,1.146,0.9,2.315,0.9
	c5.797,0,24.954-16.301,37.514-28.204l29.476,29.474c0.439,0.441,1.017,0.66,1.592,0.66c0.576,0,1.151-0.219,1.593-0.66l4.326-4.325
	L87.273,30.211l3.184-3.184l59.752,59.753l4.327-4.329c0.881-0.879,0.881-2.306,0-3.183L126.707,51.44z M82.027,29.091l-3.94-8.372
	l2.878-2.878l8.372,3.94L82.027,29.091z M114.085,38.817l13.502-11.345l7.27,7.269l-11.346,13.503L114.085,38.817z"/>
</svg>
