<?xml version="1.0" encoding="utf-8"?>
<!-- Generator: Adobe Illustrator 16.0.0, SVG Export Plug-In . SVG Version: 6.00 Build 0)  -->
<!DOCTYPE svg PUBLIC "-//W3C//DTD SVG 1.1//EN" "http://www.w3.org/Graphics/SVG/1.1/DTD/svg11.dtd">
<svg version="1.1" id="Layer_3" xmlns="http://www.w3.org/2000/svg" xmlns:xlink="http://www.w3.org/1999/xlink" x="0px" y="0px"
	 width="200px" height="200px" viewBox="0 0 200 200" enable-background="new 0 0 200 200" xml:space="preserve">
<g>
	<path d="M181.667,13.333H18.333c-2.209,0-4,1.791-4,4v165.334c0,2.209,1.791,4,4,4h163.333c2.209,0,4-1.791,4-4V17.333
		C185.667,15.124,183.876,13.333,181.667,13.333z M165.5,22.5c3.452,0,6.25,2.798,6.25,6.25S168.952,35,165.5,35
		s-6.25-2.798-6.25-6.25S162.048,22.5,165.5,22.5z M146,22.5c3.452,0,6.25,2.798,6.25,6.25S149.452,35,146,35s-6.25-2.798-6.25-6.25
		S142.548,22.5,146,22.5z M125.25,22.5c3.452,0,6.25,2.798,6.25,6.25S128.702,35,125.25,35S119,32.202,119,28.75
		S121.798,22.5,125.25,22.5z M179.5,181H20.25V45.5H179.5V181z"/>
</g>
<rect x="33.667" y="55.667" width="60" height="28"/>
<rect x="104.334" y="76" width="60" height="7.667"/>
<rect x="33.667" y="94.667" width="130.667" height="77.333"/>
<g>
</g>
<g>
</g>
<g>
</g>
<g>
</g>
<g>
</g>
<g>
</g>
</svg>
