<?xml version="1.0" encoding="utf-8"?>
<!-- Generator: Adobe Illustrator 16.0.0, SVG Export Plug-In . SVG Version: 6.00 Build 0)  -->
<!DOCTYPE svg PUBLIC "-//W3C//DTD SVG 1.1//EN" "http://www.w3.org/Graphics/SVG/1.1/DTD/svg11.dtd">
<svg version="1.1" id="Capa_1" xmlns="http://www.w3.org/2000/svg" xmlns:xlink="http://www.w3.org/1999/xlink" x="0px" y="0px"
	 width="400px" height="400px" viewBox="56.001 56.001 400 400" enable-background="new 56.001 56.001 400 400"
	 xml:space="preserve">
<g display="none">
	<path display="inline" d="M425.866,150.639c-12.501,5.542-25.932,9.29-40.031,10.975c14.39-8.626,25.441-22.285,30.646-38.562
		c-13.47,7.988-28.385,13.789-44.262,16.914c-12.713-13.546-30.828-22.009-50.875-22.009c-38.492,0-69.699,31.205-69.699,69.697
		c0,5.462,0.616,10.782,1.805,15.884c-57.927-2.907-109.285-30.655-143.661-72.825c-6,10.294-9.438,22.267-9.438,35.041
		c0,24.182,12.305,45.517,31.007,58.016c-11.425-0.363-22.173-3.498-31.569-8.718c-0.006,0.29-0.006,0.583-0.006,0.876
		c0,33.771,24.025,61.939,55.91,68.344c-5.847,1.593-12.006,2.446-18.362,2.446c-4.491,0-8.857-0.438-13.114-1.253
		c8.87,27.69,34.61,47.845,65.11,48.405c-23.854,18.695-53.907,29.837-86.563,29.837c-5.627,0-11.174-0.33-16.627-0.977
		c30.846,19.777,67.482,31.317,106.843,31.317c128.202,0,198.309-106.207,198.309-198.312c0-3.021-0.069-6.027-0.202-9.017
		C404.706,176.89,416.522,164.615,425.866,150.639z"/>
</g>
<g display="none">
	<path display="inline" d="M208.236,153.107c0-2.089,0.29-6.602,0.87-13.507c0.625-6.919,3.236-14.159,7.922-21.761
		c4.643-7.573,12.172-14.377,22.646-20.397c10.43-5.992,25.505-9.009,45.177-9.009h55.416v60.395H299.69
		c-4.02,0-7.76,1.508-11.143,4.483c-3.35,2.974-5.076,5.803-5.076,8.428v37.575h56.781c-0.594,7.354-1.248,14.506-2,21.412
		l-2.25,18.25c-0.898,6.167-1.814,11.883-2.713,17.148h-50.225V423.57h-74.83V256.11h-36.501v-56.796h36.501V153.107z"/>
</g>
<path d="M404.427,109.665c-43.008-43.007-136.718,21.73-148.427,65.643c-11.709-43.913-105.419-108.649-148.426-65.643
	c-43.007,43.007-21.277,145.771,13.128,194.663c34.406,48.893,135.298,112.149,135.298,112.149s100.893-63.257,135.298-112.149
	C425.705,255.437,447.434,152.673,404.427,109.665z"/>
</svg>
