<?xml version="1.0" encoding="utf-8"?>
<!-- Generator: Adobe Illustrator 16.0.0, SVG Export Plug-In . SVG Version: 6.00 Build 0)  -->
<!DOCTYPE svg PUBLIC "-//W3C//DTD SVG 1.1//EN" "http://www.w3.org/Graphics/SVG/1.1/DTD/svg11.dtd">
<svg version="1.1" id="Capa_1" xmlns="http://www.w3.org/2000/svg" xmlns:xlink="http://www.w3.org/1999/xlink" x="0px" y="0px"
	 width="400px" height="400px" viewBox="760 340 400 400" enable-background="new 760 340 400 400" xml:space="preserve">
<g>
	<path d="M1117.53,560.843c4.873,6.895,8.586,14.379,11.18,22.579c2.584,8.171,3.887,16.628,3.887,25.388
		c0,12.543-2.537,24.326-7.555,35.364c-5.033,11.01-11.956,20.714-20.785,29.145c-8.83,8.343-19.11,14.892-30.922,19.653
		c-11.814,4.76-24.242,7.097-37.457,7.097c-18.823,0-35.712-4.446-50.691-13.318c-4.157,0.572-8.343,0.989-12.57,1.303
		c-4.245,0.287-8.445,0.403-12.645,0.403c-21.991,0-42.633-3.941-61.944-11.797c-19.266-7.899-36.139-18.624-50.675-32.284
		c-14.493-13.605-25.918-29.646-34.146-48.008c-8.3-18.365-12.443-37.988-12.443-58.848c0-4.043,0.201-7.885,0.631-11.44
		c0.387-3.555,0.917-7.181,1.462-10.807c-10.321-14.322-15.454-29.704-15.454-46.204c0-12.271,2.538-23.868,7.569-34.776
		c5.018-10.896,11.898-20.371,20.729-28.413c8.83-8.056,19.166-14.393,30.907-19.038c11.769-4.645,24.255-6.909,37.472-6.909
		c9.519,0,18.449,1.118,26.936,3.398c8.486,2.308,16.428,5.519,23.753,9.719c4.143-0.588,8.386-1.004,12.572-1.334
		c4.242-0.257,8.487-0.415,12.629-0.415c22.062,0,42.776,3.842,62.143,11.482c19.326,7.584,36.239,18.092,50.776,31.424
		c14.536,13.388,25.989,28.885,34.304,46.517c8.285,17.662,12.428,36.612,12.428,56.797
		C1119.638,544.959,1118.948,552.744,1117.53,560.843z M1035.878,606.745c6.794-8.945,10.148-19.454,10.148-31.523
		c0-9.504-1.893-17.49-5.619-23.968c-3.886-6.451-9.362-11.856-16.431-16.172c-6.492-4.186-14.937-7.898-25.272-11.225
		c-10.393-2.608-21.416-5.16-33.069-7.77l-12.773-2.91c-3.427-0.73-6.15-1.348-8.201-1.906c-2.279-0.56-4.386-1.175-6.393-1.906
		c-1.892-0.675-3.899-1.463-5.906-2.322c-3.899-1.635-7.167-3.856-9.761-6.466c-2.007-2.25-3.011-5.274-3.011-9.031
		c0-5.49,3.268-10.393,9.762-14.735c7.354-4.057,16.342-6.008,27.022-5.878c12.342,0,21.015,1.821,25.902,5.476
		c5.908,4.329,10.537,9.662,13.85,15.955c2.881,4.616,5.807,8.056,8.829,10.322c2.883,2.207,6.881,3.396,11.914,3.554
		c5.663,0,10.35-1.878,14.291-5.662c3.855-3.526,5.706-7.497,5.606-11.97c0-5.174-1.464-10.265-4.33-15.167
		c-2.838-4.601-7.612-9.505-14.191-14.707c-3.326-2.237-6.98-4.286-10.922-6.164c-3.958-1.893-8.404-3.556-13.233-4.961
		c-5.059-1.376-10.378-2.437-15.984-3.153c-5.619-0.702-11.755-1.032-18.549-1.032c-17.116,0-31.552,2.093-43.307,6.278
		c-12.63,4.358-22.191,10.351-28.671,18.12c-6.48,7.397-9.719,16.284-9.719,26.664c0,10.923,3.14,19.811,9.333,26.663
		c6.235,7.412,14.679,13.017,25.359,16.816c10.149,4.057,23.123,7.611,39.034,10.679c5.95,1.405,11.154,2.596,15.754,3.498
		c4.529,0.89,8.645,1.907,12.243,3.011c6.779,1.849,12.284,4.945,16.486,9.347c4.486,3.813,6.736,8.715,6.736,14.766
		c0,8.356-4.101,15.124-12.198,20.284c-7.655,5.289-18.007,7.899-31.036,7.714c-10.436,0-17.992-1.205-22.779-3.643
		c-5.949-2.709-10.335-6.149-13.217-10.252c-3.655-4.672-6.581-9.861-8.931-15.466c-2.051-5.319-4.817-9.332-8.429-12.042
		c-3.369-2.737-7.311-4.1-11.941-4.1c-5.905,0-10.78,1.648-14.637,4.89c-3.855,3.683-5.705,7.999-5.619,12.842
		c0,8.444,3.125,16.887,9.318,25.346c6.15,8.701,14.049,15.499,23.667,20.385c14.092,7.284,31.795,10.967,53.068,11.111
		c17.362,0,32.83-2.582,46.291-7.727C1019.575,622.743,1029.438,615.477,1035.878,606.745z"/>
</g>
</svg>
