<?xml version="1.0" encoding="utf-8"?>
<!-- Generator: Adobe Illustrator 16.0.0, SVG Export Plug-In . SVG Version: 6.00 Build 0)  -->
<!DOCTYPE svg PUBLIC "-//W3C//DTD SVG 1.1//EN" "http://www.w3.org/Graphics/SVG/1.1/DTD/svg11.dtd">
<svg version="1.1" id="Capa_1" xmlns="http://www.w3.org/2000/svg" xmlns:xlink="http://www.w3.org/1999/xlink" x="0px" y="0px"
	 width="400px" height="400px" viewBox="56.001 56.001 400 400" enable-background="new 56.001 56.001 400 400"
	 xml:space="preserve">
<g>
	<path d="M425.866,150.639c-12.501,5.542-25.932,9.29-40.031,10.975c14.39-8.626,25.441-22.285,30.646-38.562
		c-13.47,7.988-28.385,13.789-44.262,16.914c-12.713-13.546-30.828-22.009-50.875-22.009c-38.492,0-69.699,31.205-69.699,69.697
		c0,5.462,0.616,10.782,1.805,15.884c-57.927-2.907-109.285-30.655-143.661-72.825c-6,10.294-9.438,22.267-9.438,35.041
		c0,24.182,12.305,45.517,31.007,58.016c-11.425-0.363-22.173-3.498-31.569-8.718c-0.006,0.29-0.006,0.583-0.006,0.876
		c0,33.771,24.025,61.939,55.91,68.344c-5.847,1.593-12.006,2.446-18.362,2.446c-4.491,0-8.857-0.438-13.114-1.253
		c8.87,27.69,34.61,47.845,65.11,48.405c-23.854,18.695-53.907,29.837-86.563,29.837c-5.627,0-11.174-0.33-16.627-0.977
		c30.846,19.777,67.482,31.317,106.843,31.317c128.202,0,198.309-106.207,198.309-198.312c0-3.021-0.069-6.027-0.202-9.017
		C404.706,176.89,416.522,164.615,425.866,150.639z"/>
</g>
</svg>
