<?xml version="1.0" encoding="utf-8"?>
<!-- Generator: Adobe Illustrator 16.0.0, SVG Export Plug-In . SVG Version: 6.00 Build 0)  -->
<!DOCTYPE svg PUBLIC "-//W3C//DTD SVG 1.1//EN" "http://www.w3.org/Graphics/SVG/1.1/DTD/svg11.dtd">
<svg version="1.1" id="Capa_1" xmlns="http://www.w3.org/2000/svg" xmlns:xlink="http://www.w3.org/1999/xlink" x="0px" y="0px"
	 width="226.771px" height="226.771px" viewBox="-0.001 -42.521 226.771 226.771"
	 enable-background="new -0.001 -42.521 226.771 226.771" xml:space="preserve">
<g>
	<path fill="#010002" d="M110.842,48.704l84.41-13.689v114.44c0,9.473-7.059,17.039-18.072,19.827
		c-12.108,2.993-23.776-2.074-26.108-11.349c-2.32-9.297,5.606-19.256,17.701-22.281c5.461-1.347,10.85-1.067,15.347,0.517V67.212
		L122.262,78.53l-0.29,85.764c-0.052,8.117-7.389,16.106-17.917,18.708c-11.95,2.995-24.489-2.696-25.826-11.203
		c-2.29-9.183,5.534-19.037,17.525-22.043c5.388-1.347,10.663-1.077,15.088,0.478V48.704z M79.109,90.674L79.41-15.332
		c0,0,23.09-1.233,45.671,34.179c0,0,0.063-18.281-17.296-31.661C73.887-36.482,73.98-42.079,73.98-42.079
		c-6.466,0.756-7.13,5.668-7.13,5.668V75.213c-4.851-1.7-10.654-2-16.602-0.518C37.087,77.95,28.485,88.821,31.003,98.925
		c1.482,9.338,15.244,15.607,28.395,12.301c11.555-2.88,19.629-11.607,19.691-20.552H79.109z M140.503,22.174
		c4.019-1.005,6.828-4.042,6.848-7.151h0.012l0.104-36.882c0,0,8.031-0.425,15.886,11.896c0,0,0.01-6.363-6.031-11.006
		c-11.794-8.238-11.751-10.187-11.751-10.187c-2.251,0.26-2.487,1.969-2.487,1.969V9.656c-1.679-0.603-3.69-0.705-5.763-0.198
		c-4.591,1.13-7.565,4.923-6.695,8.436C131.143,21.148,135.931,23.324,140.503,22.174z M180.297,22.267
		c2.797-0.694,4.746-2.819,4.767-4.985l0.073-25.69c0,0,5.595-0.3,11.067,8.281c0,0,0.009-4.437-4.186-7.669
		c-8.22-5.742-8.198-7.099-8.198-7.099c-1.565,0.187-1.729,1.379-1.729,1.379v27.057c-1.173-0.415-2.581-0.486-4.021-0.124
		c-3.192,0.788-5.275,3.42-4.664,5.866C173.757,21.552,177.094,23.075,180.297,22.267z"/>
</g>
</svg>
