<?xml version="1.0" encoding="utf-8"?>
<!-- Generator: Adobe Illustrator 16.0.0, SVG Export Plug-In . SVG Version: 6.00 Build 0)  -->
<!DOCTYPE svg PUBLIC "-//W3C//DTD SVG 1.1//EN" "http://www.w3.org/Graphics/SVG/1.1/DTD/svg11.dtd">
<svg version="1.1" id="Capa_1" xmlns="http://www.w3.org/2000/svg" xmlns:xlink="http://www.w3.org/1999/xlink" x="0px" y="0px"
	 width="226.771px" height="226.771px" viewBox="-0.001 -42.521 226.771 226.771"
	 enable-background="new -0.001 -42.521 226.771 226.771" xml:space="preserve">
<g>
	<g>
		<g>
			<g>
				<path fill="#010002" d="M196.86,109.494H29.901c-3.486,0-6.328-2.833-6.328-6.328V-19.602c0-3.495,2.842-6.327,6.328-6.327
					H196.86c3.487,0,6.336,2.832,6.336,6.327v122.768C203.196,106.661,200.355,109.494,196.86,109.494z M36.237,96.83h154.297
					V-13.266H36.237V96.83z"/>
			</g>
		</g>
		<g>
			<g>
				<g>
					<polygon fill="#010002" points="179.443,182.889 154.588,109.626 166.58,105.56 193.084,182.924 					"/>
				</g>
			</g>
		</g>
		<g>
			<g>
				<g>
					<polygon fill="#010002" points="48.528,182.882 73.39,109.61 61.398,105.552 34.896,182.907 					"/>
				</g>
			</g>
		</g>
		<g>
			<g>
				<rect x="107.058" y="107.572" fill="#010002" width="12.655" height="73.156"/>
			</g>
		</g>
		<g>
			<g>
				<path fill="#010002" d="M113.385-14.83c-3.495,0-6.327-2.824-6.327-6.328v-13.707c0-3.496,2.832-6.328,6.327-6.328
					c3.496,0,6.328,2.832,6.328,6.328v13.699C119.713-17.663,116.881-14.83,113.385-14.83z"/>
			</g>
		</g>
	</g>
</g>
<g>
	<path d="M171.334-2.998c-0.225-0.572-0.748-0.974-1.358-1.049c-0.608-0.074-1.211,0.191-1.568,0.69
		c-2.121,2.973-4.9,3.963-8.121,5.111c-2.599,0.925-5.284,1.881-8.189,3.966c-4.108,2.949-5.986,6.966-5.048,10.774l-0.101,0.129
		c-1.714-2.487-3.581-4.787-5.552-6.841c-9.211-9.613-22.08-15.391-35.312-15.855c-0.583-0.02-1.175-0.03-1.761-0.03
		c-14.775,0-28.918,6.604-38.8,18.122c-9.832,11.456-14.189,26.37-11.955,40.917c0.187,1.216,0.421,2.444,0.695,3.652
		c3.634,15.993,12.915,28.16,25.462,33.38c3.094,1.285,6.213,1.937,9.272,1.937c7.602,0,14.239-4.064,18.213-11.151
		c1.511-2.698,2.488-5.487,2.898-8.289c0.243-1.657,0.077-3.311-0.085-4.914c-0.165-1.648-0.321-3.208-0.069-4.778
		c0.571-3.599,3.084-5.748,6.721-5.748c1.034,0,2.091,0.171,3.148,0.509c-1.237,2.266-2.359,4.433-3.342,6.438
		c-2.078,4.253-3.51,7.777-4.262,10.469c-0.463,1.66-1.692,6.074,1.305,8.153c0.952,0.66,2.16,0.895,3.415,0.66
		c1.132-0.209,4.575-0.85,14.364-11.994c2.63-2.989,5.457-6.45,8.416-10.287c7.598-2.558,13.506-8.925,15.071-16.241
		c0.393-1.829,0.556-3.786,0.486-5.818c2.844-4.396,5.339-8.498,7.851-12.905c0.045-0.085,0.095-0.176,0.14-0.269
		c3.646-0.998,6.782-3.833,8.625-7.799C174.582,12.155,174.383,4.719,171.334-2.998z M130.268,24.403
		c-1.315,2.093-3.582,3.342-6.058,3.342c-1.345,0-2.659-0.38-3.804-1.101c-1.618-1.018-2.742-2.605-3.164-4.468
		c-0.423-1.861-0.098-3.779,0.922-5.397c1.318-2.091,3.583-3.341,6.06-3.341c1.345,0,2.661,0.38,3.804,1.102
		c1.618,1.016,2.741,2.604,3.164,4.468C131.614,20.869,131.287,22.787,130.268,24.403z M139.552,37.363
		c3.617-5.328,7.441-10.625,11.073-15.335c0.591,0.532,1.248,1.051,1.96,1.546c1.185,0.82,2.422,1.453,3.684,1.887
		c-3.067,5.244-6.366,10.441-10.355,16.322c-6.563,9.666-13.385,18.644-19.209,25.282c-3.254,3.708-6.102,6.571-8.295,8.344
		c0.845-2.711,2.465-6.429,4.715-10.834C127.154,56.697,132.988,47.033,139.552,37.363z M76.063,37.317
		c-1.345,0-2.66-0.381-3.804-1.1c-1.617-1.018-2.741-2.605-3.164-4.468c-0.423-1.864-0.095-3.779,0.924-5.397
		c1.317-2.093,3.582-3.341,6.058-3.341c1.346,0,2.662,0.38,3.805,1.102c3.338,2.102,4.342,6.526,2.241,9.863
		C80.806,36.068,78.54,37.317,76.063,37.317z M68.566,53.069c1.317-2.095,3.582-3.343,6.06-3.343c1.343,0,2.66,0.38,3.803,1.102
		c1.616,1.018,2.741,2.603,3.165,4.467c0.423,1.862,0.095,3.778-0.924,5.396c-1.317,2.093-3.583,3.341-6.06,3.341
		c-1.344,0-2.66-0.38-3.805-1.1c-1.616-1.018-2.74-2.605-3.164-4.468C67.22,56.601,67.548,54.685,68.566,53.069z M91.473,10.585
		c1.317-2.092,3.583-3.341,6.06-3.341c1.344,0,2.66,0.38,3.804,1.1c3.337,2.102,4.343,6.527,2.242,9.865
		c-1.317,2.093-3.583,3.341-6.061,3.341c-1.344,0-2.66-0.379-3.803-1.1c-1.617-1.019-2.74-2.605-3.163-4.469
		C90.127,14.119,90.455,12.203,91.473,10.585z"/>
</g>
</svg>
