<?xml version="1.0" encoding="utf-8"?>
<!-- Generator: Adobe Illustrator 16.0.0, SVG Export Plug-In . SVG Version: 6.00 Build 0)  -->
<!DOCTYPE svg PUBLIC "-//W3C//DTD SVG 1.1//EN" "http://www.w3.org/Graphics/SVG/1.1/DTD/svg11.dtd">
<svg version="1.1" id="Layer_2" xmlns="http://www.w3.org/2000/svg" xmlns:xlink="http://www.w3.org/1999/xlink" x="0px" y="0px"
	 width="1920px" height="1080px" viewBox="0 0 1920 1080" enable-background="new 0 0 1920 1080" xml:space="preserve">
<path fill="#EDE0AB" d="M1923.02,0c-0.513,0.016-1.023,0.041-1.539,0.041H-3.02V1080h1924.584c-0.021-0.595-0.045-1.188-0.045-1.784
	c0-4.003,0.511-8.3,1.5-12.577V0z"/>
<path fill="#EDE0AB" d="M1921.48,0.041H-3.02v511.19c0.395,0.023,0.791,0.049,1.183,0.088c0,0,6.333-4.08,9.667-4.08
	s5,3.74,7.667,3.74s9.333-4.421,17-2.721c7.667,1.701,25.334,12.581,27.667,13.602c2.333,1.02,18,12.239,17.667,24.479l7.333,2.039
	c0,0,13.666-5.099,23.333,0.341c9.667,5.44,12,17.68,12,17.68s4,2.04,6.667,4.079l5.167,6.29c0,0,4.833,0.341,7.333,1.359
	c2.5,1.021,4.333,2.89,4.333,2.89s8.667-4.759,17-2.124c8.333,2.636,19.667,16.064,19.667,16.064s9.667-1.87,16.5,2.55
	s10.833,8.499,10.833,8.499h34.167c0,0-0.333-6.969,4-14.619c4.333-7.648,10.333-9.52,12.833-9.688
	c1.167-3.229,7.833-13.938,11-14.449c3.167-0.51,3.834-8.841,13.167-10.03c3.167-3.909,8.167-5.438,8.167-5.438
	s6.167-10.199,13.5-11.391c7.333-1.19,22.5-1.189,22.5-1.189s11.667-2.89,18.167,0.851s10.167,9.52,10.833,12.409
	c3.167-1.87,13.333,3.74,13.833,7.82c2.5-0.34,9.5,4.759,10.333,8.158c3.333-0.85,16,0.511,20,4.591s10.167,13.431,10.167,15.81
	c2,0,4.667,3.23,6.167,7.141c1.5,3.909,7.166-4.08,16.333-4.25s19,7.819,19,7.819s4.833-3.06,8.5-0.51s9.833,6.969,9.833,6.969
	h11.833c0,0,1.333-4.59,5.667-6.459s12.167-0.68,12.167-0.68s12.833,0.68,13.5,2.72s26.333-5.949,26.333-5.949
	s6.833-8.67,14.333-8.159c3.5-2.04,5-7.82,11.833-8.33c6.833-0.511,16.833,6.97,16.833,6.97s10.667-2.04,12.667-1.87
	c2,0.171,0.167-2.55,2-5.609c1.833-3.061,2.833-4.421,4.833-4.59c2-0.17-1-6.289,6.833-19.039s20.5-10.54,22.667-10.37
	s7-3.569,12-3.909c5-0.341,8.167,2.379,10.667,4.59c2.5,2.21,9.5,0.34,15,2.72c5.5,2.381,10.167,5.44,11,6.801
	c0.833,1.359,7.501-0.851,12.167,1.869c4.666,2.721,7.166,8.33,7.166,8.33s14.334-4.76,17.334-3.229
	c3,1.529,2.999-7.479,8.166-13.261c5.167-5.778,18-9.349,25.167-7.988c3.167-4.931,6.833-9.181,10.833-11.729
	s12.166-4.081,13.5-4.42c1.334-0.34,6.667-7.31,8.667-8.16c2-0.85,12.5-2.209,12.5-2.209s16.334-10.54,36.5-5.609
	c20.166,4.93,32.832,17.68,35.166,37.229c0,0,11.667,1.701,17,6.291s11,14.279,11,14.279s5.166-0.682,10.833,0.85
	s7.167,3.909,7.167,3.909s11.334-0.509,18.334,2.891c7,3.4,14.5,13.261,14.5,14.619c0,1.36,5.833,4.079,7.333,6.8
	c2.333-11.729,11.5-19.72,15.333-20.738c3.833-1.021,11.167-10.709,21-10.88s20.833,2.381,20.833,2.381s9-2.892,13.667,0.85
	s10.334,14.109,10.334,14.109s8.5,0.85,11.5,3.399s11.5,9.351,13.333,9.351c0,0,10.666-4.25,21.166,0.34
	s17.834,11.897,17.834,11.897s6.999-14.445,22.666-17.848s24.167,2.209,24.167,2.209s3.666-3.06,9-4.08
	c5.334-1.02,12.334-0.85,12.334-0.85s1.997-2.869,4.794-6.148c-3.557,0.001-7.251-0.684-10.68-0.507
	c-1.688,0.086-4.4-0.52-5.813,0.456c-0.972,0.671-2.477,0.476-3.549,0.451c-3.428-0.079-4.801-2.291-6.495-4.605
	c-5.566,0.616-11.08,2.684-16.777,1.987c-0.41-0.051-0.729-0.12-0.978-0.203c-2.396,0.119-4.804,0.157-7.188,0.163
	c-2.464,0.005-5.203-0.13-6.957-2.107c-0.006-0.006-0.005-0.013-0.011-0.019c-0.69-0.419-1.356-0.98-1.989-1.703
	c-0.746-0.854,3.827-1.655,4.821-0.521c2.519,2.877,9.229-3.484,11.546-4.753c2.544-1.396,5.74-1.366,8.692-1.296
	c0.747-2.868,1.438-5.971,4.71-6.72c1.271-0.29,2.382-0.104,3.427,0.318c2.988-3.175,8.648-3.396,12.67-1.514
	c1.748-1.693,3.272-3.092,6.313-3.092c4.037,0,6.345,2.29,9.286,4.868c1.469,1.289,2.649,2.829,3.604,4.536
	c0.78,1.396-1.726,1.699,0.736,1.485c0.635-0.054,1.269-0.05,1.901,0.014c2.272,0.088,4.41,0.569,6.229,1.743
	c3.588-1.91,6.366-2.897,6.699-2.897c0.5,0,5-3.911,9.667-4.76c4.667-0.851,13.167,2.21,13.167,2.21s2.832-7.31,5.666-9.689
	c2.834-2.379,18.834-5.101,21.334-5.101s22.167,1.189,29.5,5.95c12.167,8.501,17,25.33,17,25.33s9.999,3.909,12.333,9.009
	s1.667,7.821,1.667,7.821h14.667c0,0,7.499-3.57,12.666-2.55c5.167,1.02,10.334,6.63,10.334,6.63s7.666,0.849,10.666,1.357
	s6.334,4.42,6.334,4.42h16.666c0,0,29.166-9.856,36.833-9.18c3.5-4.42,3.668-6.968,6.834-10.199c0,0,13.167-4.421,20.5-1.871
	c3.266-3.219,0.166-5.269,4.833-9.008c4.667-3.741,11.333-2.212,11.333-2.212s2.667-3.397,5.167-3.397s6,1.358,6,1.358
	s8.001-11.512,17.334-14.938c9.333-3.423,22.499-1.678,24.999,0c1.666-3.251,9-7.331,12.666-6.142
	c3.668,1.19,9.666-13.089,18.334-18.358c8.666-5.271,20-4.761,20-4.761s25.166-6.971,40.334,2.38
	c15.166,9.35,21.666,38.419,21.666,38.419s12.332-7.819,26.5-4.25c14.166,3.569,15.834,11.05,15.834,11.05s3.166-0.851,5.5-0.34
	c2.332,0.51,4.332,4.25,4.332,4.25s3.5-3.909,5.5-4.08c2-0.17,6,1.021,6,1.021s3-4.081,11.168-3.229c8.166,0.851,14,8.33,14,8.33
	s5.832-1.36,10,1.87c4.166,3.229,7.832,10.538,7.832,10.538s6.168-8.5,17.834-4.93c7.313,2.236,19.068,8.012,26.834,12.011
	c0,0,36.984-32.685,52.484-33.703c15.5-1.02,32.426,44.366,33,31.108c0.25-5.766,40.938-21.688,65.543-23.174V0
	C1922.508,0.016,1921.996,0.041,1921.48,0.041z M333.038,494.576c-0.229-0.003-0.432-0.022-0.623-0.046
	c-2.488,8.586-19.614,2.583-25.545,3.497c-0.158,0.022-0.317,0.032-0.479,0.037c-1.098,1.331-2.761,1.941-4.624,2.144
	c-4.782,0.51-9.333,1.66-14.078,2.281c-3.175,0.417-6.604-0.582-9.396-2.046c-2.159-1.13-3.897-2.688-5.922-4.019
	c-0.945-0.623-2.208-0.813-3.439-0.944c-1.565,2.698-4.188,4.398-7.559,3.907c-1.855-0.271-3.505-0.628-5.079-1.74
	c-0.671-0.477-3.123,0.372-3.925,0.466c-5.353,0.617-10.576,0.729-15.828-0.617c-1.766-0.453-3.695-1.253-4.914-2.7
	c-1.257-1.494-5.334-1.134-7.008-0.975c-0.27,0.024-0.546,0.019-0.819-0.016c-0.304,0.357-0.567,0.786-0.769,1.33
	c-0.464,1.251-5.365,0.949-4.821-0.521c1.22-3.294,4.388-4.084,7.572-4.215c2.526-0.105,5.167,0.397,7.517-0.766
	c1.591-0.787,3.287-1.774,5.091-1.914c3.764-0.29,10.954,1.019,13.384-2.562c1.19-1.754,0.815-3.213,2.421-4.774
	c2.105-2.045,5.814-1.858,8.396-1.229c0.468,0.112,0.769,0.237,0.943,0.366c0.175,0.04,0.353,0.074,0.521,0.125
	c2.763,0.851,6.224-3.657,8.449-4.903c1.759-0.983,3.555-1.832,5.398-2.592c-0.117-0.128-0.146-0.267-0.026-0.404
	c4.374-5.092,9.15-10.151,16.215-10.659c2.576-0.186,4.554,0.033,6.286,0.74c2.559,0.592,4.966,2.081,6.876,3.87
	c2.315,2.17,5.039,4.114,6.943,6.688c0.02,0.023,0.02,0.046,0.028,0.069c2.282,0.449,4.1,1.568,5.939,3.506
	c2.196,2.313,2.895,4.205,2.979,7.223c3.851-0.054,8.177,0.579,9.159,3.745c5.684-1.574,11.84-2.124,15.479,2.124
	C353.886,496.177,335.318,494.608,333.038,494.576z M1451.777,509.281c-4.354-0.072-8.674,0.101-13.029,0.127
	c-0.319,0.003-0.598-0.022-0.848-0.063c-3.454,1.968-6.522,3.354-10.879,3.802c-6.292,0.647-12.777,1.019-19.089,0.435
	c-6.504-0.605-12.332-2.046-17.842-4.284c-0.229,0.192-0.675,0.358-1.432,0.46c-1.208,0.163-2.429,0.3-3.648,0.425
	c-0.041,0.006-0.082,0.009-0.123,0.015c-6.201,0.632-12.547,0.854-18.728,1.218c-6.799,0.401-13.58,0.996-20.375,1.402
	c-3.376,0.2-6.57-0.042-9.604-0.712l-0.003,0.001c-5.702,2.244-11.258,2.938-17.345,2.187c-7.875-0.971-14.938-3.785-22.583-5.629
	c-5.91-1.424-11.66-0.505-16.416-4.944c-0.021-0.021-0.024-0.042-0.038-0.063c-1.174-0.447-1.617-1.326,0.659-1.648
	c2.003-0.284,3.738-1.212,5.777-1.382c1.577-0.132,3.185,0.029,4.763,0.072c1.821,0.052,3.632,0.146,5.444,0.357
	c0.101,0.014,1.063,0.08,1.887,0.182c2.787-15,17.49-16.922,30.554-15.866c0.91-2.359,2.15-4.479,3.502-6.622
	c0.544-0.866,1.055-1.878,1.739-2.688c1.649-4.997,6.733-6.885,11.68-6.484c2.302,0.187,4.354,0.77,6.255,1.632
	c7.574-8.952,18.707-10.632,29.819-7.997c3.052,0.726,5.607,1.856,7.781,3.306c4.428,0.65,8.247,4.049,10.03,8.182
	c0.937,2.166,0.891,4.556,0.339,6.974c6.594,0.724,11.95,5.461,13.405,11.676c3.291-1.041,7.071-1.299,10.054,0.422
	c3.235,1.868,5.604,4.693,7.129,8.017c4.75-1.822,11.063-0.395,15.288,2.282c4.298-1.115,13.037-2.232,12.671,2.55
	C1458.388,509.033,1453.348,509.307,1451.777,509.281z"/>
<path fill="#A3BA94" d="M1657.246,259.303c2.272,0.949,5.229,0.658,8.001-0.833l-9.521,0.229
	C1656.256,258.903,1656.771,259.105,1657.246,259.303z"/>
<path fill="#A3BA94" d="M1630.246,259.303l25.479-0.605c-5.582-2.152-13.718-4.493-16.229-4.493
	C1636.746,254.203,1630.246,259.303,1630.246,259.303z"/>
<path fill="#A3BA94" d="M1921.48,0.041H-3.02v227.82c10.655,1.166,24.958,13.325,30.017,21.495c0,0,16.5-3.06,36.5,8.16
	c20,11.22,29.5-1.53,31,2.55c1-5.61,9.241-8.534,13.5-7.14c0,0,37.25-15.81,65-10.964c9-3.825,20-3.57,20-3.57
	s17.5-13.515,28.25-6.12c19-20.145,34.75-20.145,42.25-17.084c4.25-9.18,25.5-30.599,50-42.329
	c7.75-8.415,21.75-16.575,35.25-17.595s69,2.295,94.25,33.149c7.75-0.765,11,2.295,12.75,2.295s15,6.12,17.75,9.944
	c5.038-1.223,8.25-4.845,15.5-1.53s7.25,3.315,7.25,3.315s5.25,2.04,6.75,5.1s24,1.785,34.25,20.91c2,11.729,7.75,15.299,13,15.299
	s12.75,4.335,14.75,6.885c2,2.55,17.5-0.255,20.75,4.08s7.25,5.1,7.25,5.1h32.25c0,0,3.5-5.1,13.25-4.845
	c2.546-0.248,2-9.944,5.5-11.729c3.5-1.785,16-0.255,16-0.255s5-4.845,9-5.61c4-0.765,11.25,0.765,14,0.255s2-6.885,4.25-9.69
	s5.75-2.805,5.75-2.805s4.75-8.415,11.5-10.71s27,1.53,28.75,2.04s11,1.785,14,3.825c3.5-4.335,19.5-15.81,23-18.36
	c3.5-2.55,15.5,1.53,20,2.295c4.5,0.765,7.75-6.375,11.5-6.885s40.25-43.349,67-43.349c9.766,0.208,16.25,3.315,19.75,4.08
	s16.5-1.53,21.25,0.255c4.75,1.785,15.5,9.945,17.5,10.709c2,0.765,19.75,4.59,29.5,22.438c1.39,2.428,8.75,0.51,8.75,0.51
	s6.75-9.69,10-10.455s10.25-2.55,15.5-2.295c2-4.08,6.5-8.415,9-8.669c-1.25-1.53,4.75-6.63,6.5-6.375s6.25-9.18,15-8.67
	c8.75,0.51,11,2.295,11,2.295s8.75-12.239,19-12.239s23.75,8.415,25,11.475s14,6.63,15,26.009c10.25,1.02,9.25,19.125,7.5,21.419
	s21-0.255,26.5-2.04c5.5-1.785,19-0.51,18.5,3.315s-23,8.16-27.5,8.16s-51.25-2.295-66.5-1.785s-40,0-40,0s8.5,6.12,12.25,16.065
	c8.5-2.805,23.5,3.57,23.75,8.16c5-3.825,23.5-2.04,23.5-2.04s24.25,4.845,33.75,13.005c15,2.04,43.25,6.629,48.5,6.629
	s9.25,5.1,9.25,5.1s48.25,0.765,58-5.355c5.5-6.63,9.25-9.435,14.5-9.69s2.5-13.004,12.5-17.339s28-4.335,28-4.335
	s10.75-12.75,18.5-9.689c11.75-24.734,40-24.734,51.25-19.125c11.25,5.609,35-26.774,35-26.774s2-22.949,28.25-28.559
	c26.25-5.61,35.75,0.51,35.75,0.51s37.75-2.55,53.5,28.304s7.5,35.189,7.5,35.189s34.25,15.554,39.75,31.109
	c5.5,15.555,3.25,17.339,3.25,17.339s6.75,3.825,7.75,7.905s13,0.51,13,0.51s2.25-3.825,3.5-4.08s5-10.2,8.75-10.709
	c3.75-0.51,16.75-1.02,16.75-1.02s4.75-7.905,12-6.12c6.25-6.375,30-15.044,36-16.064c6-1.02,31.5,5.61,29,23.714
	c-0.733,7.032-4.31,11.585-8.249,13.702l39.999-0.953c0,0-0.75-19.124,10-26.009c10.75-6.885,19-4.845,19-4.845
	s-0.75-20.399,9.75-28.559c7.335-5.701,21.649-7.669,37.649-5.629s35.666,29.24,35.666,29.24s-4.979-31.022,17.845-31.661
	c22.823-0.638,40.489,20.025,40.489,20.025s-6-23.723,23.666-20.324c12.181,1.396,19.41,5.371,23.708,9.571V0
	C1922.508,0.016,1921.996,0.041,1921.48,0.041z M210.249,215.707c-0.164-0.019-0.327-0.046-0.491-0.067
	c-0.059,0.018-0.103,0.036-0.167,0.054c-10.264,2.802-21.923,2.62-32.105-1.107c-0.368,0.183-0.92,0.305-1.655,0.305
	c-5.904,0-12.303,0.643-18.371,0.373c-3.206,2.156-7.036,3.286-11.395,3.291c-5.981,0.007-12.475,0.495-17.699-2.406
	c-0.53,0.388-1.206,0.692-2.092,0.884c-4.913,1.074-10.846,0.131-15.859,0.155c-5.264,0.026-10.322-0.107-15.354-1.855
	c-3.466-1.202-6.8-1.806-10.357-2.547c-3.017-0.626-6.17-2.01-9.289-1.837c-0.94,0.052-2.001-0.294-2.564-0.702
	c-2.749,0.342-5.145,0.576-7.863,1.896c-1.587,0.77-2.926,1.196-4.654,1.357c-2.088,0.194-4.736-1.567-1.329-1.885
	c2.325-0.216,4.274-2.097,6.569-2.622c1.856-0.425,3.775-0.487,5.678-0.643c-0.748-3.552-0.078-6.231,3.604-7.783
	c2.646-1.115,5.524-1.773,8.397-1.821c4.794-0.081,9.442,0.379,13.994,1.334c1.765-3.745,4.58-5.641,7.864-6.454
	c2.172-3.657,6.135-4.589,10.848-4.824c1.869-0.094,3.621,0.295,5.279,0.972c1.455-1.111,2.87-1.985,5.198-1.919
	c0.337,0.01,0.661,0.044,0.988,0.074c1.506-1.943,2.703-3.77,5.002-5.188c2.02-1.247,4.427-1.773,6.729-2.083
	c0.811-0.109,1.608-0.129,2.398-0.088c1.109-0.666,2.162-1.378,3.585-1.627c1.834-0.321,3.521-0.581,5.379-0.605
	c3.213-0.042,6.453,1.627,8.907,3.594c1.118,0.896,2.078,1.943,2.917,3.1c0.254-0.062,0.477-0.095,0.579-0.105
	c1.852-0.186,3.826,0.168,5.732,0.881c2.308,0.427,4.535,1.334,6.576,2.916c4.549,3.526,7.225,8.375,8.72,13.756
	c2.913-0.236,5.589,0.351,8.516,0.889c3.993,0.736,8.084,0.567,12.109,0.969c3.992,0.4,7.672,2.597,11.266,4.221
	c2.005,0.905,4.67,1.447,5.74,3.57C223.148,215.247,211.474,215.844,210.249,215.707z M773.495,126.715
	c-2.842,0.307-5.675-0.519-8.275-1.735c-9.727,9.853-27.339,1.973-38.705-1.892c-9.177,3.276-19.378,3.79-28.998,3.527
	c-8.041-0.22-16.063-1.113-24.104-1.051c-5.354,0.041-10.838,0.099-15.96-1.634c-7.268,1.448-14.698,2.14-21.707,2.578
	c-18.354,1.149-36.711,0.107-55.079,0.069c-2.943-0.006-2.947-1.959,0-1.952c4.117,0.008,8.235,0.077,12.354,0.163
	c0.367-0.188,0.918-0.32,1.646-0.333c6.708-0.13,11.979-4.038,18.104-6.147c4.104-1.415,8.307-2.491,12.61-3.039
	c2.833-0.36,5.669-0.563,8.507-0.671c-4.113-1.361-8.059-4.214-8.32-8.741c-0.286-4.912,3.008-9.768,7.584-11.365
	c5.021-1.753,10.024-1.52,15.023-0.687c4.114-0.944,8.248-1.272,12.492-1.308c0.106-0.001,0.201,0.006,0.3,0.01
	c4.54-3.558,10.479-5.315,16.867-5.45c0.562-0.013,1.013,0.049,1.357,0.154c0.532-0.085,1.063-0.151,1.561-0.205
	c0.103-0.012,0.261-0.003,0.451,0.022c5.306-7.024,12.067-12.752,21.033-13.757c6.002-0.672,13.139-0.103,18.246,3.565
	c4.155,2.984,8.85,7.036,9.838,12.364c14.561,0.659,30.386,9.098,30.845,24.809c6.357,0.232,12.771,1.958,15.948,7.534
	C779.011,124.882,776.747,126.364,773.495,126.715z M1646.98,68.961c-5.339,5.177-14.974,5.547-21.918,4.949
	c-5.871-0.506-10.714-3.716-15.943-6.132c-7.612-3.517-13.896-0.487-21.288,2.136c-5.824,2.065-11.479,3.538-17.685,3.423
	c-6.507-0.118-12.979-1.547-19.304-2.978c-11.518-2.608-23.104-3.535-34.727-3.77c-0.974,0.226-2.287,0.246-3.074-0.046
	c-19.758-0.202-39.609,1.361-59.396-0.092c-7.021-0.515-14.062-1.646-20.687-4.155c-0.176-0.066-0.402-0.149-0.654-0.24
	c-0.588-0.19-1.16-0.407-1.716-0.654c-2.329-0.95-5.212-2.469-5.091-4.489c-1.531-3.43,0.726-7.104,4.353-8.223
	c0.195-0.398,0.906-0.741,2.146-0.732c3.021,0.019,6.043,0.139,9.071,0.286c1.034-0.242,1.947-0.459,2.667-0.663
	c1.071-0.303,3.688,0.296,3.646,0.986c6.25,0.318,12.502,0.552,18.719,0.069c9.433-0.73,17.56-6.302,27.104-6.831
	c4.699-0.26,9.297-0.073,13.959,0.577c6.631,0.925,12.612-0.139,18.938-2.156c8.873-2.829,17.938-5.271,27.232-6.004
	c9.701-0.765,18.498,4.365,28.15,4.215c9.188-0.146,18.26-1.481,27.434-0.286c10.664,1.391,23.494,6.7,32.09,13.27
	C1645.404,54.781,1652.868,63.247,1646.98,68.961z"/>
</svg>
