<?xml version="1.0" encoding="utf-8"?>
<!-- Generator: Adobe Illustrator 16.0.0, SVG Export Plug-In . SVG Version: 6.00 Build 0)  -->
<!DOCTYPE svg PUBLIC "-//W3C//DTD SVG 1.1//EN" "http://www.w3.org/Graphics/SVG/1.1/DTD/svg11.dtd">
<svg version="1.1" xmlns="http://www.w3.org/2000/svg" xmlns:xlink="http://www.w3.org/1999/xlink" x="0px" y="0px" width="1920px"
	 height="1080px" viewBox="0 0 1920 1080" enable-background="new 0 0 1920 1080" xml:space="preserve">
<g id="seccion_4">
	<g id="montaña_de_atras">
		<linearGradient id="SVGID_1_" gradientUnits="userSpaceOnUse" x1="0" y1="664.8223" x2="1921.25" y2="664.8223">
			<stop  offset="0.2956" style="stop-color:#CCA585"/>
			<stop  offset="0.7143" style="stop-color:#E2B891"/>
		</linearGradient>
		<path fill="url(#SVGID_1_)" d="M1920,536.5c0,0,0-1.5-1.75-3.582c-1.061-1.261-0.835-1.513-0.493-1.517L1915.75,531l-3.5,1
			c0,0,0,0-0.25,0.75s-2.5-1.25-2.5-1.25s-2.5-2-3.25-5.25c-0.411-1.783-0.371-2.183-0.251-2.184l-0.997-1.066
			c0,0-1.752-1.25-2.752-1.75s0-1.25,0-1.25l-2.187-1.214c-0.038,0.062-0.077,0.123-0.114,0.185l0.051-0.22l-3.5,0.917l-0.667,1
			l-0.833,0.5l-2.667,0.333l-2.666-0.167l-2-0.333l-2.334-0.833l-1.5,0.5l-1,0.5l-0.833,0.5l-1.333,0.833l-2.167,2l-0.833,0.5
			c0,0-0.168-0.5-0.334-1s-1.5-2.5-1.5-2.5l-0.166-1.167l-1-1.333c0-1,2.166-4.333,2.166-4.333l-2.833-3c0,0,0.501-0.5,0.667-1.167
			s0-3.333,0-3.333l-1.167-2.667l-2-3.333l-0.833-1.833c0,0-0.975-8.344-4.667-6.833l-0.191,0.079
			c-0.009-0.056-0.018-0.111-0.023-0.167c-0.88-0.359-4.268-1.729-5.782-2.162c-1.748-0.5,0-3.584,0-3.584l-1.252-1.416
			c0,0-2.75-2.5-3.5-2.5s-1.25,0-1.25,0s-3.75-2.25-5.25-2.25v-1h-2h-1.25c0,0-1.75-1.75-2.25-2.5s-1.5-3.5-1.5-3.5l-2.748-2.75
			L1836.5,467c0,0-3.75,0.5-5.5,0s-2.5-3.5-3.25-4s-2-2.5-2-2.5l-4.377-3.531l-3.324-0.219c0,0-2.549-2.25-3.299-2.5s-3.25-1-3.25-1
			h-1.75h-2.392v1h-3.108c0,0,0,0-1.25,0s-4,0.25-4,0.25v1.017l-3.75,3.733l-4.5-3.733l-7.647-2.701l-3.353-0.564h-3.25
			c0,0-4.25-3.25-6.095-4.521c0,0-5.061-4.612-6.354-5.319s-2.311-0.883-3.049-1.165c-0.737-0.282-1.309-0.5-1.309-0.5
			s-2.245-0.858-4.691-3.33c-2.445-2.472-1.252,0-1.252,0s-1.25-1.164-2-1.414s-2.25-2.75-2.25-2.75L1746,433c0,0,0,0-0.75,0
			s-3.577,0.855-3.577,0.855l-1.622-0.62l-5.301,1.015l-3.238,0.75l-4.762,3.5l-1.75,1.25l-3.5,1L1716,439c0,0-1,1.5-1.75,1.5
			S1708,440,1708,440l-3.5,1.25l-4,1.5h-1.25l-1.25,2.733l-2.536,0.183l-3.214,1.584c0,0,0.75,1,0,3.5H1689v-2V447l-1.729-2.25
			v-1.289L1685,441l-6.25-6l-1.5-1.75v-3.75c0,0,0-2.75,0-4.25s-2.053-5.276-1.946-6.517c0.107-1.241-0.506-3.483-0.506-3.483v-4
			c0,0-0.54-2.253-0.048-5.75s-3-3-3-3l-1.75,0.75l-4.458,3.407l-5.025,0.093c0,0,0.854,1.25,0,1.524
			c-0.853,0.274-1.767,4.288-1.767,4.288l-3,0.001l-4,1.437h-2c0,0-5.75,2.5-6.5,3.334s-3.248-4.771-3.248-4.771l-2.502-1.313
			l-4.665-2c0,0-0.872-6.244-1.243-6.569c-0.371-0.325-1.342-3.431-2.092-4.098s-2-3.359-2-3.359l-1.832-1.474l-2.61,1.474V394
			l-3.308-2.709h-4h-4.692l0.692-2.041l-2-4.083v-2.835L1599,376h-4.75h-4.248h-2.502l-7.75-3.75l-5.414-3L1571.5,370
			c0,0-6.25,0-7.331,0s-4.169-3.75-4.169-3.75l-1.25-1.5l-9.75,1.5l-6.75-3.25h-2h-6.5l-8.5-4.334c0,0-3.5-1.916-4.249-2.166
			s-3.168,0-3.168,0h-3.499H1509l-3.25-3.5l-1.25,3.5h-3.264l-4.236-1.25v1.25h-1.25l-5.75-3.389l-14.222-4.185
			c-2.078-0.611-3.277,1.49-3.277,1.49l-0.667,0.333l-2.5,1.667c0,0-2.25,1.333-2.75,1.5s-1,0.833-1.25,1.083
			s-1.125,0.499-1.125,0.499l-0.375,1.251l-1.667,0.5c0,0-0.833,0.583-1.166,0.667s-0.917,0.667-0.917,0.667l-0.417,0.917
			l-1.333,0.583l-1,0.583l-1,0.583h-1h-0.75l-0.167-0.667l0.084-0.333c0,0,0.583-1,0.583-1.333s0-0.833,0-0.833v-0.333v-0.417V357
			c0,0,2.25-1.333,2.583-1.667s0.25-1,0.25-1v-0.417c0,0,1-0.75,1.25-0.917s0.084-0.417,0.084-0.417s1.916-0.167,0.75-0.917
			s-3.794-0.081-3.794-0.081l-1.207-0.502l-0.498,0.465l-1.063-0.023c0.003-0.009,0.005-0.018,0.008-0.026h-1.196
			c0,0-1.75-1.25-2.5-3s-2,0-2,0l-6.25-3.438l-6.25,1.604c0,0-3.75-2.666-6.084-3.166s-1.666,0.25-1.666,0.25s-2.75,3-3.5,2.916
			s-3.25,0-3.25,0h-1L1400.777,343v2.063h-3.527l-3.248-3.063c0,0-2.002,0.75-5.446,3.063s-3.056,0-3.056,0
			c-1.5-2.063-2,0.313-2,0.313l-3.25-2.25c0,0-0.983-1.331-1.5-1.125c-0.518,0.206-0.637-0.202-0.637-0.202
			s-1.238,2.452-1.738,2.827s-0.625,1-0.625,1l-2.125,2.5l-1.125,0.69c0,0-0.625,0.435-1,0.81s-1.5,0.875-1.5,0.875l-1.875,0.375
			l-1.375,0.375c0,0-1.125,1.5-1.125,2s-1,1.75-1,1.75l-1.875-0.125h-1c0,0-1.125,0.125-1.5,0.25s-0.625,0.25-0.625,0.25
			s-0.75,0.375-1.625,1s-0.75,0.625-0.75,0.625l-1.375,1.5l-1.875,0.375l-0.875,0.125l-1.875,0.75h-0.817l-1.183,1.25h-1.125
			l0.125-1.875l0.125-1.25l0.5-0.75c0,0,0.75-1.25,1-1.75s0.5-1,0.5-1v-1.25c0,0,0.375-1.25,1.125-2.125l1.625-1.25l0.125-0.935
			c0,0-0.125-1.94-0.125-2.315s0-1.125,0-1.125s0.5-2.125,0.5-2.5s-0.125-1.625-0.125-1.625v-0.875V339c0,0,0,0-0.625-0.375
			s-1.125-1.625-1.5-2.125s-0.25-0.875-0.875-1.5s0,0-0.875-0.375l-0.75,0.375H1347h-1.125h-0.964h-0.661h-2.255l-4.995-4.002
			l-6,1.951l-1.5-1.951c0,0-7-4.498-7.75-5s-1.25,0-1.25,0l-3.25-2.499l-4.25-4.551l-5-1.699l-10.25-1.375l-3.75,1.375l-6.166-2.5
			l-1.834,1.125l-3,3.074c0,0,3.5,4.051,7,5.926s-2.166,3.125-2.166,3.125H1282l-3.25-3.125L1277,323l-3.296-2.334H1272l-1.5-1.717
			v-4.99L1265,310c0,0-3-3-3.75-4s-3.5-2.25-3.5-2.25l-2.75,1.033c0,0-1,0.717-1.456,1.217s-2.794,0-2.794,0h-4.202l-0.137,1.75
			c0,0-4.712,3.085-4.743,3.067s-2.914-1.742-4.168-0.949s-5.25,0-5.25,0l-2.25,1.915c0,0-4.25-0.533-5.75,0
			c-1.5,0.533-4.25,0-4.25,0l-5.152,0.873l-2.77,1.303l-8.73-3.959l-4.393-2.945h-3.455h-1.5c0,0-3-0.555-4.75-1.055s-3,0-3,0
			l-3.75,1.25l-1.563,1.082l-5.188-1.082l-312.417-57.417c0,0-4.167-0.667-4.449,0.5c-0.281,1.167-4.051,0.5-6.384,0.907
			c-2.333,0.407-5.53,0-5.53,0L843.36,253c0,0-5.86-0.167-6.391,0s-8.804,2.167-10.47,2.943s-2.231,0-2.231,0h-2.435l-4.667,3.224
			l-2.454,0.333l-3.546,2c0,0-4.667,1.667-6.454,2.834s-10.879-1.834-10.879-1.834l-4.333-1.667l-6.333-3l-6.623-1.891
			c0,0-4.71,1.557-5.71,0.557s-5.667,3.333-5.667,3.333s-10-2-11-2.333s-2.333-1-4.145-1.557l-0.015,0.006
			c-0.001,0.003-0.003,0.007-0.004,0.011L743.5,262l-2,2.334l-1.5,4.249L736.5,275c0,0-0.5,4-3,6.444c-2.5,2.444,0,2.889,0,2.889
			v2.833V292l-0.444,7l-3.556-3.556v-11.111h-3L722,274l-2.5-3.5l-3-2c0,0,0,0-2.667,0.083s-4.333-1.917-4.333-1.917l-4.333,3.667
			l-0.813,0.045c-0.035-0.044-0.069-0.088-0.105-0.132c-2.248-0.316-1.651-1.165-2.082,0.254c-0.481,1.587-3.553,0.684-3.667,3.667
			s-4,7.277-4,7.277l-9.667,4.723h-5.181c0,0-2.153,1.333-3.396,1.333s-3.92,2-3.92,2v3c0,0-0.836,2-3.503,2.944
			c-2.667,0.944-2.479,2.723-2.479,2.723s-1.521,1.333-1.938,2s-5.583,3.667-6.917,4.616c-1.334,0.949-10,7.178-10,7.178
			l-8.333-1.332l-7.138-1.967c0,0-5.011,1.724-6.291,1.967c-1.281,0.243-2.12,0.402-3.238,1.332c-1.118,0.93-2.501,0-2.501,0
			l-2.416,0.215c0,0-6.083,5.324-7.083,5.121c-1-0.203-5.333,0.871-9.178,0c-3.846-0.871-2.155,0-2.155,0h-3.333l-4.688-0.924
			l-6.646,0.924h-6c0,0-6-3.463-8.045-3.017l-11.622,3.017c0,0-5.333,1.204-8.333,0s-9.667-2.13-9.667-2.13l-3-3.206l-2.149-1.332
			c0,0-6.851-2.796-7.851-4.004S526.5,307.5,526.5,307.5s0,0-2.333-0.875s-3.392,5.335-3.392,5.335l-4.941,6.873
			c0,0-6.667,2.667-8.817,2.796c-2.149,0.129-3.865-3.062-4.852-2.692s-3.434,1.288-4.664,2.692
			c-1.229,1.404-6.879,1.636-9.546,2.635s0,0-3.068,1.15c-0.794,0.298-1.42,0.696-1.951,1.137l0.005-0.013h-0.772l-0.936,1.816
			l-1.882,1.812l-0.968,0.717v2.617c-1.359,0.506-3.549,2-3.549,2s-1.667,0.167-1.333,1.167s-0.044,3.167-0.044,3.167
			s-2.29,0.833-2.456,1.333s0.104,3.292,0.104,3.292l-0.158,0.875l-0.919,0.412l-3.193,2.421c0,0-0.167-0.167,0,0.833
			s0.833,3.333,0.833,3.333v0.833l-0.907,1.5l-1.093,1.667c0,0-1,0.833-1.333,1.5s-1.5,2.333-1.5,2.333v2H462l-1.667,1h-1.667h-1
			l-0.833-2l-1.333-2c0,0-1.667-2.167-1.5-2.833s-2.813-2.271-2.813-2.271l-0.75-1.438l-1.563-1l-1.063-0.375l-1.313-0.688
			l-1.438-1.688l-1.125-0.625l-1.603,0.027l-1.772-0.027l-1.92,1.46c-0.173,0.046-0.336,0.088-0.477,0.123
			c-1.333,0.333-2.333,0.333-3.333,1.463s-3-0.13-4.333,0s-4.333,6.537-5.333,6.87s-1.667,3.667-1.667,3.667l-6-1l-1.667-0.667
			h-1.983l-3.683,3.114c0,0-2.333,0.22-3.667,0c-1.334-0.22-7.765-0.288-8.366,0c-0.601,0.288-2.735,1.308-8.967,8.682
			s-2.667,2.204-2.667,2.204l-16.333,18.667c0,0-8.667-7.667-10.333-9.708s-3.217,0-3.217,0s-3.343,1.598-7.33,3.503
			c-2.932,1.402-2.519,0.742-2.093,0.295c-0.529,0.497-1.656,1.497-2.638,1.966c-1.333,0.637-2.057,4.277-3.39,6.407
			s-3.667,5.328-3.667,5.328s-3.333-1.125-7.53-4.763c-4.196-3.638-3.037,1.121-3.037,1.121l-1.396,0.516l-7.369,3.126
			c0,0-8.4,2.694-9.333,2.875c-0.617,0.12-1.4,0.504-2.368,0.797c-6.326-0.195-7.109,2.864-7.109,2.864s-2.189,1.951-2.681,3.079
			c-0.491,1.128-1.842,2.927-1.842,2.927l-2.333,2.667c0,0-2.333,2.333-4,3l-1.667,0.667l0.333,7.667l-1.106,3.119l-1.093,3.324
			l-0.8,5.558l-4.667,2.667l-0.484,2.795l-2.183,3.872c0,0-1.667,2.667-2,3.667s-2.667,2.333-2.667,2.333l-2.104,1.667l-1.562,2
			v5.333l-4.667,3l-0.667-1.667l-2.333-2.209L255.5,464.5c0,0-3.333-4.667-3.333-5.667s-0.333-1.333-0.333-1.333l-1-1.667l-4-4.333
			l-1.667-3.333l-0.667-3l-1.667-3c0,0-1.333-0.667-2.333-1.667s-0.333-2.333-0.667-3.333s-0.333-1.333-1.333-2
			s-1.333-1.206-1.333-1.206l-1.667-4.128l-5.079-1.954l0,0l-3.587-1.38c-1-1-6-2-7-1.667s-4.333,1-4.333,1s-1.333,0.667-3.333,1
			s-2.01-0.174-2.01-0.174l-4.99,8.174c0,0,0,0-3.502-0.872s-5.164,0-5.164,0l-5.667,5.206l-4.333,3.667c0,0-3.667,0-9.333-0.333
			s-1.667,2.128-1.667,2.128s-3.667,2.539-5,2.539s-3.484,0.333-3.484,0.333v1.667c0,0-6.516,3-7.516,2.459s-2,0-2,0l-4.333,2.207
			c0,0,0,0-1.333,1.98c-1.333,1.981-2.667,1.687-4,2.02s-3.625,2.14-4.667,2.333s-3.316,1.129-3.316,1.129s-3.017-1.129-4.684-0.462
			s-1.24,2.783-1.24,2.783l-3.41,4.883l-2.684,0.667c0,0,0,0-3,0s-2.671,0.333-2.671,0.333s0.26,3.333-5.663,4.249
			s-3.333,2.085-3.333,2.085s-2,1-2.667,3.292s-1.667,3.374-1.667,3.374l-3.333,1.333c0,0,0,0-1.434,3.707s-3.855,3.088-3.855,3.088
			l-1.59,1.274l-4.122,5.726l-1,2.205c0,0-4.667-5-6.691-4.027c0,0-6.642,0.36-8.975,0.36l-6.65,1.461v2.556
			c0,0-9.017,4.316-11.017,5.649s0,0-1-1.205s-1.316,0-1.316,0l-6.017,0.869c0,0,0,0-0.935,0.247s-4.731,0.423-6.398,2.756
			s-1.518-0.667-1.518-0.667s-0.816,2.667-2.799,2.667s-6.576-0.192-6.576-0.192l-0.44,5.192l-2,0.667l-5.333,1l-1.667,1L17.5,520.5
			c0,0-3.333,0-4.333,0s-2.667,2.431-2.667,2.431L9.167,524.5l-4.333-1.569l-1.334,5.03H0V1080h1920l1.25-542L1920,536.5z"/>
		<g id="detalles_montaña_de_atras" opacity="0.05">
			<g id="detalles_2_">
				
					<linearGradient id="SVGID_2_" gradientUnits="userSpaceOnUse" x1="1637.4941" y1="514.2041" x2="1741.6787" y2="514.2041" gradientTransform="matrix(1 0 0 -1 8.3398 1056.04)">
					<stop  offset="0.295" style="stop-color:#B56966"/>
					<stop  offset="0.47" style="stop-color:#CC7972"/>
				</linearGradient>
				<path fill="url(#SVGID_2_)" d="M1677.25,425.25v8l10.021,10.211v1.289L1689,447v3.417l3.25,0.333c0,0,0.333-2.917,0-3.5
					s3.214-1.584,3.214-1.584l2.536-0.183l1.25-2.733h1.25l7.839-2.719l5.574,0.456c0,0,2.003-0.57,2.087-1.486s5.5,1.75,5.5,1.75
					l3.5-1l6.512-4.75l8.539-1.764l1.622,0.62c0,0,6.076-1.022,7.827-0.605s-1.499,8.917-1.499,8.917v3.317v1.35l0.833,2.167
					c0,0-0.499,1-0.833,1.75s-2,4.417-2,4.417l0.166,2.833l-1,4.5l-2,2.167l0.334,4c0,0-1,4.333-1.5,5s-1.95,5.167-1.95,5.167
					s-0.717,3-0.717,4s0,7.5,0,7.5s0.001,0.333-1.333,2.167s-1.833,1.5-2.5,2.667s-1.5,1.5-1.5,3.167s-1.619,3.833-0.811,4.667
					c0.81,0.834,0,3,0,3s-0.523-0.024-1.523,1.071c-1,1.095-2.333,2.929-2.333,2.929s-2,0.5-2,1s-1.333,4.833-1.333,4.833
					s-0.167,0.833-0.667,1.5s-1.001,1.667-1.167,2.167s-4.833,8-4.833,8l1.833,3.5l0.167,5.167l-6,3.833l-2.116,3.333v2.417
					l-4.384,2.083l-1.167-2.083c0,0-1.05-4.573-2.612-0.729c-1.563,3.844-1.563,3.845-1.563,3.845s0.675,4.634,0.675,5.134
					s0.667,1.167-0.833,4.5s-1.333,5.167-3,8.167s-4,11.5-4,11.5l0.167,5.333l2.667,0.667l2,1l-0.834,3.167h-2l-4.06,3l-2.44,4
					l-1.666,4.166h2c0,0,1.382-1.332,2.106-1.666c0.726-0.334,3.227-3,3.227-3l2-3.167c0,0,3.667-2.667,4.5-4s1.667-3.5,1.667-3.5
					l1.833,1.167c0,0-0.333,1.166-0.333,1.666s-4.334,5.5-4.334,5.5s-1.166,2.166-1.833,3s-3.499,2.166-4.333,4
					s-2.394,5.167-2.394,5.167s-2.607,3-3.44,4s-3.334,2.333-3.5,3.833s-4.5,4.833-4.5,5.5s1.5,1.666,1.5,3.75
					s-0.166,3.75-0.333,4.25s-1.167,1.833-2,3s-2.501,5.5-2.501,5.5s-2.349,1.857-2.09,3.846c0.258,1.989-0.993,5.32-0.993,5.32
					l-2.583,3.168c0,0-2.594,0.194-2.396,1.166c0.198,0.972-0.27,1.834-0.27,2.334s0-0.333,0,0.5s-0.667,0.666-0.667,1.166
					s-3,5.5-3,5.5v1h-11.833c0,0-4.001-1.667-4.834-2s-5-3.666-5-3.666s0.998-7.166,2.666-8.5s0-7,0-7l0.668-3.5l0.73-1.5
					l1.436-6.167l0.137-6.379l0.363-5.121c0,0,0.833-4.167,1-4.667s0.834-2.833,0.834-2.833s0.666-3.834,0.666-4.667
					s-0.334-4.666,0-6.333s0.334-3.999,0.834-4.333s2.332-3.667,2.332-3.667s0.018-3.868,0-4.667c-0.019-0.799-0.334-4.666,0-5.166
					s0.168-2.501,0.668-6.334s0.666-5.833,0.666-5.833s0.5-2.333,0.5-4.833s-1-5.167-1-5.167s-2.167,0.331,0-5.001
					s3.334-7.499,3.334-7.499l1.333-3.667c0,0,0-2.333,0-2.833s-0.5-2.5-0.5-3s0.333-4.5,0.333-4.5l-0.477-3.078
					c0,0-0.023-1.255-0.023-2.755s0-1.833,0-2.5s-0.333-1.667,0.167-1.667s4.333-6.667,4.333-6.667s0-3.857,0-5.929
					c0-2.072,1-9.571,1-10.738s-0.167-3,0.333-6s1.667-8,1.667-8.5s-0.167-7.667-0.167-8.5s1.334-4.167,1.334-4.667
					s1.5-5.167,1.5-5.167s0.333-3.833,0.333-4.833s0.166-2.667,0.333-4s0.5-2.833,0.5-2.833l1.167-8.167c0,0-0.167-4.5-0.167-5
					S1673.833,435.5,1674,434s0.167-3.5,0.167-3.5l1.667-5.333L1677.25,425.25z"/>
				
					<linearGradient id="SVGID_3_" gradientUnits="userSpaceOnUse" x1="595.7393" y1="711.582" x2="611.8667" y2="711.582" gradientTransform="matrix(1 0 0 -1 8.3398 1056.04)">
					<stop  offset="0.15" style="stop-color:#B56966"/>
					<stop  offset="0.375" style="stop-color:#CC7972"/>
				</linearGradient>
				<path fill="url(#SVGID_3_)" d="M604.079,351.296l10.271-11.47l3.607-2.198c0,0,1.023,0.331,2.042,0s-2.042,9.637-2.042,9.637
					v4.031"/>
				
					<linearGradient id="SVGID_4_" gradientUnits="userSpaceOnUse" x1="1610.3262" y1="539.6851" x2="1630.5377" y2="537.2034" gradientTransform="matrix(1 0 0 -1 8.3398 1056.04)">
					<stop  offset="0.42" style="stop-color:#B56966"/>
					<stop  offset="0.755" style="stop-color:#CC7972"/>
				</linearGradient>
				<path fill="url(#SVGID_4_)" d="M1651.75,414l-1.417,2.667c0,0-0.833,6.333-0.833,6.833s-1.5,8.667-1.5,9.167
					s0.333,7.666,0,9.333s-1.832,9.167-2.166,10.333s-0.667,2.833-0.834,5.5s-2,8.833-2,11.833s-1.167,12.167-1.167,12.667
					s0,9.333,0,9.333L1638.5,514.5c0,0-2,5.333-2,6.333s-2.334,11.667-2.334,11.667s-2,5.417-2,6.042s-2.333,8.958-2.333,8.958
					v2.333v4.667v1c0,0,1.667,0.999,1.667,2.333s-1.667,4.334-1.667,4.334s2,1.667,0,4s-1.667,6-2,7s-1.667,5.333-1.667,5.333
					s-3,2-3,3s1.666-0.999,0,3.667S1620.751,597,1620.751,597l-1.251,7.574c0,0-4.459,0.893-2.633,2.398s-1.701,4.026-1.701,4.026
					l-3.333,8l-3.333,4.584h-3l2-4.584l2.333-3.167L1610.5,611l2.333-12.5l0.333-4.333l1-6.334c0,0,1.334-9.666,2.334-10.666
					s4.169-4.333,4.251-7s1.083-5.334,1.749-8.667s1-12,1-12l1-9.5c0,0,0.75-0.5,0.75-1.25s2-4.75,2-5.5s0-4.75,0-4.75l-1.25-2.75
					c0,0-0.5-3,0-3.75s0.5-5.75,0.5-5.75s0-4.75,0-5.75s-0.5-4.75,0-6.25s1.25-6.25,2.125-7.25s1.375-1.836,1.375-4.668
					s0-8.082,0-10.082s0-6.75,0-8s0.5-4.25,0.75-5s1.75-4.75,1.75-6s-1.75-8.25-2.25-9.5s-1.625-4-1.625-4s-0.125-0.75,0-3
					s0-3.75,0-3.75l3.625-8.25c0,0,1.25,1.75,0-2.75s-1.25-6.833-1.25-6.833l0.25-1.417l1-1.5L1634,419l0.25-1.25v-1.25l-1.415-7.25
					l7.167,3.313l3.248,4.771l6.5-3.334H1651.75L1651.75,414z"/>
				
					<linearGradient id="SVGID_5_" gradientUnits="userSpaceOnUse" x1="1814.625" y1="394.2314" x2="1862.7324" y2="384.8802" gradientTransform="matrix(1 0 0 -1 8.3398 1056.04)">
					<stop  offset="0.335" style="stop-color:#B56966"/>
					<stop  offset="0.605" style="stop-color:#CC7972"/>
				</linearGradient>
				<path fill="url(#SVGID_5_)" d="M1866,492.5l-11,4.5l2,9.332l3.5,7.168c0,0,1.5,4,0,5.5s-5.5,4.5-5.5,4.5V536v4
					c0,0,1-5.334,0,1.833s-1,7.167-1,7.167l-2.5,13v7.5v8v8v4.5c0,0-2.5,3.5-2.5,7s0,6.5,0,6.5v6.084h3v12.166
					c0,0,1-1.582-0.5,1.834S1846,630,1845,633s-2,13-3,16s0,23,0,23l-8,22c0,0,1,2.441,0,3.971c-1,1.53-3,24.279-3,24.279V727
					c0,0-2.5,2.5-3,4s0,5.25,0,5.25s1.555,4.75-0.223,8.75c-1.778,4-10.277,9.5-10.277,9.5s2,3.5,0,5.5s-2,8.5-2,8.5
					s1,3.078-2.5,11.789s-2.5,4.711-3.5,8.711s-0.464,17.684-4,19.5s-4.5,4-5,6s-3.5,6.5-3.5,6.5l3.5,14.5l2-8.5l4.824-7.798
					c0,0,0.176-2.202,1.676-2.702s6-7.5,6-7.5s3.5-4,5-6s7.5-10.5,7.5-12s1.5-7.424,2-10.712s2-8.788,2-8.788s0-1.5,4.5-7s8-11,8-11
					s4-23,4-22.5s0-6.5,0-6.5l5-7.337l4-12.663c0,0,0.5-4.559,0.5-6.529c0-1.97,1-10.471,1-10.471s3-10.5,4.5-11.5s5.5-8,5.5-8
					l4-16.5l3-11.463l2.5-7.87V613l4-10.5c0,0-3-8,0-9.5s6.5-11.5,6.5-11.5s-0.5-7.5,0-9s0-9.5,0-9.5l2.5-10.458l3-8.042l3.5-9.5
					v-5.5l2.5-10.75l-3.5,0.917l-0.667,1l-0.833,0.5l-2.667,0.333l-2.666-0.167l-2-0.333l-2.334-0.833l-1.5,0.5l-1,0.5l-0.833,0.5
					l-1.333,0.833l-2.167,2l-0.833,0.5c0,0-0.168-0.5-0.334-1s-1.5-2.5-1.5-2.5l-0.166-1.167l-1-1.333c0-1,2.166-4.333,2.166-4.333
					l-2.833-3c0,0,0.501-0.5,0.667-1.167s0-3.333,0-3.333l-1.167-2.667l-2-3.333l-0.833-1.833
					C1870.667,499.333,1869.692,490.989,1866,492.5z"/>
				
					<linearGradient id="SVGID_6_" gradientUnits="userSpaceOnUse" x1="1408.9775" y1="638.4453" x2="1458.7303" y2="632.3364" gradientTransform="matrix(1 0 0 -1 8.3398 1056.04)">
					<stop  offset="0.42" style="stop-color:#B56966"/>
					<stop  offset="0.755" style="stop-color:#CC7972"/>
				</linearGradient>
				<path fill="url(#SVGID_6_)" d="M1475.778,348.927v3.823c0,0-0.278,3-1.028,3.5s-1.5,1.75-1.5,1.75v3l-3,4.25c0,0-1,2-1.5,3
					s-1.75,1.25-2,2.25s0,4.75,0,4.75l-4.25,10.5c-2.25,1.5-3.5,2.25-3.5,2.25l-1.5,3.75l3.75,5l3,3l-8,9.5c0,0-3.25-0.75-4.5,0
					s-3.75,0.75-4,1.5s4.25,9,4.25,9l5.25,3.5l-8.5,6.5h-8.25c0,0,0,6,0,6.75s3.75,3.25,4,4s-0.236,2.45-1.993,4.85
					c-1.757,2.4-6.757,6.65-6.757,8.9s-1.75,15.5-2,16.25s-2.75,7-2.75,7s-0.418,7.25-1.834,8s-11.666,8.001-11.666,8.001l-7.747-14
					L1413,469.25l1.25-3.5c0,0,0.5-2.25,0.5-3s-0.5-6.75-0.5-7.5s-3.25-3,0.75-4s4-1,4-1s2.25-3.5,3-6.5s0.375-11.563,0.375-11.563
					s1.875-1.11,3.125-4.523s1.25-4.485,1.25-6.449S1427,417,1426,414.5s-2.5-5.25-2.5-5.25s4.832,0.5,5.666-2.5
					s2.834-10.5,2.334-12.25s-1.418-4.25-2.334-5.5s-1.166-2.75-1.166-2.75l1.166-2.25v-7v-1.25c0,0-3.834-2,0-3.5
					s4.834-1.25,6.584-2s5-2.75,5-2.75l2.016-2.25c0,0,1.484-4.25,2.234-4.75s3.25-5.25,3.25-5.25l4-3.75l2.252,0.049l0.498-0.465
					l1.207,0.502c0,0,2.628-0.669,3.794,0.081s-0.75,0.917-0.75,0.917s0.166,0.25-0.084,0.417s-1.25,0.917-1.25,0.917v0.417
					c0,0,0.083,0.667-0.25,1s-2.583,1.667-2.583,1.667v0.333v0.417v0.333c0,0,0,0.5,0,0.833s-0.583,1.333-0.583,1.333l-0.084,0.333
					l0.167,0.667h0.75h1l1-0.583l1-0.583l1.333-0.583l0.417-0.917c0,0,0.584-0.584,0.917-0.667s1.166-0.667,1.166-0.667l1.667-0.5
					l0.375-1.251c0,0,0.875-0.249,1.125-0.499s0.75-0.917,1.25-1.083s2.75-1.5,2.75-1.5l2.5-1.667l0.667-0.333
					C1472.501,350.417,1473.7,348.315,1475.778,348.927z"/>
				
					<linearGradient id="SVGID_7_" gradientUnits="userSpaceOnUse" x1="1318.1992" y1="692.9258" x2="1365.3414" y2="671.9368" gradientTransform="matrix(1 0 0 -1 8.3398 1056.04)">
					<stop  offset="0.37" style="stop-color:#B56966"/>
					<stop  offset="0.615" style="stop-color:#CC7972"/>
				</linearGradient>
				<path fill="url(#SVGID_7_)" d="M1385.5,345.063l-0.875,0.813v0.875c0,0-0.5,1.755-0.875,2.065s-1.625,1.185-1.875,1.56
					s-1.375,1.75-1.375,1.75v1.25c0,0,0.375,1.5,0,2.125s-0.625,5-0.625,5l1.5,2.625c0,0,0.25,2.5,0.25,3s-1,1.75-1.75,2.75
					s-2.625,2-3,2.25s0.375,0.375-1.625,0.75s-4.375,0.625-4.375,0.625s-2.25,0.875-2.625,1.5s-3.25,2.125-3.25,2.125l-2.375,4.25
					c0,0,0.625,0.5,0,1.5s-4.625,4.5-4.625,4.5l-4.25,1.5c0,0-1.25,0.75-2.125,2.125s-5.25,5-5.25,5s-3.25,6-3.625,6.5
					s-5.875,4.375-6.375,4.625s-1.875,1.5-1.875,1.5h-8l-2.375-0.875c0,0-1.125-0.75,0-2.625s1.125-4.125,1.125-4.125
					s-1.75-3.125-1.625-3.875s1.375-3.875,2.875-5.25s2.875-5.75,3.375-6.5s0.125-3.625,0.125-5.625s0-4.5,0-4.5
					s2.125-2.625,2.875-4.75s1-4.75,1-4.75l-0.625-3.75c0,0-1.25-4-1.25-4.375s-0.5-0.5-0.5-1.5s-0.125-2.75,0-3.125
					s0.375-0.875,1.125-1.25s2.75-1.25,2.75-1.25s0.75-0.245,1.375-0.685s1.125-1.19,1.625-1.815s2.125-2.375,2.375-2.75
					s1.375-1.375,1.625-1.875s0.25-5.625,0.25-5.625l-0.63-1.75h3.88H1347h1.875l0.75-0.375c0.875,0.375,0.25-0.25,0.875,0.375
					s0.5,1,0.875,1.5s0.875,1.75,1.5,2.125S1353.5,339,1353.5,339v1.375v0.875c0,0,0.125,1.25,0.125,1.625s-0.5,2.5-0.5,2.5
					s0,0.75,0,1.125s0.125,2.315,0.125,2.315l-0.125,0.935L1351.5,351c-0.75,0.875-1.125,2.125-1.125,2.125v1.25c0,0-0.25,0.5-0.5,1
					s-1,1.75-1,1.75l-0.5,0.75l-0.125,1.25l-0.125,1.875h1.125l1.183-1.25h0.817l1.875-0.75l0.875-0.125l1.875-0.375l1.375-1.5
					c0,0-0.125,0,0.75-0.625s1.625-1,1.625-1s0.25-0.125,0.625-0.25s1.5-0.25,1.5-0.25h1l1.875,0.125c0,0,1-1.25,1-1.75
					s1.125-2,1.125-2l1.375-0.375L1370,350.5c0,0,1.125-0.5,1.5-0.875s1-0.81,1-0.81l1.125-0.69l2.125-2.5c0,0,0.125-0.625,0.625-1
					s1.738-2.827,1.738-2.827s0.12,0.408,0.637,0.202s1.5,1.125,1.5,1.125l3.25,2.25C1383.5,345.375,1384,343,1385.5,345.063z"/>
			</g>
			<g id="detalles_3_">
				
					<linearGradient id="SVGID_8_" gradientUnits="userSpaceOnUse" x1="488.7725" y1="657.2275" x2="440.7839" y2="647.8995" gradientTransform="matrix(1 0 0 -1 8.3398 1056.04)">
					<stop  offset="0.47" style="stop-color:#B56966"/>
					<stop  offset="0.635" style="stop-color:#C87670"/>
				</linearGradient>
				<path fill="url(#SVGID_8_)" d="M482.938,326.539h-0.771l-0.936,1.816l-1.882,1.812l-0.968,0.717v2.617
					c-1.359,0.506-3.549,2-3.549,2s-1.667,0.167-1.333,1.167s-0.044,3.167-0.044,3.167s-2.29,0.833-2.456,1.333
					s0.104,3.292,0.104,3.292l-0.157,0.875l-0.919,0.412l-3.193,2.421c0,0-0.167-0.167,0,0.833s0.833,3.333,0.833,3.333v0.833
					l-0.907,1.5l-1.093,1.667c0,0-1,0.833-1.333,1.5s-1.5,2.333-1.5,2.333v2H462l-1.667,1h-1.667h-1l-0.833-2l-1.333-2
					c0,0-1.667-2.167-1.5-2.833s-2.813-2.271-2.813-2.271l-0.75-1.438l-1.563-1l-1.063-0.375l-1.313-0.688l-1.438-1.688
					l-1.125-0.625l-1.603,0.027l-1.772-0.027l-1.921,1.461l0,0l0.357,1.585l-0.333,0.871v2.167l1.833,3.333c0,0,0,0.667,0.333,1.667
					s3,3.833,3,3.833s-0.167,0.5,0.167,1s0.833,2,1.167,2.667s0.333,2.667,0.333,2.667s0,2,0.667,2.5s1.667,1.5,2.167,1.667
					s3.5,2.666,2.333,3.833S447,381,447,381s2.5,3.667,3,4.167s2.667,0.167,3,3.167s0.833,4.667,0.833,4.667
					s0.167,3.167,0.167,3.667s-0.167,1.833,0.833,2.833s2,1.5,2.333,2.167s0.5,6.333,0.5,6.333s0.167,1.667,0.5,3s1,2.333,1.167,3.5
					s0.438,3.167,0.969,4.167c0.531,1,1.031,2.333,1.031,2.333l3.5,5.333c0,0,0.333,1.833-0.833,2.667s-3.697,3-3.697,3l4.531,6.167
					l1.833,2.167c0,0,0.167-3.5,0.333,1.5s0.833,6.167,0.833,6.167s-0.333,0.5,0.167,1.667s2.333,3.5,2.667,4s1,0.833,1.5,1.5
					s1.667,2.833,1.667,2.833s-1,0.334,0,2.667s1.333,6.833,1.333,6.833s-0.486,0.055,0,1.167s-0.028-0.108,0.486,1.112
					c0.514,1.22,1.181,1.887,1.514,2.721s1.334,1.667,1.667,2.167s1.167,1.167,1.167,1.167l0.667,0.833c0,0,2.21,0.333,2.272,0
					c0.062-0.333,1.395-3.333,1.395-3.333L488,473h1l2.167,0.167l2-0.333h1.5c0,0-0.333-4-0.833-4.833s-1.333-2.5-1.333-3.167
					s-0.632-1.145,0-2.833s2.167-4,1.167-4.833s-3.167-1.5-3.167-2.667s1.5-4.5,1.667-5.333s0.667-3.5,0.667-4.167
					s-0.167-2-0.167-2.5s-0.5-2.667-0.5-3.167s-0.833-5.167-1.167-5.833s-1.167-2.167-1.5-2.667s-1.667-3-1.667-3
					S486.667,426,486,425.667s-2-3.334-2-4.667s1-3-1-3.5s-5.167-2.667-5.167-2.667l-1-1l-1.5-3.167l0.167-2l2.333-1l0.333-0.667
					l3,0.333c0.833,0,2.333-0.833,2.333-0.833s0.333-3.167,0.333-3.667s-0.333-4.167-0.333-5.333s-0.833-3.333-0.833-4.667
					s-0.833-7.667-0.833-7.667s-1.667,1.5-2.167,1.5S475.833,385,475.833,385s-2-3.167-1.333-5s1-2.833,0.833-3.5
					s-2.167-3.833-2.167-3.833s0.167-4,0.667-4.5s1.333-2,1.333-2.5s1.333-3.5,1.333-3.5s0.833-3.667,0.833-5.5s0-4.741,0-5.371
					s0-1.963,0-2.463s0.333-3,2-3.667S481,346,481.833,343s0.833-5.38,0.833-5.38l0.667-3.453l0.5-2V330.5l-2-0.5L482.938,326.539z"
					/>
				
					<linearGradient id="SVGID_9_" gradientUnits="userSpaceOnUse" x1="741.6812" y1="693.4033" x2="693.8257" y2="693.4033" gradientTransform="matrix(1 0 0 -1 8.3398 1056.04)">
					<stop  offset="0.42" style="stop-color:#B56966"/>
					<stop  offset="0.615" style="stop-color:#C87670"/>
				</linearGradient>
				<path fill="url(#SVGID_9_)" d="M750.021,255.943l-0.854,3.557l0.854,7.167L746,273.5v7.944c0,0,0.5,4.389,0,5.722
					s0,8.278,0,8.278s-3,10.72-2.5,14.888s-1,28.585-2,34.126s1.5,27.2,0,29.871S742.513,402,741.256,407s0.755,25.399-0.25,27.7
					s5.151,4.7-0.177,14S726.5,469.333,726.5,469.333V467c0,0,2.5-29.668,2.5-33.334s-2.5-28.166-2.5-28.166l-9.508-33.504
					c0,0-3.825-10.885-3.159-17.19c0.666-6.305-0.667-17.306,0-19.806s-0.167-23.336,0-24.668s0-14.333,0-14.333s0.449-2.5-0.192-4
					c-0.641-1.5,1.642-3.167,0-4.833c-1.641-1.666-6.648-10.667-6.648-10.667l-4.826-6l3-0.167l4.333-3.667c0,0,1.667,2,4.333,1.917
					s2.667-0.083,2.667-0.083l3,2l2.5,3.5l4.5,10.333h3v11.111l3.556,3.556l0.444-7v-4.833v-2.833c0,0-2.5-0.444,0-2.889
					c2.5-2.445,3-6.444,3-6.444l3.5-6.417l1.5-4.249l2-2.334L750.021,255.943z"/>
				
					<linearGradient id="SVGID_10_" gradientUnits="userSpaceOnUse" x1="303.3413" y1="517.4561" x2="220.4745" y2="516.0096" gradientTransform="matrix(1 0 0 -1 8.3398 1056.04)">
					<stop  offset="0.47" style="stop-color:#B56966"/>
					<stop  offset="0.66" style="stop-color:#C87670"/>
				</linearGradient>
				<path fill="url(#SVGID_10_)" d="M306.487,404.297l2.68,4.87c0,0,0.667,2.666,0,4.333s-1.192,6.667-1.192,6.667l1.488,5l-1.488,7
					l-3.808,6.333v6.333c0,0,3.964,4.333,2.648,5.333c-1.316,1-2.648,7.333-2.648,7.333s-1.667,1.667-1.667,4s0,7.334,0,8.667
					s0.333,5.964,0,6.648c-0.333,0.684,2,2.685,0,4.352s-3.333,3.666-3.333,5.333s0,6.333,0,6.333s2.333,2.667,2.333,3.667
					s0,2.667,0,2.667l-2.333,2.667c0,0,0-2.667,0,4.667s0,12.333,0,12.333s-0.667,2.333,0,3.333s-0.296,5.333-0.296,5.333
					s1.371,1,0,2s-4.704,4-4.704,4s-0.333-2.666,0,2.667s3.333,10,3.333,10s0,1.999,0,3.333s-1.667,3.667-1.667,3.667l1.333,15.333
					l-2,5l-1.147,2.667v2.667h1.481c0,0-3,3.666-3,4.666s0,4,0,4v4c0,0-2,2.334-2.667,3.334s3,6,3,6s0,1.666,0,2.666
					s0,1.334,0,2.334s-1.667,3.666-1.667,3.666l0.333,5.667c-0.667,3-0.667,3-0.667,3l-1.081,1.333c0,0-0.748-0.167,0,2.25
					s0.748,2.417,0.748,2.417s1.333,0.667,1.333,2.667s-0.667-0.333,0,2s1.77,4.879,1.015,5.18s-0.349,0.153-0.682,2.153
					s-0.333,3.333-0.667,5.333s-2.08,8.667-2.08,8.667s1.254,9,0,10s-0.587-0.689-3.92,4.655c-3.333,5.344-5.333,7.346-6.667,8.012
					s-7-2-8,0s-10,0.109-10,0.109s-1,0.225,0-1.109s0.667-7.012,0.667-7.012s-2.555-1.289-1.111-3.307
					c1.444-2.017-4.556-9.683-4.556-9.683v-2c0,0-0.667-6.199,0-6.267c0.667-0.068-0.296-4.4-0.296-4.4V635.5l-2.037-0.666l2-2.334
					c0,0,0.667,1,1.333-5s0.667-6,0.667-6l0,0l-1.667-4.666l-4.667-7.334c0,0,1.333-4,2.333-4.333s2.667-3.333,3.333-5
					s0.667-5.999,0.667-7.333s0-3.334,0-3.334s-0.667-2.229-0.667-3.115c0-0.885-0.333-7.551-0.333-7.551l-1.667-2l2-5.334
					c0,0,0-3,0-4s-0.667-3.666-0.667-3.666l1.667-2.667v-4v-3.333l-1-3.667l-0.33-4.667l0.333-3c0,0,0.333-2.95,0.333-3.475
					c0-0.525-2.333-4.858-2.333-4.858l-3.667-3.333v-9.667v-4.333l-15-7.799V501.5l4-5.333v-2.333c0,0,0-3,0-4.333s-4-9-4-9v-11.333
					c0,0,2.333-3.667,0-5.333s-2.667-4.667-2.667-4.667V453.5v-6.333c0,0-3.667-1.667-2.667-4s-0.173-6.333-0.173-6.333v-2.667
					l-3.827-7.667l8.667,3.333l1.667,4.128c0,0,0.333,0.539,1.333,1.206s1,1,1.333,2S239.5,439.5,240.5,440.5
					s2.333,1.667,2.333,1.667l1.667,3l0.667,3l1.667,3.333l4,4.333l1,1.667c0,0,0.333,0.333,0.333,1.333s3.333,5.667,3.333,5.667
					l5.333-1.875l2.333,2.209l0.667,1.667l4.667-3v-5.333l1.562-2l2.104-1.667c0,0,2.334-1.333,2.667-2.333s2-3.667,2-3.667
					l2.183-3.872l0.484-2.795l4.667-2.667l0.8-5.558l1.093-3.324l1.106-3.119l-0.333-7.667l1.667-0.667c1.667-0.667,4-3,4-3
					l2.333-2.667c0,0,1.351-1.8,1.842-2.927c0.491-1.127,2.681-3.079,2.681-3.079S300.14,404.095,306.487,404.297z"/>
				
					<linearGradient id="SVGID_11_" gradientUnits="userSpaceOnUse" x1="103.5063" y1="400.9316" x2="83.4259" y2="400.5812" gradientTransform="matrix(1 0 0 -1 8.3398 1056.04)">
					<stop  offset="0.47" style="stop-color:#B56966"/>
					<stop  offset="0.66" style="stop-color:#C87670"/>
				</linearGradient>
				<path fill="url(#SVGID_11_)" d="M108.833,482.5v7.333c0,0,0.333,11.333,0,11.333s-1.667,6.402-3,7.868s0,9.3,0,9.3
					s0.148-0.766-0.593,4.7c-0.741,5.466,0,15.986,0,15.986l3.741,28.813c0,0-2.186-12.668,0,5.666s0,26.885,0,26.885
					s-0.91,6.116,0.971,9.449c1.881,3.333-1.881,12.666,0,16.666c1.881,4-0.795,8.113,0.543,12.058
					c1.338,3.943-1.031,6.61,0.153,9.276s0.689,4,0.27,10s-3.119,9.999-2.769,12.666s0,8.009,0,8.009v9.38c0,0,0.983,5.277,0,7.611
					s-3.238,6.389-3.238,6.389v7.611v8.944c0,0,0.412,5.063,0,7.56S104.5,728.5,104.5,728.5s-1.333,6,0,8.667
					s3.147,5.333,3.147,5.333s-0.186,3.166,0,5.25s0,8.75,0,8.75s-0.186,3.166,0,5.25s-1.916,3.444,0,8.75s-1.52,14.637,0,16.985
					c1.52,2.348,2.629,5.65,3.741,14c1.112,8.349-12.221,26.507-12.221,26.507s0.667-5.826,0-8.992s-1.333-6.89,0-12.361
					c1.333-5.471,1.333-19.152,1.333-19.152L97.486,776c0,0,0.986-10.612,0-10.723c-0.986-0.111,0-9.443,0-9.443
					s0.109-8.668-0.438-10.334c-0.547-1.666,0-11,0-11s2.786-4.326,2.786-8.496s0-9.83,0-14s0-15.504,0-16.504s0-13,0-13
					s-4.058-11.449-3.029-15.058c1.029-3.609,2.637-14.275-0.167-16.275c-2.804-2-4.138-10.001-4.138-16.667s0-12.75,0-12.75
					s-3.333-10.584,0-15.25s5.333-20.115,5.333-20.115L98.5,573.5c0,0,0-10.999,0-11.666s0-14.125,0-14.125s0-4.836,0-8.689
					c0-3.853,0-15.985,0-15.985v-7.868l-1.333-14l1.455-9.264L108.833,482.5z"/>
				
					<linearGradient id="SVGID_12_" gradientUnits="userSpaceOnUse" x1="41.5269" y1="382.7031" x2="4.4431" y2="382.0558" gradientTransform="matrix(1 0 0 -1 8.3398 1056.04)">
					<stop  offset="0.47" style="stop-color:#B56966"/>
					<stop  offset="0.66" style="stop-color:#C87670"/>
				</linearGradient>
				<path fill="url(#SVGID_12_)" d="M46.958,506.69v8.476v3.167c0,0-5.125,8.166-5.125,10.166s0,5.333,0,7.333s0,11.875,0,11.875
					s0,11.209,0,14s0,12.125,0,17.458s0,9.333,0,15.333s0,12.667,0,16.667s0,5.833,0,10.583s2,4.218,0,7.817
					c-2,3.599-6,8.216-5.333,13.573c0.667,5.358-0.815,10.852-0.074,12.104c0.741,1.253-1.168,6.563-0.213,9.576
					c0.955,3.012-0.834,6.377-0.273,10.693c0.561,4.317,1.882,8.428-0.112,12.372c-1.994,3.945-3.994,9.547-3.994,11.746
					s0,9.865,0,9.865v4l-3.333,7l-6,7c0,0-2,8.334,0,12.334s1.333,10.666,2,12.666s1.333,11.555,1.333,12.777
					c0,1.222-1.333,6.557-1.333,8.557s-4.445,3.67-2.89,8.17c1.555,4.5-0.33,19.485-0.33,19.485s-2.552,0.625,0,5.152
					c2.552,4.528,1.886,8.862,2.552,12.362s0.667,4.484,0.667,8.992s0,12.508-1.333,12.508s-1.333,0-1.333,0s-0.04-2-1.687-4
					s0-8.508,0-8.508l-0.732-7.354c0,0-4.248-5.473-4.248-10.139s0-6.696,0-9.015c0-2.319,0-5.683,0-14
					c0-8.318,1.333-16.099,0-22.208c-1.333-6.11,0-17.527,0-17.527s-1.852-14.028-0.593-15.306
					C15.833,731.165,20.5,713.5,20.5,713.5s-2-10.89-2-11.611c0-0.721,2-17.389,2-19.389s-0.667-16.689-0.667-17.678
					c0-0.989-2.667-9.576-2.667-9.576l3.333-11.679c0,0-7.333,11.712,1.333-5.012c8.666-16.723,8.713-19.39,8.713-19.39
					s-1.287-9.334,0-12.667s-1.287-8.666,0-10.666s0-9.449,0-9.449v-5.218V568.5c0,0-3.953-3.332,0-6.666s5.953-14,5.953-14v-14.667
					v-5.333v-9.5l2-3.167l-0.015-4.692C38.485,510.474,38.083,512.214,46.958,506.69z"/>
				
					<linearGradient id="SVGID_13_" gradientUnits="userSpaceOnUse" x1="387.9102" y1="588.375" x2="364.9776" y2="587.9747" gradientTransform="matrix(1 0 0 -1 8.3398 1056.04)">
					<stop  offset="0.47" style="stop-color:#B56966"/>
					<stop  offset="0.66" style="stop-color:#C87670"/>
				</linearGradient>
				<path fill="url(#SVGID_13_)" d="M374.5,509.034l2.667-4.7c0,0,2-16.802,2-17.484c0-0.682,0-7.35,0-7.35s-0.667-10.333,0-11.333
					s-1.333-13,0-14s1.667-8.667,2-11.333s-1-9.667,0-13s-0.89-11,0.055-12.667c0.945-1.667,2.611-7.334,2.945-9.667
					s-1-3.646,2.333-5.823c3.333-2.177,6.667-1.844,6.667-1.844v4.454l-3,11.879c0,0,0,4.333,0,5.667s0.667,6.667,0.667,6.667
					l2.333,8v6.333v9.667c0,0,1,3.667,0,4.667s-1.333,8-1.333,8v9.667c0,0,2.222,5.333,1.777,7c-0.445,1.667-0.105,7,0.059,8.333
					s1.831,6,1.831,6s1.333,5.333,1.333,5s0,3.167,0,3.167s-0.333,3.234,0,4.7s-3,6.466-3.333,7.799s-5,10.333-5.333,11.333
					s-1.31,2-2.488,3.667c-1.178,1.667-3.845,4-3.845,4H374.5v-9l1.333-3.799c0,0,1.667-1.201,1.667-2.534s-3-9-3-9V509.034z"/>
				
					<linearGradient id="SVGID_14_" gradientUnits="userSpaceOnUse" x1="191.437" y1="432.6113" x2="140.5453" y2="431.723" gradientTransform="matrix(1 0 0 -1 8.3398 1056.04)">
					<stop  offset="0.47" style="stop-color:#B56966"/>
					<stop  offset="0.66" style="stop-color:#C87670"/>
				</linearGradient>
				<path fill="url(#SVGID_14_)" d="M161.833,655.246l1.238-1.159l2.762-12.253v-5v-5.667v-5c0,0-1.333-8.999,0-11.333
					s-1.333-11.334,0-12.334s-0.563,0,0.385-8c0.948-8-1.73-12.332,0.109-15.666c1.298-2.352,2.841-6.363,3.638-8.521
					c0.333-0.9,0.535-1.479,0.535-1.479v13.333l2.333,5.333c0,0,0,1,0,4s1,5.334,0,7.667s-1,6.667-1,7.667s0,5.332,0,6.666
					s2.222,7.166,1.444,8.25c-0.778,1.084-1.226,4.75,0.165,6.417s2.724,6.334,4.057,7.667s3.333,6.282,5,7.308
					c1.667,1.026,4,2.692,4,2.692s-1-2.334,3,2.666s5,6.746,5,6.746l6,9.576c0,0,0,8.515-1.667,8.93s-1.667,1.414-4.667,2.748
					s-6,1.351-7,2.009s-5.666-0.991-6,0s-4.667-0.671-5.667,0.16s-3-0.499-4.333,0.166s-8-0.326-8-0.326s1.667,1.009-3.667,0
					s-9.667,0-9.667,0s2-6.009,3-6.342s4-1,4-1l3.333-3.667l-1.667-6.666"/>
				
					<linearGradient id="SVGID_15_" gradientUnits="userSpaceOnUse" x1="213.8145" y1="380.6533" x2="202.0638" y2="380.4482" gradientTransform="matrix(1 0 0 -1 8.3398 1056.04)">
					<stop  offset="0.47" style="stop-color:#B56966"/>
					<stop  offset="0.66" style="stop-color:#C87670"/>
				</linearGradient>
				<path fill="url(#SVGID_15_)" d="M220.167,670.5l2,5.667c-0.333,3-2,5.667-2,5.667l-3,2l-6.667-2.667l5.833-4
					c0,0,0.833-2.163,0-3.415s-2.167-6.585-2.167-6.585h5.667L220.167,670.5z"/>
				
					<linearGradient id="SVGID_16_" gradientUnits="userSpaceOnUse" x1="196.8408" y1="541.0713" x2="189.3058" y2="540.9398" gradientTransform="matrix(1 0 0 -1 8.3398 1056.04)">
					<stop  offset="0.47" style="stop-color:#B56966"/>
					<stop  offset="0.66" style="stop-color:#C87670"/>
				</linearGradient>
				<path fill="url(#SVGID_16_)" d="M202.833,478.167c0,0-0.333,4,0,4.333s0,5.667,0,5.667s-0.037,5,0.148,7.333
					s1.186,8.334,1.852,9.667s-0.667,3.333,0,6.667s-0.282,6.667,0.192,10.667s-0.366,12.334,0.054,14.667s-0.229,5.667,0.096,8
					c0.325,2.333-0.222,2.667,0.051,4s-1.243,2.667-1.243,2.667h-1.298H200.5c0,0-1.667-2.667-1.333-3.667s-0.044-5.333-0.044-5.333
					s-0.044-4,0-7s-0.083-4-0.02-10s0.9-13.333-0.018-14.667s-1.585-2.286-1.585-4.477c0-2.191,0-16.19,0-16.19L202.833,478.167z"/>
				
					<linearGradient id="SVGID_17_" gradientUnits="userSpaceOnUse" x1="154.478" y1="528.9165" x2="146.532" y2="528.7778" gradientTransform="matrix(1 0 0 -1 8.3398 1056.04)">
					<stop  offset="0.47" style="stop-color:#B56966"/>
					<stop  offset="0.66" style="stop-color:#C87670"/>
				</linearGradient>
				<path fill="url(#SVGID_17_)" d="M158.167,499.167c0,2,0.333,6.38,0,7.523c-0.333,1.143,0,6.143,0,9.81s1.037,10-0.148,14.667
					s-2.852,13-2.852,13l1.71,11h5.624c0,0-1-0.333,0-3.333s-1-8.667,0-9.667s0.244-7,0.289-9.667s-1.289-8.333-1.622-10.667
					S158.167,499.167,158.167,499.167z"/>
				
					<linearGradient id="SVGID_18_" gradientUnits="userSpaceOnUse" x1="122.895" y1="443.7808" x2="116.3213" y2="443.666" gradientTransform="matrix(1 0 0 -1 8.3398 1056.04)">
					<stop  offset="0.47" style="stop-color:#B56966"/>
					<stop  offset="0.66" style="stop-color:#C87670"/>
				</linearGradient>
				<path fill="url(#SVGID_18_)" d="M130.167,566.5v2.334v11c0,0,0,7.333,0,11.333s-0.333,15,0,19s1.333,12.667,1.333,17.667
					s-0.481,5.282-0.741,15.308c-0.26,10.026-0.556,10.691-0.741,15.358s1.185,4.667,0,10.667s-1.519,8.351-2.852,9.342
					s-1.333,0.991-1.333,0.991s3.667-6.333,2.833-7.333s-3.5-21.333-2.833-22.333s0.122-15-0.106-18.667s0.561-19.333,0-23.333
					s0.476-19.001-0.042-22.334s-1.407-12.666-0.129-13.666c1.278-1,2.644-26.667,2.644-26.667L130.167,566.5z"/>
				
					<linearGradient id="SVGID_19_" gradientUnits="userSpaceOnUse" x1="327.5845" y1="627.7695" x2="320.0363" y2="627.6378" gradientTransform="matrix(1 0 0 -1 8.3398 1056.04)">
					<stop  offset="0.47" style="stop-color:#B56966"/>
					<stop  offset="0.66" style="stop-color:#C87670"/>
				</linearGradient>
				<path fill="url(#SVGID_19_)" d="M334.167,419.167v3.333l1.667,4.667c0,0-0.333,1.333,0,2.667s0,5.333,0,5.333L330.5,437.5
					l-1.667-6.333c0,0-1-2,0-4S334.167,419.167,334.167,419.167z"/>
				
					<linearGradient id="SVGID_20_" gradientUnits="userSpaceOnUse" x1="324.2739" y1="579.251" x2="318.5053" y2="579.1502" gradientTransform="matrix(1 0 0 -1 8.3398 1056.04)">
					<stop  offset="0.47" style="stop-color:#B56966"/>
					<stop  offset="0.66" style="stop-color:#C87670"/>
				</linearGradient>
				<path fill="url(#SVGID_20_)" d="M332.185,458.532c-0.018,3.635,0.686,14.333,0,14.316c-0.685-0.016,0.352,10.317,0,12.65
					c-0.351,2.333-0.127,4.667-0.238,8.667c-0.112,4,0,7,0,7s-1.778-1-2.112-2.333s-1.555-4.667-1.444-5.667
					c0.111-1,2.979-3.667,2.044-5.333c-0.934-1.666,0.935-4.333,0-6.667c-0.934-2.334-1.502-14-2.051-15s-2.882-3.271-1.215-7.635
					c1.667-4.365,1.222-6.032,1.222-6.032L332.185,458.532z"/>
				
					<linearGradient id="SVGID_21_" gradientUnits="userSpaceOnUse" x1="335.063" y1="476.1694" x2="319.0972" y2="475.8908" gradientTransform="matrix(1 0 0 -1 8.3398 1056.04)">
					<stop  offset="0.47" style="stop-color:#B56966"/>
					<stop  offset="0.66" style="stop-color:#C87670"/>
				</linearGradient>
				<path fill="url(#SVGID_21_)" d="M342.5,528.167c0,0-3.667,10.333-3.667,11.833s1.833,10.834,1.833,10.834
					s-2.5,3.332-1.833,6.666s-3.704,13.001-2.852,14.334c0.852,1.333,0.927,3.333-0.11,4.333s0,6.667,0,6.667l-0.461,8
					c0,0,0.91,1.333,0,2.333s0.243,2.334,0,4.667s-0.355,7.666-0.355,7.666s-0.479,5.827,0,7.334c0.48,1.507-0.541,5-0.214,7
					s-1.34,9.733-1.34,9.733l-3.969,2.267c0,0-1.586-0.199-1.143-2.267c0.444-2.068,3.481-4.733,3.796-9.4
					c0.315-4.667,0.286-12.667,0.301-13.667c0.014-1-4.541-18.564-4.097-20.115c0.445-1.551-0.161-0.885,1.143-9.218
					c1.303-8.333-1.304-10.667,0-12c1.303-1.333,3.006-12.667,2.653-14C331.834,549.834,342.5,528.167,342.5,528.167z"/>
				
					<linearGradient id="SVGID_22_" gradientUnits="userSpaceOnUse" x1="412.4146" y1="592.7861" x2="406.6591" y2="592.6858" gradientTransform="matrix(1 0 0 -1 8.3398 1056.04)">
					<stop  offset="0.47" style="stop-color:#B56966"/>
					<stop  offset="0.66" style="stop-color:#C87670"/>
				</linearGradient>
				<path fill="url(#SVGID_22_)" d="M415.5,453.833v1.667c0,0-1.333,3,0,4.333s1.667,2.333,1.667,3.667s-1.593,4.999-1.13,5.833
					s0,3.517,0,3.517l4.13-2.016c0,0-0.333-4,0-5s-0.333-4.667,0-5s0.859-4,0.096-5.333C419.5,454.168,415.5,453.833,415.5,453.833z
					"/>
				
					<linearGradient id="SVGID_23_" gradientUnits="userSpaceOnUse" x1="414.6157" y1="639.6074" x2="410.9205" y2="639.5429" gradientTransform="matrix(1 0 0 -1 8.3398 1056.04)">
					<stop  offset="0.47" style="stop-color:#B56966"/>
					<stop  offset="0.66" style="stop-color:#C87670"/>
				</linearGradient>
				<path fill="url(#SVGID_23_)" d="M420.656,413.833v3.333c0,0-0.823-0.999-1.156,2s0,4.333,0,4.333s0.313-0.667,1.156-2.333
					s0.844-1.667,0.844-1.667l1.333-2.667v-4.667v-2.736L420.656,413.833z"/>
				
					<linearGradient id="SVGID_24_" gradientUnits="userSpaceOnUse" x1="544.9375" y1="679.7705" x2="534.218" y2="679.5834" gradientTransform="matrix(1 0 0 -1 8.3398 1056.04)">
					<stop  offset="0.47" style="stop-color:#B56966"/>
					<stop  offset="0.66" style="stop-color:#C87670"/>
				</linearGradient>
				<path fill="url(#SVGID_24_)" d="M553.167,370c0,0-1.333,4.492-1.333,4.329s0,5.171,0,5.171s-1,5.333-1.667,6.667
					s-2.667,4-2.667,4l-2.333,2.333c0,0-2.666-1-2.333-2s1-9.5,1.667-9.25s1.667-0.083,2-1.417s0-8.333-0.667-9.833
					s-1-7.362-1-7.362s0-3.608,0-1.804S553.167,370,553.167,370z"/>
				
					<linearGradient id="SVGID_25_" gradientUnits="userSpaceOnUse" x1="518.8242" y1="613.457" x2="507.4007" y2="613.2576" gradientTransform="matrix(1 0 0 -1 8.3398 1056.04)">
					<stop  offset="0.47" style="stop-color:#B56966"/>
					<stop  offset="0.66" style="stop-color:#C87670"/>
				</linearGradient>
				<path fill="url(#SVGID_25_)" d="M518.167,482.5c0.333-1.333-2.333-34.333-2.333-34.333v-14c0,0,0.333-3.666,0-5.833
					s0-17.5,0-17.5l1.181-7.833l1.182,6.431c0,0,1.638,6.333,1.638,7.035c0,0.702,0.333,5.035,1.333,7.035s3.667,6,3.667,7.333
					s0.614,6.017,1.333,6.667s1,5.25,1,5.25v19.083c0,0-1,10.032,0,11.016C528.167,473.835,518.167,482.5,518.167,482.5z"/>
				
					<linearGradient id="SVGID_26_" gradientUnits="userSpaceOnUse" x1="596.0337" y1="678.5049" x2="576.0714" y2="678.1564" gradientTransform="matrix(1 0 0 -1 8.3398 1056.04)">
					<stop  offset="0.47" style="stop-color:#B56966"/>
					<stop  offset="0.66" style="stop-color:#C87670"/>
				</linearGradient>
				<path fill="url(#SVGID_26_)" d="M604.079,414.5c0,0,1.582-16,0-19.667s-0.578-4.667-2.245-10.833s-3.667-13.833-4-14
					s-1.667-5.891-1.667-7.362c0-1.471,0-21.138,0-22.138s-6.667-6-6.667-6s0.333,27.333,0,29.667s0.333,7,0,8.667
					s-1.333,5.333-2,11.167s0.667,12.5,0,14.5s0.949,7-0.192,8c-1.141,1-0.726,7.667-0.726,7.667l-1.416,7L604.079,414.5z"/>
				
					<linearGradient id="SVGID_27_" gradientUnits="userSpaceOnUse" x1="653.8394" y1="707.2715" x2="646.6559" y2="707.1461" gradientTransform="matrix(1 0 0 -1 8.3398 1056.04)">
					<stop  offset="0.47" style="stop-color:#B56966"/>
					<stop  offset="0.66" style="stop-color:#C87670"/>
				</linearGradient>
				<path fill="url(#SVGID_27_)" d="M655.5,377.833v-21.667v-11.708l3.333-12.958l2.667-8v-3.667v9c0,0,0,2,0,3.667s1,2.667,0,4.5
					s-3.556,6.75-2.778,7.458c0.778,0.708-0.777,2.708,0,4.375c0.778,1.667-0.777,4.333,0,5.333c0.778,1-0.777,3.667,0,4.667
					c0.778,1,0,6.578,0,6.578s-0.11,0.089,0,1.422c0.111,1.333,0,3.167,0,3.167L655.5,377.833z"/>
				
					<linearGradient id="SVGID_28_" gradientUnits="userSpaceOnUse" x1="758.2935" y1="757.8037" x2="750.4524" y2="757.6668" gradientTransform="matrix(1 0 0 -1 8.3398 1056.04)">
					<stop  offset="0.47" style="stop-color:#B56966"/>
					<stop  offset="0.66" style="stop-color:#C87670"/>
				</linearGradient>
				<path fill="url(#SVGID_28_)" d="M760.021,276.833v6.667c0,0,0.188,4.667,0,6c-0.188,1.333-0.313,10.667,0.082,14.333
					c0.396,3.666,0.771,6.17-0.082,9.333c-0.854,3.163-0.854,6-0.854,6.667s3.368-5.334,4.595-6c1.228-0.666,1.825-5,2.782-6
					s-1.376-13.333-1.376-16s0-10.389,0-10.389L760.021,276.833z"/>
				
					<linearGradient id="SVGID_29_" gradientUnits="userSpaceOnUse" x1="688.7749" y1="724.4521" x2="669.1075" y2="724.1089" gradientTransform="matrix(1 0 0 -1 8.3398 1056.04)">
					<stop  offset="0.47" style="stop-color:#B56966"/>
					<stop  offset="0.66" style="stop-color:#C87670"/>
				</linearGradient>
				<path fill="url(#SVGID_29_)" d="M686.257,300.5v3.667l1.841,5.667c0,0,0.265,11.667,0,13.667c-0.264,2-1.931,2.945-3.598,17.306
					c-1.667,14.361-5.406,22.351-6.265,22.689c-0.859,0.338,0.932,4.005,1.599,6.505s5.513-1.833,6.423-3.167
					s4.927-12.583,4.927-12.583s1.983,1.583,3.649-8.417S696.5,332.5,696.5,332.5s1-13,0-14.667s-2-8-2-10.333s-0.333-7-0.333-7
					l-4.667-7.667L686.257,300.5z"/>
			</g>
			
				<linearGradient id="SVGID_30_" gradientUnits="userSpaceOnUse" x1="187.9033" y1="506.2085" x2="173.4158" y2="505.9555" gradientTransform="matrix(1 0 0 -1 8.3398 1056.04)">
				<stop  offset="0.47" style="stop-color:#B56966"/>
				<stop  offset="0.66" style="stop-color:#C87670"/>
			</linearGradient>
			<path fill="url(#SVGID_30_)" d="M180.5,478.167l5.333,16.333v9.167c0,0-4,6.833-2.667,8.833s0,14.667,0,14.667l2.667,8.667
				l6,19.333c0,0,1.333,8,0,10s0.592,8.333,0.592,8.333s0.592,4.665,0,8.166c-0.592,3.501,0.263,13.501,0.263,13.501l4.811,26.583"
				/>
			
				<linearGradient id="SVGID_31_" gradientUnits="userSpaceOnUse" x1="133.6602" y1="533.124" x2="138.1602" y2="533.124" gradientTransform="matrix(1 0 0 -1 8.3398 1056.04)">
				<stop  offset="0.47" style="stop-color:#B56966"/>
				<stop  offset="0.66" style="stop-color:#C87670"/>
			</linearGradient>
			<path fill="url(#SVGID_31_)" d="M142.5,478.167v4.333l4,10l-2,11.167c0,0-1.333-0.12-2,3.023c-0.667,3.143-0.667,5.142,0,8.476
				s1.75,7.868,1.75,7.868s-0.917,12.132,0,12.799s0,9.333,0,9.333s-0.25,4.001,0,6.667s-1.583,4.666,0,7.333s2.25,8.499,2.25,8.499
				"/>
		</g>
	</g>
	<g id="villa_montaña">
		<g id="sombra_montaa">
			<path fill="#C9786D" d="M927.5,206.283l-6.604,2.134c0,0-1.431-0.25-5.413,1.917c-3.983,2.167-6.978,1.037-9.983,2.833
				S897.911,217,897.911,217l-4.302,2c0,0,1.872,1.901-0.154,3.616c-2.026,1.715-7.268,6.151-7.268,6.151s-3.094-1.808-5.782,0
				c-2.689,1.808-10.017,6.732-10.017,6.732s-2.562,1.723-4.636,3.116c-2.074,1.393-16.081,8.385-16.081,8.385
				s-1.219,3.245-2.702,4.241c-1.482,0.996-12.702,5.666-12.702,5.666s-0.647,3.307-2.769,4.732
				c-2.121,1.425-5.333,5.027-5.333,5.027l-5.333,2.143c0,0-6.667,4.19-10,4.19s-8.728,2-8.728,2l-4.366,9.333l-5.634,6.167
				L785,295.444l-6,1.485l-4.5,5.4V308l-15.333,8.329L736.5,318c0,0-0.132,2.892-3,7.166s-10,5.271-10,5.271l-9.667,7.892v6.108
				L710,346.332L703.833,351c0,0-1.894-0.234-5.736,1.329c-3.842,1.563-10,2.477-10,2.477l-1.841,5.526L674.417,365
				c0,0-7.981,0.37-8.874,0.666s-8.015-2.062-14.808,2.553c-6.793,4.615-10,5.679-10,5.679L633.833,378l-6.475,1h-3.525L617,384
				l-6,4.329L600,392l-3,4.332h-3.5l0.5,4.669c0,0-1.605,2.163-3.096,4.17c-1.491,2.007-4.322,5.823-4.322,5.823v3.173L578.5,421
				H575l-9.5,2.431l-7.354,6.901h-4.896l-5.104-1.167l-8.317,2.182L533,433.666l-3,1.034l-5,5.538l-2,1.427l-14.024,6.001
				c-4.476,2.834-14.023,11.613-14.023,11.613l-6.101,3.459c0,0-9.5,5.333-11.886,6.595S456.5,472.85,456.5,472.85
				s0.742-6.683-2.793,1.984s-15.199,14.833-15.199,14.833l-3.456,5.106l-7.292,14.298c0,0-3.47-4.592-4.265,1.929s-1.681,8-1.681,8
				l-2.416,4.034l-3.897,6.507c0,0-0.981,1.558-2.006,3.184c-1.025,1.626-0.979,6.602-2.994,7.275s-7.503,5-7.503,5
				s-7.845,2.816-7.997,6.031s-9.375,2.251-10.5,6.636s-2,7.833-2,7.833l-10,8l-3,4c0,0-4,0-4.5,2s-7,2.5-9.5,7s-9,5.166-9.5,9.333
				s-2.5,9.364-2.5,9.516c0,0.152-3.5,6.131-6,7.642S326,621.75,326,621.75s0.321,1.38-2,0s-11,2.807-11,2.807s-9.5,4.078-11,5.012
				c-1.5,0.933-5.5,2.432-7,3.432c-0.909,0.604-4.02,1.762-6.331,2.58c-1.504,0.531-2.669,0.92-2.669,0.92l-2.5,7.067
				c0,0-2.5-1.176-2.5,1.379c0,2.554-5.138,11.11-5.138,11.11s-2.236,1.823-5.563,4.536C266.972,663.306,260,664.5,260,664.5
				l-5.576,7.639H251.5c0,0-3.105,2.229-3.5,3.378c-0.395,1.149-3,0-3,0l-2.241,5.85c0,0-2.254,4.021-3.657,6.522
				s-2.215,3.952-4.266,7.611c-2.051,3.659-7.984,8.796-10.755,10.632S211,713.5,211,713.5s-5.5-2.5-7,0s-9.918,12.504-9.918,12.504
				l-5.602,3.711H176.5l-5.19,9.9c0,0,0.601-0.297-3.411,1.681c-4.012,1.979-4.011,1.979-4.011,1.979H158
				c0,0-1.452,3.617-3.195,4.477C153.062,748.611,144,756.5,144,756.5s-1.421,0.675-3.5,0s-8.562,2.521-9.536,3
				c-0.974,0.479-7.102,3.5-7.102,3.5l-10.314,5.084c0,0-0.452,2.916,0,4.416c0.244,0.811-4.176,3.522-8.288,5.842
				C101.769,780.313,98.5,782,98.5,782l-1.014-6c0,0-5.486-2.5-6.486-1s-0.328-1.945-0.164,4.277
				c0.164,6.222-5.336,8.208-5.336,8.208H77h-8c0,0-8.955,6.968-12.093,8.515c-3.138,1.547-7.353,3.625-8.951,4.412
				S34.5,810.5,34.5,810.5c-12,9-17,8.5-17,8.5l-2.835-2.18l-15.737,7.756L0,1080h1133.75
				C1133.75,1080,1018.5,206.065,927.5,206.283z"/>
			<path fill="#C9786D" d="M547.986,364.763l-6.919-2.125l-6.625,1.598l-3.875-1.598l-5.75,2.125l-8.024,5.813l-1.807-0.897
				l-8.794,2.268h-1.5l-5.75,8.833l-7.99,8.196l-1.053,4.26l-7.207,0.492l-3.515,0.163c-2.985,1.312-2.124,3.087-2.124,3.087
				l-0.115,5.429c0,0-1.246-3.111-2.746,0.004c-1.5,3.114-4.5,4.589-4.5,4.589s-4,0-5.5,0s-9-0.492-9,2.95c0,3.44,1,8.356,0,9.831
				s0,14.092,0,14.092s-4.346,3.766-4.673,5.16s-5.081,2.541-5.081,2.541s-5.004,1.311-4.125,2.785s-0.086,4.778-0.104,6.322
				c-0.018,1.543,0.104,11.374,0.104,11.374s5.871,9.911,4.125,10.854c-1.746,0.943-0.79-1.661-2.246,2.909
				c-1.456,4.57-7.754,12.453-7.754,12.453s2.951,1.584-0.147,4.643c-3.098,3.06-5.432,5.679-5.432,5.679l-4.878,2.866
				l-3.154,10.897c0,0-1.301,11.143-1.968,13.11c-0.667,1.966-1.532,5.409-4.101,7.866c-2.567,2.455-12.566,10.158-13.066,9.994
				c-0.5-0.166,1,13.106,0,15.073c-1,1.966-7.232,17.726-7.232,17.726v1.486c0,0-1.768,5.776-3.268,9.012s0.5,2.089-2.5,7.086
				c-3,4.998-10,9.544-10,9.544l-7.824,6.923c0,0-2.533,4.736-3.854,5.727c-1.321,0.991-4.471,3.94-6.146,8.855
				c-1.676,4.917-0.824,11.777,0,12.278c0.824,0.502,0,6.252,0,6.252s0.324-2.596-3.676,0.743s-8,7.248-9.5,6.769
				c-1.5-0.481-6.232,4.78-8.116,4.854s-16.347,13.763-16.347,13.763v4.497c0,0-0.148,10.814-0.593,13.764
				c-0.445,2.95,0.593,9.012,0.593,9.012s-14.506,6.186-14.148,6.448c0.358,0.264-14.889,6.2-14.389,9.134
				s-1.833,12.163-1.833,12.163v6.008v10.322c0,0-4.667,0-8.167,3.441c-3.5,3.44-7.564,5.406-7.564,5.406l-3.269,20.646
				c0,0,3.655,2.495,0,7.847s0.833,25.579,0.833,25.579l2.871,7.357c0,0,3.811,12.305,2.22,15.745
				c-1.591,3.441-25.591,23.104-25.591,23.104l-2.108,5.051c0,0-1.892,4.288-4.392,9.45c-2.5,5.16-0.752,11.396-0.752,11.396
				s-9.748,9.494-16.748,12.443s-16,11.305-16,11.305s-14.001,15.238-13,19.171s-2.945,13.763-2.945,13.763v4.425L175.7,949.18
				c0,0-2.507,7.864-6.507,7.864s-4,0-4,0l-38.667,29.493c0,0,1.333,1.966,0,4.915s-31.333,31.459-31.333,31.459s-5,5.899,0,11.798
				s11,8.848,10,13.763c-1,4.916-17.666,13.765-30.333,14.747c-12.667,0.983-24.667,16.713-25.667,20.645
				c-1,3.934,0,26.544,0,26.544l483.496-4.915L547.986,364.763z"/>
		</g>
		<linearGradient id="SVGID_32_" gradientUnits="userSpaceOnUse" x1="1590.375" y1="1080" x2="1590.375" y2="619.6709">
			<stop  offset="0.2857" style="stop-color:#DC8575"/>
			<stop  offset="0.7044" style="stop-color:#C6786D"/>
		</linearGradient>
		<path fill="url(#SVGID_32_)" d="M1259.5,1072.515l27-50.015c0,0,10-11,12-19s-12-21,0-34s-2-5,15-18s41.06-33,41.06-33
			s8.94-8,11.94-11s3-6,10-17s5-18,9-28s3-16,13-27s13-18,19-21s19.531-9,25.266-12s6.734-16,8.734-20s6-16,8-20s-3,1,2-4s8-9,19-14
			s5,3.045,22-7.978s47-23.022,61-29.022s38-15,51-20s50-16,50-16l12.484-20.304l4.516-8.055c0,0,6.852-2.642,16.426-6.642
			s8.574-3,15.574-6s-5-4.834,15-6.917s54,3.417,58-1.833s29,1.25,32,0S1845,633,1845,633s4.5,4.783,7.5,10.142s16,24.858,16,24.858
			s20,18.5,22,21.5s19,17,19,17l11.75,19L1920,1080h-660.5V1072.515z"/>
		<linearGradient id="SVGID_33_" gradientUnits="userSpaceOnUse" x1="959.4644" y1="1080" x2="959.4643" y2="163.4995">
			<stop  offset="0.2956" style="stop-color:#C6786D"/>
			<stop  offset="0.7143" style="stop-color:#DC8575"/>
		</linearGradient>
		<path fill="url(#SVGID_33_)" d="M-1.072,927.159c0,0,126.906-102.659,166.239-116.659S273.5,759.984,273.5,759.984l40.166-24.357
			l18.849-16.393l7.968-4.103l7.351-1.633l6.667-1.666l10.667-5l7-5.667l1.925-3.333l8.742,2.333l4.333-5h8.667l6.149-11.689
			l6.234-3.21l9.948-3.101l16.423-10.474h9.91l6.86-15.512l9.474-9.683l6.899-8.333l5.101-7.667l7-9.875l2.333-7.375v-1.417
			l6.667-2.229v-7.437c0,0-1.665-4.224,0-4.334s7.068-8.18,7.068-8.18l4.012-5.992l-1.747-8.828l11.48-4.167l2.479,1.501
			l10.375-6.334v-3.303l10.667,1.97l3-5.333l6.667-4.05c0,0,10.667-4.617,11.667-5.617s11.518-13,11.518-13v-8.667h5.816
			l6.207-12.102l8.32-10.472c0,0,5.807,1.427,6.474,0s-0.391-11.002,2.305-11.048c2.696-0.046,6.865-6.042,6.865-6.042
			s-2.402-4.462,0-4.337s8.83-0.002,8.83-0.002v-17.998l9.364-1.505l12.303-7.162l9-8l7.5-5.667v-10.168l8.833-1.499l3.511-7.73
			l13.657-2.937l1.832-6.837l3.73-6.497l12.27-2.667l4.152-3.333v-9.838c0,0,8.819-2.828,10-3.828c1.182-1,1.734-4.168,1.734-4.168
			s0.088-0.074,3.045-2.578s8.889-7.525,8.889-7.525l5.707-4.831l3.093-2.618l4.712,3.054l1.667-0.333l1.667-5.838l3.667-2.663
			l6.667-2.666l8.925-14.667l5.817-4.925v1.092l6.257-3.333l3.667-4.5l3.5-3l0.833,0.834l1.667-3.167l5.667-2.833l2.373-5.377
			l2.95-2.498l4.178-0.958l4.003-5.966c0,0,2.39-0.282,1.859-1.575c-0.529-1.293,1.801-10.124,1.801-10.124s-1-1.833,1.667-3.5
			s3.5-2.333,3.5-2.333s4.167-0.333,4.667,0s1.833-0.629,2.667-0.148s1.5-0.138,1.5-0.138l7.674-3.629l3.802-3.219L828.5,275
			l1.888,1.004c0,0,1.612,0.33,2.112-0.17s1.556-2.935,1.556-2.935l9.111-3.234v-4.478c0,0-1.915-0.094,0-0.857
			c1.523-0.607,3.285-1.959,3.943-2.487c0.169-0.136,0.265-0.218,0.265-0.218v-1.958c0,0,2.047,0.224,2.313,0
			c0.266-0.224,6.146,0,6.146,0c1-0.333,2.333-2.667,2.5-3.5s1.165-4.806,1.165-4.806s3.335-1.194,3.835-1.528
			s1.341-2.854,1.341-2.854s-1.65-0.894,0-1.146c1.651-0.252,1.512-1.21,2.492-1.502c0.981-0.292,1.229-0.501,1.975-1.133
			c0.747-0.632,0.747-0.632,0.747-0.632l4.153-3.516c0.732-0.62,4.792,0,4.792,0l1.296-5.153l2.532-2.144
			c0,0,2.213-3.217,3.525-2.985c1.312,0.232,5.24-4.437,5.24-4.437l0.738-1.715h1.288c0,0,3.042-2.575,3.564-3.018
			c0.521-0.443,1.845-1.562,1.845-1.562s1.972-1.669,3.63-3.073c1.658-1.404,5.991-3.13,5.991-3.13l0.539-1.333l0.976-0.608v-0.776
			l2.83-1.449l0.837-1v-0.833h0.833h4.667l1-2.167c0,0-0.166-0.833,0.667-0.833s3.274-0.941,3.274-0.941l0.866-0.444l2.192-1.448
			l2.119-0.76v-2.073c0,0,0.715-1.35,2.215-1.092c1.5,0.258,2.167-0.033,2.167-0.033s0.28,0.812,1.799,0.033
			c1.52-0.779,1.571-2.609,2.939-2.408s2.095-1.093,2.095-1.093l3.122-0.677l1.711-2.063l1.833-1.167h2.763h1.818l0.134-1
			c0,0-0.553-0.667-0.134-1s2.752-0.759,2.752-0.759l1.833-2.075c0,0,0.833-0.667,1.333-0.833s0.5-0.167,0.5-0.167l0,0l1.833-0.667
			l3.272-0.333L964.9,181l1.677-0.858c0,0,0.198-0.103,0.595-0.305c0.397-0.202,1.526-0.782,1.526-0.782v-0.888
			c0,0,0.745-0.634,2.189-0.234c1.445,0.4,1.445,0.4,1.445,0.4l3.936-2v-2h1.648l1.082-2.167h3.147c0,0-0.647-0.02,0.441-0.226
			s2.385,0.726,2.385,0.726l2.649-1.681l2.092-0.396l3.964,1.244l1.154-1.244H997h1.625l1.814-2.034l1.08-0.205h1.604l1.548-0.598
			c0,0,0.189-0.036,0.649-0.123s1.928,0.745,1.928,0.745l1.783-1.449l0.592-0.926l3.625-0.886v-0.864h0.5h1.617l0.508-0.75
			l1.875,0.75l0.839,0.864h1.12c0,0,4.608,2.097,3.171,2.636c-1.437,0.539-2.005,0.625-2.005,0.625l2.283,1.823l0.73,0.813
			l-1.01,1.363h1.01v1.75l0.61,1.75h0.625l0.625,0.625l0.875,2.125l2.524-1.76l0.564,0.629l1.41,3.131l1.467-0.366l3.121,0.768
			l5.888,1.449l2.206,0.543c0,0,0.058,0.981,0,0.981c-0.057,0,5.937-1,5.937-1l3.188,4l3.568-2l1.469,1.503
			c0,0,0.235,0.058,0.707,0.174c0.473,0.116,3.699,0.198,3.699,0.198v0.713c0,0-0.188-0.046,0.322,0.079
			c0.51,0.125,1.924,0.474,1.924,0.474s0.738,0.181,0.825,0.203c0.087,0.022,0.557,2.157,0.557,2.157l1.593-1.628l1.474,0.362
			l0.767,0.189l0.793-0.548l1.5,0.25l1.375,2l1,0.125l0.571-0.538l1.383,0.34l0.921,0.948l2.23-0.172l3.52,1.547
			c0,0,1.25,0.063,1.688,0.188c0.438,0.125,3.438-0.25,3.438-0.25l0.195,1.954l0.555,0.951c0,0,0.063,0.907,0,1.095
			c-0.063,0.188,1.3,1.132,1.3,1.132l0.95,0.618l-0.688,1.063l0.688,1.125l0.5,1.5l-0.5,2.375l1.188,0.542l0.813,1.021l1.625,2.188
			l0.688-0.438l0.438,0.938l0.5,1.188l0.625,0.688l0.875,1.688l-0.375,1.75l2.313,0.273l1.063,3.289v-0.563l1.22,1.185v0.565
			l1.594,0.438c0,0-0.468,0.928-0.386,1.068c0.082,0.14,1.224,2.094,1.224,2.094l1.162,0.63l1,2.146v2.25
			c0,0,0.689-0.137,0.831,0.104c0.141,0.241,0.603,1.034,0.603,1.034v1.112l1.207,0.955l0.328,0.563v1.357l0.531,1.438l1.02-0.137
			v1.012c0,0,0.105,0.75,0.293,0.75c0.188,0,0.732-0.005,0.732-0.005l0.417,0.715c0,0-0.311,0.675,0,0.603
			c0.31-0.072,2.663,1.375,2.663,1.375s-0.063,0.25,0.406,1.281c0.469,1.031,0.844,2.156,0.844,2.156l1.188,0.688l0.986,0.139
			l0.816,0.806l0.571,1.492v0.813l0.5,0.813l1.563,0.063c0,0,1.23,0.642,1.42,0.828s0.705,1.234,0.705,1.234l0.93,0.382l1.54,1.521
			l0.655,1.846l1.011-0.199l0.989,1.886l0.813,0.563l0.313,0.375l1,1.313l0.375,0.438l0.85-0.285l0.313,0.311l0.962,1.538
			l0.985,0.388l0.222,0.218l0.479,1.081c0.618,0.005,3.063,0.938,3.063,0.938s0,0.25,0,0.438s0,0.625,0,0.625l0.889,1.299
			l1.101,1.087l1.387,0.051l-0.537,0.789l0.537,0.531l1.68,1.112l1.23,1.767l0.817,0.808v0.3l1.39,2.063l0.623-0.373l0.346,0.341
			l0.469,0.969l0.442-0.069l0.315,0.313l0.503,0.497l1.738,1.134l0.563,0.063l0.625,1v0.696l0.498,0.492l0.188,0.187l0.44,0.437
			v0.251l0.371,0.813l0.602-0.103l0.188,0.187l0.272,0.978l0.639-0.078l1.549,0.703l0.688,0.75l2.125,1.75v1.109l0.75,1.454
			l0.641-0.079l0.502,0.497v0.833l2.732,1l0.529,1.435l2.657,2.44l0.5,0.438c0,0,0.129,1.089,0.283,1.274s1.217,2.039,1.217,2.039
			l1.438,0.438v1v1.563l2.336,0.981v1.332l0.914,0.688l0.924,0.199c0,0-0.001-0.001,0.245,0.295s0.762,0.918,0.762,0.918
			l0.569,1.712l2.063,0.875c0,0,0.375,0.25,0.438,0.438c0.063,0.188,0,1.375,0,1.375l0.813,0.707h0.353l0.739,0.894l0.847,1.899
			l0.41-0.385l0.34-0.053l-0.313,1.438l0.813,0.188l0.494,0.037l1.067,2.088l2,0.875l1,0.875l0.313,2.375l0.833,0.076l0.854,0.299
			l0.453,1.278l1.067,1.289l1.729-0.004v0.625v1L1196,323.5l-0.563,0.875l0.563,1.349l1.257,0.46c0,0,0.854,0.313,1.128,0.413
			c0.275,0.1,4.178,2.09,4.178,2.09l0.849-0.25l0.901,1.188h1.125l1.625,1.688l3.606-0.217l3.09,1.131l5.241,1.461l3.875,1.438
			l4,2.313l1.391,0.1l1.359-0.413l2.688,1.063l1.767,1.479l1.108,0.834l0.293-0.321l1.082,0.946l1.775,0.101
			c0,0,0.014,0.006,0.211,0.078c0.197,0.072,0.764,0.634,0.764,0.634s0.431-0.198,0.535-0.159c0.105,0.039,0.277-0.466,0.277-0.466
			l2.313,0.625v0.5l1.431,0.813v0.25l1.133,0.688l1.75,1.063l0.625-0.063l2.24,0.167l2.957,1.083c0,0,0.233-0.309,0.519,0.189
			s0.907,0.333,0.907,0.333V346.5l2.55,2.375c0,0,0.569-0.773,0.936-0.64c0.366,0.133,1.768-0.36,1.768-0.36l-0.563-1.188
			c0,0,0.625-0.063,0.563-0.25c-0.062-0.187,0.438-0.875,0.438-0.875l0.813,0.25l0.313,0.813l1.438,0.688v0.5c0,0,0.75,1.75,1,1.75
			s2.438,1.125,2.438,1.125l1.056,1.202l2.663,1.299l0.719,0.749c0,0,1.953,1.149,2.375,1.058s0.422-0.092,0.422-0.092l1.837,0.896
			l0.541,0.264l3.014,0.688c0,0.313,0.938,1.916,0.938,1.916l3.737,1.146l0.638-0.125c-0.023,0.424,0,1,0,1l1.313,0.75h1.25
			l0.454,0.157c0,0,0.339-0.749,0.357-0.282c0.02,0.467,0.346,0.625,0.346,0.625l0.226,0.11l0.264,0.129l1.604,0.386l0.688,0.063
			l1.209,0.625l0.416-0.25c0,0-0.375,0.25,0,0.25s2.375,1.063,2.375,1.063l0.563,0.375l0.5,0.188v0.563l0.875,0.375h0.625l0.5,0.313
			l1.813,1.498l2.125,0.377l0.5,0.438l0.5,1.063l2.229,0.734l0.162,0.079c0,0,1.646-0.017,1.608,0.375
			c-0.036,0.392,1.081,0.938,1.081,0.938s0.77,0.811,1.345,0.655c0.574-0.156,0.1-0.823,0.574-0.155
			c0.476,0.668,0.375,0.938,0.375,0.938l1.308,0.318l1.387,0.676l0.994-0.245l1.314,1.372l2.262,1.103l1.049-0.099l1.688,0.313
			l1.813,1.125l0.5,0.438l0.387,0.875l1.222,0.596l1.887,0.919l0.604,0.294l1.43,0.697v0.618l0.91,0.625l1.125,0.625
			c0,0,0.813,0.313,1,0.313c0.188,0,1.959,0,1.959,0l0.386,0.443l1.177,0.574l0.604,0.795l1.188,0.875l3.61,0.965
			c0,0,0.201-0.84,0.576-0.527s0.213,0.913,0.648,1.125c0.435,0.212,2.041,0.996,2.041,0.996l1.311,0.192l0.938,0.375l2.248,1.626
			l1.884,0.919l2.943,1.436l0.553,0.27l0.774,0.378l0.909,0.935l1.313,1.125l0.5,0.5c0,0,2.063,0.688,2.25,0.75
			s0.188,0.063,0.188,0.063h1.754l1.127,0.55c0,0,0.657-0.2,0.576,0.281c-0.082,0.481,0.793,1.231,0.793,1.231l0.942-0.385
			l0.808,1.01v0.313l0.52,0.438l0.855,1.188c0,0,1.563,0.75,1.563,0.313s1.5-0.188,1.5-0.188s-0.5-0.063,0,0.25
			s0.875,0.688,0.875,0.688s0.688,0.25,0.875,0.25s1.495-0.119,1.495-0.119l2.192,1.682l1.826,0.279l0.328,0.16l1.096,1.062
			l0.375,0.313l0.914-0.21l0.757,0.369l2.21,1.078c0,0-0.131,0.514,0.369,0.702s1.332-0.438,1.196,0.063
			c-0.135,0.501-0.135,0.5-0.135,0.5s0.875,0.938,1.063,0.938c0.188,0,1.188,0,1.188,0l1.271,0.214l1.666,1.349v0.313l2.193,0.222
			l0.335,0.214l1.132,0.723l0.646,0.413l3.692,0.615c1.5,1.125,1.938,1.313,1.938,1.313l1.066,1.063l0.559-0.063h1.5v0.771
			c0,0,0.125,0.291,0,0.541s-0.625,1.625-0.625,1.625l0.681,0.625l2.072,0.468l1.19-0.28l1.618,0.813l0.938,0.813v0.563l0.667,0.915
			l1.146-0.727c0,0,1.438,0.313,1.875,0.563c0.438,0.25,2.125,0.938,2.125,0.938l0.313,1.476l0.688,0.712l0.266,1.137l0.836,0.534
			l2.899-0.233l0.563,1.313l1.188,1.125l2.5,1.938l0.813,0.125c0,0,0.688-0.063,0.875,0.188s0.392,1.446,0.392,1.446
			s0.608,0.491,1.172,0.304c0.563-0.187,0.875-0.188,0.875-0.188l3.375,1.125l0.75,1.125l0.438,1.375l2.313,0.375l1.063,1.563V440
			l1.688,0.063l1.188,0.625v0.938l1.926,0.75l1.699,1.063v0.688l2.536,1.979l1.024,0.654l1.002-1.094l0.643,1.209
			c0,0,0.17,0.625,0.357,0.625c0.187,0,1.125-0.688,1.125-0.688l1.475,2.888l1.275-0.138c0,0,0.563,0.25,0.875,0.438
			c0.312,0.188,0.563,0.938,0.563,0.938s0.332,0.711,0.51,0.824c0.178,0.114,3.803-0.136,3.803-0.136v1.125
			c0,0-0.063,1.867,0.28,1.621c0.345-0.246,3.72-0.059,3.72-0.059l-0.389,0.813v1.04v1.335l1.764-0.563l-0.347,0.678l0.722,1.197
			h0.313l1.063,1.625c0,0,0.063,1.125,0,1.563c-0.063,0.438,1.25,2.125,1.25,2.125v1.625l1.063,1.75l-0.438,2.051l0.063,1.574
			c0,0,0.561-0.062,0.563,0.125c0.004,0.188-0.438,2.5-0.438,2.5l0.438,0.125l0.875,1.313c0,0,0.807,1.293,0.875,1.5
			c0.069,0.207,2,0.813,2,0.813l-0.438,1.5l0.438,1.375c0,0-0.313,0.313,0,0.5c0.313,0.188,1.25,3,1.25,3v0.938c0,0,0,1.188,0,1.375
			c0,0.187,1.313,1.479,1.313,1.479s-0.063,0.208,0,0.458s-0.125,1.563-0.125,1.563l0.138,3.063l0.676,1l0.438,1.25v1.938
			l0.375,0.375l1.188,1.375v1.125l0.438,0.313c0,0,0.125-0.125,0.25,0.375s0.625,0.938,0.625,0.938l1.063,2.063l1.56,0.073
			l0.44,1.302l2.088,2.119c0,0,0.662-0.183,0.85-0.183s0.938,0.063,0.938,0.063l1.5,2.188c0,0,1.188,0.5,1.188,0.75
			s1.296,2.314,1.296,2.314l1.331,1.186h1.187l0.973,1.921c0,0,0.378,0.334,0.544,0.482c0.166,0.149,1.104,0.981,1.104,0.981
			l3.529,0.579l0.602,0.099c0,0-0.188,1.375,0,1.625c0.188,0.25,0.141,1.498,0.141,1.498s0.734,0.189,0.922,0.189
			c0.188,0,0.813,0.063,0.813,0.063l2.063,1.625v0.938c0,0-0.197,0.39,0,0.564s2.25,0.936,2.25,0.936s0.75,0.438,1.063,0.813
			c0.313,0.375,1.438,1.5,1.438,1.5s-0.25,0.188,0,0.375s2.25,1.563,2.25,1.563v0.188h0.375l0.375,0.25l0.75,0.375h0.75l2.125,0.938
			v0.938l0.625,0.813l0.688,1c0,0,0.5-0.188,0.438,0.125c-0.062,0.313-0.978,0.997-0.978,0.997l0.982,1.878l1.186,0.051l0.622,0.074
			l1.375,0.938c0,0-0.163,0.339,0,0.625s-0.151,0.006,0.163,0.286c0.313,0.28,2.523,2.776,2.523,2.776v0.313l0.217-0.65l1.972,0.275
			l0.313,0.188c0,0-0.188,0.688,0,0.875c0.188,0.187,0.646,1.268,0.847,1.445c0.201,0.178,0,0.616,0,0.616l1.017,0.288l2.388,1.648
			c0.023,0.496,1.018,1.381,1.018,1.381l0.396,0.352c0,0,0.838,1.206,0.838,1.395c0,0.188,1.188,1.598,1.188,1.598h0.813
			c0,0-0.338-0.766,0.523,0c0.86,0.766,0.86,0.766,0.86,0.766l0.304,0.271c0,0-0.007,0.545,0.371,0.331s2.629,0.536,2.629,0.536
			v0.875c0,0,0.48,0.25,0.563,0.875s0.813,0.688,0.813,0.688l0.654,1.17l1.283,0.019v0.25l1.313,1.25l0.661,1.381l1.401,0.369
			c0,0,0.438,0,0.688,0.375s0,1.053,0,1.053l1.625,1.322l1.192,0.256v-0.193c0,0,1.058-0.125,1.308,0.063
			c0.25,0.188,2.25,1.125,2.25,1.125v0.375c0,0,0.813,0.5,1,0.438c0.188-0.062,0.75-0.313,0.75-0.313l3.063,1.438
			c0,0-0.938-0.375,0,0.75s0.938,1.125,0.938,1.125l1.088,1.019l1.537,1.795h0.438l0.589-0.359c0,0,0.661-0.516,0.786-0.203
			c0.125,0.313,0.611,1.471,1.056,1.235c0.445-0.236,0.567,0.316,0.567,0.316s-0.311,0.226,0.377,0.211
			c0.688-0.014,1.313-0.514,1.313-0.514s0.063-0.125,0.438,0.25s0.988,1.798,0.988,1.798l0.86,0.483c0,0,0.4-0.531,0.713-0.345
			c0.313,0.188,5.125,2.75,5.125,2.75s-4.375-0.75-4.188-0.75s4.188,1.614,4.188,1.614l1.75,0.136v-1.313l2.938,5.188l2.375-0.813
			l1.188,1l0.729,0.833l1.957,0.479h1.25l2.313,1.75l0.434,1.104l2.004,0.396V585.5l3.313,1.125l-0.498,0.688
			c0,0-0.058,0.647,0.14,0.758c0.197,0.109,0.879,0.492,0.879,0.492l0.479-0.188c0,0,0.125-0.313,0.563-0.125s2,1.063,2,1.063
			l0.688,0.813l0.354,0.726l0.567,0.317l1.392,0.146l0.438,0.188l1.663,1.625v0.25l2.337-0.063
			c-0.063,0.375,0.427,1.359,0.427,1.359l0.493,0.372l0.777,0.644l6.303,2.188l-1.502,1.775c0,0-0.123,0.225,0.127,0.662
			c0.25,0.437,1.813,1.268,1.813,1.268l0.616,0.181l0.18,0.148l1.018,0.84l0.943,0.779l0.571,0.472c0,0,3.297,0.313,3.422,1
			c0.125,0.688,0.18,1.974,0.18,1.974l1.826,1.508l0.093,0.077l0.562,0.463l0.777,0.642l2.313,0.463l-0.338,1.168l0.338,0.279
			l1.785,1.474l0.488,0.403l1.852-0.199v1.729l0.282,0.232l1.224,1.011l1.808,0.903v0.588l2.625,1.662l0.335,1.938l3.103-0.375
			l0.5,1.619c0,0,0.5-0.256,0.625,0s0.688,0.381,0.688,0.381s0.25,0,0.375,0.188c0.125,0.188,0.313,0.5,0.313,0.5h1.564l0.498-0.313
			l0.563,1.125l0.688,1.25c0,0-0.375,1,0,1.188c0.375,0.188,0.824,1.323,0.824,1.323l1.487,0.677l2.5,0.813c0,0,0-0.375,0,0.375
			s-0.146,1.307,0,1.428c0.147,0.121,0.5,0.844,0.5,0.844l1.642,0.924l0.297-0.133l2,1.125c0,0,1.283,0.602,1.313,1.25
			c0.03,0.649,0,1.063,0,1.063l1.438,0.063l0.875-0.563l1.25,0.375l1.25,1.063c0,0,0,0.324,0.375,0.537s1.313,0.463,1.313,0.463
			l0.813,0.188l1.563,1.75l0.813,1.188c0,0,0.09,0.433,0,0.75c-0.09,0.318,3.625,1.938,3.625,1.938l3.438,0.5v0.625l0.313,1.125
			l1.688,1c0,0,0.25,0.063,0.375,0.438s0.063,0.509,0.197,0.973c0.134,0.463,5.303,2.216,5.303,2.216v-0.25l1.938,1.125V650.5
			c0,0,0.813,0.813,1.063,1.188s0.75,1.188,0.813,1.375c0.063,0.187,0.313,1.375,0.313,1.375l0.375,0.813
			c0.375,0.125,0.875-0.188,0.875-0.188s0.438-0.125,1.375,0c0.938,0.125,2.313,1.25,2.313,1.25l0.75,2.75c0,0,1.563,1,1.875,0.938
			c0.312-0.063,0.313-0.063,0.313-0.063s0.75,0.25,0.813,0.5c0.063,0.25,1.125,1.563,1.125,1.563s2.188,1.063,2.375,1.188
			c0.187,0.125,1.024,1,1.024,1h0.476l0.714,0.25l0.774,1.732c0,0,0.474,0.322,0.602,0.41s0.66-0.144,0.66-0.144l3.563,1.5
			l1.063,0.75c0,0-0.5,0.625,0,0.875s2.241,2.166,2.241,2.166l3.82,1.584h0.375l1.016,1.979c0,0-0.773-0.528,0.215,0.146
			c0.987,0.676,2.589,1.771,2.589,1.771l0.932,0.042c0,0,1.043,1.309,1.199,1.416s2.426,0.959,2.426,0.959l1.563,1.313
			c0,0,0.223,0.608,0.407,0.735c0.186,0.127,1.968,0.89,1.968,0.89l2.25,1.125l0.933,1.508c0,0,1.38,0.492,1.567,0.492
			c0.187,0,1.313,0,1.313,0l1.78,2.693l2.245,1.535c0,0,1.511,1.034,1.74,1.19c0.23,0.157,0.487,1.622,0.487,1.622l1.574-0.213
			l1.485,0.213l0.5,2.188l0.767-0.52l0.588,0.402v2.282l1.229-0.416c0,0,0.598,0.058,0.632,0.303s0,1.947,0,1.947l0.016,2.666
			c0,0,0.603,1.834,0.437,2.334s-0.416,2.666-0.416,2.666l1.585,1.917c0,0,0.023,0.174,0.082,0.583
			c0.058,0.409-0.917,2.584-0.917,2.584l0.919,2.5c0,0,0.868,1.111,0.984,1.94s0.562,3.991,0.562,3.991s-0.618,4.236,0,4.317
			s0.201,2.749,0.368,3.166s1.335,4.631,1.368,4.876c0.034,0.245,0.664,4.727,0.664,4.727l7.83,9.815l5.026-1.279l5.974,0.779
			l2.643,4.918l7.357,4.864l6.75,10.468l-0.003,7.557L1781.5,781l4.5,6l7.25,4.5l5.229,8.665l3.485,10.151l5.36,8.886l4.617,3.281
			L1821,837.5l12,3.75l5.238,4.781l9.262,6.219l8.974,2.808l8.776-0.058l-0.157,4.324l6.907,7.426l5.914-1.081L1887.5,868
			l4.047,4.416L1904,880.25l5.074,0.842L1920,886.5v70V1080H0L-1.072,927.159z"/>
		<linearGradient id="SVGID_34_" gradientUnits="userSpaceOnUse" x1="582.8394" y1="1072.5146" x2="582.8393" y2="328.8218">
			<stop  offset="0.2956" style="stop-color:#C6786D"/>
			<stop  offset="0.7143" style="stop-color:#DC8575"/>
		</linearGradient>
		<path fill="url(#SVGID_34_)" d="M1047.826,1045.864c-1-3.948-13-19.74-25.667-20.728s-29.333-9.871-30.333-14.806
			s5-7.896,10-13.818c5-5.922,0-11.844,0-11.844s-30-28.624-31.333-31.585c-1.333-2.962,0-4.937,0-4.937l-38.667-29.609c0,0,0,0-4,0
			s-6.507-7.897-6.507-7.897l-23.547-12.338v-4.441c0,0-3.946-9.871-2.945-13.818c1.001-3.948-13-19.247-13-19.247
			s-9-8.391-16-11.352s-16.748-12.492-16.748-12.492s1.748-6.261-0.752-11.443c-2.5-5.182-4.392-9.486-4.392-9.486l-2.108-5.072
			c0,0-24-19.74-25.591-23.195c-1.591-3.454,2.22-15.808,2.22-15.808l2.871-7.388c0,0,4.488-20.308,0.833-25.681
			c-3.655-5.374,0-7.878,0-7.878l-3.269-20.728c0,0-4.064-1.974-7.564-5.43c-3.5-3.454-8.167-3.454-8.167-3.454v-10.364v-6.031
			c0,0-2.333-9.266-1.833-12.213c0.5-2.944-14.747-8.904-14.389-9.17c0.357-0.264-14.148-6.475-14.148-6.475
			s1.038-6.086,0.593-9.047c-0.444-2.961-0.593-13.818-0.593-13.818v-4.515c0,0-14.463-13.744-16.347-13.819
			c-1.884-0.074-6.616-5.355-8.116-4.872c-1.5,0.482-5.5-3.444-9.5-6.795c-4-3.353-3.676-0.748-3.676-0.748s-0.824-5.771,0-6.275
			c0.824-0.503,1.676-7.393,0-12.327s-4.825-7.896-6.146-8.892c-1.32-0.994-3.854-5.749-3.854-5.749l-7.824-6.95
			c0,0-7-4.566-10-9.583s-1-3.865-2.5-7.114c-1.5-3.248-3.268-9.048-3.268-9.048v-1.491c0,0-6.232-15.823-7.232-17.798
			c-1-1.974,0.5-15.299,0-15.134s-10.499-7.567-13.066-10.034c-2.568-2.466-3.434-5.922-4.101-7.897
			c-0.667-1.974-1.968-13.162-1.968-13.162l-3.154-10.941l-4.878-2.878c0,0-2.334-2.629-5.432-5.702
			c-3.099-3.07-0.147-4.661-0.147-4.661s-6.298-7.914-7.754-12.501c-1.456-4.589-0.5-1.975-2.246-2.921
			c-1.746-0.947,4.125-10.898,4.125-10.898s0.122-9.869,0.104-11.418c-0.019-1.55-0.983-4.868-0.104-6.349
			c0.879-1.48-4.125-2.795-4.125-2.795s-4.754-1.151-5.081-2.551c-0.327-1.399-4.673-5.181-4.673-5.181s1-12.667,0-14.148
			c-1-1.48,0-6.415,0-9.87c0-3.455-7.5-2.961-9-2.961s-5.5,0-5.5,0s-3-1.48-4.5-4.607s-2.746-0.004-2.746-0.004l-0.115-5.451
			c0,0,0.861-1.783-2.124-3.099l-3.515-0.164l-7.207-0.493l-1.053-4.278l-7.99-8.229l-5.75-8.869h-1.5l-5.439-1.408l-1.742-0.869
			l-0.806,0.209l-0.807-0.209l-1.742,0.869l-5.439,1.408h-1.5l-5.75,8.869l-7.99,8.229l-1.053,4.278l-7.207,0.493l-3.515,0.164
			c-2.985,1.316-2.124,3.099-2.124,3.099l-0.115,5.451c0,0-1.246-3.123-2.746,0.004s-4.5,4.607-4.5,4.607s-4,0-5.5,0
			s-9-0.494-9,2.961c0,3.455,1,8.39,0,9.87c-1,1.481,0,14.148,0,14.148s-4.346,3.782-4.673,5.181
			c-0.327,1.4-5.081,2.551-5.081,2.551s-5.004,1.315-4.125,2.795c0.879,1.481-0.086,4.798-0.104,6.349
			c-0.018,1.549,0.104,11.418,0.104,11.418s5.871,9.951,4.125,10.898c-1.746,0.946-0.79-1.668-2.246,2.921
			c-1.456,4.588-7.754,12.501-7.754,12.501s2.951,1.59-0.147,4.661c-3.098,3.072-5.432,5.702-5.432,5.702l-4.878,2.878
			l-3.154,10.941c0,0-1.301,11.188-1.968,13.162c-0.667,1.975-1.532,5.431-4.101,7.897c-2.567,2.467-12.566,10.199-13.066,10.034
			s1,13.16,0,15.134c-1,1.975-7.232,17.798-7.232,17.798v1.491c0,0-1.768,5.8-3.268,9.048c-1.5,3.249,0.5,2.098-2.5,7.114
			s-10,9.583-10,9.583l-7.824,6.95c0,0-2.533,4.755-3.854,5.749c-1.321,0.995-4.471,3.957-6.146,8.892s-0.824,11.824,0,12.327
			c0.824,0.504,0,6.275,0,6.275s0.324-2.604-3.676,0.748c-4,3.351-8,7.277-9.5,6.795c-1.5-0.483-6.232,4.798-8.116,4.872
			c-1.884,0.075-16.347,13.819-16.347,13.819v4.515c0,0-0.148,10.857-0.593,13.818c-0.445,2.961,0.593,9.047,0.593,9.047
			s-14.506,6.211-14.148,6.475c0.358,0.266-14.889,6.226-14.389,9.17c0.5,2.947-1.833,12.213-1.833,12.213v6.031v10.364
			c0,0-4.667,0-8.167,3.454c-3.5,3.456-7.564,5.43-7.564,5.43l-3.269,20.728c0,0,3.655,2.504,0,7.878
			c-3.655,5.373,0.833,25.681,0.833,25.681l2.871,7.388c0,0,3.811,12.354,2.22,15.808c-1.591,3.455-25.591,23.195-25.591,23.195
			l-2.108,5.072c0,0-1.892,4.305-4.392,9.486c-2.5,5.183-0.752,11.443-0.752,11.443s-9.748,9.531-16.748,12.492
			s-16,11.352-16,11.352s-14.001,15.299-13,19.247c1.001,3.947-2.945,13.818-2.945,13.818v4.441l-23.547,12.338
			c0,0-2.507,7.897-6.507,7.897s-4,0-4,0l-38.667,29.609c0,0,1.333,1.975,0,4.937c-1.333,2.961-31.333,31.585-31.333,31.585
			s-5,5.922,0,11.844c5,5.923,11,8.884,10,13.818s-17.666,13.818-30.333,14.806s-24.667,16.779-25.667,20.728
			c-1,3.947,0,26.65,0,26.65l464.987-6.903l464.986,6.903C1047.826,1072.515,1048.826,1049.812,1047.826,1045.864z"/>
	</g>
</g>
<g id="Layer_2">
</g>
</svg>
