<?xml version="1.0" encoding="utf-8"?>
<!-- Generator: Adobe Illustrator 16.0.0, SVG Export Plug-In . SVG Version: 6.00 Build 0)  -->
<!DOCTYPE svg PUBLIC "-//W3C//DTD SVG 1.1//EN" "http://www.w3.org/Graphics/SVG/1.1/DTD/svg11.dtd">
<svg version="1.1" id="seccion_2" xmlns="http://www.w3.org/2000/svg" xmlns:xlink="http://www.w3.org/1999/xlink" x="0px" y="0px"
	 width="1920px" height="1080px" viewBox="0 0 1920 1080" enable-background="new 0 0 1920 1080" xml:space="preserve">
<g id="montaña_casa_frente">
	<path fill="#C7425F" stroke="#9B3550" stroke-miterlimit="10" d="M988.59,916.573c-31.498-19.499-393.188-98.125-511.475-128.994
		S0,700.584,0,700.584V1080h1203.079l-19.499-52.433L988.59,916.573z"/>
</g>
<g id="villa_frente">
	<g id="casa_1">
		<polygon id="patio" fill="#B23254" points="429,902.334 503.833,927.333 552.5,859.833 496,841 		"/>
		<g id="paredes">
			<polygon fill="#E2B890" stroke="#B58F6F" stroke-miterlimit="10" points="239.667,837.667 236.333,756.334 434.333,804.361 
				429,902.334 			"/>
			<polygon fill="#C19C7E" stroke="#B58F6F" stroke-miterlimit="10" points="429,902.334 496,841 498.167,759 432.667,811.667 			
				"/>
			<line fill="#E2B890" stroke="#B58F6F" stroke-miterlimit="10" x1="254.5" y1="771.875" x2="252" y2="833"/>
			<line fill="#E2B890" stroke="#B58F6F" stroke-miterlimit="10" x1="270.292" y1="776.833" x2="265.5" y2="834.751"/>
			<line fill="#E2B890" stroke="#B58F6F" stroke-miterlimit="10" x1="299.979" y1="793.75" x2="289.833" y2="840.314"/>
			<line fill="#E2B890" stroke="#B58F6F" stroke-miterlimit="10" x1="338.333" y1="802.438" x2="326.333" y2="859.5"/>
			<line fill="#E2B890" stroke="#B58F6F" stroke-miterlimit="10" x1="380.167" y1="808.667" x2="366" y2="867.074"/>
			<line fill="#E2B890" stroke="#B58F6F" stroke-miterlimit="10" x1="398" y1="829.334" x2="388.333" y2="874"/>
			<line fill="#E2B890" stroke="#B58F6F" stroke-miterlimit="10" x1="413.333" y1="850.5" x2="406.667" y2="876.417"/>
			<line fill="#E2B890" stroke="#B58F6F" stroke-miterlimit="10" x1="415.5" y1="862.848" x2="408" y2="893.167"/>
		</g>
		<path id="puerta" fill="#423A34" stroke="#B58F6F" stroke-miterlimit="10" d="M452,882.25c0,0,4.347-51.955,17.347-60.08
			s8.249,38.146,8.249,38.146"/>
		<g id="postes_y_trapos">
			<polygon fill="#875D41" stroke="#825E43" stroke-miterlimit="10" points="537.792,776.5 534.625,861.501 541.459,863.501 
				544.542,776.5 			"/>
			<polygon fill="#875D41" stroke="#825E43" stroke-miterlimit="10" points="487.314,825.631 484.148,919.297 490.981,921.501 
				494.064,825.631 			"/>
			<path id="trapo" fill="#EACDB7" d="M511.315,851.364c0,0,1.102,2.969,0.852,5.303s0.031,10,0.031,10s0.671,0.834,2.403,0.834
				s2.148-1.167,2.148-1.167l3.417,1.167c0,0,1.917,2.334,2.167-4s-1.357-14.277-2.762-15.306
				C518.5,848.5,513.142,850.908,511.315,851.364z"/>
			<path fill="none" stroke="#B58F6F" stroke-miterlimit="10" d="M486.316,851.981c0,0,3.536,2.355,6.777,0.681
				c0,0,16.907,1.121,25.907-4.11s23.888-28.551,23.888-28.551s-6.934,2.662-6.834,0"/>
			<path fill="#B23254" stroke="#9C3551" stroke-miterlimit="10" d="M480.833,919c-1.595,0.117,3.583-1.666,2.417,0.667
				s0.779-1.917,2.983,0.303s5.767-2.386,6.767,1.197s2.56,3.402,2.56,3.402"/>
			<path fill="#B23254" stroke="#9C3551" stroke-miterlimit="10" d="M528.878,860.14c-1.595,0.117,3.583-1.666,2.417,0.667
				s0.779-1.917,2.983,0.303s5.767-2.386,6.767,1.197s2.56,3.402,2.56,3.402"/>
		</g>
		<g id="techo">
			<path fill="#B7845A" stroke="#99785F" stroke-miterlimit="10" d="M301.667,653l-88,114l12.667-10.666L219,771l11.333-9.333
				l-3.333,14l6.667-13.333v13.333l7.333-16L236.333,779L253,767l-4,12c0,0,9.333-18,8.667-10s0,16,0,16l6-14v14l8-14.666
				L265,795.642l7.333-13.975l0.667,8l7.668-11.757l2.332-3.576L279.667,789c0,0-1.333,6,2,2.667s9.333-14,9.333-14l-0.667,12.667
				l4.667-12v11.333l6.667-13.333V793L307,778.334v17.308c0,0,11.333-17.308,8.667-11.308s-4,16.666-4,16.666L321,784.334v20.027
				l4.667-18.694v18.694L335.333,791v17.334l6.333-20.667v11.332v5.362l6-8.72l4.667,2.692v10l7.333-12.692L356.333,813l8-17.358
				l-4,24.692l15.333-24.692v8.72V811l-3.333,6.667l11.333-18l-1.717,7.606L379,820.334l8.167-9.667L388,822.833l11.178-13.083
				l-1.345,14.917l8.903-7l-3.07,11.667l7.333-11v16l8.667-12v20l13.684-19.908V847l10.983-28.666V693.667l-101.048-28.803
				L301.667,653z"/>
			<path fill="#A57653" stroke="#8C6B53" stroke-miterlimit="10" d="M444.333,693.667L432.268,824l2.065,6.667l3.967,3.412
				l1.308-3.412l2.059,3.412l1-6.079l1.667,6.079l2-4.745v4.745l3-6.412v6.412l3.333-6.746v6.746l3.667-6.746v6.746l2-7.079l1.333,9
				l1.667-6.666l2.25,6.666l2.083-5.333L467,836l3.667-5.333v7.666l5.333-8.999l1.667,7.333l3-7.333v8.999l2.667-8.999l1.333,3.666
				l2.333-5.333l4.333,8v-5l3.667,9l1.292-9.707l1.875,5.707l3.012-9.661l3.655,7.661c0,0,0.5-10.334-1.667-12.334
				s8.333,6.5,8.333,6.5s2.333-2.5,0-6.833s9.333,1.167,9.333,1.167s2.167-2.166,0-6s5.167,2.666,5.167,2.666s0.167-3.834-1.667-6.5
				s4.167,3.834,4.167,3.834s0.667-3.666-2.333-7s7.333,3.666,7.333,3.666s2.833-3.166-2.333-6.166s5.833,1.666,5.833,1.666
				s0.5-6.167-2.167-8s8.167-2,8.167-2s1-5-2-6.333s6.333,2.833,6.333,2.833s1.606-5.014-1.833-7.166s4.833-1.834,4.833-1.834
				s5.5,2.168,0-3.166s2.444-3.167,2.444-3.167s2.889-2.667-0.944-5.167s3.667-2.5,3.667-2.5s1.667-0.833-2.167-2.833
				S552,764.667,552,764.667h-3.5l3-3.167l-4.667-0.667l4.333-1.833l-6.625-1.834l-6.375-4.333l-6-4.667h-4.333L525.5,745.5
				l-6.667-4.334l-3.667-2.333l3.5-0.5l-4.167-1.5h-5.333L507,734.666L504.667,735l-3.417-5l-8.083-2.333l-0.333-3.5l-4.667-1.334
				l2.333-1.333l-3-1l-3.667-2.667l-6-1.833l-7.5-4.5l-10.667-6.333l-4.5-5.334L444.333,693.667z"/>
			<polyline fill="#9E714F" points="296.25,677.75 257.917,745.25 269.25,734 276.833,730.75 282.667,717.5 310.75,681.75 			"/>
			<polyline fill="#9E714F" points="310.75,713.75 280.583,759 319.375,709.25 			"/>
			<polyline fill="#9E714F" points="340.75,716.5 327,748.25 355.5,709.25 			"/>
			<polyline fill="#9E714F" points="388,722 354.25,785 375.5,756.334 376.25,760.75 398,727 			"/>
			<polyline fill="#9E714F" points="403.75,763.75 390.25,793.75 403.75,774.5 			"/>
			<polyline fill="#9E714F" points="417.25,769 409.5,793.75 430.5,750 			"/>
			<polyline fill="#9E714F" points="431.603,700.584 431.603,740.5 437.25,696.5 			"/>
			<polyline fill="#9E714F" points="377.75,689.25 366.25,717.25 386,685.5 			"/>
			<polyline fill="#9E714F" points="343.25,668 327,697.75 343.25,676.75 335.875,690.75 352.75,673.75 			"/>
			<polyline fill="#8C6348" points="453.25,773.5 460.75,804.361 453.25,763.75 			"/>
			<polyline fill="#8C6348" points="480,790.5 485,804.361 476.5,773.25 			"/>
			<path fill="#8C6348" d="M500.25,759c0,0,22.5,22.25,23.75,27.75"/>
			<polyline fill="#8C6348" points="516.837,761 524,770 516.837,756.334 			"/>
			<path fill="#8C6348" d="M490.75,740.5c0,0,15,2.25,17.25,7.75c-1.25-7-17.25-14.125-17.25-14.125"/>
			<polyline fill="#8C6348" points="473.5,741.188 498.167,780.25 474.75,736.25 			"/>
			<polyline fill="#8C6348" points="460.75,740.5 471.75,818.578 463.583,730.75 			"/>
			<polyline fill="#8C6348" points="449.75,717.25 443.75,800 453.25,718.5 			"/>
			<polyline fill="#8C6348" points="513.25,788.806 524,796.75 516.837,786.75 			"/>
			<polyline fill="#8C6348" points="494.064,801.25 505.5,811.5 500.25,798.25 			"/>
			<polyline fill="#8C6348" points="480.75,818.578 489.106,824 488,811.5 			"/>
			<polyline fill="#8C6348" points="535.75,780.25 540.75,780.25 535.75,776.5 			"/>
			<polyline fill="#8C6348" points="527.75,760.75 538.25,770 527.75,758.25 			"/>
		</g>
		<g id="mesita_afuera">
			<path opacity="0.2" d="M573.661,879.18c0,0,15.743,2.783,15.934,0c0.192-2.784-14.974-2.668-14.974-2.668L573.661,879.18z"/>
			<path opacity="0.2" d="M626.455,884.746c0,0,28.316,2.621,28.604-0.705s-25.629-4.861-25.629-4.861L626.455,884.746z"/>
			<path opacity="0.2" d="M653.236,881.388v3.359c0,0,15.885,3.592,16.293,0.979C669.938,883.115,653.236,881.388,653.236,881.388z"
				/>
			<linearGradient id="SVGID_1_" gradientUnits="userSpaceOnUse" x1="592.6685" y1="876.5117" x2="635.8076" y2="876.5117">
				<stop  offset="0.6022" style="stop-color:#7F6068"/>
				<stop  offset="1" style="stop-color:#634B51"/>
			</linearGradient>
			<path fill="url(#SVGID_1_)" stroke="#684951" stroke-miterlimit="10" d="M593.722,867.745c0,0-1.92,12.394-0.576,14.121
				c1.344,1.729,9.791,1.823,9.791,1.823s28.988,3.073,31.676,0.673c2.688-2.4,0-14.878,0-14.878L593.722,867.745z"/>
			<linearGradient id="SVGID_2_" gradientUnits="userSpaceOnUse" x1="583.627" y1="863.2188" x2="647.231" y2="863.2188">
				<stop  offset="0.6022" style="stop-color:#7F6068"/>
				<stop  offset="1" style="stop-color:#634B51"/>
			</linearGradient>
			<path fill="url(#SVGID_2_)" stroke="#684951" stroke-miterlimit="10" d="M647.231,862.899c0,1.397,0.013,2.338-0.906,3.608
				c-0.307,0.423-1.81,1.024-2.208,1.43c-0.578,0.587-0.394,2.011-1.152,2.553c-0.768,0.55-1.84,0.436-2.777,0.931
				c-0.334,0.177-1.496,0.196-1.85,0.366c-1.136,0.543-1.556,1.201-2.881,1.66c-1.243,0.431-2.526,1.496-3.914,1.844
				c-2.603,0.652-3.271,0.043-4.385,0.232c-2.055,0.349-4.215,0.608-6.454,0.769c-0.732,0.052-0.892,0.792-1.639,0.822
				c-1.002,0.04-2.599-0.637-3.626-0.637c-3.672,0-8.019-0.697-11.3-1.187c-2.833-0.422-4.663-0.581-7.066-1.309
				c-0.53-0.161-0.54-0.869-1.045-1.044c-0.239-0.082-0.984,0.376-1.217,0.291c-0.255-0.093-0.982,0.142-1.23,0.045
				c-0.504-0.195-0.519-0.728-0.993-0.937c-1.619-0.715-3.055-1.504-4.277-2.355c-0.604-0.422-2.536-1.104-3.032-1.555
				c-1.931-1.753-1.632-3.464-1.632-5.528c0-1.944,0.956-3.792,2.679-5.464c0.574-0.558,0.52-1.211,1.257-1.727
				c0.557-0.39,1.873-0.649,2.516-1.01c0.415-0.233,0.847-0.461,1.295-0.682c0.812-0.4,1.273-1.12,2.188-1.477
				c1.152-0.449,2.785-0.525,4.083-0.899c2.357-0.681,4.937-1.229,7.685-1.622c3.17-0.452,6.564-0.697,10.091-0.697
				c2.896,0,5.184,0.846,7.85,1.155c2.51,0.291,6.657-0.53,8.879,0c1.216,0.29,1.145,1.566,2.256,1.92
				c2.023,0.645,3.856,0.995,5.468,1.823c1.044,0.536,2.711,1.079,3.555,1.681c1.004,0.716,1.141,1.502,1.827,2.295
				c0.701,0.81,0.724,1.484,1.053,2.359C646.59,861.264,647.231,862.16,647.231,862.899z"/>
			<linearGradient id="SVGID_3_" gradientUnits="userSpaceOnUse" x1="569.1353" y1="872.9521" x2="582.1416" y2="872.9521">
				<stop  offset="0.6022" style="stop-color:#7F6068"/>
				<stop  offset="1" style="stop-color:#634B51"/>
			</linearGradient>
			<path fill="url(#SVGID_3_)" stroke="#684951" stroke-miterlimit="10" d="M569.498,878.074c-0.102-0.516-0.096-1.441-0.014-2.558
				c0.01-0.134-0.382-0.496-0.346-0.861c0.037-0.367,0.5-0.736,0.52-0.894c0.363-3.008,1.09-6.48,1.768-7.307
				c1.026-0.279,2.488-0.404,3.976-0.428c0.505-0.008,1.483,0.516,1.979,0.528c1.651,0.044,2.694-0.325,3.48-0.144
				c0.381,0.437,0.681,1.459,0.895,2.757c0.082,0.498-0.364,1.073-0.307,1.635c0.069,0.699,0.646,1.392,0.678,2.551
				c0.068,2.411-0.09,4.759-0.499,5.823C579.648,880.342,570.181,880.104,569.498,878.074z"/>
			<linearGradient id="SVGID_4_" gradientUnits="userSpaceOnUse" x1="643.8125" y1="877.1152" x2="656.8193" y2="877.1152">
				<stop  offset="0.6022" style="stop-color:#7F6068"/>
				<stop  offset="1" style="stop-color:#634B51"/>
			</linearGradient>
			<path fill="url(#SVGID_4_)" stroke="#684951" stroke-miterlimit="10" d="M644.175,882.237c-0.101-0.516-0.096-1.441-0.014-2.558
				c0.01-0.134-0.382-0.496-0.346-0.861c0.037-0.367,0.5-0.736,0.52-0.894c0.363-3.008,1.09-6.48,1.768-7.307
				c1.026-0.279,2.487-0.404,3.976-0.428c0.506-0.008,1.483,0.516,1.98,0.528c1.651,0.044,2.694-0.324,3.479-0.144
				c0.381,0.437,0.681,1.459,0.895,2.757c0.082,0.498-0.363,1.073-0.307,1.635c0.07,0.699,0.646,1.392,0.678,2.551
				c0.069,2.411-0.09,4.759-0.499,5.823C654.326,884.506,644.859,884.267,644.175,882.237z"/>
			<polygon fill="#7C4621" stroke="#563118" stroke-miterlimit="10" points="588.583,859.334 589.292,859.167 589.833,858.834 
				590.5,859.084 591.417,858.834 592.668,858.834 593.333,858.834 593.75,865.626 594,866.334 591.792,867.074 591.125,866.834 
				590.042,867.074 589.25,867.074 587.917,867.074 			"/>
			<polygon fill="#7C4621" stroke="#563118" stroke-miterlimit="10" points="632.47,859.034 633.178,858.867 633.72,858.534 
				634.387,858.784 635.303,858.534 636.555,858.534 637.22,858.534 637.637,865.326 637.887,866.034 635.678,866.774 
				635.012,866.534 633.928,866.774 633.137,866.774 631.803,866.774 			"/>
			<polygon fill="#7C4621" stroke="#563118" stroke-miterlimit="10" points="618.83,850.846 619.035,851.456 619.372,851.907 
				619.205,852.516 619.499,853.303 619.6,854.406 619.653,854.992 613.699,855.905 613.096,856.183 612.265,854.296 
				612.423,853.689 612.125,852.753 612.062,852.056 611.954,850.88 			"/>
		</g>
		<g id="roca_1_">
			<polygon opacity="0.2" points="289.833,885.501 382.667,885.501 306.667,850.5 			"/>
			<path id="roca" fill="#7F6068" stroke="#684951" stroke-miterlimit="10" d="M259,818.615l-8,8h-12.667l-10,8.667l-7.333,4
				l-7.333,15.333v12l16.667,8L263,879.282l32.667,8.666l18-24.666l-5.333-16L305,843.948l-3.333-2.666l-8.667-10l-9.333-1.334
				c0,0,2-3.333-2-3.333S267.667,817.948,259,818.615z"/>
			<polygon fill="#3A2D31" points="240.625,868.575 243.75,869.03 244.083,864.291 241.417,857.958 239.989,856.666 			"/>
			<polyline fill="#7F6068" stroke="#684951" stroke-miterlimit="10" points="222,860.917 224.5,855.501 230.333,853.264 
				235.583,852.866 240.25,856.892 241.417,863.417 240.25,868.575 			"/>
			<polyline fill="#7F6068" stroke="#684951" stroke-miterlimit="10" points="276.833,848.001 277.917,847 279.083,847 
				279.5,848.417 279.5,851.272 			"/>
			<polyline fill="#7F6068" stroke="#684951" stroke-miterlimit="10" points="292.484,836.795 294.167,838.751 294.167,840.875 
				293.75,843.834 			"/>
			<polyline fill="#7F6068" stroke="#684951" stroke-miterlimit="10" points="280.583,876.834 281.833,876.417 284.25,876.417 
				287.25,877.334 288.167,879.251 286.917,880.751 284.917,882.802 			"/>
		</g>
		<g id="pasto">
			<path fill="#B23B5B" stroke="#9B3550" stroke-miterlimit="10" d="M313.555,868.875c0,0-5.68-25.313-10.68-30
				c5.813,3.375,10.25,15.125,12.688,22.25c0.375-10.5,6.625-28.063,20.313-23.625c-12.5,0-18.875,22.625-17.813,27.438
				S313.555,868.875,313.555,868.875z"/>
			<path fill="#B23B5B" stroke="#9B3550" stroke-miterlimit="10" d="M307.25,879.625c0,0-3.25,2.5-3,3.125s-0.014-4.625,1.493-5.25
				s-4.993-3.625-6.743-3.5s4.125-2,4.125-2s-5.625-8.875-9.625-8.375s4.625-4.125,11.75,2.5s5.5-0.09,3.25-3.607
				s-5.25-7.018-5.875-7.018s9.375,3.125,11.75,6.75C315,858.75,321,853.375,329,854.5c0,0-10.875,3.5-8.5,9.25
				c6.75-2.125,10.75,1.125,11.25,2.75s-5.125-1.75-6.625,1.125c2.772,0.177,8.5,1.75,9.5,5.375c-4.875-1.5-8.875,0.875-9.5,1
				s3.875,0.75,4.875,5c-3.75-3.625-5-2.75-7.5-2.75S318.625,881.688,307.25,879.625z"/>
			<path fill="#B23B5B" stroke="#9B3550" stroke-miterlimit="10" d="M437.125,907.75c2.637-1.392,3.875,2.25,4.625,3.875
				c0.478-1.573,0.67-4.306-1.152-6.214c0.914-2.019,6.527-4.993,9.527-3.077s-1.875-4.834-10-2.959
				c-2.708-2.833,6.125-7.124,6.125-7.124s-7.369-1.187-10.435,3.844c-3.107-5.053,2.185-9.678,3.435-10.844
				c-3.667,0.416-8.688,2.208-9.594,5.041c-1.093-1.979-3.093-5.417-10.593-6.126c3.813,2.563,4.938,9.236,4.896,11.46
				c-3.125-1.917-6.021-1.253-9.521,0.187c3.938,0.188,5.063,3.063,5.688,4.563c0,0-4.938-2.25-7.938,1.313
				c6.438-0.438,9.688,1.313,10.813,3.063S432.625,910.125,437.125,907.75z"/>
		</g>
		<path fill="none" stroke="#684951" stroke-miterlimit="10" d="M237.417,845.334c0,0,4.167-5.749,5.167-6.083
			s1.917-3.167,1.917-3.167l6.917-1.333l4.167,0.916l2.917,4.376l0.333,6.957"/>
		<polyline fill="none" stroke="#684951" stroke-miterlimit="10" points="257.917,858.501 260.917,857.417 265.333,855.001 
			270.25,855.001 278.083,857.751 282.667,864.251 280.833,868.001 		"/>
		<path fill="#CC4E6F" d="M524.008,899.352c0,0,46.528,23.486,34.093,91.234l46.142,6.433c0,0-9.243-96.269-71.743-111.019
			L524.008,899.352z"/>
	</g>
	<g id="casa2">
		<g id="patio_1_">
			<polygon fill="#B23254" points="57.422,848 -2.25,830.5 9.5,789.822 111,816.548 			"/>
			<polygon fill="#875D41" stroke="#825E43" stroke-miterlimit="10" points="43.192,752.861 58.792,845.234 62.857,846.714 
				46.806,752.183 			"/>
			<polygon fill="#875D41" stroke="#825E43" stroke-miterlimit="10" points="47.876,752.183 2.508,834.145 4.765,837.835 
				51.125,753.902 			"/>
			<path fill="#CC4E6F" d="M36.469,841.855c-4.719,2.145-11.056,29.479-3.638,34.562s-35.082-9.343-35.082-9.343
				s21.005-22.756,21.255-30.341L36.469,841.855z"/>
		</g>
		<g id="paredes_1_">
			<polygon fill="#E2B890" stroke="#B58F6F" stroke-miterlimit="10" points="111,816.548 9.5,789.822 11.444,721.767 
				112.167,745.489 			"/>
			<polygon fill="#E2B890" stroke="#B58F6F" stroke-miterlimit="10" points="111,816.548 184.5,761.509 184.5,716.786 
				112.167,745.489 			"/>
			<polyline fill="#E2B890" stroke="#B58F6F" stroke-miterlimit="10" points="124.5,791.167 119.167,797.001 121.833,759.063 			"/>
			<line fill="#E2B890" stroke="#B58F6F" stroke-miterlimit="10" x1="137.667" y1="785.501" x2="130.833" y2="752.183"/>
			<line fill="#E2B890" stroke="#B58F6F" stroke-miterlimit="10" x1="149.5" y1="776.334" x2="146.333" y2="747.501"/>
			<line fill="#E2B890" stroke="#B58F6F" stroke-miterlimit="10" x1="165.167" y1="767.375" x2="159" y2="736.834"/>
			<line fill="#E2B890" stroke="#B58F6F" stroke-miterlimit="10" x1="177.167" y1="759.063" x2="172.333" y2="730.5"/>
			<line fill="#E2B890" stroke="#B58F6F" stroke-miterlimit="10" x1="181.833" y1="757.001" x2="180" y2="723.667"/>
			<line fill="#E2B890" stroke="#B58F6F" stroke-miterlimit="10" x1="92.5" y1="767.375" x2="96.552" y2="802.17"/>
			<line fill="#E2B890" stroke="#B58F6F" stroke-miterlimit="10" x1="73.5" y1="800.167" x2="89.833" y2="783.001"/>
			<path fill="#B23B5B" stroke="#9B3550" stroke-miterlimit="10" d="M101.9,817.278c0,0-1.67-4.645-1.504-7.296
				c1.472,3.272,2.839,4.499,2.839,4.499s-0.372-6.737,0.954-7.98c-0.083,3.169,2.694,3.274,2.694,3.274s1.781-4.953,1.119-7.605
				c3.439,1.325,4.58,6.963,4.58,6.963s2.232-1.777,3.544-3.875c0.507,4.104-2.466,9.864-2.466,9.864s2.693-0.575,4.538-1.983
				c-0.579,3.786-5.992,6.583-5.992,6.583S103.057,818.912,101.9,817.278"/>
			<path fill="#B23B5B" stroke="#9B3550" stroke-miterlimit="10" d="M100.251,820.175c0,0-0.771-2.146-0.695-3.37
				c0.68,1.512,1.312,2.078,1.312,2.078s-0.172-3.112,0.44-3.687c-0.039,1.464,1.245,1.513,1.245,1.513s0.823-2.288,0.517-3.514
				c1.589,0.612,2.116,3.217,2.116,3.217s1.031-0.821,1.637-1.79c0.234,1.896-1.139,4.557-1.139,4.557s1.244-0.266,2.096-0.916
				c-0.268,1.749-2.768,3.041-2.768,3.041S100.786,820.93,100.251,820.175"/>
			<path fill="#B23B5B" stroke="#9B3550" stroke-miterlimit="10" d="M109.207,820.896c0,0-0.771-2.146-0.695-3.37
				c0.68,1.512,1.312,2.078,1.312,2.078s-0.172-3.112,0.44-3.687c-0.039,1.464,1.245,1.513,1.245,1.513s0.823-2.288,0.517-3.514
				c1.589,0.612,2.116,3.217,2.116,3.217s1.031-0.821,1.637-1.79c0.234,1.896-1.139,4.557-1.139,4.557s1.244-0.266,2.096-0.916
				c-0.268,1.749-2.768,3.041-2.768,3.041S109.741,821.65,109.207,820.896"/>
		</g>
		<path fill="#423A34" stroke="#B58F6F" stroke-miterlimit="10" d="M34.117,796.304c0,0-0.867-40.304,18.633-37.054
			s9.805,44.542,9.805,44.542L34.117,796.304z"/>
		<g id="techo_1_">
			<path fill="#A57653" stroke="#8C6B53" stroke-miterlimit="10" d="M188.002,715.071L145.667,653l-88.245,31.434
				c3.405-0.055,6.447,0.436,8.578,2.566c19.796,22.624,33.373,48.801,48.267,74.346l0.399-1.013l11,8.001v-14.667l2.667,2.667V750
				v-4.333l3.333,4.333l1.667-4.333l7.333,2.666V742l5,4.333v-7l2.083,2.334V738l5.25,2.667l-2.641-10.333l4.974,8.666v-3.333
				L159,740v-9.666l3.334,3.939l4,4.727v-2v-2.667v-3.999l6,9.333v-6.334v-4.552l7.667,6.552l-3.667-13.566l3.667,9.566V726v-4.233
				l4.5,3.9v-8.881l5.167,7.881L188.002,715.071z"/>
			<path fill="#B7845A" stroke="#9E714F" stroke-miterlimit="10" d="M57.422,684.434l-13.755,4.899L-11,745.667v8.666L-9,750
				l-0.5,7.625l3.707-4.749l-1.707,6.188l4.924-6.881l-0.924,7.692l4.763-5.431L0,762.625l4.75-3.562l0.75,6.812l3.375-3.5
				l-0.75,7.75l6.875-6l-3.625,8.25l6.5-3.218l-3.375,7.718l5.875-2.25l-1.75,6.803l6.75-1.803l-0.875,7.709l5.5-4
				c0,0-0.167,7.991,0.5,8.167s4.344-4.951,4.344-4.951l0.822,8.284l4.667-5.167l0.333,8.834l6.5-6.834l0.833,6l2.005-7.422
				l2.495,7.589l3.253-9.804L59,792.667l1.833-5.5L63,789.501l1.5-5.334l1.167,4.834l1.436-8.834L69,787.334L71.875,779l3.373,8.388
				l1.002-8.263l4.25,6.75l2.5-10.041l3.963,9.587l2.703-9.254l1.227,8.017L93,777.167l1.804,6.111L96,775.501l3.5,5.927
				l1.333-9.261l4.5,3.667l0.333-3.501l5.333-1.332v-7.668l1.167,3.334l2.101-5.321C99.373,735.801,85.796,709.624,66,687
				C63.869,684.869,60.827,684.379,57.422,684.434z"/>
			<polyline fill="#93674A" points="88.667,695.5 106,721.767 97.333,703.5 99.551,704.167 98.167,694 			"/>
			<polyline fill="#93674A" points="115.167,716.786 127.167,730.5 116.735,712.333 			"/>
			<polyline fill="#93674A" points="134.833,702.333 147.75,727.5 142.167,711.5 			"/>
			<polyline fill="#93674A" points="132,678.833 146.667,704.5 139.333,685.333 			"/>
			<polyline fill="#93674A" points="114.267,689.667 121.167,699.333 111,676.833 			"/>
			<polyline fill="#93674A" points="161.167,704.5 167.167,714 159,696.833 			"/>
			<polyline fill="#93674A" points="164.667,696.833 174.5,709.5 160.667,688.083 			"/>
			<polyline fill="#93674A" points="147.75,676.833 152.833,679.5 146.667,670.5 154,675.667 146.667,661.5 			"/>
			<polyline fill="#93674A" points="88.667,684.43 96.167,693.167 93.833,683.667 97.333,683.667 97.333,675.833 103.833,680.833 
				104.437,667.687 			"/>
			<polyline fill="#93674A" points="128.167,709.5 134.833,720 125.5,690.667 			"/>
			<polyline fill="#93674A" points="112.167,734.833 119.167,743.167 115.667,730.5 			"/>
			<polyline fill="#9E714F" points="36.5,706.667 6.5,739.167 17.167,732.501 			"/>
			<polyline fill="#9E714F" points="76.167,706.667 96.552,753.501 88.667,746.334 			"/>
			<polyline fill="#9E714F" points="85.667,750 89.833,761.501 83.167,752.183 			"/>
			<polyline fill="#9E714F" points="79.833,757.834 83.167,768.334 76.167,761.501 			"/>
			<polyline fill="#9E714F" points="70.833,728.501 74.833,743.167 66.333,730.5 			"/>
			<polyline fill="#9E714F" points="57.422,747.501 57.422,776.334 54.375,752.183 			"/>
			<polyline fill="#9E714F" points="31.667,743.167 23,763.084 32.5,753.125 			"/>
			<path fill="#9E714F" d="M31,727.5l-8,12.334c0,0,10.389-7.5,11.111-7.5"/>
			<path fill="#9E714F" d="M45.5,701.501c0,0-7.833,11.666-9,14.333s1.167-2.5,4.5-2.5"/>
			<path fill="#9E714F" d="M15.333,744.167l-8.167,9.334c0,0,7.667-6.5,11-7"/>
			<path fill="#9E714F" d="M33.167,763.084c0,0-7.833,5.749-9,8.583c3.833-2.833,11.333-7.666,14-7.166"/>
			<path fill="#9E714F" d="M46.167,773.334L44,784.167c0,0,7.5-9.999,5.167-19.166"/>
		</g>
		<g id="lanza">
			<polygon opacity="0.2" points="125.151,825.265 150.963,844.14 151.927,844.412 151.626,843.724 126.2,825.097 			"/>
			<polygon opacity="0.2" points="129.958,818.624 153.378,840.395 154.303,840.778 154.085,840.06 131.019,818.579 			"/>
			<polygon fill="#875C3E" stroke="#594233" stroke-width="0.25" stroke-miterlimit="10" points="116.521,776.169 119.169,788.623 
				120.863,801.368 124.044,816.335 125.469,826.022 127.534,825.583 125.762,814.656 122.797,800.712 120.907,787.238 
				118.375,775.329 116.132,770.979 			"/>
			<polygon fill="#875C3E" stroke="#594233" stroke-width="0.25" stroke-miterlimit="10" points="128.312,768.859 129.015,781.572 
				128.731,794.427 129.575,809.705 129.495,819.496 131.603,819.379 131.53,808.31 130.743,794.075 130.945,780.472 
				130.272,768.315 128.725,763.672 			"/>
		</g>
	</g>
	<g id="casa3">
		<g id="fuego">
			<ellipse opacity="0.2" cx="655.852" cy="929.194" rx="17.821" ry="9.688"/>
			<polygon opacity="0.2" points="679.625,929.875 679.625,931.791 700,934.5 700,933.882 			"/>
			<polygon opacity="0.2" points="628.375,924.132 627.728,925.577 641.75,929.007 			"/>
			<polygon fill="#7C4621" stroke="#563118" stroke-miterlimit="10" points="656.355,922.119 643.201,927.69 644.749,931.716 
				657.593,924.751 			"/>
			<polygon fill="#7C4621" stroke="#563118" stroke-miterlimit="10" points="659.768,922.119 658.677,925.501 666.724,932.7 
				669.742,929.219 			"/>
			<polygon fill="#7C4621" stroke="#563118" stroke-miterlimit="10" points="656.355,924.132 660.379,924.132 658.677,933.882 
				653.415,933.882 			"/>
			<path fill="#CE2424" d="M652.797,924.775c0,0-6.869-1.287-4.845-9.383c0.981,3.065,3.148,4.354,4.088,4.415
				c0.941,0.062-2.024-5.274,0-9.935c0.419,4.968,1.002,5.274,3.21,5.458c-0.735-1.779-1.84-3.802-0.061-5.856
				c1.778-2.055,1.195-5.612,1.267-7.912c3.118,1.748,8.055,7.022,5.479,12.971c0.552,0.951,3.128-1.318,3.25-2.852
				c0.705,3.466,0.368,8.771-2.576,8.525c1.289,0.562,3.374,0.275,4.999-1.626C665.987,922.107,666.229,927.658,652.797,924.775z"/>
			<path fill="#CC6C25" d="M655.671,924.692c0,0-2.472-0.463-1.743-3.377c0.353,1.104,1.133,1.567,1.471,1.589
				c0.339,0.022-0.729-1.898,0-3.574c0.151,1.786,0.36,1.897,1.155,1.964c-0.265-0.641-0.662-1.369-0.022-2.108
				c0.641-0.739,0.431-2.019,0.457-2.848c1.121,0.629,2.898,2.526,1.971,4.668c0.198,0.343,1.126-0.474,1.17-1.026
				c0.253,1.248,0.132,3.156-0.927,3.068c0.464,0.201,1.213,0.099,1.799-0.585C660.418,923.73,660.504,925.729,655.671,924.692z"/>
			<polygon fill="#7C4621" stroke="#563118" stroke-miterlimit="10" points="623.653,896.191 697.219,906.775 699.062,905.951 
				697.078,904.751 624.503,894.302 621.952,894.302 			"/>
			<path fill="#7C4621" stroke="#563118" stroke-miterlimit="10" d="M627.339,925.706c0,0,0.85-0.506,2.126,0.274
				c1.276,0.781,3.402-25.438,3.402-25.438l3.401-2.187l-3.542-0.229l-2.977-2.311l-1.701,1.354l2.268,2.232L627.339,925.706z"/>
			<path fill="#7C4621" stroke="#563118" stroke-miterlimit="10" d="M678.083,931.8c0,0,0.851-0.506,2.126,0.275
				c1.275,0.78,3.401-25.438,3.401-25.438l2.164-1.392L683,905.1l-2.507-3.188l-1.701,1.354l2.268,2.232L678.083,931.8z"/>
			<path fill="#842200" d="M651.506,893.38c-3.356,0.318-6.524,2.97-5.461,3.508s1.155,2.498-0.209,2.765
				c-2.128,0.416,2.634,3.473,4.861,3.579s15.409,3.189,18.492,2.657c3.083-0.531,2.658-4.89,2.658-5.315
				c0-0.425,0.545-2.994-2.48-3.845C666.34,895.878,654.862,893.061,651.506,893.38z"/>
			<path fill="none" stroke="#4C1000" stroke-miterlimit="10" d="M652.623,894.708c0,0,1.169,5.315-1.542,6.379"/>
			<path fill="none" stroke="#4C1000" stroke-miterlimit="10" d="M658.204,896.196c0,0,1.169,4.727-1.063,5.366"/>
			<path fill="none" stroke="#4C1000" stroke-miterlimit="10" d="M664.423,897.473c0,0-0.479,5.315-2.658,5.581"/>
		</g>
		<g id="casa">
			<polygon id="patio_2_" fill="#B23254" points="804.368,997.777 737.954,1001.124 713.733,935.304 763.867,932.811 			"/>
			<g id="paredes_copy">
				<polygon fill="#E2B890" stroke="#B58F6F" stroke-miterlimit="10" points="972.723,988.159 993.848,922.886 822.228,917.032 
					804.368,997.777 				"/>
				<polygon fill="#C19C7E" stroke="#B58F6F" stroke-miterlimit="10" points="804.368,997.777 763.867,932.811 780.679,865.749 
					821.926,923.341 				"/>
				<line fill="#E2B890" stroke="#B58F6F" stroke-miterlimit="10" x1="975.58" y1="931.387" x2="963.766" y2="981.577"/>
				<line fill="#E2B890" stroke="#B58F6F" stroke-miterlimit="10" x1="961.635" y1="931.837" x2="952.409" y2="979.94"/>
				<line fill="#E2B890" stroke="#B58F6F" stroke-miterlimit="10" x1="933.703" y1="938.846" x2="931.394" y2="978.946"/>
				<line fill="#E2B890" stroke="#B58F6F" stroke-miterlimit="10" x1="900.599" y1="937.213" x2="897.417" y2="986.256"/>
				<line fill="#E2B890" stroke="#B58F6F" stroke-miterlimit="10" x1="865.227" y1="932.795" x2="863.499" y2="983.421"/>
				<line fill="#E2B890" stroke="#B58F6F" stroke-miterlimit="10" x1="846.068" y1="945.535" x2="843.8" y2="983.985"/>
				<line fill="#E2B890" stroke="#B58F6F" stroke-miterlimit="10" x1="828.827" y1="959.245" x2="828.369" y2="981.795"/>
				<line fill="#E2B890" stroke="#B58F6F" stroke-miterlimit="10" x1="824.271" y1="968.778" x2="823.493" y2="995.091"/>
			</g>
			<path id="puerta_1_" fill="#423A34" stroke="#B58F6F" stroke-miterlimit="10" d="M790.245,976.263c0,0,8.238-43.163-0.476-52.704
				c-8.713-9.54-15.336,29.101-15.336,29.101"/>
			<g id="postes_y_trapos_copy">
				<polygon fill="#875D41" stroke="#825E43" stroke-miterlimit="10" points="744.547,870.981 727.867,940.706 721.866,940.781 
					739.067,869.453 				"/>
				<polygon fill="#875D41" stroke="#825E43" stroke-miterlimit="10" points="774.398,922.301 755.755,999.058 749.709,999.3 
					768.919,920.771 				"/>
				<path fill="#B23254" stroke="#9C3551" stroke-miterlimit="10" d="M758.513,999.567c1.269,0.457-2.53-2.164-2.112-0.005
					c0.418,2.157-0.199-1.733-2.49-0.431c-2.292,1.303-4.142-3.243-5.765-0.561c-1.624,2.683-2.85,2.183-2.85,2.183"/>
				<path fill="#B23254" stroke="#9C3551" stroke-miterlimit="10" d="M732.84,940.902c1.268,0.456-2.531-2.164-2.113-0.006
					c0.419,2.158-0.199-1.733-2.49-0.43c-2.292,1.303-4.142-3.244-5.766-0.562c-1.623,2.683-2.849,2.183-2.849,2.183"/>
			</g>
			<g id="techo_copy">
				<path fill="#B7845A" stroke="#99785F" stroke-miterlimit="10" d="M964.213,824.198l45.621,112.479l-7.867-11.528l2.631,13.568
					l-7.088-10.145l-0.465,12.121l-2.391-12.335l-3.02,10.825l-2.33-14.65l-0.59,16.752L977.9,927.77l0.531,10.648
					c0,0-3.5-16.728-4.771-10.081c-1.271,6.646-3.623,12.989-3.623,12.989l-1.701-12.726l-3.17,11.366l-3.174-13.718l-0.318,22.056
					l-2.792-13.007l-2.352,6.344l-3.563-11.281l-1.084-3.431l-0.613,12.661c0,0-0.277,5.173-2.229,1.711
					c-1.951-3.46-4.408-13.479-4.408-13.479l-2.326,10.435l-1.07-10.799l-2.566,9.2l-2.394-12.334l-3.771,13.529l-1.01-13.114
					l-3.92,14.051c0,0-5.281-16.617-4.475-11.142c0.805,5.475-0.527,14.437-0.527,14.437l-3.803-15.645l-4.535,16.258l0.445-16.232
					l-4.234,15.177l-4.822-13.037l-3.927,14.071l-0.459-18.212l-2.566,9.199l-1.215,4.354l-2.896-8.438l-4.4,1.129l-2.264,8.118
					l-3.08-11.965l-1.225,14.847l-2.563-15.903l-2.346,20.951l-6.854-23.518l-1.976,7.078l-1.504,5.39l1.196,6.168l-5.124-17.18
					l-0.329,6.563l-0.563,11.271l-4.44-9.697l-3.432,9.688l-6.112-13.152l-2.287,12.415l-5.643-7.699l-0.15,10.166l-3.462-10.59
					l-3.624,12.989l-4.318-11.705l-4.529,16.236l-6.6-19.261l-5.565,19.949l-2.424-25.759l28.235-101.209l88.558-0.497
					L964.213,824.198z"/>
				<path fill="#A57653" stroke="#8C6B53" stroke-miterlimit="10" d="M839.18,824.901l-19.723,108.541l-3.187,4.945l-3.993,1.872
					l-0.289-3.066l-2.444,2.304l0.565-5.162l-2.729,4.559l-0.55-4.306l-1.074,3.853l-0.984-5.886l-1.452,5.206l-1.178-6.232
					l-1.528,5.478l-1.449-6.308l-1.528,5.477l-0.02-6.2l-3.121,7.005l0.157-5.788l-3.337,4.901l-0.483-4.801l-2.29,4.027
					l-1.769-5.16l-1.737,6.224l-2.292-8.515l-3.014,5.576l-0.775-6.633l-2.038,7.306l-0.127-7.91l-1.912,2.676l-0.686-4.859
					l-5.331,5.514l1.133-4.06l-5.015,6.477l1.15-8.172l-2.815,4.208l-0.257-8.526l-4.702,5.392c0,0,1.935-8.502,4.147-9.635
					c2.211-1.133-8.238,3.389-8.238,3.389s-1.329-2.558,1.547-5.547c2.877-2.988-7.841-1.167-7.841-1.167s-1.268-2.248,1.358-4.87
					c2.628-2.622-4.797,0.994-4.797,0.994s0.732-3.15,2.824-4.899c2.093-1.749-4.25,2.169-4.25,2.169s0.29-3.127,3.48-5.154
					c3.19-2.027-6.785,1.315-6.785,1.315s-1.583-3.213,3.292-4.478c4.873-1.266-5.113,0.032-5.113,0.032s0.99-5.12,3.57-6.005
					c2.581-0.884-6.176-3.473-6.176-3.473s0.32-4.286,3.058-4.688c2.738-0.403-5.783,0.866-5.783,0.866s-0.168-4.435,3.111-5.404
					c3.28-0.968-3.509-2.583-3.509-2.583s-4.956,0.515,0.717-2.57c5.673-3.085-1.266-3.124-1.266-3.124s-1.742-2.82,1.936-3.98
					c3.679-1.161-2.41-2.861-2.41-2.861s-1.164-1.053,2.4-1.809c3.565-0.756,2.064-3.215,2.064-3.215l2.842,0.791l-1.718-3.249
					l3.939,0.516l-3.103-2.471l5.793,0.013l6.157-2.075l5.928-2.43l3.518,0.981l2.499-1.635l6.394-2.009l3.505-1.063l-2.728-1.199
					l3.722-0.274l4.33,1.208l2.25-1.269l1.819,0.8l3.906-3.285l7.09-0.064l1.063-2.766l4.091-0.025l-1.592-1.611l2.662-0.132
					l3.58-1.335l5.287-0.129l7.108-1.954l10.094-2.726l4.861-3.311L839.18,824.901z"/>
				<polyline fill="#9E714F" points="963.004,845.518 978.836,908.998 972.184,897.299 966.764,892.942 965.027,880.865 
					950.325,845.481 				"/>
				<polyline fill="#9E714F" points="943.077,871.461 957.319,915.027 937.095,865.853 				"/>
				<polyline fill="#9E714F" points="918.101,866.898 922.074,895.788 907.768,857.672 				"/>
				<polyline fill="#9E714F" points="878.496,860.662 891.627,919.451 880.868,891.366 879.258,894.781 869.245,862.456 				"/>
				<polyline fill="#9E714F" points="856.254,890.989 860.419,918.401 853.818,899.716 				"/>
				<polyline fill="#9E714F" points="844.105,892.193 844.792,914.042 837.651,873.768 				"/>
				<polyline fill="#9E714F" points="847.948,833.4 838.908,865.806 844.289,828.807 				"/>
				<polyline fill="#9E714F" points="894.234,836.396 897.229,861.731 888.386,831.483 				"/>
				<polyline fill="#9E714F" points="927.056,826.958 933.511,854.791 925.074,834.062 927.89,847.099 918.041,829.475 				"/>
				<polyline fill="#8C6348" points="813.86,887.693 800.782,911.049 816.068,879.777 				"/>
				<polyline fill="#8C6348" points="788.293,895.436 781.095,905.557 795.041,882.225 				"/>
				<path fill="#8C6348" d="M778.988,865.276c0,0-23.305,12.969-25.565,17.15"/>
				<polyline fill="#8C6348" points="765.068,863.145 757.216,868.828 766.125,859.355 				"/>
				<path fill="#8C6348" d="M790.89,852.409c0,0-12.687-1.57-15.759,2.386c2.6-5.399,17.203-7.561,17.203-7.561"/>
				<polyline fill="#8C6348" points="804.739,856.875 775.866,883 804.842,852.583 				"/>
				<polyline fill="#8C6348" points="815.245,859.205 788.632,920.1 815.153,850.647 				"/>
				<polyline fill="#8C6348" points="829.441,842.82 815.57,911.359 826.316,843.043 				"/>
				<polyline fill="#8C6348" points="761.684,886.53 751.157,890.545 759.236,884.049 				"/>
				<polyline fill="#8C6348" points="774.44,900.978 762.835,906.709 770.099,897.143 				"/>
				<polyline fill="#8C6348" points="781.326,918.062 773.313,920.57 777.042,910.673 				"/>
				<polyline fill="#8C6348" points="745.355,874.488 741.296,873.356 746.205,871.444 				"/>
				<polyline fill="#8C6348" points="756.266,860.47 745.647,865.601 756.833,858.439 				"/>
			</g>
			<g id="roca_copy">
				<path id="roca_3_" fill="#7F6068" stroke="#684951" stroke-miterlimit="10" d="M961.34,968.313l4.684,8.306l10.283,2.87
					l6.156,9.3l5.047,4.908l2.48,14.109l-2.717,9.742l-15.344,2.72l-27.577-3.61l-28.48-0.361l-9.028-24.102l7.954-11.782
					l3.461-1.952l3.311-1.409l9.301-6.155l7.876,1.031c0,0-0.867-3.159,2.379-2.253C944.374,970.58,954.456,965.809,961.34,968.313z
					"/>
				<polygon fill="#3A2D31" points="964.943,1013.034 962.303,1012.696 963.105,1008.772 966.705,1004.235 968.156,1003.51 				"/>
				<polyline fill="#7F6068" stroke="#684951" stroke-miterlimit="10" points="981.797,1011.035 980.996,1006.072 976.766,1002.935 
					972.594,1001.423 967.895,1003.634 965.469,1008.668 965.248,1013.119 				"/>
				<polyline fill="#7F6068" stroke="#684951" stroke-miterlimit="10" points="940.206,988.13 939.554,987.073 938.606,986.809 
					937.948,987.865 937.302,990.183 				"/>
				<polyline fill="#7F6068" stroke="#684951" stroke-miterlimit="10" points="930.039,975.489 928.232,976.695 927.75,978.419 
					927.417,980.917 				"/>
				<polyline fill="#7F6068" stroke="#684951" stroke-miterlimit="10" points="930.632,1010.689 929.71,1010.066 927.75,1009.521 
					925.109,1009.585 923.927,1010.934 924.605,1012.434 925.763,1014.553 				"/>
			</g>
			<g id="pasto_copy">
				<path fill="#B23B5B" stroke="#9B3550" stroke-miterlimit="10" d="M905.669,996.76c0,0,10.342-19.263,15.463-21.936
					c-5.482,1.423-11.747,9.957-15.338,15.189c2.072-8.609,0.977-24.283-11.141-23.78c10.148,2.832,10.199,22.644,8.247,26.31
					S905.669,996.76,905.669,996.76z"/>
				<path fill="#B23B5B" stroke="#9B3550" stroke-miterlimit="10" d="M908.353,1006.916c0,0,2.073,2.765,1.729,3.217
					c-0.346,0.45,1.057-3.753-0.025-4.602c-1.082-0.849,4.875-1.813,6.268-1.314s-2.896-2.558-2.896-2.558s6.576-5.932,9.711-4.619
					c3.135,1.312-2.82-4.396-10.104-0.632c-7.287,3.765-4.447-1.318-1.822-3.664c2.621-2.346,5.852-4.508,6.357-4.367
					c0.508,0.143-8.317,0.414-11.068,2.819c0.286-2.983-3.368-8.706-10.117-9.604c0,0,8.036,5.306,4.807,9.435
					c-4.999-3.254-8.983-1.521-9.757-0.315c-0.773,1.207,4.557-0.259,5.123,2.414c-2.29-0.484-7.296-0.504-8.929,2.212
					c4.298-0.113,7.006,2.72,7.485,2.963c0.479,0.244-3.315-0.269-5.091,2.956c3.865-2.094,4.682-1.101,6.712-0.534
					C898.765,1001.288,898.649,1006.014,908.353,1006.916z"/>
				<path fill="#B23B5B" stroke="#9B3550" stroke-miterlimit="10" d="M796.545,1000.334c-1.826-1.728-3.655,0.949-4.632,2.099
					c-0.032-1.386,0.432-3.647,2.343-4.784c-0.284-1.846-4.168-5.531-7.037-4.656c-2.87,0.876,2.617-3.499,8.788-0.137
					c2.84-1.687-3.358-7.171-3.358-7.171s6.251,0.705,7.6,5.484c3.667-3.399,0.418-8.352-0.332-9.582
					c2.882,1.168,6.553,3.761,6.647,6.266c1.335-1.359,3.738-3.697,9.987-2.573c-3.675,1.216-6.101,6.379-6.57,8.194
					c2.971-0.849,5.172,0.347,7.687,2.308c-3.239-0.74-4.803,1.339-5.65,2.415c0,0,4.518-0.708,6.146,2.863
					c-5.127-1.813-8.162-1.128-9.471,0.038C807.382,1002.263,799.661,1003.28,796.545,1000.334z"/>
			</g>
			<path fill="none" stroke="#684951" stroke-miterlimit="10" d="M972.811,994.893c0,0-2.08-5.611-2.816-6.108
				c-0.736-0.498-0.84-3.006-0.84-3.006l-5.311-2.647l-3.592-0.201l-3.358,2.893l-1.85,5.572"/>
			<polyline fill="none" stroke="#684951" stroke-miterlimit="10" points="953.187,1000.939 950.995,999.38 947.956,996.418 
				943.966,995.305 936.984,995.763 931.791,1000.001 932.431,1003.461 			"/>
			<path fill="#CC4E6F" d="M727.914,973.839c0,0-43.092,8.528-48.341,66.345l-38.915-5.228c0,0,29.306-76.061,83.386-73.88
				L727.914,973.839z"/>
		</g>
	</g>
</g>
<g id="camino_frente">
	<path fill="#CC4E6F" d="M1183.562,978.646C1147.444,1025.31,724.529,1075.869,0,867.074V1080h1315.565
		c0,0,36.773-47.257,29.139-101.438C1290.99,980.506,1237.275,978.346,1183.562,978.646z"/>
	<g id="piedras">
		<path fill="#CC4E6F" d="M38.5,874.25h4.692l4.058,3.252c0,0,0.25,5.102,0,5.3s-4.058,0-4.058,0L40.25,881l-3.781-2.43L38.5,874.25
			z"/>
		<path fill="#CC4E6F" d="M72.75,890.292L81,894l4-1.854c0,0,1-2.896,0-3.146s-5.306-3.498-5.903-3.499s-6.347,0-6.347,0V890.292z"
			/>
		<path fill="#CC4E6F" d="M111,902.334h4c0,0,1.874-5.087,0-4.584s-4-3.75-4-3.75h-2.494l-2.193,2.456c0,0-1.313,1.378-1.313,1.711
			S111,902.334,111,902.334z"/>
		<path fill="#CC4E6F" d="M195.75,922l5.75,2.25l3-1.125v-1.827h4.75l-3.5-5.548L202.5,914c0,0-1.75-1.25-2.5-1.25s-10.5,0-10.5,0
			s-2.112-0.813-2.25,1.75S191,922,191,922H195.75z"/>
		<polygon fill="#CC4E6F" points="280.583,946 286,946 286,942.5 284.375,939.807 278.167,936.5 275.25,936.5 271.438,936.915 
			273.75,943.75 		"/>
		<path fill="#CC4E6F" d="M336.25,947.75h12.25c0,0,1,0,1.5,2s2.151,4.512,2.151,4.512h5.349l1.75-1.512l3.25,1.512l1.853,2.477
			l-1.853,4.012h-10.25l-8-2l-4-1l-4-0.75C336.25,957,331,947.75,336.25,947.75z"/>
		<path fill="#CC4E6F" d="M420,964v3.533l5.5,2.217c0,0,1.75-2.75,1.75-2.875s0-1.125,0-1.125l-3.625-1.75H420z"/>
		<polygon fill="#CC4E6F" points="449.5,973.537 451.017,976.5 452,976.5 452.999,973.537 455.25,972.5 452.375,969.75 
			449.5,970.75 		"/>
		<polygon fill="#CC4E6F" points="477.25,980 485.25,983.5 484.148,978.925 481.25,975.5 477.25,975.5 475.5,979.5 		"/>
		<path fill="#CC4E6F" d="M522.359,989.5c0,0,6.619-3.312,6.211-3.375s-3.097-2.625-3.097-2.625h-3.114h-5.522l-1.837,3
			L522.359,989.5z"/>
		<polygon fill="#CC4E6F" points="606,997.019 609.75,1000.606 615.224,998.451 615.224,992.5 610.612,988 606,991.25 		"/>
		<polygon fill="#CC4E6F" points="693,1004.5 695.284,1007.668 703.327,1008.471 706.074,1008.739 708.75,1008.739 708.75,1004.5 
			707.5,1001.124 700.875,1000.606 696.5,1002.433 		"/>
		<polygon fill="#CC4E6F" points="738.938,1011.737 743.5,1013.25 751.066,1011.737 751.157,1006.75 744.547,1002.433 
			738.938,1004.673 737.5,1007.842 734.75,1008.739 734.75,1011.378 		"/>
	</g>
</g>
<g>
</g>
<g>
</g>
<g>
</g>
<g>
</g>
<g>
</g>
<g>
</g>
</svg>
