<?xml version="1.0" encoding="utf-8"?>
<!-- Generator: Adobe Illustrator 16.0.0, SVG Export Plug-In . SVG Version: 6.00 Build 0)  -->
<!DOCTYPE svg PUBLIC "-//W3C//DTD SVG 1.1//EN" "http://www.w3.org/Graphics/SVG/1.1/DTD/svg11.dtd">
<svg version="1.1" id="seccion_1" xmlns="http://www.w3.org/2000/svg" xmlns:xlink="http://www.w3.org/1999/xlink" x="0px" y="0px"
	 width="1030.405px" height="707.792px" viewBox="889.595 372.208 1030.405 707.792"
	 enable-background="new 889.595 372.208 1030.405 707.792" xml:space="preserve">
<g id="montaña_frente_y_yo">
	<path fill="#9E2D4A" stroke="#9B3550" stroke-miterlimit="10" d="M919.167,1080l-9.333-53.499l12-28.721l-32.239-36.211
		l26.999-34.498l31.499-29.999l34.498-26.998l131.993-74.996l164.991-35.999l79.496-13.499l155.991-14.999l152.992-29.999
		c0,0,88.497-52.497,94.495-55.497c6-3,157.449-14.998,157.449-14.998V1080H919.167z"/>
	<path opacity="0.2" enable-background="new    " d="M1364.117,751.108l29.49,10.544l25.354-1.229l114.146,45.616l42.711-3.226
		c0,0,78.303,30.229,98.867,15.197c20.563-15.029-11.072-39.572-11.072-39.572l18.021-15.72l-10.902-47.489l5.537-11.02
		l-26.102,3.108l-1.582,10.416l5.536,32.247l-61.692-34.754l-146.322,15.825l64.855,35.427l-103.63-23.766"/>
	<path fill="#29212C" stroke="#9B3550" stroke-miterlimit="10" d="M1500.092,429.344c0,27.695-18.161,50.149-40.563,50.149
		s-40.563-22.454-40.563-50.149c0-27.7,18.162-50.151,40.563-50.151C1481.93,379.193,1500.092,401.644,1500.092,429.344z"/>
	<path fill="#29212C" stroke="#9B3550" stroke-miterlimit="10" d="M1683.732,704.436c0.469-4.545-19.913-7.743-19.913-7.743
		s-5.502,1.273-14.015-3.318c-2.427-15.936-12.064-51.148-13.552-55.96c-1.487-4.811-14.937-19.084-14.937-19.084
		s-2.487-12.168-3.041-20.188c-0.554-8.02-7.201-24.328-7.201-24.328l8.86-6.093l-23.232-33.649c0,0-12.726-31.902-19.544-38.721
		c-6.819-6.814-20.295-17.68-43.514-15.854c-23.214,1.817-45.256-13.182-45.256-13.182l-59.107,11.429c0,0-38.35-1.464-47.563,9.496
		c-9.216,10.959-7.237,51.98-5.349,56.053c1.89,4.064,2.457,26.04,3.136,37.979c0.106,1.885-1.53,20.776-1.53,20.776
		s9.418-2.348,9.638-1.367c3.352,14.986,8.876,29.818,8.876,29.818s-7.379,20.379-7.396,32.269
		c-0.013,11.888,5.553,66.319,5.553,66.319s-13.894,3.639-23.343,9.273c-3.09,1.841-9.646,0.105-11.283,2.477
		c-3.368,4.884,4.099,10.271,4.099,10.271l47.521-7.59l2.447-24.395c0,0,6.168-47.694,6.445-54.886
		c0.176-4.534-1.923-15.618-1.25-22.169c0.396-3.838,4.017-6.042,4.017-6.042l-2.683-6.986l2.403-24.267l-1.004-10.812l5.431,0.025
		l-7.36-20.8l22.849,35.182l24.933,34.49c0,0,6.23,25.016,5.311,35.088c-0.925,10.072-43.656,60.979-43.656,60.979l47.036-4.152
		c0,0,27.962,5.794,45.663,6.531c17.701,0.739,34.589-5,34.589-5l36.703-9.586c0,0,5.224-5.878,7.067-17.681
		c1.846-11.803-0.369-22.312-4.426-35.952c-4.056-13.645-16.595-37.337-16.595-37.337l-12.17-31.806l-8.296-49.229l12.168,35.953
		l12.169-3.319c0,0,6.8,17.938,10.234,21.356c2.071,2.063,6.287,6.866,9.299,10.341c1.972,2.272-0.174,5.639-0.174,5.639
		s3.948,0.599,4.508,3.999c0.684,4.169,1.217,13.636,6.002,24.212c4.787,10.576,22.894,40.172,26.922,43.054
		c4.025,2.881-3.877,10.693,0.734,14.383C1645.566,714.021,1678.395,708.463,1683.732,704.436z"/>
	<path fill="#29212C" stroke="#9B3550" stroke-miterlimit="10" d="M1424.494,447.044l-5.53-20.283l2.229-21.816
		c0,0-4.352-8.897-4.151-12.457c0.198-3.559,4.943-13.295,4.943-13.295l7.674-6.268h4.06c0,0,7.132,3.963,8.237,3.596
		c1.104-0.37,7.268,0.148,7.268,0.148l10.06-0.742l8.33,1.188l7.039,2.079l11.431,1.843l3.687,0.739l2.952,5.161
		c0,0,3.317,2.95,3.687,4.056c0.371,1.106,1.478,9.589,1.478,9.589l2.212,4.793c0,0,1.106,2.418,1.106,4.529
		c0,2.109-0.738,10.223,0,11.33c0.735,1.104,0,11.433,0,11.433l0.327,8.48v5.899l-1.436,3.409v5.531l-2.396,3.043l-1.106,5.254
		l-1.657,2.031l-3.596-1.756l-3.932,1.215l-2.153,0.541l-5.727,1.716l-6.49,1.254h-6.865l-8.573-1.129l-2.213-0.553l-2.488-1.288
		c0,0-6.916-0.458-7.745,0S1424.494,447.044,1424.494,447.044z"/>
	<g id="detalles_1_">
		<g id="sombras" opacity="0.2">
			<path d="M1394.5,823.152l31.502,22.505L1476.5,859.5c0,0,4.5,1.5,5.5-9s-54-33.362-54-33.362L1394.5,823.152z"/>
			<path d="M1264,792.409l29.334,12.795l20.666,1.729c0,0,14.5-2.854,7-6.896s-40.67-10.861-40.67-10.861L1264,792.409z"/>
			<path d="M1271.5,855.043l35.83,18.457l15.823,8.879h11.177L1332,872.5c0,0-8.692-3.332-8.847-3.166
				c-0.154,0.165-9.153-9.761-9.153-9.761l-6.67-4.53l-22.996-11.604L1271.5,855.043z"/>
			<path d="M1176.891,835.522c0,0,26.513,9.854,29.062,7.914c2.55-1.938-19.45-12.146-19.45-12.146L1176.891,835.522z"/>
			<path d="M1025.447,951.868l0.729,0.542l18.605,13.812l29.123,9.269l37.412,7.933l41.929,2.835c0,0,11.754-3.64,26.254,0.553
				c14.5,4.193,58.5,10.97,58.5,10.97l21.334-8.866l-2.789-10.708l-16.544-4.67l-14.5-11.803l-46.5-24.521l-21.1-17.763
				l-20.779-6.95l-15.1-3.503L1025.447,951.868z"/>
		</g>
		<polygon fill="#9E2D4A" stroke="#6D253F" stroke-width="2" stroke-miterlimit="10" points="1255.002,797.497 1255.002,792.409 
			1255.002,788.011 1259.002,783.234 1261.668,780.28 1265.002,776.144 1266.668,774.053 1271.668,772.742 1276.002,772.285 
			1280.33,773.036 1286.668,776.603 1293.334,783.234 1293.334,788.011 1291.668,794.47 1284.334,800.365 		"/>
		<path fill="#9E2D4A" stroke="#6D253F" stroke-width="2" stroke-miterlimit="10" d="M1173.334,835.522l3.558-7.116v-2.219
			l2.776-1.109l4.329-0.124l2.005-0.635l2.998,4.087c0,0,5.334,3.477,5.334,4.534c0,1.059-5.334,5.324-5.334,5.324l-8.666-0.848
			L1173.334,835.522z"/>
		<path fill="#9E2D4A" stroke="#6D253F" stroke-width="2" stroke-miterlimit="10" d="M1267.002,837.419l5.666-9.521
			c0,0,2.668-1.99,4-2.943c1.334-0.952,4.666-2.878,5.666-2.749s5.668-0.225,5.668-0.225s4.998,4.416,5.332,5.385
			c0.334,0.97,6.668,10.055,6.668,10.055l-3.668,11.248l8,8l2.996,7l-4.996,5.667l-20-8l-8.166-0.667l-12.166-5.624l-2.668-9.387
			L1267.002,837.419z"/>
		<path fill="#9E2D4A" stroke="#6D253F" stroke-width="2" stroke-miterlimit="10" d="M1389.002,824.319l10.332,8.622l12.334,5.323
			l9.334,4.734l5,2.656l7.666-7.393l3.378-5.324l3.956-4.606l-1.667-7.284l-2.289-3.467l-2.711-8.32l-8.667-2.326l-13-4.138h-6.666
			l-11.667,4.138l-5.333,5.74C1389.002,812.676,1386.537,822.264,1389.002,824.319z"/>
		<path fill="#9E2D4A" stroke="#6D253F" stroke-width="2" stroke-miterlimit="10" d="M1079.16,862.761l-0.813-17.104
			c0,0,0.109-1.974-0.618-5.98c-0.727-4.007-4.037-16.522-4.037-16.522l-0.208-12.762l-5.397-7.366l-9.032,1.354l-17.993,11.288
			l-6.133,16.045l-12.047,19.305l-1.391,23.475l-1.764,8.513l-10.09,14.144L997.178,909l-6.972,9.951l-0.088,10.702l1.504,3.158
			l12.057,16.343l19.973,6.734l10.185,5.847l101.744-12.581l12.348-27.108l-8.125-20.118l-19.457-17.877l-13.328-6.81l-17.304-0.149
			L1079.16,862.761z"/>
	</g>
</g>
</svg>
