<?xml version="1.0" encoding="utf-8"?>
<!-- Generator: Adobe Illustrator 16.0.0, SVG Export Plug-In . SVG Version: 6.00 Build 0)  -->
<!DOCTYPE svg PUBLIC "-//W3C//DTD SVG 1.1//EN" "http://www.w3.org/Graphics/SVG/1.1/DTD/svg11.dtd">
<svg version="1.1" id="Layer_1" xmlns="http://www.w3.org/2000/svg" xmlns:xlink="http://www.w3.org/1999/xlink" x="0px" y="0px"
	 width="1920px" height="253.857px" viewBox="0 0 1920 253.857" enable-background="new 0 0 1920 253.857" xml:space="preserve">
<polygon fill="#372E3C" points="0,0 0,231.789 18.143,247.504 49.571,154.646 135.286,137.504 186.714,87.503 276.714,53.219 
	356.714,133.219 425.286,41.789 459.571,41.789 565.286,21.789 593.857,46.075 701,21.789 779.571,21.789 822.429,27.503 
	822.429,47.503 861,60.36 915.286,37.503 945.286,43.219 1015.286,21.789 1059.571,116.075 1092.429,127.504 1141,38.932 
	1216.716,80.36 1252.429,53.219 1342.429,60.36 1396.716,53.219 1403.857,101.789 1469.571,78.932 1541,108.932 1585.287,80.36 
	1609.571,93.219 1659.571,93.219 1705.287,141.789 1718.143,124.646 1738.143,134.646 1782.429,143.219 1809.571,134.646 
	1821,208.932 1838.143,213.219 1858.143,186.074 1883.857,207.504 1898.143,247.504 1920,247.504 1920,0 "/>
</svg>
