<?xml version="1.0" encoding="utf-8"?>
<!-- Generator: Adobe Illustrator 16.0.0, SVG Export Plug-In . SVG Version: 6.00 Build 0)  -->
<!DOCTYPE svg PUBLIC "-//W3C//DTD SVG 1.1//EN" "http://www.w3.org/Graphics/SVG/1.1/DTD/svg11.dtd">
<svg version="1.1" id="Layer_1" xmlns="http://www.w3.org/2000/svg" xmlns:xlink="http://www.w3.org/1999/xlink" x="0px" y="0px"
	 width="1920px" height="253.857px" viewBox="0 0 1920 253.857" enable-background="new 0 0 1920 253.857" xml:space="preserve">
<polygon fill="#372E3C" points="1920,253.857 1920,107.762 1890.5,118.928 1872,152.428 1799.5,191.928 1758,190.928 1676,209.928 
	1628.5,206.428 1543,222.428 1460.428,212.068 1354.714,232.068 1349.5,216.928 1219,232.068 1140.428,232.068 1097.57,226.354 
	1097.57,206.354 1059,193.497 1004.714,216.354 974.714,210.637 904.714,232.068 859.165,200.095 819.832,193.428 776.498,236.762 
	659.832,200.762 641.832,231.428 597.831,224.094 539.164,220.094 512.498,233.428 436.498,227.428 365.831,240.094 
	334.498,220.094 286.498,232.094 243.5,226.428 217.831,210.094 196.5,220.762 163.831,207.428 119.166,209.095 88.166,196.762 
	57.164,203.428 42.833,167.095 25.833,174.428 19.166,151.762 12.5,130.762 0,138.095 0,253.857 "/>
<circle fill="#372E3C" cx="960" cy="277.428" r="141"/>
</svg>
