<?xml version="1.0" encoding="utf-8"?>
<!-- Generator: Adobe Illustrator 16.0.0, SVG Export Plug-In . SVG Version: 6.00 Build 0)  -->
<!DOCTYPE svg PUBLIC "-//W3C//DTD SVG 1.1//EN" "http://www.w3.org/Graphics/SVG/1.1/DTD/svg11.dtd">
<svg version="1.1" id="tree2" xmlns="http://www.w3.org/2000/svg" xmlns:xlink="http://www.w3.org/1999/xlink" x="0px" y="0px"
	 width="1920px" height="1080px" viewBox="0 0 1920 1080" enable-background="new 0 0 1920 1080" xml:space="preserve">
<path fill="#DA4362" d="M1553.682,887.43c-2.084-3.564-12.708-5.685-13.416-5.851s-17.75-2.001-17.75-2.001l5.542-0.5l-1.834-1.166
	l1.584-0.5l-2.375-1.375l0.5-1.209l-2.334-1.333l1.375-1.417c0,0-0.5,0.542-1.125-0.791s-2.25-1.834-2.25-1.834l0.167-1.791
	l-1.875-0.167l-0.667,1.167l-1.458-1.667l1.458-1.042l-2.416-0.791l-4.667-1.292l-3.167,0.917l-2.417,1.5l-0.25,1.833l0.667,3.375
	l0.75,2.417l2.167-0.333l1.458,1.708l1.5,1.667c0,0-0.333,2.791-0.458,2.875s-7.709,0.583-7.709,0.583l0.375,0.75l-4.666-0.125
	l2.791-1c0,0,1.417-1.417,1.167-1.584s-2.333-1.625-2.333-1.625l-2.084-2.25l2.875-0.875l-0.708-1.125l-2.167-0.75l2.167-0.416
	c0,0-0.75-1.5-1.167-1.875s-3.416-2.875-3.625-3.042s-4.083,0.333-4.083,0.333s-2.291,1.042-2.791,1.126s-2.709,1.833-2.709,1.833
	l3.25,1.375l-2.416,0.667l1.625,1.875l-2.25,1.083c0,0,2.666,1.042,2.458,1.125s-1.333,0.125-1.833,0.25s-3.167,2.167-3.167,2.167
	s1.875,0.875,1.5,0.958s-1.458,2-1.542,2.125s-1.166,1.708-1.166,1.708s-3.375,1.75-4.042,1.709s-6-1.209-6-1.209
	s-5.834-3.042-6.25-3.208s-3.917-2.25-4.875-2.584s-2.334-0.208-2.917-0.375s-9.458-4.625-9.458-4.625l-0.042-1.5l0.917-0.833
	c0,0,3.916-0.083,4.083-0.125s3.587-2.125,3.587-2.125l-2.712-1.583l1.625,0.125c0,0,1.167-1.459,1.083-1.834
	s-2.833-2.541-2.833-2.541l-3.792-0.917l4.709-0.75l-2.167-1.542l1.417-1.25l-5.625-3.541l-0.834,1.083l-3.083-0.292l-1.667-0.166
	l1.417-1.125l-2-0.875l-3.5-0.542c0,0-3.125,0.458-3.583,0.542s-3.542,2.583-3.792,3.833s0.958,4.542,0.958,4.542l2.75,0.333
	l3.042,3.542v3.75c0,0-4.208,0.333-4.333,0.333s-5,4.125-5,4.125s-0.209-1-1.459-2.666s-4.916-1.125-4.916-1.125v0.75l-1.584-0.209
	l0.542-1.25c0,0-3.125-1.625-4.041-1.625s-5.042,5.208-5.042,5.208l0.667,1.667l1.833,0.625l-0.458,1.25l-3.5,0.667l1.208,1.208
	l-2.708,0.833l3.958,2c0,0-6.583,3.542-7.875,3.792s-9.917,0.333-11.834,0.167s-24.416-9.833-24.416-9.833l-1-1.625l-0.125-1.667
	l1.458,0.125l-0.458,1.292c0,0,2.291,1.166,4.291,0.875s5.084-3.417,5.084-3.417l-4.042-0.542l4.458-3.291
	c0,0-2.75-0.917-2.833-1.042c-0.059-0.088-2.384-1.269-3.759-1.96c-0.751-0.02-1.652-0.103-2.217,0.357
	c-0.312,0.253-0.507,0.568-0.932,0.61c-0.885,0.089-1.196-0.186-1.344-1.05c-0.013-0.075,0.971-0.172,1,0
	c0.026,0.156,0.044,0.392,0.114,0.589c0.121-0.124,0.245-0.246,0.41-0.315c0.271-0.112,0.544-0.215,0.837-0.256
	c0.607-0.085,1.212-0.084,1.82-0.093c-0.409-0.206-0.683-0.342-0.683-0.342l5.25-0.584l-2.708-2.666c0,0,0.416-0.917,0-1.5
	s-2.75-3.334-3.5-3.625s-3.667,0.75-3.667,0.75l-4.833,0.75l-0.208,1.166l0.958,0.834l-1.208,1.083l1.583,0.625l-1.708,0.792
	l2.416,1.125l-2.416,1.166l2.416,0.959l-1.958,0.083l0.333,1l-1.583,0.458l-1.083,1.625l1.916,0.709l-2.041,0.458l-1.292,2.958
	l-1.292-2.083l-0.167-1.292l-3.916-0.958l2.666-1.042l-2.916-1.083l1.125-1.125l-2.084-0.667l1.292-0.666l-0.583-1.334l-2.584-1.666
	l-1.208,1.708l-1.292,0.583l-0.583,1.459l-1.417,0.833l1.667,0.958l-4.5-0.208l-0.25-0.958l-2.417-0.625l0.917-0.917l-0.708-1.375
	v-0.875l-3.625-1.958l-0.375,0.583l-1.167,1.792l-1.625,1.25l0.417,1.166l-1.959,1.459l2.5,0.416l0.042,0.959l-1.583,0.708
	l-2.542,2.833l3.083,2l-0.083,1.959l1.958,0.583v1.25c0,0-2.208,0.458-2.708,0.458s-5.458,0.167-5.75,0.167s-2.833,1.5-2.833,1.5
	s-9.042,0.083-9.875,0.042s-5.084-2.042-5.084-2.042l-2.458-1.5l-0.583,0.625l-2.584,0.25l-2.125,1.625l-0.75-0.792l-1.333-1.208
	c0,0-0.042-1,1.583-0.917s4.25-2.291,4.25-2.291s-1.125-1.167-1.708-1.667s-3.75-1.083-3.75-1.083l1.583-1.25
	c0,0-1.458-0.875-1.708-1s-4.458-0.834-5.042-0.834s-5.999,2.125-5.999,2.125s0.875,4.333,0.333,3.917s-6.042,0.583-6.042,0.583
	v1.167c0,0-0.875,0.375-1,0.375s-3.25-0.834-3.458-1.305c-0.208-0.472-5.584-5.695-5.709-5.695s-10.291-0.167-11.166-1.209
	s-10.083-3.666-10.083-3.666s-5.542,4.25-6.792,5.916s0.583,3.709,0.583,3.709l2.5,0.375l1.375-1.209l2.917,2.334
	c0,0,0.375,3.166-0.333,4.666s-4.667,2.834-5.292,2.917s-10.584,0.167-12.875,0.459s-6.5,3.875-6.5,3.875l0.166-5.959l2.584-2.833
	l1.291-1.25l1.375,0.667l0.792-0.542l2.167-1c0,0-0.167-1.083-0.25-1.555c-0.083-0.473-2.834-2.403-4.375-3.32
	s-7.417-2.042-7.417-2.042s-4.958,3.333-5,3.167s-5.042-2.667-6.125-2.667s-5.291,3.084-5.291,3.084l-1.375,0.041l0.25,1.042
	l2.666,0.917l-2.333,0.041l-0.208,1l2.75,0.625l-2.917,0.334l0.208,1.291l-0.25,1l1.167,0.834l-1.75,0.083l-2,1.208l2,1.417
	l-1.708,1.292l-1.375,2.916l-1.75,0.375l0.458,1.709c0,0,2.208,0.583,1.208,0.791s-11.5,0.042-13.583-1.208
	s-15.917-8.292-15.917-8.292l-4.541-0.5l0.083-0.75l3.125-0.792c0,0,4.542-0.375,4.583-0.375s0-0.666,0-0.666l-5.125-1.792
	l2.875-0.763v-0.654l-0.25-1.833l-2.958-3.708l0.625-0.834c0,0-3.208-2.416-3.667-2.333s-5.166,5.458-5.166,5.458l-1.001,2.251
	l3.542,0.833l-3.708,1.458l-0.334,1.375l-1.541,1l3.833,1.834c0,0-2.667,0.625-3.125,0.666s-1.708,1.5-1.833,1.625
	s-2.042,1.417-2.792,1.625s-8.375,2.75-9.542,3.083s-7.124,1.042-9.666,1.167s-4.917-1.333-4.917-1.333l-0.416-1.792
	c0,0,1.166,0.083,1.291,0.083s3.542-0.5,3.542-0.5s0.417-0.583-0.292-3.458s-4.5-6.013-4.5-6.013s-2.375-0.362-2.958-1.028
	s-3.834-2.917-3.834-2.917l-0.232-0.959c-0.611,0.123-1.223,0.099-1.851,0.087c-0.048-0.001-0.5,0.01-0.5-0.085
	c0-0.094,0.452-0.085,0.5-0.085c0.011,0,0.022-0.003,0.033-0.003c-0.053-0.002-0.107-0.001-0.16-0.006
	c-0.008-0.001-0.032-0.007-0.062-0.013c-0.457,0.015-0.924-0.076-1.335-0.247c-0.023-0.01-0.005-0.021,0.029-0.035
	c-0.105-0.05,0.163-0.099,0.2-0.103c0.221-0.022,0.467-0.027,0.684,0.03c0.177,0.047,0.356,0.066,0.535,0.096
	c0.127-0.014,0.258-0.015,0.374-0.01c0.011,0,0.096,0.015,0.181,0.032c0.415-0.072,0.833-0.115,1.255-0.136l-0.026-0.107
	l1.917-0.875l-2.167-1.708c0,0,1.334-0.458,1.334-0.583s-0.459-1.167-1.042-2.084s-2.708-2.333-3.792-2.75s-2.791-0.291-2.791-0.291
	s-2.042,1.041-3.042,1.083s-3.458,2.625-3.458,2.625l3.291,1.25l-3.125,1.583l1.5,1.209l-2.083,1c0,0,1.625,0.75,1.5,0.75
	s-1.042,1.083-2.125,1.208c-0.823,0.095-3.407,2.891-4.596,4.222c0.151,0.021,0.268,0.048,0.263,0.071
	c-0.048,0.263-0.131,0.524-0.258,0.761c0.003,0.08,0.008,0.158,0.008,0.239c0,0.039-0.098,0.063-0.228,0.079
	c-0.102,0.116-0.214,0.225-0.353,0.309c-0.048,0.029-0.106,0.055-0.162,0.082c-0.282,0.381-0.655,0.664-1.238,0.757
	c-0.069,0.011-0.889-0.003-0.854-0.061c0.065-0.11,0.152-0.197,0.25-0.271c-0.225,0.032-0.463,0.036-0.687-0.002
	c-0.169-0.028-0.174-0.094,0-0.121c0.535-0.083,1.082-0.429,1.519-0.732c0.146-0.103,0.304-0.217,0.456-0.341
	c0.059-0.136,0.115-0.268,0.172-0.396l-0.793-0.512v-0.416l-1.375-1.417l0.5-1.583l-3.917-1.125l-0.583,0.916l-0.583,0.959
	l-0.875,0.541l-0.917,0.792l-0.5,1.333l-0.75,0.25l0.083,0.959l1.334,0.75l1.166,0.208v1.083l-2.916,0.292v1.541l-1.5,0.292
	l-0.417,0.958l1.542,0.167c0,0-0.333,0.708-0.833,0.792s-7.459,0.25-7.459,0.25l-0.125-1.917l0.584-0.083l0.75-0.917
	c0,0,2.541-0.417,2.625-0.5s0.25-2.458,0-3.583s-3.75-4.792-3.75-4.792l-3.292-0.125l-0.375,1.667l-2.542,1.125
	c0,0-0.542,2.833-0.875,3.041s-0.042,2.917-0.042,2.917h2.417l0.542,0.708l1.791,0.375v2.584c0,0-0.958,0.375-2.041,0.333
	s-9.417,1.792-12.792,1.917s-12.625-1.708-12.625-1.708l-2.667-1.167l0.042-0.667l2.208-1l0.167-2.208l0.25-2.75l-1.958-1.542
	c0,0-2.084-2.541-2.959-2.916s-1.916,0.666-2.458,0.916s-2,1.736-2,1.736l-1.125,3.431l-0.916,0.583l-1.292,2.25l1.958,0.75
	l0.792,0.375l1.042-0.75l0.458,0.917l-0.625,1.416l-1.542,1.167l-1.625-1v-1.667l-0.792,0.042l-0.708-1.958l0.208-0.917l-2.25-2
	l1.167-1l-0.792-1l-4.166,0.167v1.25l-1.125,1.25l-1.292,1.625l-1.417,1.208l3.084,1.542c0,0-0.334,0.666-0.875,1.041
	s-2.625,2.125-2.917,2.167s-14.917,0.458-16.75,0s-11.208-2.666-11.208-2.666v-2.792l8.25-0.083l1.75-2.084l-4.042-1.833
	l1.625-1.917l-2.365-0.665c-0.14,0.011-0.278,0.015-0.409,0.015c-1.019,0-2.083-0.266-3.084,0.027
	c-0.063,0.019-0.192,0.02-0.332,0.012c-0.098,0.063-0.153,0.147-0.194,0.261c0.178,0.012,0.327,0.043,0.345,0.103
	c0.12,0.396,0.044,0.697-0.084,1.083c-0.044,0.132-0.456,0.103-0.736,0.06c-0.095,0.112-0.186,0.226-0.28,0.338
	c-0.087,0.104-0.961,0.115-0.982-0.021c-0.059-0.382,0.136-0.465,0.37-0.73c0.265-0.299,0.282-0.699,0.429-1.056
	c0.114-0.278,0.654-0.279,0.891-0.29c0.071-0.003,0.14-0.014,0.209-0.02c-0.048-0.009-0.296-0.052-0.213-0.094
	c0.84-0.428,1.894-0.48,2.816-0.502c0.319-0.008,1.006-0.036,1.519,0.094l1.229-1.402l-2.405-0.345
	c-0.125,0.042-0.247,0.093-0.375,0.124c0.021,0.026-0.013,0.057-0.115,0.072c-0.281,0.045-0.59,0.074-0.896,0.065
	c-0.533,0.021-1.072-0.036-1.599-0.166c-0.039-0.01-0.087-0.026-0.051-0.065c0.253-0.27,0.597-0.434,0.975-0.544
	c-0.026-0.027,0.006-0.059,0.112-0.078c0.194-0.035,0.388-0.053,0.581-0.064c0.342-0.042,0.691-0.056,1.028-0.063l0.785-1.021
	l-2.708-2l1.25-2.083l-4.084-2.042l-2.458,0.959l-0.167,1.833h-0.708l-0.542,2.167l-1.583,0.083l-0.042,1.625l1.709,0.875
	l-3.834,1.166l4.5,1.542v0.313c0.157-0.057,0.313-0.114,0.474-0.167c0.205-0.197,0.404-0.405,0.629-0.585
	c0.064-0.052,0.297-0.087,0.52-0.088c0.021-0.009,0.039-0.018,0.06-0.024c-0.007-0.08-0.003-0.159-0.014-0.239
	c-0.011-0.091,0.981-0.159,1,0c0.005,0.043,0.003,0.087,0.007,0.13c0.091,0.014,0.155,0.037,0.16,0.079
	c0.008,0.064,0.005,0.13,0.008,0.194c0.027,0.013,0.037,0.023,0.017,0.035c-0.005,0.003-0.011,0.004-0.016,0.008
	c0.007,0.437-0.087,0.866-0.134,1.304c-0.016,0.143-1.001,0.115-1,0c0.001-0.117,0.001-0.234,0.002-0.353
	c-0.057-0.013-0.104-0.03-0.127-0.063c-0.065-0.104-0.119-0.211-0.175-0.319c-0.247,0.238-0.506,0.46-0.823,0.587
	c-0.177,0.071-0.38,0.11-0.586,0.132v0.517l-4.833,0.625l0.75,1.125l-1.458,0.792l-1.584,1.458l6.292,2.834
	c0,0-5.917,0.375-7.833,0.291s-8.584,1-10.875,1.334s-10.292,1.583-11.126,1.583s-4.833-1.542-5.75-1.75s-7.458,1.292-8.208,1.334
	s-4.708-0.459-4.708-0.459l0.625-3.041l5.958-0.917l0.458-1.583l-3.25-0.5l2.125-1.167l-3.208-0.917l0.203-0.131
	c-0.647,0.188-1.306,0.322-1.979,0.396c0.021,0.279,0.168,0.593,0.149,0.903c-0.008,0.135-0.889,0.115-0.981,0.021
	c-0.192-0.191-0.272-0.335-0.352-0.604c-0.004-0.012,0.083-0.033,0.202-0.054c-0.017-0.069-0.03-0.139-0.042-0.205
	c-0.054,0.002-0.105,0.009-0.16,0.01c-0.046,0.001-0.556-0.071-0.481-0.107c0.22-0.106,0.446-0.196,0.675-0.278
	c0.016-0.031,0.031-0.063,0.058-0.089c0.253-0.235,0.579-0.345,0.912-0.416c0.946-0.207,1.876-0.168,2.838-0.153
	c0.006,0,0.032,0.004,0.049,0.006l0.867-0.56l-2.333-0.653l0.875-1.334l-1.708-0.708l0.875-1.417l-3-2.583l-3,4l-1.125,0.583
	l0.25,0.917l-1.709,1.5l2.584,1.083l-1.917-0.083l-0.75,1.583l-1.5,2.25l1.833,1.417l2.75-0.125l0.25,0.792l0.834,0.25v1.875
	c0,0-4.959-0.375-7.042-1.5s-19-0.459-20.75-0.125s-11.583,1.791-13.542,0.124s-11.625-2.791-11.625-2.791l-0.708-0.584
	l-6.667,0.292l-0.625,1.25l-0.25-1.75l4.542-0.417l0.458-0.791l1.792-1.209l-2-0.75l-0.029-0.055
	c-0.438,0.135-0.946,0.112-1.387,0.084c-0.597-0.039-1.191-0.032-1.788-0.022c-1.188,0.115-2.361,0.525-2.254,1.953
	c0.007,0.094-0.95,0.16-1,0c-0.191-0.626-0.268-1.219-0.25-1.873c-0.063-0.021-0.13-0.036-0.19-0.063
	c-0.023-0.015-0.023-0.029,0-0.045c1.173-0.735,2.874-0.394,4.176-0.391h0.117c0.771-0.125,1.551-0.213,2.293-0.145l-0.438-0.776
	l1.333-0.833l-1.291-1.584l-3.792-2.125l1.917-2.375l-4.917-2.541l-1.833,0.917l0.291,2.083l-2.125,0.583l-0.625,1.625l-1.708,1.667
	l2.458,0.917l-4.333,0.583l1,1.32l3.076,0.739c0.074-0.042,0.312-0.057,0.333-0.059c0.134-0.006,0.506-0.05,0.615,0.06
	c0.32,0.321,1.239,1.146,0.666,1.587c-0.232,0.181-0.774,0.133-1.041,0.1c-0.284-0.036-0.548-0.113-0.813-0.2l-2.961,0.37
	l-1.125,1.708l-1.667,1.75l0.542,1.333l3.5,0.292l0.5,1.083c0,0-2.792,1.584-4.958,1.542s-11.792-2.083-13.375-3.167
	s-7.875-1.833-7.875-1.833l-0.042-1.167l1.667-1.167c0,0,2.541,0.042,2.708-0.666s0.625-4,0.292-5.25s-4.875-4.25-6.125-4.167
	s-6,6.417-6.25,6.792s0.416,2.708,0.416,2.708l3.584,0.083l0.125,0.709l0.833,0.25l0.292,0.958c0,0-5.167-0.167-5.959,0.083
	s-2.916,1.209-4.166,1.917s-2.875,0.083-2.875,0.083l0.291-5.041l0.792-0.709l0.458-1.166l0.667,0.445c0,0,1.042,0.43,1.333,0.43
	s1-0.43,1-0.43s1.542-2.695,1.459-3.279s-2.25-3.958-6-4.375s-12.125,7.959-12.209,8.376s0.417,2.416,0.417,2.541
	s0.667,1.209,0.667,1.209s0.958-0.084,1.125-0.25s0.708-0.834,0.708-0.834s0.792,0.292,0.917,0.375s0.625,0.625,1.083,0.625
	c0.374,0,1.325-0.029,1.892-0.176c-0.085-0.018-0.142-0.03-0.142-0.03c0.297-0.716,0.188-1.618-0.167-2.293
	c0.013,0.021,0.885-0.221,1,0c0.096,0.181,0.169,0.379,0.227,0.584l1.065,0.04l1.375,1.292c0,0,0.229,3.375-0.646,3.563
	c-0.875,0.188-9.375,1.625-11.063,1.125c-1.688-0.5-5.688-0.875-8.313-0.625s-12.375,1.313-13.375,1.625
	c-1,0.313-5.5-0.875-5.5-0.875l0.313-6.125l1.125-0.438l7-0.75l2.563-1.625l-1.875-1.563l-0.5-1.313l-1.5-1.5l-1.125-1.875
	l0.625-1.688l-4.25-2.625l1.625-2.5c0,0-1.813-0.563-1.875-0.75c-0.063-0.187-2-1-2.625-1.25s-1.5,0.313-1.5,0.313l-2.063,2.5
	l-1.938,2.313l-0.75,1.875l-2.438,1.063l3.25,1.625l1.188,1.063c0,0-3.25,1.875-4.188,1.813c-0.938-0.063-2.688,4.188-2.688,4.188
	l2.938-0.313l1.125,1.375l2.375,0.125c0,0,1.25,0.5,1.813,1c0.563,0.5,0.313,4.875,0.313,4.875s-10,2.5-11.5,0.5s-18.5-5-24.25-5.25
	s-12.25-0.5-14.75-1s-17.25-2.25-21.75-3.5s-16.5-2-16.5-2l-9.5,3.5c0,0-10.93-9.997-21.43-10.997s-16.82,13.747-16.82,13.747
	s-32.68-8.581-42.18-8.914s-14.464,21.1-30.667,16.667c-10.39-2.843-21.786-6.12-23.667-7.662
	c-3.666-3.005-19.333,7.328-29.666,6.328s-15.117,18.006-39.333,12c-10.458-2.595-33.923-8.808-44-8
	c-10.09,0.81-20.205,14.036-30,16.331c-6.905,1.617-40.327-1.327-46.667,0C338.541,909.133,299.5,909.5,282.5,918.5
	s-24,33.333-24,33.333s1162.764-5.419,1164.264-5.669s70.5-22.25,83-25S1555.766,890.995,1553.682,887.43z M1510.891,868.998
	c-0.114,0-0.421,0.026-0.5-0.085c-0.063-0.076-0.128-0.151-0.19-0.229c-0.076-0.08,0.317-0.103,0.35-0.104
	c0.131-0.006,0.51-0.05,0.615,0.06c0.115,0.12,0.133,0.142,0.227,0.272C1511.42,868.954,1510.914,868.998,1510.891,868.998z
	 M1122.766,863.536c0.113,0,0.422-0.026,0.5,0.085c0.155,0.224,0.238,0.443,0.292,0.709c0.015,0.063-0.964,0.179-1,0
	c-0.054-0.266-0.137-0.485-0.292-0.709C1122.236,863.579,1122.743,863.536,1122.766,863.536z M1087.599,875.455
	c0.128-0.222,0.982,0.031,1,0c-0.146,0.252-0.331,0.472-0.5,0.708c-0.079,0.111-0.385,0.085-0.5,0.085
	c-0.022,0-0.528-0.044-0.5-0.085C1087.268,875.927,1087.453,875.707,1087.599,875.455z M1006.417,874.245
	c0.403-0.095,0.808-0.184,1.209-0.28c0.064-0.024,0.126-0.058,0.189-0.081l-0.029,0.006c-0.228,0.041-0.48,0.038-0.707,0
	c-0.173-0.029-0.169-0.09,0-0.121c0.545-0.1,1.082-0.234,1.636-0.287c0.405-0.038,1.271-0.185,1.6,0.146
	c0.354,0.358-0.92,0.641-1.062,0.664c-0.681,0.111-1.388,0.166-2.078,0.12c-0.01-0.001-0.126-0.018-0.225-0.038
	c-0.118,0.004-0.237,0-0.354-0.012C1006.56,874.357,1006.214,874.293,1006.417,874.245z M952.682,876.371c0-0.127,1-0.127,1,0v0.25
	c0,0.127-1,0.127-1,0V876.371z M947.224,876.621c-0.045-0.194-0.073-0.383-0.083-0.583c-0.005-0.113,0.993-0.141,1,0
	c0.01,0.2,0.038,0.389,0.083,0.583C948.236,876.677,947.267,876.806,947.224,876.621z M891.174,869.997
	c0.171-0.011,0.46-0.036,0.615,0.06c0.088,0.056-0.331,0.104-0.35,0.104c-0.654,0.04-1.311,0.045-1.967,0.045
	c-0.048,0-0.5,0.009-0.5-0.085s0.452-0.085,0.5-0.085C890.041,870.036,890.607,870.031,891.174,869.997z M886.959,868.453
	c0.456-0.136,0.889-0.332,1.333-0.5c0.199-0.075,0.478-0.051,0.684-0.03c0.056,0.005,0.367,0.045,0.181,0.116
	c-0.444,0.168-0.876,0.364-1.333,0.5c-0.213,0.063-0.466,0.052-0.685,0.03C887.096,868.565,886.762,868.512,886.959,868.453z
	 M849.433,873.829c0,0.127-1,0.127-1,0v-0.875c0-0.127,1-0.127,1,0V873.829z M850.849,873.204c-0.028,0.172-1.013,0.074-1,0
	c0.043-0.25,0.095-0.48,0.209-0.708c0.111-0.219,0.991,0.018,1,0C850.942,872.724,850.892,872.954,850.849,873.204z
	 M830.599,874.996c-0.098-0.351-0.234-0.683-0.292-1.041c-0.013-0.078,0.975-0.169,1,0c0.058,0.358,0.194,0.69,0.292,1.041
	C831.61,875.037,830.653,875.189,830.599,874.996z M795.349,863.246c0-0.127,1-0.127,1,0v0.625c0,0.127-1,0.127-1,0V863.246z
	 M793.741,864.04c-0.017,0-0.03,0.005-0.046,0.005c-0.025,0.019-0.048,0.036-0.074,0.057c-0.173,0.136-0.781,0.107-0.963,0
	c-0.053-0.03-0.093-0.057-0.137-0.085c-0.113,0.082-0.234,0.149-0.38,0.177c-0.539,0.096-1.033,0.082-1.086-0.529
	c-0.007-0.08,0.607-0.126,0.874-0.068c0.066-0.102,0.126-0.198,0.167-0.266c0.081-0.13,0.994-0.132,1,0
	c0.009,0.149,0.04,0.253,0.086,0.342c0.264-0.061,0.732-0.049,0.813,0.053c0.027,0.04,0.063,0.07,0.096,0.104
	c0.205,0.019,0.408,0.075,0.655,0.188c0.086,0.039-0.329,0.104-0.35,0.104c-0.192,0.009-0.436,0.021-0.614-0.061
	C793.769,864.054,793.756,864.046,793.741,864.04z M795.765,874.038c-0.122,0.18-0.813,0.107-0.981,0.021
	c-0.039-0.02-0.078-0.035-0.117-0.056c-0.296,0.015-0.698-0.03-0.691-0.092c-0.009-0.083,0.02-0.152,0.083-0.209
	c0.112-0.161,0.681-0.112,0.887-0.053c0.179-0.521,0.12-1.105,0.113-1.655c-0.001-0.123,0.998-0.13,1,0
	C796.064,872.686,796.174,873.435,795.765,874.038z M796.724,866.746c0,0.127-1,0.127-1,0v-0.25c0-0.127,1-0.127,1,0V866.746z
	 M803.765,870.161c0.048,0,0.5-0.009,0.5,0.085s-0.452,0.085-0.5,0.085c-1.082,0-2.161,0.006-3.241,0.08
	c-0.34,0.023-0.963-0.116-0.267-0.164C801.425,870.167,802.595,870.161,803.765,870.161z M800.995,863.699
	c0.012-0.003,0.021-0.011,0.034-0.013c0.188-0.031,0.387-0.031,0.577-0.022c0.144,0.007,0.387,0.005,0.507,0.104
	c0.037,0.031,0.066,0.066,0.1,0.103c0.034,0.001,0.07,0,0.103,0.001c0.021,0.001,0.436,0.065,0.35,0.104
	c-0.325,0.146-0.675,0.159-1.026,0.116c-0.119-0.015-0.255-0.029-0.339-0.126c-0.004-0.005-0.006-0.006-0.01-0.011
	c-0.429,0.121-0.967,0.194-1.107-0.168C800.178,863.779,800.702,863.665,800.995,863.699z M798.557,862.788
	c0.011,0.199,0.044,0.388,0.083,0.583c0.014,0.065-0.964,0.179-1,0c-0.039-0.195-0.072-0.384-0.083-0.583
	C797.551,862.676,798.55,862.647,798.557,862.788z M798.905,866.382c0.259-0.075,0.544-0.083,0.81-0.057
	c0.046,0.005,0.106,0.012,0.164,0.024c0.073-0.104,0.146-0.208,0.22-0.313c0.059-0.101,0.593-0.132,0.854-0.076
	c0.263-0.052,0.792-0.02,0.854,0.076c0.224,0.351,0.479,0.717,0.818,0.582c0.188-0.074,1.012,0.026,0.863,0.086
	c-0.563,0.224-1.1,0.094-1.688,0.075c-0.063-0.002-0.105-0.02-0.16-0.026c-0.051,0.125-0.115,0.246-0.21,0.364
	c0,0,0.001,0.001,0.001,0.002c-0.001,0-0.002,0-0.002,0c-0.007,0.008-0.01,0.015-0.016,0.021c-0.099,0.118-0.91,0.122-0.982-0.021
	c-0.084-0.168-0.144-0.335-0.192-0.505c-0.239,0.039-0.493,0.024-0.743-0.03c-0.743,0.433-0.836,1.692-1.021,2.41
	c-0.049,0.188-1.013,0.048-1,0C797.712,868.072,797.793,866.705,798.905,866.382z M837.807,868.205
	c0.058,0.226,0.139,0.421,0.25,0.625c-0.015-0.025-0.879,0.221-1,0c-0.111-0.204-0.192-0.399-0.25-0.625
	C836.794,868.155,837.76,868.017,837.807,868.205z M837.706,873.894c-0.158,0.099-0.441,0.065-0.615,0.061
	c-0.121-0.004-0.243-0.003-0.347-0.032c-0.145-0.016-0.258-0.045-0.271-0.092c-0.058-0.204-0.119-0.534-0.322-0.636
	c-0.21-0.105-0.36-0.271-0.534-0.426c-0.081-0.072,0.323-0.104,0.35-0.104c0.144-0.007,0.494-0.048,0.615,0.06
	c0.104,0.095,0.204,0.208,0.317,0.292c0.109,0.081,0.235,0.097,0.35,0.166c0.069,0.043,0.135,0.284,0.181,0.468
	c0.044,0.016,0.079,0.032,0.087,0.056c-0.011,0.034-0.021,0.068-0.033,0.104C837.604,873.825,837.764,873.858,837.706,873.894z
	 M837.474,871.621c0.104-0.371,0.262-0.71,0.458-1.041c0.134-0.224,0.979,0.035,1,0c-0.196,0.331-0.354,0.67-0.458,1.041
	C838.42,871.814,837.462,871.663,837.474,871.621z M852.349,875.288c-0.057,0.148-1,0.111-1,0v-1.584c0-0.127,1-0.127,1,0v0.596
	c0.101,0.018,0.168,0.04,0.167,0.071C852.509,874.693,852.464,874.985,852.349,875.288z M854.891,872.579
	c-0.013-0.079,0.975-0.169,1,0c0.032,0.204,0.032,0.38,0,0.584c-0.025,0.169-1.013,0.079-1,0
	C854.923,872.959,854.923,872.783,854.891,872.579z M854.308,873.329c0-0.128,1-0.126,1,0c-0.001,0.266-0.007,0.528-0.042,0.792
	c-0.021,0.163-1.012,0.087-1,0C854.301,873.857,854.307,873.595,854.308,873.329z M853.099,874.538
	c0.009-0.268,0.041-0.528,0.084-0.792c0.027-0.17,1.014-0.078,1,0c-0.043,0.264-0.075,0.524-0.084,0.792
	C854.095,874.674,853.095,874.656,853.099,874.538z M884.474,879.246c-0.051,0.07-0.306,0.108-0.546,0.107
	c-0.2,0.228-0.434,0.427-0.639,0.664c-0.154,0.18-0.979-0.026-0.965-0.045c0.332-0.385,0.757-0.65,0.94-1.145
	c0.007-0.02,0.029-0.034,0.063-0.048c-0.028-0.074-0.048-0.151-0.063-0.243c-0.012-0.081,0.977-0.167,1,0
	c0.014,0.084,0.031,0.154,0.057,0.223c0.218,0.017,0.411,0.046,0.401,0.068C884.663,878.987,884.572,879.109,884.474,879.246z
	 M949.664,878.228c-0.186,0.078-0.419,0.068-0.615,0.061c-0.021-0.001-0.435-0.068-0.35-0.104c0.448-0.188,0.557-0.768,0.69-1.187
	c0.064-0.2,1.011-0.029,1,0C950.25,877.431,950.132,878.03,949.664,878.228z M949.474,873.121c0.018-0.227-0.021-0.362-0.231-0.479
	c-0.088-0.048,0.33-0.104,0.35-0.104c0.183-0.009,0.448-0.032,0.615,0.06c0.227,0.124,0.286,0.266,0.268,0.522
	C950.463,873.269,949.466,873.227,949.474,873.121z M1002.474,877.829c-0.019,0.148-0.88,0.105-0.981,0.021
	c-0.22-0.181-0.626-0.521-0.572-0.854c0.051-0.313,0.323-0.447,0.597-0.546v-0.83c0-0.127,1-0.127,1,0v0.723
	c0.122,0.019,0.211,0.042,0.208,0.069C1002.67,876.891,1002.532,877.353,1002.474,877.829z M1039.016,878.913
	c-0.145,0.223-0.972-0.044-1,0c0.073-0.113,0.088-0.13,0.185-0.23c0.104-0.108,0.484-0.064,0.614-0.06
	c0.031,0.002,0.427,0.024,0.351,0.104C1039.114,878.789,1039.064,878.852,1039.016,878.913z M1040.73,881.37
	c-0.149,0.007-0.484,0.047-0.614-0.061c-0.232-0.189-0.549-0.388-0.688-0.667c-0.177-0.354-0.118-0.769-0.08-1.146
	c0.017-0.154,1.011-0.097,1,0c-0.032,0.332-0.109,0.767,0.047,1.082c0.146,0.293,0.438,0.483,0.687,0.688
	C1041.165,881.334,1040.755,881.369,1040.73,881.37z M1041.307,879.08c0,0.127-1,0.127-1,0v-0.292c0-0.127,1-0.127,1,0V879.08z
	 M1050.724,876.038c0.068-0.202,1.01-0.025,1,0c-0.057,0.169-0.061,0.24,0.065,0.395c0.019,0.022-0.818,0.225-0.965,0.045
	C1050.7,876.326,1050.657,876.235,1050.724,876.038z M1050.182,879.455c-0.082,0.111-0.383,0.085-0.5,0.085
	c-0.021,0-0.528-0.042-0.5-0.085c0.28-0.379,0.542-0.759,0.5-1.25c-0.009-0.101,0.987-0.151,1,0
	c0.004,0.043-0.007,0.081-0.008,0.122c0.02,0.002,0.042,0.003,0.059,0.004c0.023,0.001,0.434,0.035,0.35,0.104
	C1050.725,878.729,1050.441,879.073,1050.182,879.455z M1051.449,879.394c-0.088-0.106-0.125-0.17-0.144-0.313
	c-0.011-0.089,0.98-0.16,1,0c-0.003,0.103,0.033,0.192,0.107,0.269C1052.433,879.371,1051.596,879.572,1051.449,879.394z
	 M1053.307,877.913c0,0.127-1,0.127-1,0v-0.25c0-0.127,1-0.127,1,0V877.913z M1052.682,875.996c-0.001-0.185-0.009-0.36-0.041-0.541
	c-0.013-0.071,0.97-0.174,1,0c0.032,0.181,0.04,0.356,0.041,0.541C1053.683,876.121,1052.683,876.124,1052.682,875.996z
	 M1084.558,877.788c-0.004-0.634-0.339-0.883-0.885-1.1c-0.457-0.183-0.807-0.406-0.949-0.9c-0.012-0.039,0.944-0.194,1,0
	c0.164,0.572,0.608,0.716,1.104,0.932c0.488,0.213,0.727,0.523,0.729,1.068C1085.559,877.913,1084.559,877.917,1084.558,877.788z
	 M1085.433,877.163c0.01-0.301,0.051-0.584,0.125-0.875c0.05-0.189,1.014-0.048,1,0c-0.074,0.291-0.115,0.574-0.125,0.875
	C1086.429,877.298,1085.43,877.281,1085.433,877.163z M1098.266,878.163c-0.006,0.14-1.005,0.113-1,0
	c0.012-0.247,0.071-0.417,0.227-0.605c0.146-0.179,0.982,0.022,0.965,0.045C1098.309,877.781,1098.275,877.942,1098.266,878.163z
	 M1099.516,880.205c-0.006,0.138-1.005,0.115-1,0c0.01-0.229,0.039-0.443,0.083-0.667c0.035-0.177,1.014-0.067,1,0
	C1099.555,879.762,1099.524,879.978,1099.516,880.205z M1102.224,875.746c0.164,0.593-0.129,1.467,0.574,1.789
	c0.575,0.264,1.229,0.173,1.843,0.168c0.049,0,0.5-0.009,0.5,0.085s-0.451,0.085-0.5,0.085c-0.807,0.007-1.723,0.11-2.499-0.168
	c-0.336-0.12-0.715-0.312-0.794-0.7c-0.085-0.419-0.009-0.843-0.124-1.259C1101.212,875.703,1102.17,875.553,1102.224,875.746z
	 M1105.797,882.131c0.145,0.077,0.215,0.175,0.064,0.291c-0.446,0.345-1.243,0.26-1.768,0.219c-0.617-0.048-1.342-0.104-1.896-0.413
	c-0.058-0.031,0.037-0.061,0.051-0.064c0.152-0.052,0.305-0.079,0.458-0.115c-0.165-0.029-0.316-0.083-0.454-0.154
	c-0.268-0.026-0.52-0.097-0.649-0.273c-0.164-0.222-0.168-0.407-0.088-0.553c-0.096-0.165-0.188-0.331-0.293-0.485
	c0.032,0.048,0.852-0.223,1,0c0.026,0.039,0.053,0.089,0.077,0.132c0.477-0.022,0.81,0.095,1.222,0.376
	c0.191,0.132,0.404,0.228,0.625,0.306c0.218,0.004,0.432,0.02,0.632,0.075c0.074,0.021,0.229,0.084,0.373,0.171
	c0.299,0.058,0.597,0.112,0.879,0.188c0.03,0.003,0.054,0.018,0.067,0.043C1106.055,881.995,1105.938,882.072,1105.797,882.131z
	 M1107.956,876.978c-0.553,0.271-1.161,0.503-1.777,0.553c-0.506,0.042-1.196,0.106-1.604-0.262c-0.023-0.015-0.023-0.029,0-0.045
	c0.051-0.023,0.104-0.037,0.155-0.06c-0.088-0.001-0.176-0.002-0.259-0.011c-0.038-0.004-0.382-0.065-0.18-0.116
	c0.735-0.187,1.481-0.246,2.229-0.232c0.064-0.005,0.13-0.011,0.193-0.016c0.167-0.012,0.45-0.033,0.606,0.058
	c0.168,0.016,0.337,0.025,0.505,0.049C1107.825,876.896,1108.039,876.937,1107.956,876.978z M1121.641,862.996
	c0.032,0.237,0.041,0.47,0.042,0.709c0,0.126-1,0.128-1,0c-0.001-0.239-0.01-0.472-0.042-0.709
	C1120.629,862.91,1121.619,862.833,1121.641,862.996z M1121.349,872.871c0.042,0.25,0.084,0.5,0.125,0.75
	c0.014,0.076-0.972,0.171-1,0c-0.041-0.25-0.083-0.5-0.125-0.75C1120.336,872.796,1121.32,872.7,1121.349,872.871z
	 M1120.599,864.288c0.014,0.07-0.968,0.175-1,0c-0.021-0.056-0.021-0.111,0-0.167c0.032-0.175,1.014-0.07,1,0
	C1120.578,864.177,1120.578,864.232,1120.599,864.288z M1120.016,860.536c0.12,0,0.415-0.026,0.5,0.085
	c0.157,0.205,0.302,0.42,0.458,0.625c0.028,0.037-0.477,0.085-0.5,0.085c-0.118,0-0.415,0.026-0.5-0.085
	c-0.156-0.205-0.301-0.42-0.458-0.625C1119.487,860.584,1119.992,860.536,1120.016,860.536z M1116.516,875.621c0,0.127-1,0.127-1,0
	c-0.001-0.325-0.018-0.646-0.057-0.966c-0.271,0.046-0.77,0.036-0.813-0.068c-0.491,0.083-1.015-0.08-1.174-0.591
	c-0.01-0.032,0.938-0.199,1,0c0.011,0.03,0.024,0.067,0.035,0.103c0.174-0.108,0.902-0.128,0.965,0.022
	c0.002,0.005,0.004,0.011,0.008,0.016c0.008,0,0.017-0.001,0.023-0.001c0.005-0.021,0.009-0.045,0.011-0.056c0.03-0.149,1-0.111,1,0
	L1116.516,875.621L1116.516,875.621z M1117.474,868.788c0,0.127-1,0.127-1,0v-2.125c0-0.127,1-0.127,1,0V868.788z M1117.641,862.996
	v-0.916c0-0.127,1-0.127,1,0v0.916C1118.641,863.123,1117.641,863.123,1117.641,862.996z M1119.408,866.891
	c0.163-0.094,0.438-0.066,0.615-0.06c0.02,0.001,0.438,0.054,0.35,0.104c-0.377,0.219-0.706,0.472-1,0.792
	c-0.163,0.178-0.975-0.033-0.965-0.045C1118.703,867.361,1119.031,867.108,1119.408,866.891z M1119.091,871.998
	c0.187-0.009,0.443-0.029,0.615,0.06c-0.058-0.015-0.115-0.027-0.173-0.042c0.164-0.093,0.437-0.067,0.615-0.06
	c0.02,0.001,0.438,0.055,0.35,0.104c-0.498,0.282-1.246,0.307-1.757,0.042C1118.653,872.058,1119.071,871.999,1119.091,871.998z
	 M1119.492,875.851c0.024-0.123,0.038-0.245,0.033-0.371c-0.011-0.26-0.047-0.516-0.053-0.773c-0.003-0.12,0.997-0.134,1,0
	c0.01,0.37,0.163,0.876-0.008,1.225c-0.183,0.374-0.628,0.355-0.992,0.36c-0.048,0.001-0.5,0.009-0.5-0.085
	c0-0.095,0.452-0.084,0.5-0.085C1119.23,876.123,1119.465,875.981,1119.492,875.851z M1124.714,881.835
	c-0.233,0.271-0.651,0.397-0.989,0.482c-0.817,0.206-2.809,0.592-3.729,0.022c-0.258,0-0.522-0.033-0.521-0.095
	c0.007-0.233,0.024-0.469,0.039-0.703c-0.003-0.048,0.002-0.101,0.004-0.151c0.013-0.206,0.022-0.413,0.013-0.617
	c-0.023-0.447-0.221-0.808-0.275-1.233c-0.079-0.61,0.413-1.005,0.872-1.331c0.836-0.594,1.605-0.841,2.608-0.523
	c0.42,0.132,1.348,0.624,1.495,1.087c0.162,0.505-0.198,1.025,0.057,1.527C1124.474,880.672,1125.085,881.405,1124.714,881.835z
	 M1128.077,873.099c-1.277,0.181-3.429,0.898-4.461-0.246c-0.073-0.081,0.315-0.104,0.35-0.104c0.902-0.023,1.765-0.199,2.66-0.277
	c0.481-0.042,1.166-0.096,1.584,0.203c0.271,0.193,0.142,0.28-0.054,0.327C1128.235,873.033,1128.216,873.078,1128.077,873.099z
	 M1167.557,876.621c0,0.127-1,0.127-1,0v-0.594c-0.099-0.017-0.166-0.039-0.166-0.072v-0.5c0-0.127,1-0.127,1,0v0.303
	c0.1,0.017,0.166,0.039,0.166,0.072V876.621z M1168.599,872.288c-0.014,0.151-1.009,0.101-1,0c0.074-0.832,0.046-1.666,0.042-2.5
	c0-0.126,1-0.128,1,0C1168.645,870.622,1168.673,871.456,1168.599,872.288z M1172.125,870.912c0.219-0.056,0.461-0.053,0.684-0.03
	c0.039,0.004,0.383,0.064,0.181,0.116c-0.454,0.115-0.912,0.103-1.373,0.16c-0.566,0.069-0.837,0.474-0.935,1.005
	c-0.03,0.174-1.013,0.071-1,0C1169.925,870.821,1171.125,871.167,1172.125,870.912z M1227.683,870.871c0.002-0.132,1.002-0.122,1,0
	c-0.006,0.361-0.036,0.722-0.042,1.083c-0.002,0.132-1.002,0.122-1,0C1227.646,871.593,1227.677,871.232,1227.683,870.871z
	 M1217.599,871.871c0.164,0.461,0.58,0.705,1.017,0.874c0.187,0.072-0.124,0.111-0.181,0.116c-0.204,0.021-0.484,0.046-0.684-0.03
	c-0.488-0.189-0.967-0.439-1.152-0.96C1216.592,871.852,1217.525,871.666,1217.599,871.871z M1214.641,869.288
	c0.063-0.199,1.011-0.032,1,0c-0.02,0.054-0.032,0.109-0.042,0.166c-0.038,0.181-1.013,0.062-1,0
	C1214.607,869.397,1214.621,869.342,1214.641,869.288z M1214.905,872.143c0.112-0.042,0.231-0.057,0.354-0.063
	c0.354-0.237,0.298-0.951,0.299-1.292c0-0.128,1-0.126,1,0c-0.001,0.42,0.048,1.02-0.313,1.295c-0.153,0.117-0.29,0.155-0.465,0.174
	c-0.255,0.186-0.186,0.793-0.182,1.031c0.002,0.122-0.998,0.132-1,0C1214.593,872.961,1214.502,872.292,1214.905,872.143z
	 M1213.476,882.777c-0.286,0.032-0.575,0.055-0.863,0.077c0.098,0.021,0.195,0.031,0.294,0.057c0.085,0.021,0.078,0.063,0,0.086
	c-0.099,0.028-0.196,0.039-0.294,0.064c0.118,1.077-1.191,2.726,0.336,3.184c0.141,0.042-0.668,0.145-0.863,0.086
	c-1.615-0.484-0.465-1.903-0.459-3.067c-1.152,0.162-2.326,0.141-3.492,0.106c-0.037-0.001-0.521-0.066-0.299-0.125
	c0.424-0.112,0.851-0.191,1.28-0.258c-0.006,0-0.012-0.001-0.018-0.001c-0.589-0.043,0.197-0.162,0.385-0.155
	c0.22,0.009,0.438,0.005,0.659,0.01c-0.257-0.054-0.515-0.105-0.77-0.168c-0.286-0.019-0.573-0.035-0.858-0.062
	c-0.62-0.058,0.319-0.164,0.505-0.146c0.31,0.028,0.618,0.05,0.927,0.071c1.179-0.005,2.354-0.018,3.531,0.095
	C1213.766,882.658,1213.759,882.745,1213.476,882.777z M1213.183,873.077c0,0,0,0.001,0,0.002c-0.005,0.028-0.042,0.047-0.09,0.063
	c-0.059,0.043-0.119,0.084-0.178,0.127c-0.142,0.104-0.456,0.067-0.615,0.061c-0.021-0.001-0.436-0.042-0.35-0.104
	c0.078-0.057,0.157-0.109,0.233-0.167c0.026-0.16,0.037-0.313,0.039-0.478c0.001-0.109,0.699-0.121,0.926-0.05
	c0.105-0.001,0.214,0.006,0.292,0.01c0.02,0.001,0.438,0.048,0.35,0.104C1213.581,872.779,1213.383,872.93,1213.183,873.077z
	 M1212.808,871.829c0.121-0.317,0.243-0.631,0.333-0.958c0.054-0.192,1.013-0.043,1,0c-0.09,0.327-0.212,0.641-0.333,0.958
	C1213.729,872.037,1212.803,871.843,1212.808,871.829z M1216.53,883.995c0.227,0.055-0.381,0.129-0.433,0.128
	c-0.291-0.006-0.501-0.041-0.541,0.331c-0.041,0.379,0.033,0.663,0.208,1c-0.011-0.021-0.886,0.22-1,0
	c-0.546-1.05-0.072-1.384,0.646-1.473c-0.533-0.217-0.662-0.602-0.336-1.224c0.176-0.335,0.396-0.665,0.523-1.021
	c0.329-0.911-0.585-0.855-1.335-0.863c-0.57-0.006-0.571-0.176,0-0.17c0.811,0.009,1.626,0.039,2.391,0.333
	c0.031,0.003,0.054,0.018,0.067,0.043C1216.746,882,1215.009,883.627,1216.53,883.995z M1226.446,884.349
	c-0.97,0.428-2.196,0.645-3.263,0.764c-0.121,0.014-0.757-0.086-0.733-0.097c0.919-0.414,3.054-1.298,1.416-2.455
	c-0.158-0.111-0.281-0.197-0.387-0.271c-0.78,0.021-1.451-0.042-2.229-0.292c-0.109-0.035-0.051-0.067,0.014-0.088
	c-0.337-0.019-0.744-0.135-0.132-0.162c1.076-0.048,2.145-0.169,3.219-0.229c0.065-0.08,0.118-0.161,0.17-0.242
	c0.08-0.461,0.155-0.922,0.192-1.364c-0.062-0.208-0.158-0.412-0.281-0.608c-0.057-0.013-0.104-0.027-0.124-0.056
	c-1.466-1.878-4.419-3.129-6.701-3.043c-0.07,0.003-0.784-0.064-0.564-0.125c0.032-0.009,0.05-0.014,0.079-0.021
	c-0.071,0.019-0.144,0.031-0.215,0.051c-0.079,0.02-0.156,0.024-0.234,0.04c0.041,0.028,0.076,0.045,0.118,0.076
	c0.046,0.036-0.022,0.06-0.051,0.065c-0.676,0.163-2.463,0.558-2.641-0.418c-0.007-0.031,0.067-0.051,0.15-0.063
	c-0.035-0.051-0.081-0.084-0.108-0.146s0.476-0.085,0.5-0.085c0.585-0.007,1.012,0.044,1.443,0.229
	c0.272,0.017,0.545,0.032,0.815,0.06c1.126-0.094,2.438-0.326,2.823-0.331c0.098-0.001,0.748,0.065,0.354,0.146
	c-0.064,0.014-0.138,0.024-0.215,0.036c0.057,0.008,0.113,0.009,0.17,0.021c0.357,0.082,0.618,0.33,0.895,0.543
	c0.198,0.061,0.401,0.133,0.611,0.219c0.625,0.075,1.252,0.136,1.881,0.152c1.566,0.043,2.116,0.961,2.24,2.129
	c0.023-0.109,0.037-0.22,0.064-0.328c0.034-0.14,0.979-0.132,1,0c0.025,0.171,0.036,0.341,0.048,0.511
	c0.141,0.02,0.247,0.045,0.243,0.073C1226.927,879.833,1227.127,884.05,1226.446,884.349z M1226.891,877.913
	c-0.187-0.938-0.17-1.882-0.167-2.834c0-0.128,1-0.126,1,0c-0.003,0.952-0.02,1.896,0.167,2.834
	C1227.903,877.979,1226.926,878.091,1226.891,877.913z M1228.349,875.538c-0.421-0.659-0.457-1.363-0.458-2.125c0-0.127,1-0.127,1,0
	c0.001,0.632,0.042,1.222,0.292,1.781c0.07,0.002,0.143,0.007,0.212,0.014c0.1-0.496,0.171-0.996,0.204-1.504
	c0.011-0.146,1.007-0.106,1,0c-0.045,0.662-0.129,1.313-0.291,1.959c-0.026,0.106-0.349,0.106-0.62,0.08
	c-0.062,0.497-0.049,0.999-0.047,1.503c0.001,0.125-0.999,0.128-1,0c-0.003-0.544-0.013-1.084,0.066-1.62
	C1228.545,875.636,1228.4,875.62,1228.349,875.538z M1257.224,866.869c0.111,0,0.426-0.027,0.5,0.085
	c0.234,0.347,0.482,0.677,0.774,0.978c0.077,0.079-0.319,0.104-0.35,0.104c-0.131,0.006-0.51,0.05-0.615-0.061
	c-0.305-0.314-0.564-0.658-0.811-1.021C1256.694,866.91,1257.201,866.869,1257.224,866.869z M1256.641,872.265v-0.311
	c0-0.023,0.049-0.043,0.117-0.059c0.003-0.009,0.005-0.018,0.008-0.024c0.09-0.212,1.002-0.004,1,0
	c-0.039,0.093-0.063,0.19-0.091,0.286c0.013,0.075,0.024,0.146,0.038,0.227c0.28-0.023,0.612-0.007,0.727,0.133
	c0.192,0.239,0.218,0.681,0.034,0.938c-0.079,0.111-0.386,0.085-0.5,0.085c-0.009,0-0.096-0.008-0.189-0.018
	c-0.04,0.187-0.072,0.382-0.144,0.558c-0.059,0.147-1,0.112-1,0v-0.166c-0.021-0.012-0.038-0.025-0.041-0.042
	C1256.505,873.341,1256.506,872.786,1256.641,872.265z M1255.391,867.079c0.116,0.469,0.176,0.948,0.292,1.417
	c0.014,0.051-0.952,0.188-1,0c-0.116-0.469-0.176-0.948-0.292-1.417C1254.378,867.028,1255.344,866.891,1255.391,867.079z
	 M1254.808,871.329c-0.106-0.904-1.087-0.913-1.738-1.257c-0.557-0.293-0.63-0.81-0.804-1.368c-0.011-0.033,0.938-0.198,1,0
	c0.094,0.3,0.146,0.663,0.313,0.934c0.199,0.321,0.556,0.446,0.896,0.563c0.6,0.204,1.247,0.413,1.332,1.129
	C1255.818,871.42,1254.826,871.488,1254.808,871.329z M1260.697,876.412c-0.415-0.005-0.835-0.047-1.243-0.115
	c-0.926-0.154-0.507,0.383-0.761,0.88c-0.244,0.479-1.655,0.202-2.031,0.13c-1.039-0.202-0.285-1.299,0.114-1.761
	c0.651-0.754,1.105-1.065,2.104-1.061c0.616,0.005,1.251,0.043,1.863,0.161c0.25-0.063,0.896-0.046,0.896,0.058
	c0.001,0.375,0.016,0.748,0.033,1.121C1261.908,876.341,1261.311,876.419,1260.697,876.412z M1265.119,875.14
	c-0.919,0.17-1.964,0.227-2.836-0.163c-0.086-0.038,0.328-0.104,0.35-0.104c0.194-0.009,0.434-0.021,0.615,0.06
	c0.311,0.14,0.604,0.158,0.921,0.122c-0.277-0.135-0.55-0.218-0.869-0.226c-0.021-0.001-0.437-0.051-0.35-0.104
	c0.159-0.099,0.439-0.063,0.614-0.06c0.595,0.014,1.156,0.105,1.684,0.393C1265.329,875.101,1265.12,875.139,1265.119,875.14z
	 M1267.724,873.871c0,0.127-1,0.127-1,0v-0.08c-0.092,0.012-0.188,0.017-0.284,0.016c0.013,0.035,0.021,0.071,0.034,0.106
	c0.007,0.016-0.923,0.207-1,0c-0.123-0.33-0.24-0.659-0.333-1c-0.012-0.045,0.948-0.191,1,0c0.006,0.017,0.013,0.032,0.017,0.048
	c0.082-0.1,0.161-0.186,0.21-0.237c0.069-0.074,0.27-0.077,0.432-0.068c0.227-0.072,0.926-0.058,0.926,0.05L1267.724,873.871
	L1267.724,873.871z M1271.516,872.329c-0.013,0.102-0.439,0.084-0.5,0.085c-0.428,0.005-1.317,0.144-1.655-0.211
	c-0.31-0.323-0.298-0.772-0.228-1.2c-0.215,0.014-0.419,0.001-0.45-0.09c-0.187-0.546-0.17-1.098-0.167-1.667
	c0.001-0.129,1.001-0.125,1,0c-0.002,0.406-0.008,0.805,0.056,1.197c0.245-0.002,0.542,0.039,0.625,0.074
	c0.253-0.006,0.563,0.037,0.636,0.08C1271.512,871.006,1271.613,871.577,1271.516,872.329z M1294.557,869.746
	c-0.003-0.119,0.997-0.134,1,0c0.008,0.292,0.034,0.583,0.042,0.875c0.003,0.119-0.997,0.134-1,0
	C1294.591,870.329,1294.563,870.038,1294.557,869.746z M1295.581,873.144c-0.117,0.108-0.476,0.066-0.615,0.061
	c-0.026-0.001-0.43-0.03-0.35-0.104c0.468-0.433,0.889-0.897,1.231-1.436c0.144-0.223,0.974,0.043,1,0
	C1296.494,872.217,1296.063,872.698,1295.581,873.144z M1296.391,870.205c0.073-0.251,0.114-0.488,0.125-0.75
	c0.006-0.139,1.006-0.114,1,0c-0.011,0.262-0.052,0.499-0.125,0.75C1297.334,870.4,1296.38,870.243,1296.391,870.205z
	 M1300.124,872.653c-0.198,0.181-0.438,0.301-0.695,0.377c-0.006,0.601-0.014,1.2,0.046,1.8c0.01,0.098-0.985,0.154-1,0
	c-0.056-0.568-0.052-1.138-0.046-1.707c-0.284-0.01-0.579-0.059-0.743-0.26c-0.272-0.331-0.305-0.744-0.295-1.158
	c0.004-0.134,1.004-0.12,1,0c-0.006,0.269-0.009,0.563,0.094,0.819c0.006,0.016,0.016,0.03,0.021,0.047
	c0.141-0.046,0.456-0.057,0.684-0.031c0.253-0.332,0.223-0.747,0.077-1.21c-0.01-0.032,0.938-0.198,1,0
	C1300.4,871.764,1300.505,872.306,1300.124,872.653z M1338.989,864.997c-0.313,0.115-0.644,0.123-0.975,0.126
	c-0.048,0-0.5,0.009-0.5-0.085s0.452-0.085,0.5-0.085c0.037-0.015,0.073-0.028,0.11-0.042c0.201-0.074,0.476-0.051,0.684-0.03
	C1338.862,864.886,1339.179,864.928,1338.989,864.997z M1339.349,863.704c-0.031-0.305-0.046-0.611-0.083-0.916
	c-0.011-0.09,0.98-0.16,1,0c0.037,0.305,0.052,0.611,0.083,0.916C1340.358,863.799,1339.365,863.86,1339.349,863.704z
	 M1343.266,873.329c-0.101,0.146-0.903,0.15-1,0c-0.089-0.141-0.181-0.276-0.269-0.416c-0.169,0.363-0.322,0.734-0.439,1.125
	c-0.044,0.147-0.929,0.136-1,0c-0.254-0.48-0.483-0.967-0.792-1.417c0.034,0.05,0.849-0.224,1,0
	c0.076,0.111,0.139,0.229,0.205,0.344c0.145-0.312,0.299-0.619,0.462-0.927c0.082-0.155,0.904-0.141,1,0
	c0.126,0.184,0.241,0.373,0.361,0.561c0.26-0.354,0.513-0.713,0.722-1.103c0.118-0.222,0.987,0.022,1,0
	C1344.164,872.152,1343.688,872.719,1343.266,873.329z M1348.155,867.331c-0.238,0.054-0.477,0.079-0.715,0.087
	c0.014,0.207,0.017,0.414,0.032,0.62c0.009,0.101-0.923,0.146-1,0c-0.106-0.203-0.16-0.42-0.233-0.637
	c-0.038-0.114-0.075-0.241-0.146-0.343c-0.126-0.183-0.285-0.163,0.091-0.197c-0.001,0-0.002-0.001-0.002-0.001
	c-0.039,0.002-0.078,0.009-0.116,0.01c-0.184,0.005-0.977-0.102-0.386-0.155c0.116-0.011,0.246-0.021,0.381-0.026
	c0.104-0.01,0.219-0.021,0.339-0.031c-0.001-0.055-0.01-0.106-0.01-0.16c-0.001-0.124,0.999-0.129,1,0
	c0,0.051,0.007,0.102,0.009,0.152c0.412,0.055,0.755,0.217,0.824,0.64C1348.209,867.313,1348.188,867.328,1348.155,867.331z
	 M1351.016,867.496c-0.078,0.111-0.386,0.085-0.5,0.085c-0.021,0-0.528-0.043-0.5-0.085c0.165-0.235,0.27-0.504,0.417-0.75
	c0.136-0.224,0.979,0.036,1,0C1351.284,866.992,1351.181,867.261,1351.016,867.496z M1356.081,869.811
	c-0.393,0.3-0.931,0.298-1.405,0.249c-0.04-0.004-0.077-0.011-0.117-0.016c-0.207,0.264-0.177,0.735-0.125,1.16
	c0.011,0.091-0.981,0.159-1,0c-0.053-0.438-0.087-0.966,0.19-1.276c-0.157-0.02-0.313-0.043-0.478-0.049
	c-1.154-0.04-0.793-1.233-0.84-2.05c-0.006-0.11,0.992-0.144,1,0c0.027,0.481-0.195,1.337,0.106,1.753
	c0.113,0.155,0.354,0.14,0.58,0.131c0.029-0.008,0.053-0.021,0.085-0.027c0.62-0.113,1.254-0.045,1.873,0.042
	C1355.967,869.729,1356.15,869.758,1356.081,869.811z M1368.064,872.411c-0.635,0.021-1.166-0.021-1.076-0.792
	c0.043-0.369,0.214-0.561-0.434-0.521c-0.243,0.016-0.486,0.034-0.73,0.032c-0.409-0.004-0.801-0.031-1.198-0.133
	c-0.085-0.021-0.078-0.063,0-0.086c0.08-0.023,0.167-0.032,0.248-0.053c-0.098-0.02-0.197-0.03-0.295-0.053
	c-0.164-0.035-0.178-0.091,0-0.121c0.223-0.036,0.483-0.047,0.707,0c0.075,0.018,0.149,0.028,0.225,0.044
	c0.879-0.114,1.812-0.049,2.646,0.142c0.205,0.047-0.146,0.112-0.181,0.116c-0.109,0.014-0.221,0.016-0.331,0.024
	c0.114,0.022,0.232,0.03,0.346,0.066c0.03,0.003,0.054,0.018,0.067,0.043c-0.026,0.202-0.073,0.406-0.078,0.611
	c-0.002,0.102-0.012,0.218,0.021,0.314c0.087,0.263,0.286,0.185-0.2,0.199C1368.137,872.236,1368.764,872.389,1368.064,872.411z
	 M1368.974,861.371c-0.045,0.187-1.013,0.053-1,0c0.18-0.736,0.507-1.438,0.375-2.208c-0.013-0.075,0.972-0.172,1,0
	C1369.479,859.935,1369.152,860.635,1368.974,861.371z M1369.991,860.682c0.366-0.346,0.796-0.624,1.162-0.968
	c0.004-0.008,0.009-0.017,0.013-0.023c0.039-0.078,0.077-0.144,0.116-0.208c0.031-0.158,0.135-0.275,0.297-0.354
	c0.059-0.046,0.119-0.09,0.19-0.124c0.124-0.166,0.247-0.334,0.389-0.488c0.162-0.178,0.976,0.033,0.965,0.045
	c-0.104,0.111-0.188,0.235-0.276,0.357c0.299,0.062,0.583,0.182,0.859,0.348c0.023,0.016-0.693,0.112-0.836,0.083
	c-0.104-0.021-0.203-0.048-0.306-0.071c-0.063,0.081-0.12,0.168-0.191,0.241c-0.027,0.028-0.06,0.052-0.086,0.077
	c0.047,0.403,0.454,0.536,0.793,0.711c0.082,0.043-0.129,0.083-0.129,0.083c-0.352,0.058-0.705,0.047-1.057,0.088
	c-0.454,0.055-0.298,0.611-0.213,0.895c0.011,0.036-0.94,0.197-1,0c-0.051-0.169-0.098-0.363-0.085-0.536
	c-0.194-0.014-0.386-0.041-0.556-0.088C1370.008,860.737,1369.951,860.72,1369.991,860.682z M1417.905,876.164
	c-0.199,0.075-0.479,0.051-0.685,0.03c-0.055-0.005-0.366-0.045-0.18-0.116c0.973-0.369,1.654-1.271,1.807-2.29
	c0.025-0.167,1.013-0.081,1,0C1419.686,874.886,1418.936,875.773,1417.905,876.164z M1421.994,877.266
	c-0.229,0.038-0.479,0.04-0.707,0l-0.146-0.018c-0.048,0-0.5,0.009-0.5-0.085s0.452-0.085,0.5-0.085
	c0.288,0.003,0.569,0.017,0.854,0.065C1422.164,877.175,1422.166,877.236,1421.994,877.266z M1424.773,874.953
	c-0.197,0.009-0.43,0.018-0.615-0.061c-0.063-0.021-0.128-0.044-0.192-0.064c-0.019-0.001-0.438-0.05-0.35-0.104
	c0.155-0.096,0.443-0.068,0.614-0.06c0.314,0.019,0.601,0.063,0.893,0.185C1425.207,874.884,1424.796,874.952,1424.773,874.953z
	 M1427.141,875.581h-0.583c-0.048,0-0.5,0.009-0.5-0.085s0.452-0.085,0.5-0.085h0.583c0.049,0,0.5-0.009,0.5,0.085
	S1427.188,875.581,1427.141,875.581z M1428.661,873.891c-0.229,0.038-0.479,0.037-0.707,0c-0.229-0.038-0.466-0.131-0.696-0.146
	c-0.019-0.001-0.438-0.05-0.35-0.104c0.154-0.096,0.443-0.069,0.615-0.06c0.391,0.025,0.753,0.126,1.138,0.188
	C1428.833,873.798,1428.831,873.861,1428.661,873.891z M1442.557,867.371c-0.11,0.219-0.99-0.019-1,0
	c0.184-0.359,0.444-0.619,0.729-0.901c0.229-0.228,0.509-0.488,0.185-0.763c-0.123-0.104-0.232-0.208-0.34-0.33
	c-0.471-0.541,0.132-1.002,0.568-1.278c0.154-0.098,0.443-0.066,0.615-0.06c0.02,0.001,0.438,0.049,0.35,0.104
	c-0.27,0.171-0.816,0.485-0.706,0.891c0.108,0.395,0.472,0.633,0.79,0.856c0.006,0.008,0.012,0.016,0.018,0.022
	C1443.402,866.438,1442.85,866.797,1442.557,867.371z M1441.658,863.266c0.771-0.374,0.854-1.266,0.981-2.02
	c0.029-0.172,1.014-0.074,1,0c-0.133,0.773-0.228,1.682-1.018,2.063c-0.177,0.086-0.426,0.068-0.615,0.061
	C1441.987,863.369,1441.571,863.308,1441.658,863.266z M1443.974,859.998c-0.599,0-1.193,0.004-1.79,0.071
	c-0.217,0.023-0.472,0.03-0.684-0.03c-0.199-0.058,0.138-0.111,0.18-0.116c0.763-0.086,1.527-0.095,2.294-0.095
	c0.048,0,0.5-0.009,0.5,0.085S1444.021,859.998,1443.974,859.998z M1452.932,866.913c-0.042,0.139-0.082,0.277-0.125,0.416
	c-0.062,0.198-1.011,0.033-1,0c0.043-0.139,0.083-0.277,0.125-0.416C1451.992,866.716,1452.942,866.879,1452.932,866.913z
	 M1444.741,862.269c-0.085-0.064,0.327-0.104,0.35-0.104c0.156-0.007,0.479-0.045,0.615,0.06c0.194,0.148,0.385,0.269,0.616,0.354
	c0.188,0.071-0.126,0.111-0.181,0.116c-0.206,0.021-0.483,0.045-0.684-0.03C1445.195,862.564,1444.967,862.439,1444.741,862.269z
	 M1447.974,871.288c-0.108-0.797-0.044-1.619-0.236-2.404c-0.06-0.235-0.229-0.985-0.583-0.95c-0.351,0.036-0.695,0.09-1.047,0.104
	c-0.338,0.013-0.965-0.138-0.267-0.164c0.717-0.027,2.209-0.479,2.653,0.349c0.497,0.928,0.341,2.06,0.479,3.067
	C1448.985,871.373,1447.996,871.452,1447.974,871.288z M1449.741,859.432c0.59-0.497,1.267-1.019,1.439-1.811
	c0.04-0.183,1.013-0.06,1,0c-0.073,0.337-0.25,0.62-0.461,0.882c0.541,0.153,1.134,0.448,1.703,0.411
	c0.17-0.011,0.46-0.036,0.615,0.06c0.089,0.056-0.331,0.104-0.351,0.104c-0.787,0.051-1.478-0.111-2.194-0.313
	c-0.248,0.256-0.524,0.488-0.788,0.71c-0.127,0.106-0.468,0.066-0.615,0.061C1450.066,859.535,1449.658,859.502,1449.741,859.432z
	 M1450.956,861.516c0.329,0.402,0.503,0.859,0.643,1.355c0.013,0.041-0.944,0.192-1,0c-0.133-0.474-0.292-0.926-0.606-1.312
	C1449.973,861.538,1450.811,861.337,1450.956,861.516z M1451.307,868.163c0.163,0.317,0.34,0.622,0.542,0.916
	c0.029,0.043-0.478,0.085-0.5,0.085c-0.112,0-0.423,0.026-0.5-0.085c-0.202-0.294-0.379-0.599-0.542-0.916
	C1450.316,868.182,1451.194,867.944,1451.307,868.163z M1495.366,868.686c0.012,0.011,0.77-0.213,0.965-0.045
	c0.495,0.428,0.739,0.923,0.559,1.562c0.295-0.023,0.709,0.005,0.709,0.087v1.042c0,0.127-1,0.127-1,0v-0.262
	c-0.169,0.488-0.298,0.961-0.292,1.553c0.001,0.124-0.999,0.13-1,0c-0.008-0.824,0.229-1.37,0.496-2.127
	C1496.064,869.749,1495.995,869.227,1495.366,868.686z M1494.141,870.163c0.082,0.531,0.174,1.059,0.291,1.583
	c0.014,0.059-0.959,0.184-1,0c-0.117-0.524-0.209-1.052-0.291-1.583C1493.128,870.083,1494.114,869.995,1494.141,870.163z
	 M1492.817,883.315c-0.158,0.178-0.416,0.198-0.644,0.221c-0.611,0.058-1.369,0.117-1.967-0.067
	c-0.733-0.227-0.631-1.111-0.901-1.681c0.005,0.01,0.896-0.217,1,0c0.017,0.032,0.022,0.066,0.035,0.101
	c0.085-0.053,0.438-0.061,0.465-0.061c0.581-0.009,1.639-0.192,1.973,0.455C1492.921,882.56,1493.056,883.048,1492.817,883.315z
	 M1492.849,875.746c-0.198-0.581-0.341-1.18-0.667-1.708c0.024,0.039,0.862-0.223,1,0c0.326,0.528,0.469,1.127,0.667,1.708
	C1493.855,875.771,1492.918,875.949,1492.849,875.746z M1494.258,875.912c-0.022-0.001-0.434-0.037-0.35-0.104
	c0.643-0.513,1.359-0.848,1.814-1.562c0.143-0.224,0.974,0.042,1,0c-0.466,0.73-1.19,1.081-1.851,1.605
	C1494.741,875.958,1494.41,875.919,1494.258,875.912z M1497.474,882.163c0,0.127-1,0.127-1,0v-0.417
	c-0.072,0.429-0.123,0.859-0.167,1.292c-0.016,0.155-1.01,0.097-1,0c0.044-0.433,0.095-0.863,0.167-1.292
	c0.029-0.172,1.014-0.074,1,0v-2.125c0-0.127,1-0.127,1,0V882.163z M1498.641,872.038c-0.039-0.148-0.07-0.298-0.108-0.445
	c-0.322,0.212-0.619,0.455-0.908,0.719c-0.119,0.107-0.474,0.065-0.615,0.06c-0.025-0.001-0.431-0.031-0.35-0.104
	c0.403-0.365,0.792-0.729,1.291-0.958c0.138-0.063,0.308-0.065,0.469-0.062c-0.011-0.027-0.016-0.056-0.026-0.083
	c-0.002-0.002,0.908-0.213,1,0c0.119,0.281,0.173,0.58,0.25,0.875C1499.653,872.085,1498.689,872.229,1498.641,872.038z
	 M1518.516,872.746c0.015,0.083,0.027,0.167,0.041,0.25c0.014,0.076-0.972,0.17-1,0c-0.014-0.083-0.026-0.167-0.041-0.25
	C1517.503,872.669,1518.487,872.576,1518.516,872.746z M1516.432,870.83c0.001,0.294,0.009,0.583,0.042,0.875
	c0.012,0.092-0.98,0.159-1,0c-0.034-0.292-0.041-0.581-0.042-0.875C1515.432,870.704,1516.432,870.703,1516.432,870.83z
	 M1515.724,873.538v1.167c0,0.127-1,0.127-1,0v-1.167C1514.724,873.411,1515.724,873.411,1515.724,873.538z M1513.807,868.205
	c0.004-0.135,1.004-0.118,1,0c-0.012,0.393-0.076,0.777-0.125,1.166c-0.02,0.16-1.011,0.089-1,0
	C1513.729,868.982,1513.795,868.598,1513.807,868.205z M1513.932,872.913c-0.121-0.188-0.194-0.366-0.25-0.583
	c-0.013-0.05,0.952-0.188,1,0c0.056,0.217,0.129,0.396,0.25,0.583C1514.903,872.869,1514.076,873.136,1513.932,872.913z
	 M1518.535,877.811c-0.003,0,0.162,0.025,0.146,0.062c-0.437,0.981-2.138,2.413-3.229,2.521c-0.257,0.025-0.919,0.124-0.956-0.265
	c-0.136-1.42,0.074-2.868-0.064-4.298c-0.004-0.038,0.146-0.069,0.329-0.085c0.451-0.481,1.013-0.836,1.48-1.313
	c0.054-0.055,0.205-0.063,0.372-0.055c0.201-0.319,0.499-0.612,0.67-0.737c0.143-0.104,0.99,0.011,0.981,0.022
	c-0.253,0.428-0.488,0.812-0.743,1.149c0.024,0.333,0.326,0.584,0.993,0.599c0.377,0.008,0.718,0.13,0.134,0.167
	c-0.934,0.06-1.497,0.066-2.196,0.699c-0.088,0.316-0.151,0.643-0.196,0.973C1516.767,877.637,1518.077,877.738,1518.535,877.811z
	 M1519.807,872.038c0,0.127-1,0.127-1,0v-0.542c0-0.127,1-0.127,1,0V872.038z"/>
<polygon fill="#DA4362" points="580.474,885.398 581.105,879.714 582.116,880.346 583.126,878.956 584.137,880.725 584.895,878.956 
	587.926,878.956 587.926,877.314 589.442,873.525 587.294,872.515 584.958,870.746 583.505,868.979 580.474,869.609 
	577.695,867.463 574.159,867.463 573.148,870.241 571.759,872.768 572.644,875.42 574.412,874.409 574.285,877.44 575.422,876.431 
	576.18,878.83 577.822,879.335 577.948,885.398 "/>
<path fill="#DA4362" d="M555.087,883.503v-7.072l3.537-6.568l4.042-2.399l2.021-1.137c0,0,4.294,1.263,4.294,0
	c0-1.264-6.063-4.804-6.063-4.804l-3.537,2.277l-2.273-4.8l-2.021,3.789L549.782,859l-3.031,2.522h-6.315l1.263,2.277l-2.778,3.663
	l-4.8,2.399v3.284v3.284l3.031-5.179l1.263,2.146l1.263-2.146l2.526,2.399l2.273-2.399l2.779,2.399l2.021-1.263l2.273,4.042v8.968
	L555.087,883.503z"/>
<polygon fill="#DA4362" points="507.563,896.386 507.563,891.245 503.316,889.457 500.857,886.327 510.022,881.633 515.833,885.88 
	510.916,891.245 510.916,896.386 "/>
<polyline fill="#DA4362" points="476.511,890.674 470.834,887.064 473.672,883.148 477.907,884.664 477.907,880.369 
	474.371,878.097 474.371,875.317 477.907,873.865 479.423,873.865 480.686,870.266 480.686,873.865 483.212,876.328 
	481.191,880.369 480.686,884.158 481.949,887.064 484.728,888.705 484.728,890.674 480.686,893 "/>
<path fill="#DA4362" d="M451.087,887.171v-2.792l8.25-0.083l1.75-2.084l-4.042-1.833l1.625-1.917l-2.365-0.665
	c-0.14,0.011-0.278,0.015-0.409,0.015c-1.019,0-2.083-0.266-3.084,0.027c-0.063,0.019-0.192,0.02-0.332,0.012
	c-0.098,0.063-0.153,0.147-0.194,0.261c0.178,0.012,0.327,0.043,0.345,0.103c0.12,0.396,0.044,0.697-0.084,1.083
	c-0.044,0.132-0.456,0.103-0.736,0.06c-0.095,0.112-0.186,0.226-0.28,0.338c-0.087,0.104-0.961,0.115-0.982-0.021
	c-0.059-0.382,0.136-0.465,0.37-0.73c0.265-0.299,0.282-0.699,0.429-1.056c0.114-0.278,0.654-0.279,0.891-0.29
	c0.071-0.003,0.14-0.014,0.209-0.02c-0.048-0.009-0.296-0.052-0.213-0.094c0.84-0.428,1.894-0.48,2.816-0.502
	c0.319-0.008,1.006-0.036,1.519,0.094l1.229-1.402l-2.405-0.345c-0.125,0.042-0.247,0.093-0.375,0.124
	c0.021,0.026-0.013,0.057-0.115,0.072c-0.281,0.045-0.59,0.074-0.896,0.065c-0.533,0.021-1.072-0.036-1.599-0.166
	c-0.039-0.01-0.087-0.026-0.051-0.065c0.253-0.27,0.597-0.434,0.975-0.544c-0.026-0.027,0.006-0.059,0.112-0.078
	c0.194-0.035,0.388-0.053,0.581-0.064c0.342-0.042,0.691-0.056,1.028-0.063l0.785-1.021l-2.708-2l1.25-2.083l-4.084-2.042
	l-2.458,0.959l-0.167,1.833h-0.708l-0.542,2.167l-1.583,0.083l-0.042,1.625l1.709,0.875l-3.834,1.166l4.5,1.542v0.313
	c0.157-0.057,0.313-0.114,0.474-0.167c0.205-0.197,0.404-0.405,0.629-0.585c0.064-0.052,0.297-0.087,0.52-0.088
	c0.021-0.009,0.039-0.018,0.06-0.024c-0.007-0.08-0.003-0.159-0.014-0.239c-0.011-0.091,0.981-0.159,1,0
	c0.005,0.043,0.003,0.087,0.007,0.13c0.091,0.014,0.155,0.037,0.16,0.079c0.008,0.064,0.005,0.13,0.008,0.194
	c0.027,0.013,0.037,0.023,0.017,0.035c-0.005,0.003-0.011,0.004-0.016,0.008c0.007,0.437-0.087,0.866-0.134,1.304
	c-0.016,0.143-1.001,0.115-1,0c0.001-0.117,0.001-0.234,0.002-0.353c-0.057-0.013-0.104-0.03-0.127-0.063
	c-0.065-0.104-0.119-0.211-0.175-0.319c-0.247,0.238-0.506,0.46-0.823,0.587c-0.177,0.071-0.38,0.11-0.586,0.132v0.517l-4.833,0.625
	l0.75,1.125l-1.458,0.792l-1.584,1.458l6.292,2.834"/>
<path fill="#DA4362" d="M452.742,881.214c0.403-0.095,0.808-0.184,1.209-0.28c0.064-0.024,0.126-0.058,0.189-0.081l-0.029,0.006
	c-0.228,0.041-0.48,0.038-0.707,0c-0.173-0.029-0.169-0.09,0-0.121c0.545-0.1,1.082-0.234,1.636-0.287
	c0.405-0.038,1.271-0.185,1.6,0.146c0.354,0.358-0.92,0.641-1.062,0.664c-0.681,0.111-1.388,0.166-2.078,0.12
	c-0.01-0.001-0.126-0.018-0.225-0.038c-0.118,0.004-0.237,0-0.354-0.012C452.884,881.326,452.539,881.262,452.742,881.214z"/>
<path fill="#DA4362" d="M447.817,884.819c-0.22-0.181-0.626-0.521-0.572-0.854c0.051-0.313,0.323-0.447,0.597-0.546v-0.83
	c0-0.127,1-0.127,1,0v0.723c0.122,0.019,0.211,0.042,0.208,0.069c-0.055,0.478-0.192,0.939-0.251,1.416"/>
<path fill="#DA4362" d="M422.932,904.863c0.167-0.042,3.587-2.125,3.587-2.125l-2.712-1.583l1.625,0.125
	c0,0,1.167-1.459,1.083-1.834s-2.833-2.541-2.833-2.541l-3.792-0.917l4.709-0.75l-2.167-1.542l1.417-1.25l-5.625-3.541l-0.834,1.083
	l-3.083-0.292l-1.667-0.166l1.417-1.125l-2-0.875l-3.5-0.542c0,0-3.125,0.458-3.583,0.542s-3.542,2.583-3.792,3.833
	s0.958,4.542,0.958,4.542l2.75,0.333l3.042,3.542v3.75"/>
<path fill="#DA4362" d="M409.89,901.864c-0.11,0.219-0.99-0.019-1,0c0.184-0.359,0.444-0.619,0.729-0.901
	c0.229-0.228,0.509-0.488,0.185-0.763c-0.123-0.104-0.232-0.208-0.34-0.33c-0.471-0.541,0.132-1.002,0.568-1.278
	c0.154-0.098,0.443-0.066,0.615-0.06c0.02,0.001,0.438,0.049,0.35,0.104c-0.27,0.171-0.816,0.485-0.706,0.891
	c0.108,0.395,0.472,0.633,0.79,0.856c0.006,0.008,0.012,0.016,0.018,0.022C410.735,900.932,410.183,901.29,409.89,901.864z"/>
<path fill="#DA4362" d="M408.991,897.759c0.771-0.374,0.854-1.266,0.981-2.02c0.029-0.172,1.014-0.074,1,0
	c-0.133,0.773-0.228,1.682-1.018,2.063c-0.177,0.086-0.426,0.068-0.615,0.061C409.32,897.862,408.904,897.801,408.991,897.759z"/>
<path fill="#DA4362" d="M411.307,894.491c-0.599,0-1.193,0.004-1.79,0.071c-0.217,0.023-0.472,0.03-0.684-0.03
	c-0.199-0.058,0.138-0.111,0.18-0.116c0.763-0.086,1.527-0.095,2.294-0.095c0.048,0,0.5-0.009,0.5,0.085
	S411.354,894.491,411.307,894.491z"/>
<path fill="#DA4362" d="M420.265,901.406c-0.042,0.139-0.082,0.277-0.125,0.416c-0.062,0.198-1.011,0.033-1,0
	c0.043-0.139,0.083-0.277,0.125-0.416C419.325,901.209,420.275,901.372,420.265,901.406z"/>
<path fill="#DA4362" d="M412.074,896.762c-0.085-0.064,0.327-0.104,0.35-0.104c0.156-0.007,0.479-0.045,0.615,0.06
	c0.194,0.148,0.385,0.269,0.616,0.354c0.188,0.071-0.126,0.111-0.181,0.116c-0.206,0.021-0.483,0.045-0.684-0.03
	C412.528,897.058,412.3,896.933,412.074,896.762z"/>
<path fill="#DA4362" d="M415.07,903.377c-0.06-0.235-0.229-0.985-0.583-0.95c-0.351,0.036-0.695,0.09-1.047,0.104
	c-0.338,0.013-0.965-0.138-0.267-0.164c0.717-0.027,2.209-0.479,2.653,0.349c0.497,0.928,0.341,2.06,0.479,3.067"/>
<path fill="#DA4362" d="M417.074,893.925c0.59-0.497,1.267-1.019,1.439-1.811c0.04-0.183,1.013-0.06,1,0
	c-0.073,0.337-0.25,0.62-0.461,0.882c0.541,0.153,1.134,0.448,1.703,0.411c0.17-0.011,0.46-0.036,0.615,0.06
	c0.089,0.056-0.331,0.104-0.351,0.104c-0.787,0.051-1.478-0.111-2.194-0.313c-0.248,0.256-0.524,0.488-0.788,0.71
	c-0.127,0.106-0.468,0.066-0.615,0.061C417.399,894.028,416.991,893.995,417.074,893.925z"/>
<path fill="#DA4362" d="M418.289,896.009c0.329,0.402,0.503,0.859,0.643,1.355c0.013,0.041-0.944,0.192-1,0
	c-0.133-0.474-0.292-0.926-0.606-1.312C417.306,896.031,418.144,895.83,418.289,896.009z"/>
<path fill="#DA4362" d="M418.182,903.572c-0.202-0.294-0.379-0.599-0.542-0.916c0.01,0.019,0.888-0.219,1,0
	c0.163,0.317,0.34,0.622,0.542,0.916"/>
<path fill="#DA4362" d="M619.576,871.032l0.313-6.125l1.125-0.438l7-0.75l2.563-1.625l-1.875-1.563l-0.5-1.313l-1.5-1.5
	l-1.125-1.875l0.625-1.688l-4.25-2.625l1.625-2.5c0,0-1.813-0.563-1.875-0.75c-0.063-0.187-2-1-2.625-1.25s-1.5,0.313-1.5,0.313
	l-2.063,2.5l-1.938,2.313l-0.75,1.875l-2.438,1.063l3.25,1.625l1.188,1.063c0,0-3.25,1.875-4.188,1.813
	c-0.938-0.063-2.688,4.188-2.688,4.188l2.938-0.313l1.125,1.375l2.375,0.125c0,0,1.25,0.5,1.813,1
	c0.563,0.5,0.313,4.875,0.313,4.875"/>
<path fill="#DA4362" d="M617.349,853.678c0-0.127,1-0.127,1,0v0.625c0,0.127-1,0.127-1,0V853.678z"/>
<path fill="#DA4362" d="M615.741,854.472c-0.017,0-0.03,0.005-0.046,0.005c-0.025,0.019-0.048,0.036-0.074,0.057
	c-0.173,0.136-0.781,0.107-0.963,0c-0.053-0.03-0.093-0.057-0.137-0.085c-0.113,0.082-0.234,0.149-0.38,0.177
	c-0.539,0.096-1.033,0.082-1.086-0.529c-0.007-0.08,0.607-0.126,0.874-0.068c0.066-0.102,0.126-0.198,0.167-0.266
	c0.081-0.13,0.994-0.132,1,0c0.009,0.149,0.04,0.253,0.086,0.342c0.264-0.061,0.732-0.049,0.813,0.053
	c0.027,0.04,0.063,0.07,0.096,0.104c0.205,0.019,0.408,0.075,0.655,0.188c0.086,0.039-0.329,0.104-0.35,0.104
	c-0.192,0.009-0.436,0.021-0.614-0.061C615.769,854.485,615.756,854.478,615.741,854.472z"/>
<path fill="#DA4362" d="M617.765,864.47c-0.122,0.18-0.813,0.107-0.981,0.021c-0.039-0.02-0.078-0.035-0.117-0.056
	c-0.296,0.015-0.698-0.03-0.691-0.092c-0.009-0.083,0.02-0.152,0.083-0.209c0.112-0.161,0.681-0.112,0.887-0.053
	c0.179-0.521,0.12-1.105,0.113-1.655c-0.001-0.123,0.998-0.13,1,0C618.064,863.117,618.174,863.866,617.765,864.47z"/>
<path fill="#DA4362" d="M618.724,857.178c0,0.127-1,0.127-1,0v-0.25c0-0.127,1-0.127,1,0V857.178z"/>
<path fill="#DA4362" d="M625.765,860.593c0.048,0,0.5-0.009,0.5,0.085s-0.452,0.085-0.5,0.085c-1.082,0-2.161,0.006-3.241,0.08
	c-0.34,0.023-0.963-0.116-0.267-0.164C623.425,860.599,624.595,860.593,625.765,860.593z"/>
<path fill="#DA4362" d="M622.995,854.131c0.012-0.003,0.021-0.011,0.034-0.013c0.188-0.031,0.387-0.031,0.577-0.022
	c0.144,0.007,0.387,0.005,0.507,0.104c0.037,0.031,0.066,0.066,0.1,0.103c0.034,0.001,0.07,0,0.103,0.001
	c0.021,0.001,0.436,0.065,0.35,0.104c-0.325,0.146-0.675,0.159-1.026,0.116c-0.119-0.015-0.255-0.029-0.339-0.126
	c-0.004-0.005-0.006-0.006-0.01-0.011c-0.429,0.121-0.967,0.194-1.107-0.168C622.178,854.211,622.702,854.097,622.995,854.131z"/>
<path fill="#DA4362" d="M620.557,853.22c0.011,0.199,0.044,0.388,0.083,0.583c0.014,0.065-0.964,0.179-1,0
	c-0.039-0.195-0.072-0.384-0.083-0.583C619.551,853.107,620.55,853.079,620.557,853.22z"/>
<path fill="#DA4362" d="M620.905,856.813c0.259-0.075,0.544-0.083,0.81-0.057c0.046,0.005,0.106,0.012,0.164,0.024
	c0.073-0.104,0.146-0.208,0.22-0.313c0.059-0.101,0.593-0.132,0.854-0.076c0.263-0.052,0.792-0.02,0.854,0.076
	c0.224,0.351,0.479,0.717,0.818,0.582c0.188-0.074,1.012,0.026,0.863,0.086c-0.563,0.224-1.1,0.094-1.688,0.075
	c-0.063-0.002-0.105-0.02-0.16-0.026c-0.051,0.125-0.115,0.246-0.21,0.364c0,0,0.001,0.001,0.001,0.002c-0.001,0-0.002,0-0.002,0
	c-0.007,0.008-0.01,0.015-0.016,0.021c-0.099,0.118-0.91,0.122-0.982-0.021c-0.084-0.168-0.144-0.335-0.192-0.505
	c-0.239,0.039-0.493,0.024-0.743-0.03c-0.743,0.433-0.836,1.692-1.021,2.41c-0.049,0.188-1.013,0.048-1,0
	C619.712,858.504,619.793,857.137,620.905,856.813z"/>
<path fill="#DA4362" d="M657.891,876.013l0.236-4.631l0.851-0.331l5.292-0.566l1.938-1.229l-1.417-1.182l-0.378-0.992l-1.134-1.134
	l-0.851-1.418l0.473-1.276l-3.213-1.985l1.229-1.89c0,0-1.371-0.426-1.417-0.567c-0.047-0.141-1.512-0.756-1.985-0.945
	c-0.473-0.188-1.134,0.237-1.134,0.237l-1.56,1.891l-1.465,1.748l-0.567,1.418l-1.844,0.804l2.458,1.229l0.898,0.804
	c0,0-2.458,1.417-3.167,1.371c-0.708-0.048-2.032,3.166-2.032,3.166l2.221-0.236l0.851,1.039l1.796,0.095
	c0,0,0.945,0.378,1.371,0.756c0.425,0.378,0.236,3.687,0.236,3.687"/>
<path fill="#DA4362" d="M656.207,862.892c0-0.096,0.756-0.096,0.756,0v0.473c0,0.096-0.756,0.096-0.756,0V862.892z"/>
<path fill="#DA4362" d="M654.992,863.492c-0.013,0-0.023,0.003-0.035,0.003c-0.02,0.015-0.036,0.027-0.056,0.043
	c-0.131,0.103-0.591,0.081-0.728,0c-0.04-0.022-0.07-0.043-0.104-0.064c-0.085,0.063-0.177,0.113-0.287,0.134
	c-0.408,0.072-0.781,0.063-0.821-0.399c-0.005-0.061,0.459-0.096,0.661-0.052c0.05-0.077,0.095-0.15,0.126-0.201
	c0.062-0.099,0.752-0.1,0.756,0c0.006,0.113,0.03,0.191,0.065,0.259c0.199-0.046,0.554-0.037,0.615,0.039
	c0.021,0.03,0.047,0.054,0.073,0.079c0.155,0.015,0.309,0.058,0.495,0.142c0.065,0.03-0.249,0.079-0.264,0.079
	c-0.146,0.007-0.33,0.017-0.464-0.045C655.012,863.502,655.002,863.496,654.992,863.492z"/>
<path fill="#DA4362" d="M656.521,871.051c-0.092,0.136-0.614,0.081-0.742,0.017c-0.029-0.015-0.059-0.026-0.088-0.042
	c-0.224,0.011-0.528-0.023-0.523-0.069c-0.007-0.063,0.015-0.115,0.063-0.158c0.085-0.122,0.515-0.085,0.67-0.04
	c0.135-0.395,0.091-0.836,0.085-1.251c0-0.094,0.754-0.099,0.756,0C656.748,870.028,656.831,870.595,656.521,871.051z"/>
<path fill="#DA4362" d="M657.247,865.538c0,0.096-0.756,0.096-0.756,0v-0.189c0-0.096,0.756-0.096,0.756,0V865.538z"/>
<path fill="#DA4362" d="M662.57,868.12c0.036,0,0.378-0.007,0.378,0.063c0,0.071-0.342,0.064-0.378,0.064
	c-0.818,0-1.634,0.005-2.451,0.061c-0.257,0.018-0.728-0.088-0.201-0.124C660.801,868.124,661.686,868.12,662.57,868.12z"/>
<path fill="#DA4362" d="M660.476,863.234c0.009-0.003,0.016-0.009,0.026-0.01c0.142-0.023,0.292-0.023,0.436-0.017
	c0.109,0.005,0.292,0.003,0.383,0.078c0.028,0.024,0.05,0.051,0.075,0.078c0.026,0.001,0.053,0,0.078,0.001
	c0.016,0,0.33,0.049,0.265,0.078c-0.246,0.11-0.51,0.12-0.776,0.088c-0.09-0.012-0.192-0.022-0.256-0.096
	c-0.003-0.004-0.004-0.004-0.008-0.008c-0.324,0.092-0.731,0.146-0.837-0.127C659.858,863.295,660.254,863.208,660.476,863.234z"/>
<path fill="#DA4362" d="M658.632,862.545c0.008,0.151,0.033,0.294,0.063,0.441c0.01,0.049-0.729,0.135-0.756,0
	c-0.029-0.147-0.055-0.29-0.063-0.441C657.872,862.46,658.627,862.438,658.632,862.545z"/>
<path fill="#DA4362" d="M658.896,865.263c0.196-0.058,0.411-0.063,0.612-0.043c0.035,0.004,0.081,0.009,0.124,0.019
	c0.056-0.078,0.111-0.157,0.167-0.236c0.044-0.076,0.448-0.1,0.646-0.058c0.199-0.039,0.599-0.015,0.645,0.058
	c0.169,0.265,0.363,0.542,0.619,0.439c0.142-0.056,0.765,0.021,0.652,0.065c-0.426,0.169-0.831,0.071-1.276,0.057
	c-0.048-0.001-0.08-0.015-0.121-0.02c-0.039,0.095-0.087,0.186-0.159,0.275l0,0.001c0,0-0.001,0-0.001,0
	c-0.005,0.006-0.007,0.012-0.012,0.017c-0.075,0.089-0.688,0.092-0.743-0.017c-0.063-0.127-0.108-0.253-0.146-0.382
	c-0.181,0.03-0.373,0.019-0.562-0.022c-0.562,0.327-0.632,1.279-0.772,1.822c-0.037,0.143-0.766,0.036-0.756,0
	C657.994,866.54,658.055,865.507,658.896,865.263z"/>
</svg>
