<?xml version="1.0" encoding="utf-8"?>
<!-- Generator: Adobe Illustrator 16.0.0, SVG Export Plug-In . SVG Version: 6.00 Build 0)  -->
<!DOCTYPE svg PUBLIC "-//W3C//DTD SVG 1.1//EN" "http://www.w3.org/Graphics/SVG/1.1/DTD/svg11.dtd">
<svg version="1.1" id="mountain_2" xmlns="http://www.w3.org/2000/svg" xmlns:xlink="http://www.w3.org/1999/xlink" x="0px" y="0px"
	 width="1920px" height="1080px" viewBox="0 0 1920 1080" enable-background="new 0 0 1920 1080" xml:space="preserve">
<path fill="#DC8575" d="M666.281,876.207c5.079-1.567,7.5-5.166,10.833-5.5s12.333-1.355,15.167-2.595s7.167-5.905,8.167-6.072
	s3.833-8.333,3.833-8.333l1.833,6.5l4.5-9.334v5.334c0,0,3.333-3.166,4.167-4.5s-0.333-3,2.167-3.167s5.667,0,5.667,0v-2.167h1.333
	v1.834l1.25-1.834l0.667,1.917l1.5-2.417l1.083,3.084l1.083-3.834l0.583,3l2.25-4.166l0.5,2.166l1.417-0.333v-0.75l1,0.667
	l1.083-0.084v-1.666h2.5l0.333-1.5c0,0,1.917,0.416,2,0.666s1.833,0.417,1.833,0.417l0.833-1.083l0.917-2.334c0,0,0.5,1.75,0.5,2
	s1-0.5,1-0.5l1.75-0.25l0.417,0.75l0.75-2h1.5v1.584l1.667-2.5l1.917-0.5l0.417-0.75l1.5,1c0,0,1.667-2.666,1.917-2.75
	s0.667,0,0.667,0l1.25,2.333l0.833-1.167l1.167-1.203l0.333-0.38l1.667,1.667l1.5-0.334v-2.5l1.5,1.084l0.833,1.333
	c0,0,1.083,0.249,1.25,0.583s1.167,0.834,1.167,0.834l2.25,0.5l1.417-0.25l2.333-0.25c0,0,0.75,1.083,0.75,1.333s0,1.083,0,1.083
	l1.333-0.333h1.25v1l2.417,0.084c0,0,1.333,1.166,1.75,1.166s-0.417-1.584,0.833-1.25s-0.25,1.083,0,1.5s2,1.084,2,1.084
	l1.583-0.084l0.75,1.917l1.333-0.333h0.583c0,0,0.333,1.167,0.5,1.5s2.084,1.583,2.084,1.583l1.25,0.167v1.666l1.166-0.916v1.166
	c0,0,0.668-0.416,1.334-0.083s1,0.667,1,0.667v2h2.166l1.167-0.334c0,0,0.416,0.417,0.583,0.667s0,1.25,0,1.25l1.25,0.583
	l0.417-0.666c0.5-0.084,1.417,0.666,1.417,0.666s-0.25,0.443,0,0.597s-0.666,1.569,0,1.653s1.666,0.25,1.666,0.25h1.584
	c0.583,0.5,0.75,1.084,0.75,1.084s0.833,1.334,1.083,1.5s1.417,0.5,1.417,0.5l0.833,0.75l0.833-1.75l1.667,0.333
	c0,0,0.751,0.666,0.917,1.083s1.416,0.584,1.416,0.584l1,1.583c0,0-0.25,0.166,0,0.583s1.167,1.168,1.417,1.334s1.75,0.5,1.75,0.5
	s3.167,1.083,3.917,1.333s16.167,1.082,22.25,1.166s26.666,4.666,30.333,6.75s13.834,5,21.25,6.917s34.749-11.499,35.416-11.916
	s4.667-2.262,4.667-2.262s1.417,0.762,2,0.762s0.583-3.583,0.833-3.75s0.25-0.167,0.25-0.167l0.917,2l0.75-1.75l1.333-0.083
	l0.834,0.833l0.5-2.25l0.75-0.167c0,0,0.75-0.25,1,0.667s1.166-0.333,1.166-0.333s0.5-1.667,0.75-1.917s0.168-0.833,0.584-0.833
	s1.333-0.25,1.333,0s0,1.416,0,1.416l1.083-1.416l1.084-0.084v1.334l1-2.25v-0.584c0,0,0.5-0.583,1.25-0.583s1.833,0,1.833,0
	l1.5,0.083c0,0,0.751-0.314,0.917-0.49s-0.083-0.76,0-1.01s0.059-1.083,0.059-1.083s-0.6-0.334,0.004-0.417s0.27,0.417,0.604-0.083
	s0.5-1,0.5-1s0.667-0.417,0.917,0s-0.5,2.249,0,2.583s0.5,0.334,0.5,0.334l0.667-1.75c0,0-0.5-0.501,0-0.584s0.5-0.083,0.5-0.083
	s0.917-0.583,1-1.083s0-0.917,0-0.917s-0.676-0.5,0.037-0.5s0.213-0.25,0.713,0s0.833,0.416,0.833,1.083s-0.417,0.334,0,0.667
	s1,0.167,1-0.083s0-1.834,0-1.834s-0.5-0.417,0-0.5s1.083-0.166,1.083-0.166l0.75-0.334l0.667-1.333c1-0.167,0.75-1.251,1-0.167
	s-0.25,1.916,0,2.25s0.5,1.334,0.5,1.334l0.5,0.333l0.417-1.833v-1.834l0.416-0.916l0.917-1c0,0,0.75,0.5,0.75,0.75s0,1.333,0,1.333
	l0.75,0.417l1.25-0.334l0.583-0.666l0.584-1.917l1.083-0.25l2.333-0.334l2.417-0.75l0.75-1.166l0.417-1.25c0,0-1.5-0.834,0-1.167
	s1.5-0.333,1.5-0.333l0.583,1.5c0,0-0.417,1.166,0,1.166s1.583-1.332,1.833-1.416s1.334-0.584,1.334-0.584l0.75-1.75
	c0,0,0.666-0.083,0.916-0.083s1.334,0,1.334,0s1-0.25,1-0.5s-0.583-0.834,0-1.167s-1.084,0,0.583-0.333s2.083-0.333,2.5-0.333
	s1.75,0.333,1.75,0.333s0.667,0.333,0.917,0.25s0.833-1.25,0.833-1.25s-0.25-1.083,0-1.083s1.166,0,1.833,0s0.334-0.333,1.167,0
	s1.333,0.666,1.333,0.666s1.166,0.667,1.75,0.417s1.167-1.333,1.167-1.333s0.249-0.666,0.583-0.25s0.667,1.333,0.667,1.333
	s0.501,0.833,0.667,0.5s0.916-1.916,1.166-2.083s1.5-0.917,1.5-0.917l1.167-1.417v-1.666h1.333c0,0,0.501,0.666,0.584,1.416
	s1-0.833,1-0.833l0.75-1.917c0,0,0.416,0.083,0.833,0s0.667,0.334,0.75,0.584s0.667,0.833,0.667,0.833s1.25-0.917,1.5-1
	s0.916-1.334,1.166-1.417s0.75,0.25,1,0s0.584,0.251,0.584,0.584s0.832,0.499,0.916,0.166s-0.334-1.583,0-1.833
	s-0.249,0.083,0.334-0.25s1.084-0.75,1.25,0s0.416,1.75,0.416,1.75s0.584-0.75,0.667-1s0.5-1.17,0.5-1.17l1.583,0.67
	c0,0,0.25,2.083,0.75,1.25s1-1.92,1-1.92s-0.499-0.58,1.084-0.58s2.416,0,3.083,0s2.084-0.75,3.417,0s1.584,0.499,1.75,0.833
	s0.917,1.751,1,2.084s0.166,0.416,1.166,1.416s1.666,1.584,2,2.084s0.251,0.75,0.834,0.833s2.75-0.417,2.75-0.417
	s1.416,0.417,1.583,0.667s-0.333,0.583,0,1.083s0,1.501,0.75,1.084s2.083-1.5,2.083-1.5s0.834,0.834,0.834,1.25
	s-0.417,1.916-0.417,1.916l0.833,0.167c0,0,0.584-0.917,0.834-0.917s1.333,0.75,1.333,0.75v1.5c0,0,0.834,0.667,1.167,0.917
	s0.833,0.167,0.833,0.167l5.5-1.25c0,0,1.001,0.083,1.167,0.5s1,1.667,1,1.667s0.666-1.084,0.916-1.084s0.584-0.416,0.834-0.416
	s1.666,0.75,1.916,1.083s1,0.917,1,0.917s0.166,0.417,0.75,0.25s1.501-0.417,1.584-0.667s0.583-0.917,1.083-0.917
	s1.251-0.166,1.917,0.167s1.832,2,1.916,2.25s1.25,1.833,1.25,1.833l0.667-1.916l1.167,1.833c0,0,0.166,0.167,0.416,0.167
	s1.25-0.334,1.5-0.334s2.501-0.249,2.834,0.084s1.333,1.166,1.333,1.416s0.417,1.584,0.417,1.584l2-1c0,0-0.084-1,0.666,0.083
	s1.584-0.5,1.584-0.5s-0.168-1.166,0.666-0.833s0.833,0.416,1.25,0.916s2.334,2.334,2.334,2.334v1.416l0.75-1.583l1-1.167l1.416,0.5
	l1.417,0.417l0.833,0.917c0,0,0.334,0.333,0.584,0.833s1.083,1.75,1.083,1.75v-2.917l2.167-0.333c0,0-0.333,1.083,0,1.333
	s0.333,1.668,0.583,1.834s1.417,0.166,1.417,0.166l0.416-0.75l1.667,0.667l0.667,0.833l1.083-1.583c0,0,1.999,0.749,2.333,1.083
	s1.334,0.25,1.834,0.917s1.166,1.417,1.583,2s0.917,0.917,1.25,1.25s14,1.501,15.167,1.667s6.833,0.584,8.083,0.5
	s3.917-1.418,4.917-1.584s2.583-0.25,3.25-0.833s2.417-2.49,2.417-2.49s1.5-0.49,2.333,0s2.083,0,2.083,0l1.417-1.01l1.25,0.583
	l1.083-1l0.667-1.166c0,0,0.583-0.584,1-0.084s0.833,1.167,0.833,1.167v-3l1.834,0.167c0,0,1.084-0.666,1.75,0.25
	s1.5,1.666,1.5,1.666l0.5-1.583c0,0-1-0.584,0-0.417s1.5,0.5,1.5,0.5l1.416-0.333l1.334,0.416c0,0,0.583,0.417,1.083,0.417
	s1.5-1,1.5-1s0.834,0.501,1.167,0.667s2.75,1.416,2.75,1.416l1.583,1.917l2.333-0.583l1.5,1.01l2.417,1.073
	c0,0,1.999,1.583,2.333,1.75s3.5,0.583,3.5,0.583l2.084,1.417l2.666-0.417l1.084,1.75l1.416,0.5l1.5,0.084l0.417,1.083l3-1.25
	c0,0,0.75-0.25,1,0.5s0.75-0.833,0.75-0.833l1,0.416v1.167l1.583,0.417l1.75,0.5l1.417-0.667v0.583l1.25,0.667l1.25-0.417h0.833
	l1.25,0.834c0,0,0.75-0.084,1,0.416s1.25,0.084,1.25,0.084l0.917-0.5l0.583,0.5l0.917,0.833l0.583,0.583l1.583-0.916l1,0.333
	l0.584,0.917l0.666,0.905l0.75,0.595l1.334,0.75c0,0,0.75-0.166,1,0s1,0.083,1,0.083l-0.334-1.428l0.334-0.739l0.75,0.739
	l0.75,1.178c0,0,0.5-0.084,0.75,0.333s0.416,0.917,0.583,1.167s1,1.001,1.25,1.167s2.5,0.25,2.5,0.25s0.583-0.75,0.583-1
	s0-1.834,0-1.834l-1.166-0.75c0,0-0.167-0.75-0.167-1s-0.166-0.75,0.167-0.75s2.166,0.5,2.166,0.5s-0.334,0.312,0,0.739
	s1.5,0.678,1.5,0.678l0.334,0.75c0,0-0.166,1.083,0,1.333s0.166,1.167,0.416,1.167s0.334,0.083,0.584-0.25s0.917-1,1-1.25
	s0.166-0.834,1.333-0.667s1.5,0.25,1.75,0.25s1.417-0.916,1.417-0.916s4.25-4.833,4.5-4.833s0.916-0.417,1.583-0.167
	s1.25,0.751,1.5,0.917s1.5,0.917,1.75,1.25s1.084,0.832,1.417,1.166s0.667,0.667,1.25,0.917s1.25,0.499,1.5,0.583
	s1,0.334,1.75,0.417s2,0.083,2,0.083s0.5,0.166,0.75,0s1.25-1.428,1.25-1.428s-1.083-0.822,0-0.405s1.083,0.417,1.083,0.417
	l0.917,0.833v1.5c0,0,0.666-0.667,0.666-0.917s0.251-0.916,0.584-0.916s0.667,0,1,0.083s0.417-0.334,0.75,0.333
	s0.333,1.416,0.833,1.5s1.083,0.084,1.083,0.084s8.084,0.416,8.334,0.333s4.834-2.189,5.5-2.845s6.417-2.905,7.25-2.905
	s1.916-0.999,4.666,0.917s3.916,2.332,6.25,3.416s9.334,3.834,12.334,4.417s6.25-0.417,6.75-0.917s-1.334-3.083-1.584-3.083
	s-2.5-0.999-2.25-1.083s2.417-1.584,2.667-1.584s1.423-0.916,1.253-1.166s-0.131-1.166,0.017-1.25s1.23-0.168,2.23-0.084
	s4.084-2.251,4.584-2.417s0.833,0.584,0.833,0.834s-0.083,2.916,0.417,2.916s0.916-2.5,0.916-2.5l1.167-0.25l1.417,0.25l0.75,2.167
	v-2.5l1.25,0.667v0.75l1-1.167l0.833,0.083l0.583,0.5v-1.333l2.167,0.25l2.417,0.75c0,0,0.833,1.417,1.083,1.417s2-1.084,2-1.084
	l0.833,1.084l0.834-0.084c0,0,0.916-0.583,1.166-0.583s2,1,2,1s0.501,1.333,0.834,1.75s2.416,2.417,3.166,3
	s9.834,1.999,11.834,2.833s6.916,1.001,8.833,2.334s2.5-0.417,5.25,2.333s5,4.625,7.25,4.688s6.001,0.146,7.167,0.396
	s18.583-5,23.75-5.5s15.5-0.5,18.667-0.5s13.167-3.667,13.167-3.667l0.666-5.094l1.5,0.761l1.5,3l1.167-2.334
	c0,0,1.5-0.666,1.5-0.166s0,2.333,0,2.333l1.167-3.594h0.812h0.813l0.313-0.969l1.375,0.125l0.438,0.844
	c0,0,0.563-0.906,0.563-1.094s0.5-0.875,0.5-0.875l0.813-0.063c0,0-0.125,0.563,0,0.75s0.125,0.688,0.563,0.625s0.938-1.5,0.938-1.5
	s0.563-0.5,0.75-0.688s0.375-0.375,0.5-0.688s0-1.25,0-1.25s1.125-0.125,1.313-0.063s0.563,0.375,0.813,0.688
	s0.438,0.938,0.438,0.938l1.438-1.188l0.438-0.563c0,0,0.188-0.313,0.563-0.313s0.813,0,1.188,0.063s1.313,0.063,1.313,0.063
	s0.125-0.563,0.313-0.688s0.875-0.938,0.875-0.938s-0.438-0.125,0.438-0.063s1.938,0.563,1.938,0.563s0,0.125,0.375,0.188
	s1-0.313,1-0.313l1.25-0.625l0.5,0.5l0.75,0.938v1.313l0.438,0.438c0,0,1-0.938,1.25-1s1.563-0.313,1.563-0.313
	s0.625,0.438,0.688,0.625s0.375,0.5,0.375,0.688s0.375,1.5,0.75,1.5s1.438,0,1.438,0l1.313-0.75l0.438,0.75
	c0,0,0.438,1.313,0.75,1.438s1.813,0.188,1.813,0.188l1.5-0.813v-2v-1.438c0,0,0.688-0.063,0.938-0.063s0.813,0,0.813,0
	s0.563,0.75,0.563,0.938s-0.188,2.313,0,2.5s0.938,0.5,0.938,0.5l0.375-0.75c0,0-0.5-0.938-0.5-1.125s-0.438-1.063,0.188-1.125
	s1.063-0.313,1.438-0.063s0.75,0.438,1.063,0.813s0.438,0.25,0.625,0.75s0,1.313,0,1.313s1.313-1.188,1.313-1.375s0-1.438,0-1.438
	l0.438-0.563c0,0,0.5,0,0.875,0s0.625-0.313,0.875,0.313s0.125,0.375,0.438,0.938s0.688,0.813,1.25,0.813s1.813,0.063,2.25,0
	s0.875-0.125,1.188-0.313s1.313-0.813,1.313-0.813l1.063-1.375l1.5-1.625c0,0,0.563,0.875,0.688,1.063s0.5,0.75,0.688,1
	s0.625,0.313,0.813,0.313s0.75-1,0.75-1.188s0.375-1.625,0.375-1.625s0-0.563,0.313-0.563s1,0.125,1,0.125s0.5,0.125,0.563,0.313
	s0.625,1.813,0.625,1.813s0.375,1.063,0.75,1.063s0.875-0.313,0.938-0.813s-0.25-1.125,0-1.25s1.5-0.188,1.5-0.188
	s0.563,0.313,0.75,0.563s0.75,1.188,0.938,1.563s-0.063,0.438,0.625,0.438s1.188-0.125,2.563,0s4.188,0.25,4.688,0.25
	s0.375,0.125,1.875,0.125s7.167-2.186,7.667-2.52s5.5-6.743,6-6.455s3.166-4.378,4.5-4.545s6.167-1.834,6.167-1.834
	s6.499,1.334,8.333,2.834s4.833,1.59,5,3.545s-1.5,2.955,1,4.955s5.166,3.667,6.5,5s5,4.167,6,4.5s8,2,10.167,2
	s12.499-2.334,14.333-2.667s12-0.333,12-0.333l2.834-4.667l1.333-0.5l1.167-0.667l2.333,2.167l0.667-1.167c0,0,1-0.832,1.5-0.666
	s2,1.166,2,1.166v1.334l1.312-2.23l0.875-0.625l1.125,0.875l1.5,1.313l0.563,1.188l0.75-0.75l0.875-0.438
	c0,0,1.188,0.313,1.25,0.563s0.125,1.188,0.313,1.375s1.188,0.563,1.188,0.563l1.063,1l0.625-0.188l0.563-0.688l1.438-0.063
	c0,0,0.75,1.625,0.813,1.813s1.5,0.25,1.5,0.25s1.063-0.563,1.25-0.563s1.938,0.188,1.938,0.188l1.313,1.25l1.063,0.813v1.875
	c0,0,1.125,0.188,1.313,0.25s1.688,1,1.813,1.188s0.813-0.313,0.813-0.313l0.625-1.563l1.125,0.875l0.688,1.188
	c0,0,1.688,0.875,2.25,0.938s3.375,0.125,3.625,0.313s1.563,1.625,2.125,2s3,1.063,3,1.063s2.188-1.5,2.438-1.625
	s3-2.563,4.313-3.375s17.563-13.688,18.25-14.25s3.438-1.875,4.375-2.125s2.563-0.125,3.438-0.625s2.625-2.125,3.063-2.313
	s0.688-0.875,1.375-1.125s1.125-0.688,1.313-0.688s1.438,0.938,2.063,1.25s1.75,0.738,2.688,0.963s2.688,0.85,3.25,1.287
	s1.375,0.75,2.75,1.438s4.813,1.125,4.813,1.125s1.438,1.438,1.875,1.438s3.125-0.375,3.125-0.375s1.188,0.125,1.5,0.313
	s2.125,1.563,2.125,1.563s1.188-0.188,1.375-0.188s1.438,1.188,1.813,1.125s1.5-1.375,1.5-1.375s2.063,1.063,2.438,1.438
	s1.125,1.125,1.625,1.313s2.875,0.625,3.063,0.688s1.375,1.688,1.625,1.75s2,0.125,2,0.125s1.375-0.313,1.563-0.313
	s1.375,0.75,1.438,0.938s0.313,1.063,1.25,1.5s4,1.313,4.313,1.313s3.375,2.125,3.375,2.625s0.813,0.938,1.313,1.563
	s2.313,0.938,2.563,1.063s1.688,1.5,1.938,1.625s1.813,0.563,2,0.688s1.313,1.25,1.313,1.25v2.063c0,0,2.313,1.813,2.563,2.063
	s2.188,2.125,2.313,2.375s1.688,2.375,1.875,2.375s4.5-3.875,5.375-4.063s6.938-3.063,8-3.063s4.063,0.125,4.688-0.063
	s3.5-1.063,4.75-1.313s4.438-1.375,4.813-1.438s1.938-0.563,2.375-0.688s3.563-1.313,3.563-1.313l1.375-1.438
	c0,0,1.125,1.063,1.5,1.125s4-1.125,4.188-1.188s3.813-1.438,4.688-1.75s3.688-0.938,4.563-1.313s5.25-1.313,5.25-1.313
	s2.375-0.125,3.5,0.438s2.563,1.25,2.75,1.313s1.5,0.438,1.813,0.063s1.875-1.75,1.875-1.75s0.938,0.25,1.125,0.438
	s0.188,0.375,0.625-0.063s2.375-1.188,2.375-1.188s0.125,0.563,1.25,0.063s2.188-0.813,2.313-1s-1.313-0.563,1.25-0.594
	s2.563-0.031,3.563,0s2.688-0.531,2.938-0.594s4.063-0.125,4.625-0.125s3.063,0.188,4.188,0.25s2.313-0.625,3.438,0.75
	s8.375,5.313,8.375,5.313s1,0.875,1.625,2.75s1.813,4.25,2.125,4.375s4.563,1.063,5.438,1.875s3.25,0.438,3.25,1.5s-1.25,4-1.25,4
	s-12.832,8.166-13.332,8.333s-78,7.834-78,7.834l-65.834-6.834c0,0-182.166,6.167-182.666,6.167s-173.334,5.406-174.834,5.406
	s-30-13.906-30-13.906l-35.833-3.667l-187.5,3.833c0,0-134.667-2-135.167-2s-29.333,6.333-30.833,6.5s-36.667-7-36.667-7
	l-150.667-0.166C770.449,892.706,650.613,881.041,666.281,876.207z"/>
<g>
</g>
<g>
</g>
<g>
</g>
<g>
</g>
<g>
</g>
<g>
</g>
</svg>
