<?xml version="1.0" encoding="utf-8"?>
<!-- Generator: Adobe Illustrator 16.0.0, SVG Export Plug-In . SVG Version: 6.00 Build 0)  -->
<!DOCTYPE svg PUBLIC "-//W3C//DTD SVG 1.1//EN" "http://www.w3.org/Graphics/SVG/1.1/DTD/svg11.dtd">
<svg version="1.1" id="cielo" xmlns="http://www.w3.org/2000/svg" xmlns:xlink="http://www.w3.org/1999/xlink" x="0px" y="0px"
	 width="2200px" height="1237.5px" viewBox="-140 -78.75 2200 1237.5" enable-background="new -140 -78.75 2200 1237.5"
	 xml:space="preserve">
<path fill="#EDE0AB" d="M-140-78.75c0.17,1.686,0.268,3.392,0.268,5.125v397.279l1.585,839.253c2.674-0.389,5.392-0.593,8.138-0.593
	h2189.491c1.312-376.782,3.592-1079.902,4.113-1241.064H-140z"/>
<path fill="#EDE0AB" d="M-91.869,1197.637C-89.15,1191.474-90.753,1194.78-91.869,1197.637L-91.869,1197.637z"/>
<path fill="#C6CE9E" d="M-140-78.75c0.148,1.474,0.234,2.965,0.234,4.48v767.164c9.29-1.202,18.747-1.115,23.448,2.874
	c2.333-6.666,3.333-11.331,13-8.666c3.333-3,3.333-12.666,12.667-16s16.667,0.333,16.667,0.333s7.334-12.666,12.667-15.333
	s18-6.667,18-6.667s-2.667-2.334,0-3.667s4.333-0.666,4.333-0.666s0-12,7.333-21s27.333-21.001,44.333-19.334c0,0,6.333-4,9.667-4
	s5,3.667,7.667,3.667s9.333-4.334,17-2.667s25.334,12.334,27.667,13.334s18,12,17.667,24l7.333,1.999c0,0,13.666-4.999,23.333,0.334
	s12,17.333,12,17.333s4,2,6.667,4l5.167,6.167c0,0,4.833,0.333,7.333,1.333s4.333,2.833,4.333,2.833s8.667-4.666,17-2.083
	s19.667,15.75,19.667,15.75s9.667-1.833,16.5,2.5s10.833,8.333,10.833,8.333h34.167c0,0-0.333-6.833,4-14.333
	s10.333-9.333,12.833-9.5c1.167-3.166,7.833-13.666,11-14.166s3.834-8.668,13.167-9.834c3.167-3.833,8.167-5.333,8.167-5.333
	s6.167-10,13.5-11.167s22.5-1.167,22.5-1.167s11.667-2.832,18.167,0.834s10.167,9.332,10.833,12.166
	c3.167-1.833,13.333,3.667,13.833,7.667c2.5-0.333,9.5,4.666,10.333,8c3.333-0.833,16,0.5,20,4.5s10.167,13.167,10.167,15.5
	c2,0,4.667,3.167,6.167,7s7.166-4.001,16.333-4.167s19,7.667,19,7.667s4.833-3,8.5-0.5s9.833,6.833,9.833,6.833h11.833
	c0,0,1.333-4.5,5.667-6.333s12.167-0.666,12.167-0.666s12.833,0.666,13.5,2.666s26.333-5.833,26.333-5.833s6.833-8.5,14.333-8
	c3.5-2,5-7.667,11.833-8.167s16.833,6.833,16.833,6.833s10.667-2,12.667-1.833s0.167-2.5,2-5.5s2.833-4.334,4.833-4.5
	s-1-6.166,6.833-18.666s20.5-10.334,22.667-10.167s7-3.501,12-3.834s8.167,2.333,10.667,4.5s9.5,0.333,15,2.667
	s10.167,5.334,11,6.667s7.501-0.834,12.167,1.833s7.166,8.167,7.166,8.167s14.334-4.667,17.334-3.167s2.999-7.333,8.166-13
	s18-9.166,25.167-7.833c3.167-4.834,6.833-9,10.833-11.5s12.166-4.001,13.5-4.334s6.667-7.167,8.667-8s12.5-2.166,12.5-2.166
	s16.334-10.333,36.5-5.5s32.832,17.334,35.166,36.5c0,0,11.667,1.667,17,6.167s11,14,11,14s5.166-0.667,10.833,0.833
	s7.167,3.833,7.167,3.833s11.334-0.499,18.334,2.834s14.5,13,14.5,14.333s5.833,3.999,7.333,6.666
	c2.333-11.499,11.5-19.333,15.333-20.333s11.167-10.499,21-10.666s20.833,2.333,20.833,2.333s9-2.834,13.667,0.833
	s10.334,13.834,10.334,13.834s8.5,0.833,11.5,3.333s11.5,9.167,13.333,9.167c0,0,10.666-4.167,21.166,0.333
	s17.834,11.666,17.834,11.666s6.999-14.164,22.666-17.499c15.667-3.334,24.167,2.166,24.167,2.166s3.666-3,9-4
	s12.334-0.833,12.334-0.833s1.997-2.813,4.794-6.028c-3.556,0.001-7.251-0.67-10.68-0.497c-1.688,0.085-4.4-0.508-5.812,0.447
	c-0.972,0.658-2.477,0.467-3.549,0.442c-3.428-0.077-4.801-2.246-6.495-4.514c-5.566,0.603-11.08,2.63-16.778,1.948
	c-0.411-0.05-0.729-0.118-0.977-0.199c-2.396,0.116-4.804,0.154-7.188,0.159c-2.464,0.005-5.204-0.127-6.958-2.066
	c-0.005-0.006-0.004-0.012-0.01-0.018c-0.692-0.411-1.357-0.961-1.99-1.67c-0.747-0.839,3.828-1.623,4.822-0.511
	c2.517,2.82,9.228-3.416,11.546-4.66c2.544-1.367,5.74-1.34,8.692-1.27c0.747-2.813,1.439-5.853,4.71-6.587
	c1.271-0.285,2.382-0.104,3.427,0.311c2.988-3.112,8.648-3.328,12.67-1.482c1.748-1.661,3.272-3.032,6.313-3.032
	c4.037,0,6.345,2.245,9.286,4.773c1.469,1.263,2.651,2.773,3.605,4.447c0.78,1.369-1.726,1.666,0.736,1.456
	c0.635-0.052,1.269-0.048,1.903,0.014c2.272,0.086,4.41,0.558,6.229,1.709c3.588-1.873,6.366-2.841,6.699-2.841
	c0.5,0,5-3.834,9.667-4.666c4.667-0.834,13.167,2.166,13.167,2.166s2.832-7.166,5.666-9.5c2.834-2.332,18.834-5,21.334-5
	s22.167,1.166,29.5,5.834c12.167,8.334,17,24.834,17,24.834s9.999,3.832,12.333,8.832s1.667,7.668,1.667,7.668h14.667
	c0,0,7.499-3.5,12.666-2.5s10.334,6.5,10.334,6.5s7.666,0.832,10.666,1.332s6.334,4.334,6.334,4.334h16.666
	c0,0,29.166-9.665,36.833-9c3.5-4.334,3.668-6.832,6.834-10c0,0,13.167-4.334,20.5-1.834c3.266-3.156,0.166-5.166,4.833-8.832
	c4.667-3.668,11.333-2.168,11.333-2.168s2.667-3.332,5.167-3.332s6,1.332,6,1.332s8.001-11.286,17.334-14.644
	c9.333-3.356,22.5-1.644,25,0c1.666-3.188,8.999-7.188,12.666-6.021s9.666-12.833,18.333-18s20-4.667,20-4.667
	s25.167-6.834,40.334,2.333s21.667,37.667,21.667,37.667s12.332-7.667,26.499-4.167s15.834,10.833,15.834,10.833
	s3.167-0.833,5.5-0.333s4.333,4.167,4.333,4.167s3.5-3.833,5.5-4s6,1,6,1s3-4.001,11.167-3.167s14,8.167,14,8.167
	s5.833-1.334,10,1.833s7.833,10.333,7.833,10.333s6.168-8.333,17.834-4.833c7.312,2.192,19.069,7.854,26.833,11.775
	c0,0,36.986-32.044,52.486-33.044s32.425,43.498,33,30.5c0.345-7.79,77.5-34.5,83.5-17s59-2.5,71.5,2s35.858,18.489,33,3.5
	l0.24-754.5L-140-78.75z M347.557,588.352c-0.227-0.003-0.431-0.021-0.623-0.045c-2.488,8.418-19.614,2.533-25.545,3.429
	c-0.158,0.022-0.317,0.032-0.479,0.036c-1.098,1.306-2.761,1.904-4.624,2.101c-4.782,0.501-9.333,1.627-14.078,2.237
	c-3.175,0.408-6.604-0.571-9.396-2.006c-2.159-1.108-3.897-2.636-5.922-3.94c-0.945-0.61-2.208-0.796-3.439-0.926
	c-1.566,2.646-4.188,4.313-7.559,3.831c-1.855-0.267-3.505-0.615-5.079-1.707c-0.671-0.467-3.123,0.365-3.925,0.457
	c-5.352,0.604-10.576,0.715-15.828-0.606c-1.765-0.444-3.695-1.228-4.914-2.646c-1.257-1.465-5.334-1.112-7.008-0.956
	c-0.269,0.024-0.546,0.018-0.819-0.015c-0.304,0.351-0.567,0.771-0.769,1.304c-0.463,1.226-5.365,0.931-4.821-0.511
	c1.22-3.229,4.388-4.004,7.572-4.133c2.527-0.103,5.167,0.391,7.517-0.75c1.591-0.771,3.287-1.74,5.091-1.877
	c3.764-0.284,10.954,0.998,13.384-2.511c1.19-1.72,0.815-3.151,2.421-4.681c2.105-2.005,5.814-1.822,8.396-1.204
	c0.468,0.11,0.769,0.233,0.943,0.359c0.175,0.039,0.353,0.072,0.521,0.123c2.763,0.833,6.224-3.586,8.449-4.807
	c1.759-0.964,3.555-1.796,5.399-2.541c-0.118-0.126-0.147-0.261-0.027-0.397c4.374-4.992,9.151-9.952,16.215-10.45
	c2.576-0.182,4.553,0.032,6.286,0.726c2.558,0.58,4.966,2.04,6.876,3.794c2.316,2.127,5.039,4.034,6.944,6.557
	c0.019,0.023,0.019,0.045,0.029,0.067c2.282,0.441,4.098,1.539,5.939,3.438c2.197,2.268,2.895,4.122,2.979,7.081
	c3.849-0.053,8.176,0.567,9.159,3.672c5.683-1.543,11.84-2.082,15.479,2.082C368.406,589.922,349.838,588.383,347.557,588.352z
	 M1466.296,602.769c-4.354-0.07-8.674,0.099-13.029,0.125c-0.319,0.003-0.597-0.021-0.847-0.061
	c-3.455,1.928-6.523,3.287-10.878,3.726c-6.292,0.636-12.779,0.999-19.089,0.426c-6.504-0.593-12.332-2.006-17.842-4.2
	c-0.229,0.188-0.675,0.351-1.432,0.451c-1.208,0.159-2.427,0.294-3.648,0.417c-0.041,0.005-0.082,0.008-0.123,0.013
	c-6.201,0.621-12.547,0.838-18.728,1.195c-6.797,0.393-13.58,0.976-20.375,1.375c-3.376,0.197-6.57-0.041-9.604-0.698l-0.003,0.001
	c-5.702,2.201-11.258,2.88-17.345,2.144c-7.875-0.952-14.938-3.711-22.583-5.519c-5.91-1.396-11.66-0.496-16.416-4.847
	c-0.021-0.021-0.024-0.042-0.038-0.063c-1.174-0.438-1.617-1.299,0.659-1.616c2.003-0.278,3.74-1.188,5.779-1.354
	c1.577-0.13,3.183,0.028,4.761,0.07c1.823,0.051,3.632,0.143,5.446,0.352c0.099,0.012,1.063,0.078,1.885,0.176
	c2.788-14.706,17.492-16.59,30.554-15.555c0.91-2.313,2.151-4.391,3.502-6.493c0.544-0.848,1.055-1.841,1.74-2.634
	c1.65-4.9,6.734-6.749,11.679-6.358c2.302,0.183,4.354,0.755,6.255,1.6c7.574-8.777,18.707-10.424,29.819-7.84
	c3.052,0.711,5.609,1.82,7.783,3.241c4.427,0.638,8.247,3.969,10.03,8.021c0.935,2.124,0.89,4.466,0.339,6.838
	c6.593,0.709,11.95,5.354,13.405,11.447c3.291-1.021,7.071-1.274,10.054,0.413c3.235,1.832,5.603,4.602,7.129,7.859
	c4.749-1.786,11.063-0.386,15.288,2.238c4.298-1.093,13.037-2.189,12.67,2.5C1472.908,602.527,1467.868,602.795,1466.296,602.769z"
	/>
<path fill="#A3BA94" d="M1671.765,357.686c2.273,0.931,5.228,0.646,8.001-0.816l-9.521,0.223
	C1670.775,357.293,1671.29,357.492,1671.765,357.686z"/>
<path fill="#A3BA94" d="M1644.765,357.686l25.479-0.595c-5.582-2.11-13.718-4.405-16.229-4.405
	C1651.265,352.686,1644.765,357.686,1644.765,357.686z"/>
<path fill="#A3BA94" d="M-140-78.75c0.148,1.474,0.234,2.965,0.234,4.48v312.864c6.761,1.133,12.716,3.792,14.411,9.441
	c37.498-31.498,83.996,6,83.996,22.499c22.499,0,31.498,32.998,28.499,47.998c6.876-1.098,13.376,1.902,18.876,8.902
	c10.5-4,29.5,11,35.5,20.5c0,0,16.5-3,36.5,8s29.5-1.5,31,2.5c1-5.5,9.242-8.366,13.5-7c0,0,37.25-15.5,65-10.75
	c9-3.75,20-3.5,20-3.5s17.5-13.25,28.25-6c19-19.75,34.75-19.75,42.25-16.75c4.25-9,25.5-30,50-41.5
	c7.75-8.25,21.75-16.25,35.25-17.25s69,2.25,94.25,32.5c7.75-0.75,11,2.25,12.75,2.25s15,6,17.75,9.75
	c5.038-1.199,8.25-4.75,15.5-1.5s7.25,3.25,7.25,3.25s5.25,2,6.75,5s24,1.75,34.25,20.5c2,11.5,7.75,15,13,15s12.75,4.25,14.75,6.75
	s17.5-0.25,20.75,4s7.25,5,7.25,5h32.25c0,0,3.5-5,13.25-4.75c2.546-0.243,2-9.75,5.5-11.5s16-0.25,16-0.25s5-4.75,9-5.5
	s11.25,0.75,14,0.25s2-6.75,4.25-9.5s5.75-2.75,5.75-2.75s4.75-8.25,11.5-10.5s27,1.5,28.75,2s11,1.75,14,3.75
	c3.5-4.25,19.5-15.5,23-18s15.5,1.5,20,2.25s7.75-6.25,11.5-6.75s40.25-42.5,67-42.5c9.766,0.204,16.25,3.25,19.75,4
	s16.5-1.5,21.25,0.25s15.5,9.75,17.5,10.5s19.75,4.5,29.5,22c1.39,2.38,8.75,0.5,8.75,0.5s6.75-9.5,10-10.25s10.25-2.5,15.5-2.25
	c2-4,6.5-8.25,9-8.5c-1.25-1.5,4.75-6.5,6.5-6.25s6.25-9,15-8.5s11,2.25,11,2.25s8.75-12,19-12s23.75,8.25,25,11.25s14,6.5,15,25.5
	c10.25,1,9.25,18.75,7.5,21s21-0.25,26.5-2s19-0.5,18.5,3.25s-23,8-27.5,8s-51.25-2.25-66.5-1.75s-40,0-40,0s8.5,6,12.25,15.75
	c8.5-2.75,23.5,3.5,23.75,8c5-3.75,23.5-2,23.5-2s24.25,4.75,33.75,12.75c15,2,43.25,6.5,48.5,6.5s9.25,5,9.25,5s48.25,0.75,58-5.25
	c5.5-6.5,9.25-9.25,14.5-9.5s2.5-12.75,12.5-17s28-4.25,28-4.25s10.75-12.5,18.5-9.5c11.75-24.25,40-24.25,51.25-18.75
	s35-26.25,35-26.25s2-22.5,28.25-28s35.75,0.5,35.75,0.5s37.75-2.5,53.5,27.75s7.5,34.5,7.5,34.5s34.25,15.25,39.75,30.5
	s3.25,17,3.25,17s6.75,3.75,7.75,7.75s13,0.5,13,0.5s2.25-3.75,3.5-4s5-10,8.75-10.5s16.75-1,16.75-1s4.75-7.75,12-6
	c6.25-6.25,30-14.75,36-15.75s31.5,5.5,29,23.25c-0.733,6.895-4.31,11.358-8.249,13.434l39.999-0.934c0,0-0.75-18.75,10-25.5
	s19-4.75,19-4.75s-0.75-20,9.75-28c7.335-5.589,21.649-7.519,37.649-5.519s35.667,28.667,35.667,28.667s-4.979-30.415,17.844-31.041
	s40.489,19.633,40.489,19.633s-6-23.259,23.667-19.926s30,21.667,30,21.667s6.666-23.333,24-23.667s22.667,17.333,22.667,17.333
	s-5.147-10.332,4.667-24.667S2030.5,293.5,2030.5,293.5s-7.688-14.641,14-14.333s15.74,14.667,15.74,14.667l-0.026-370.188
	L-140-78.75z M224.768,314.944c-0.164-0.019-0.327-0.045-0.491-0.066c-0.059,0.018-0.102,0.036-0.167,0.053
	c-10.264,2.747-21.923,2.569-32.105-1.085c-0.369,0.18-0.92,0.299-1.656,0.299c-5.904,0-12.302,0.63-18.371,0.365
	c-3.206,2.113-7.036,3.222-11.394,3.227c-5.982,0.007-12.475,0.485-17.7-2.36c-0.53,0.381-1.206,0.679-2.091,0.868
	c-4.913,1.052-10.846,0.128-15.86,0.152c-5.263,0.025-10.322-0.106-15.354-1.819c-3.466-1.179-6.8-1.771-10.358-2.497
	c-3.016-0.615-6.17-1.971-9.289-1.801c-0.94,0.051-2.001-0.288-2.564-0.689c-2.749,0.335-5.145,0.565-7.863,1.86
	c-1.587,0.755-2.926,1.172-4.655,1.33c-2.088,0.19-4.736-1.536-1.329-1.848c2.325-0.212,4.275-2.056,6.57-2.57
	c1.856-0.417,3.775-0.478,5.677-0.63c-0.748-3.483-0.078-6.11,3.604-7.631c2.646-1.093,5.524-1.738,8.397-1.785
	c4.794-0.079,9.443,0.372,13.994,1.309c1.765-3.673,4.58-5.531,7.865-6.329c2.172-3.585,6.134-4.499,10.847-4.729
	c1.869-0.092,3.621,0.289,5.28,0.953c1.455-1.09,2.87-1.946,5.198-1.882c0.337,0.01,0.661,0.043,0.988,0.072
	c1.506-1.905,2.703-3.696,5.002-5.087c2.02-1.222,4.427-1.738,6.729-2.042c0.81-0.107,1.608-0.127,2.398-0.087
	c1.109-0.652,2.162-1.351,3.585-1.595c1.834-0.315,3.521-0.57,5.379-0.594c3.213-0.041,6.453,1.596,8.907,3.523
	c1.118,0.878,2.078,1.906,2.917,3.039c0.254-0.06,0.477-0.092,0.579-0.103c1.852-0.182,3.826,0.165,5.733,0.864
	c2.307,0.419,4.535,1.309,6.576,2.859c4.549,3.457,7.224,8.211,8.72,13.486c2.913-0.231,5.588,0.344,8.515,0.872
	c3.993,0.722,8.084,0.556,12.11,0.95c3.992,0.393,7.671,2.546,11.265,4.139c2.005,0.887,4.67,1.419,5.74,3.5
	C237.668,314.493,225.994,315.078,224.768,314.944z M788.014,227.694c-2.842,0.3-5.675-0.509-8.275-1.702
	c-9.727,9.661-27.339,1.935-38.705-1.854c-9.177,3.212-19.378,3.716-28.998,3.458c-8.041-0.216-16.063-1.092-24.106-1.03
	c-5.354,0.04-10.838,0.096-15.96-1.603c-7.266,1.42-14.698,2.098-21.707,2.528c-18.354,1.126-36.711,0.105-55.079,0.067
	c-2.943-0.006-2.947-1.921,0-1.914c4.117,0.008,8.235,0.075,12.355,0.16c0.367-0.185,0.917-0.313,1.645-0.326
	c6.708-0.128,11.98-3.959,18.103-6.027c4.104-1.387,8.306-2.442,12.611-2.979c2.833-0.354,5.669-0.553,8.507-0.658
	c-4.114-1.334-8.059-4.131-8.322-8.57c-0.286-4.815,3.008-9.576,7.584-11.142c5.021-1.719,10.026-1.49,15.025-0.674
	c4.114-0.926,8.248-1.247,12.492-1.282c0.106-0.001,0.201,0.006,0.3,0.01c4.54-3.489,10.479-5.211,16.867-5.343
	c0.561-0.013,1.013,0.048,1.358,0.151c0.533-0.084,1.063-0.148,1.56-0.201c0.102-0.012,0.261-0.003,0.451,0.021
	c5.306-6.886,12.068-12.501,21.034-13.487c6.001-0.659,13.138-0.1,18.245,3.495c4.157,2.926,8.85,6.899,9.839,12.122
	c14.56,0.646,30.385,8.92,30.844,24.324c6.358,0.227,12.771,1.92,15.948,7.386C793.531,225.897,791.266,227.35,788.014,227.694z
	 M1661.499,171.071c-5.338,5.076-14.972,5.438-21.917,4.852c-5.871-0.496-10.714-3.643-15.944-6.012
	c-7.612-3.448-13.897-0.477-21.288,2.094c-5.824,2.026-11.48,3.469-17.684,3.357c-6.507-0.116-12.979-1.517-19.304-2.92
	c-11.517-2.557-23.103-3.466-34.726-3.696c-0.972,0.221-2.287,0.242-3.074-0.045c-19.758-0.198-39.61,1.334-59.397-0.09
	c-7.019-0.505-14.06-1.614-20.685-4.074c-0.176-0.065-0.403-0.146-0.654-0.235c-0.588-0.186-1.161-0.399-1.716-0.642
	c-2.33-0.931-5.212-2.42-5.091-4.401c-1.532-3.363,0.725-6.966,4.351-8.061c0.197-0.391,0.908-0.727,2.146-0.718
	c3.019,0.018,6.043,0.136,9.071,0.28c1.034-0.237,1.948-0.45,2.667-0.649c1.072-0.297,3.688,0.29,3.646,0.966
	c6.25,0.313,12.502,0.541,18.717,0.069c9.433-0.717,17.56-6.179,27.104-6.697c4.699-0.255,9.297-0.073,13.959,0.565
	c6.631,0.907,12.612-0.136,18.938-2.113c8.873-2.774,17.937-5.168,27.233-5.887c9.701-0.75,18.498,4.279,28.15,4.132
	c9.188-0.143,18.26-1.452,27.434-0.28c10.664,1.363,23.494,6.568,32.09,13.009C1659.923,157.168,1667.387,165.469,1661.499,171.071z
	"/>
</svg>
