<?xml version="1.0" encoding="utf-8"?>
<!-- Generator: Adobe Illustrator 16.0.0, SVG Export Plug-In . SVG Version: 6.00 Build 0)  -->
<!DOCTYPE svg PUBLIC "-//W3C//DTD SVG 1.1//EN" "http://www.w3.org/Graphics/SVG/1.1/DTD/svg11.dtd">
<svg version="1.1" id="lake" xmlns="http://www.w3.org/2000/svg" xmlns:xlink="http://www.w3.org/1999/xlink" x="0px" y="0px"
	 width="1920px" height="1080px" viewBox="0 0 1920 1080" enable-background="new 0 0 1920 1080" xml:space="preserve">
<path fill="#EDE0AB" d="M605.281,898.706c3.104-0.71,16.667-2.333,23.667-2.5s29.167-1.563,30.667-1.563s13,1.862,21,2.046
	s17.667-2.941,21.167-2.046s7.167,2.396,14.5,2.729s55.667-0.529,64-0.765s40.833-0.598,43.833,0s9.334,0.402,10.167,0
	s3-0.902,3-0.902s5.833,0.305,6.5,0.902s12.833,0.932,14.5,0.765s5.333-1.195,6.5-0.765s7.833,0.931,8.5,0.931
	s25.832,2.226,31.166,1.196s13.834-1.786,16.334-1.991s32.834,2.23,34,2.263s9,0.865,10.5,1.032s12.334,0.833,13.5,1
	s4.833,0,4.833,0l4,0.833c0,0,43.666,1.834,45.833,1.834s15.334,0.5,15.834,0s3.833,0.223,3.833,0.223s33,0.723,36.667,0
	s11.5-1.39,22.5-0.39s44.5,3.167,44.5,3.167s22.666,3,23.833,3s6.334,2.166,5.334,5.666s-9.667,4.667-9.667,4.667
	s3.333,3.001,1,8.667s-9.667,9.667-12.167,11c-0.16,0.086-0.042-0.016-2.182,1.512c-0.25,0.178-9.026-2.886-9.026-2.886
	s-3.531,1.621-3.593,1.665c-0.364,0.261,9.51,3.418,9.51,3.418c-7.607,5.471-20.688,15.102-22.542,17.291
	c-3.667,4.333-11,6.667-11,6.667s-14.001,5.334-17.834,6.5s-18.999,6.833-23.499,5.833s-7.667-2.834-8.167-3.167
	s-6.667,0.668-7.167,0.834s-37.333,11.666-42.833,12.833s-29.334,5-33.167,5s-8.167,2-8.667,2s-9.666,1-9.666,1l-6.834,3.833
	c0,0-35.165,1.666-41.999,1.333s-25.499,7.334-33.333,8.167s-12.501,0.501-19.834-0.833s-32.666,3.395-33.166,4.166
	s-41.667-8-41.667-8s-21.667-7.166-23.167-7.666s-18.167-4-18.167-4S573.948,905.872,605.281,898.706z"/>
<g id="bote">
	<path fill="#A81D45" d="M1142.7,939.264c-0.136,1.031,0.839,2.455,2.687,3.506c1.889-0.051,2.25,1.312,4.073,1.304
		c0.841-0.06,1.792,0.39,2.726,0.449c0.563,0.035,1.202-0.401,1.644,0.055c1.711,0.001,3.054-0.217,3.046-0.851
		C1154.831,944.081,1144.75,940.594,1142.7,939.264z"/>
	<path fill="#82153C" d="M1142.7,939.264c0.015-0.298,11.968,2.36,14.175,4.463C1154.588,944.32,1142.66,940.046,1142.7,939.264z"/>
</g>
<g>
</g>
<g>
</g>
<g>
</g>
<g>
</g>
<g>
</g>
<g>
</g>
</svg>
