<?xml version="1.0" encoding="utf-8"?>
<!-- Generator: Adobe Illustrator 16.0.0, SVG Export Plug-In . SVG Version: 6.00 Build 0)  -->
<!DOCTYPE svg PUBLIC "-//W3C//DTD SVG 1.1//EN" "http://www.w3.org/Graphics/SVG/1.1/DTD/svg11.dtd">
<svg version="1.1" id="tree_1" xmlns="http://www.w3.org/2000/svg" xmlns:xlink="http://www.w3.org/1999/xlink" x="0px" y="0px"
	 width="1920px" height="1080px" viewBox="0 0 1920 1080" enable-background="new 0 0 1920 1080" xml:space="preserve">
<g>
	<path fill="#C6425E" d="M1637.155,912.971c-10.75-9.375-51.75-9.875-55.875-10.958s-67.958-2.125-69.291-2.084
		s-38.083,2.084-38.083,2.084h-33l-26.5-0.875c0,0-15.75-0.667-15.958-0.917s-2.584-2.511-2.584-2.511l-0.208-5.239l5.708-7.292
		c0,0,0.667,1.834,0.75,1.959s1.542,1.708,5.583,0.958s1.875-1.208,1.875-1.208s-0.625-1.959-0.625-2.084s-0.75-2.583-1.208-4.25
		s-4-2.541-4-2.541s0.833-1.292,0.833-1.417s-0.958-2.458-1.25-2.958s-2.041-3.292-2.291-3.792s-2.25-2.375-3.667-3.208
		s-9.792-1.584-9.792-1.584l0.75,3.625c0,0-1.291,0.042-2.5-0.083s-6.833,5.208-6.833,5.208s1.958,5.792,1.75,5.209
		s-6.708-2.75-6.708-2.75s-3.5,2.291-3.958,2.291s-2.375,0.333-4,0.625s-2.375,1.75-2.375,1.917s-1.459,3.417-1.459,3.417
		l3.917,1.375l-3.459,1.583l0.375,1.583l3.709,0.542l-2.625,2.958l1.25,0.959l5.416,0.875v2.666l-12.958,0.417l-1.458-0.75
		l-3.834-1.458l-6.208-1.042c0,0-11.708-3.125-12.041-3.25s-11.209-0.958-11.334-0.917s-2.416,1.584-3,2s-4.083,0.792-4.083,0.792
		l-3-0.458l0.25-3.584l1.542-2.166l-1.5-0.834c0,0-0.584-1.416-0.459-1.958s5.459-5.917,5.459-5.917s2.541,2.375,3.416,2.334
		s2.625,3.125,3.292-4.542s-10.459-12.25-10.459-12.25l-0.75,1.25l-2.958,0.5c0,0-2.333,0.5-3.125,0.541s-1.667,1.459-1.667,1.459
		l-7.541-0.25l-1.167-1.959c0,0-2.083-0.625-3.375-1.833s-8.292-0.708-8.292-0.708s1.042,3-0.041,3.041s-6.375,4.125-6.5,4.167
		s-1.792,2.333-1.792,2.333l1.209,0.959l0.583,4.25l-2,0.666l-1.958,2.292l1.375,1.167l2.208,3.708c0,0,1.875-0.917,2.417-0.917
		s7.333,5.917,7.333,5.917l-9.542,0.167l-2.833-2.167l2.833-0.708l-5.208-4.583l1.292-0.875l-1.625-0.875l-0.042-1.084l1.542-0.833
		l-2.375-1.875c0,0,3.333-0.792,2.708-1.625s-8.042-3.833-9.417-3.917s-7.083,5.167-7.083,5.167s3.5,1.167,2.75,1.25
		s-2.417,1.208-2.625,1.25s-0.834,1.792-0.834,1.792s6,1.999,4.584,1.958s-2.75,1.708-2.75,1.708l-5.167,1.958l2.167,1.75
		c0,0,5.666,1.5,3.791,1.417s-4.166,0.5-4.291,0.542s-1.792,2.375-1.792,2.375l-14.583,0.625l0.125-5.625l0.625-1.917
		c0,0,1.458-1.792,1.666-1.875s2.084-1.292,2.709-1.708s1.208-1.584,1.541-2.25s1.167-3.5,1.167-3.75s-1.583-1.667-1.708-1.75
		s-3.875-1.375-4.334-1.459s-5.333-2.749-5.333-2.749s-3.875-3.292-4.25-3.292s-2,0.417-2.666,0.458s-5.667,5.833-5.667,5.833
		l-0.833,3.417l-1.792,2.167l-0.959,3.792c0,0,0.5,0.333,0.709,0.333s2.75,0.75,3.208,0.667s1.792-0.917,1.792-0.917l3.75,3.917
		v4.625l-2.792,2.375c0,0-8.917,1-10.125,0.25s-12.125-4.001-12.125-4.001l-7.417-0.875l-1.958-1.166c0,0,1.958-0.167,2.375-1.084
		s-2.75-2.5-2.75-2.5l-1.292-1.416l1.334-1.042l-1.584-0.917l-0.208-1.416c0,0,1.208-1.709,1.375-1.709s1.875-0.416,2.125-0.458
		s0.458-1,0.542-1.25s0.75-2.833,1.291-3.25s2.167-1.833,2.375-1.75s2.209,0.75,2.917,0.75s2.5-1.042,2.792-1.167
		s1.5-1.875,1.833-2.625s-2.375-1.666-2.375-1.666l-0.167-1.834l-2.124-0.833l-2.25,1.125l-1.334-0.208l-1.5-1.833l2.25-2.042
		c0,0-2.375-0.083-3.125-0.667s-4.042-2.042-5.417-2.042s-5.25,0.959-5.375,1s-5.5,1.417-5.5,1.417s-4.166-1.125-5.625-2.375
		s-7.166-0.041-7.166-0.041s0.791,3.375-0.292,3.166s-2.083,0.125-2.25,0.167s-0.625,2.583-1.583,2.667s-4.25,2.958-4.375,3.874
		s2.833,3.875,2.166,3.875s-3,1.792-3,1.792l-1.416,1.792l1.375,1.25c0,0,1.875,4.5,2.583,4.25s3.5-2.667,3.5-2.667
		s0.334,0.625,0.667,1.959s6.572,5.208,6.572,5.208l-0.069,4.33c-0.095-0.091-0.308-0.213-0.753-0.372
		c-1.167-0.417-13.458-0.75-14.75-0.75s-11.042,4.375-11.042,4.375l-2.416,0.334l-0.084-0.875l1.084-0.25v-0.875l0.833-0.125
		l0.917-1.459l1.041-1.541l2.417,1l1.167-1.125l1.625-0.959l-0.209-1.375l-1.541-1.166v-1l-3.834-0.376l1.125-1.791l-2.083-0.959
		l-2.125-1.083l-4.042,0.042l-0.75,1.041h-2.875l-1.167,1l-2.125,0.834l-0.666,1.708l1.583,0.583l-0.417,1.042l-0.416,1.625
		l1.5,0.75c0,0-0.584,1.208-0.417,1.75s0.625,0.75,1.958,0.75s1.417,0.125,1.875,0.667s1.917,2,1.917,2l-3.958-0.375l-15.25-0.833
		l-6.334-0.751v-3.916l9.042-0.5c0,0,1.25-1.417,0-1.834s-4.25-4.708-4.25-4.708l2.209-1.292l-4.834-3.083l2-0.833l-1.208-1.083
		l0.875-2.542l2.208-1.708l-3-1.584l0.958-1.083c0,0-0.041-1.208-0.916-1.667s-2.375,0.417-2.375,0.417l-1.917,0.417
		c0,0-2.125-1.167-1.5-1.375s2.292-2.167,2.292-2.167s-5.084-1.958-7.584-2.667s-4.083,0.667-4.083,0.667s-1.917,0.917-3.458,0.792
		s-6,3.791-6,3.791l0.333,1.875l2.625,1.208l-2.375,0.792c0,0,0.333,2.125,0.75,2.25s3.708-0.5,3.292-0.083s-2.459,2.25-2.459,2.25
		l0.167,2.166l4.833-0.5c0,0,1.334-1.916,1.459-2.687s0.666,2.396,0.666,2.396l-1.083,1.666l-0.583,1.709l0.708,1.833
		c0,0,1.702,1.165,2.351,1.561c-0.781-0.06-2.995,1.52-2.768,1.897c0.25,0.416,3.125,1.292,3.125,1.292l0.209,4.625l-0.709-0.417
		c0,0-3.041-1-3.458-1.25s-4.791-1.083-7.041-1.125s-4.25-0.708-4.709-0.041s-6.333,2.541-6.333,2.541l0.333-4.75l1.167-0.875
		c0,0,1.333-1,1.583-1.291s0.917-1.667,1.125-1.709s4.833-1.416,5.458-2.75s-1.625-3.208-1.625-3.208l-2.208-0.292l-2,1.209
		l0.583-1.625l2.125-1l-5.041-2.459l-3.709,0.125c0,0,0.417,1.25-1.875,0.917s-5.541,3.5-5.541,3.5l1.25,1.25l-0.792,1.417
		l0.917,1.083l0.291,2.542l3.834,0.375l0.416,2.583l1.959,0.75l0.291,4.334l-12.416,1.916l-4.917,0.25l0.042-1.791l2.5-1.292
		l8.791-1.375l-6.166-6.625l3.916-0.417l-5.791-4.5l2.346-0.666l-4.221-2.001c0,0,3.916-1,3.583-1.166s-4.083-1.917-4.083-1.917
		s5-0.917,4.708-1.333s-4.333-2.75-6.625-3.417s-4.542-0.042-4.542-0.042l-3.041,1.917l-1.292,1.417l-2.291-0.875
		c0,0-2.251,0.833-3.417,0.916s-2.875,1.25-2.875,1.25l-4.75,2c0,0,1.083-2.625,1.083-2.791s0.125-1.417,0-2.292
		s-2-1.375-2.25-1.667s-4.792-2.458-5.042-2.5s-2.041,0.834-2.791,0.75s-4.209,1.667-4.209,1.667l1.167,0.583
		c0,0,1.167,2.834-0.333,1.75s-5.209,1.125-5.209,1.125l-0.125,1.167l1.792,2.75l2.792,0.125l1.083-0.958l1.208,3.166l1.375,0.834
		l1.334,0.5c0,0,0.25,5.666,0,6.625s-6.667,1.833-8.917,2.25s-10.875-0.75-10.875-0.75l1.793-1.875l-1.959-1.084l1.791-2.25
		l-2.375-0.583c0,0,3.084-0.625,2.459-2.167s-5.75-3.999-9-3.999s-7.417,5.791-7.417,5.791s4.458,1.084,2.167,1.167
		s-2.5,2.708-2.5,2.708l6.435,0.641c0.077-0.124,0.205-0.217,0.397-0.224c0.64-0.021,1.271-0.136,1.91-0.128
		c0.007-0.017,0.017-0.03,0.023-0.047c0.229-0.596,1.195-0.338,0.965,0.266c-0.108,0.284-0.25,0.546-0.415,0.793
		c-0.107,0.214-0.243,0.395-0.415,0.534c-0.095,0.606-0.649,1.123-1.277,1.082c-0.269-0.018-0.504-0.242-0.489-0.516
		c-0.395,0.028-0.795,0.026-1.173,0.021l-4.378,0.453l-7.75,3.125l-7.917,0.834l-4.708,1.583l-3,0.333c0,0-0.209-2.166,0.5-2.416
		s1.083-2.459,1.083-2.459l4.083-0.833l0.417-1.583l0.667-1.542l-0.25-1.375c0,0,0.708-1.042,0.708-1.75s-1.042-2-1.375-2.375
		s-3.833-1.208-3.833-1.208l-2.709-1l-2,0.666l-3.875,0.958l-0.666,2.834l-3.125-0.834v1.917l-1.917,1.583l2.833,1.917l3.875,0.75
		l0.917,2.75l1.292,0.042l1.416,1.208v2.667l-13.833-2.584l-19.375,0.334l0.167-4.542c0,0,3.833-4.583,4.333-3.625
		s4.834,0.917,5.5,0.292s0.083-3.708,0-4.583s-2.792-2.25-2.875-2.584s-0.417-3-0.417-3s-6.249-6.708-7.416-7.208
		s-5.333-0.125-5.333-0.125s-1.126,2.333-1.376,2.458s-5.291,3.625-5.291,3.625l-0.834,2.417l2.542,2.541l-2.25,0.959l0.542,2.041
		l-3.084-1.083l0.875-0.583v-1.292l-1.958-1.542l1.25-0.875l-2.958-2.458l3.25-1.125c0,0-8.25-4.375-8.375-4.375
		s-1.959,0.334-2.084,0.375s-1.416,1-1.416,1l-5.334-0.208c0,0-1.125,0.75-1.083,1.542c-2.458,0-5.792,2.166-6.833,2.583
		s-0.209,2.958-0.209,2.958l2.5,0.896c0,0-2.125,0.938-2.291,0.979s-0.25,1.459-0.25,1.459s4.083,0.75,3.208,0.958
		s-1.125,3.083-1.125,3.083l3.042,0.667l2.75,3.625c0,0-4.417-0.25-3.5,0.625s5.666,2.333,5.666,2.333v2.959
		c0,0-11.208-0.167-11.666-0.167s-8.834-2.625-8.834-2.625l-5.416-0.334l0.666-2.541l3.667-0.459c0,0,0.292-2.458,1.125-2.708
		s0.667-3.25,0.458-4.125s-6.041-3.875-8-4.125s-7.458,2.5-6.875,2.375s2.542,1.5,2.542,1.5s-4.167,0.292-4.75,0.292
		s-1.083,2.25-1.958,2.416s1.083,1.542,2.125,2.042s4.333,0.833,4.333,0.833l1.958,3l1.417,1.25l-12.042,0.167
		c-6.334-3.334-13.875-3.917-13.875-3.917l-0.291-6.958c0,0,1.958-2.333,3.333-3.042s3.209-4.416,3.209-4.416l4.25,0.25l3.083-2.875
		l-2.042-1.5v-2.042l-2.833-0.208l-0.958,0.875l-2.084-1.417c0,0,0.875-2.375,0.75-2.375s-6.708-2.75-8.125-2.833
		s-2.875,2.208-3.333,1.958s-5.75,0.625-6.208,1.459s-3.542-1.334-3.542-1.334l4.708-1.166c0,0-5.875-3.25-6.708-3.75
		s-5.292-0.25-6.167-0.167s-6,5.417-6,5.417l3.833,1.083c0,0-3.625,1.833-4.25,2.042s-0.25,1.875-0.25,1.875
		s4.136,1.269,5.371,1.625c-1.313-0.131-4.005,1.932-4.162,2.208c-0.166,0.292-4,1.875-4.25,1.875s-1.459,1.708-0.542,2.541
		s7.583,1.709,7.583,1.709l-6.25,1.708c0,0-1.75,0.708-1.125,1.25s5.792,4,7,3.833s1.834-1.166,2.125-1.208s1.375,0.208,1.875,0.583
		s2.75,1.459,2.75,1.459s0.584,2.583,0,2.583s-9.333,2.958-10.499,2.667s-12.375-0.625-14.417-0.417s-8.168,1.375-9.251,1.334
		s-5.416-2.001-6.791-2.167s-11.875-0.25-11.875-0.25l-0.167-7.542c0,0-0.208-0.333,0.667-0.792s2.791-2.666,2.875-2.791
		s2.541-4.625,2.541-4.625l2,0.958l2.084,0.583l1.5-1.958l1.833-2.5l-2.833-0.75l1.375-0.917l-0.209-1.375l-3.458-0.416
		l-0.833,1.291l-2-1.333l2.541-2.458c0,0-3.5-1.084-4.166-1.625s-4-1.209-6-1.292s-2.667,1.917-2.667,1.917
		s-2.375,0.625-3.875,0.791s-3.458,2.167-3.458,2.167l-0.292,2.333l3.708,1.875l-3.166,0.584v1.708l3.833,0.417l-2.417,1.458
		l0.5,1.833l4.959,0.459l0.375,1.875l1.708,0.625l-0.083,1.625l1.166,1.042v6.708c0,0-5.333,0.083-8.541,1.375
		s-9.625,0.125-13.459,0s-15.25-0.667-15.25-0.667s-0.333-5.125,0.375-6.042s6.583-6.124,7.667-5.541s3.917,0.875,3.917,0.875
		l0.542-3.042l1.875-1.666l-1.625-1.084c0,0,1.042-1.791,0.917-1.791s-2.625-1.084-2.625-1.084s-0.625-0.916-0.333-1.083
		s0.083-2.417,0.458-2.542s0.833-0.666,0.917-2.791s-3.792-1.042-3.792-3.25s-2.708-3.334-4.667-2.875
		c0.542-3.666-1.042-3.917-4.583-4.167s-5.625,4-6.708,2.917s-9.458-4.323-11.542-4.323s-2.792,1.239-3.542,2.406
		c-3.583,0.167-7.125,5-5.792,5.208s12.875,2.542,7.667,1.542s-9.083,2-9.125,2.416s-2.125,2.042,2.583,1.667
		c2.933-0.233,4.474,1.101,5.12,1.878c-1.106-0.748-4.715-0.606-5.453,1.497c-0.833,2.375-6.417,2.458-6.417,2.458
		s0.583,2.667,2.417,3.834c1.13,0.72,4.33,0.646,6.476,0.338c-0.9,0.56-1.92,1.226-2.726,1.37c-1.625,0.291-7,1.209-6.417,1.875
		s6.125,4.834,6.958,5.167s2.917-0.167,3.292-0.917s3.625-0.375,3.542,0.417s1.417,0.625,2.458,1.625s0.583,4.083,0,5.042
		c-2.333-0.167-61.708,3-68.708,4.666s-50.333,2.334-57.667,3s-30.667,0-40.667,0s-1,1-19.333,3.667s-44-0.333-57,0
		c-93.334,110.334,273.334,109.666,348,140.999c74.666,31.333,607.999,16.668,683.999-22.666S1647.905,922.346,1637.155,912.971z
		 M1242.822,877.471c0.125-0.009,0.247-0.03,0.367-0.065c0.627-0.149,0.893,0.815,0.266,0.965c-0.211,0.05-0.416,0.084-0.633,0.101
		C1242.179,878.519,1242.184,877.519,1242.822,877.471z M1101.557,868.167c-0.342,0.214-0.81,0.09-1.186,0.161
		c-0.63,0.118-0.899-0.846-0.266-0.965c0.279-0.053,0.551-0.059,0.834-0.068c0.014-0.001,0.015-0.002,0.025-0.003
		c-0.012-0.068-0.029-0.137-0.042-0.188c-0.146-0.627,0.818-0.894,0.965-0.266C1102.003,867.332,1102.042,867.864,1101.557,868.167z
		 M1029.964,871.354c-0.088-0.213-0.123-0.404-0.143-0.633c-0.054-0.643,0.946-0.638,1,0c0.011,0.13,0.046,0.252,0.107,0.367
		C1031.176,871.684,1030.208,871.94,1029.964,871.354z M978.099,882.385c0.149-0.201,0.235-0.385,0.282-0.631
		c0.122-0.633,1.085-0.364,0.965,0.266c-0.062,0.321-0.188,0.607-0.384,0.869C978.582,883.4,977.714,882.903,978.099,882.385z
		 M976.721,879.671c0.042,0.198,0.058,0.388,0.06,0.591c0.006,0.646-0.994,0.645-1,0c0.006-0.109-0.002-0.218-0.024-0.325
		C975.621,879.308,976.585,879.04,976.721,879.671z M786.188,863.258c0.318,0.231,0.593,0.502,0.883,0.766
		c0.478,0.435-0.231,1.14-0.707,0.707c-0.225-0.204-0.434-0.43-0.68-0.609C785.169,863.745,785.667,862.877,786.188,863.258z
		 M776.655,869.658c-0.007-0.24-0.025-0.479-0.031-0.719c-0.017-0.646,0.983-0.644,1,0c0.006,0.24,0.024,0.479,0.031,0.719
		C777.674,870.304,776.674,870.302,776.655,869.658z M777.937,865.439c0.003,0.645-0.997,0.645-1,0
		c-0.003-0.615-0.023-1.229,0.031-1.844c0.058-0.637,1.058-0.643,1,0C777.913,864.21,777.934,864.824,777.937,865.439z
		 M748.882,870.437c-0.054-0.14-0.113-0.276-0.167-0.416c-0.233-0.603,0.734-0.86,0.964-0.266c0.054,0.14,0.113,0.276,0.167,0.416
		C750.079,870.773,749.111,871.031,748.882,870.437z M747.064,860.488c0.702-0.281,1.466-0.382,2.216-0.435
		c0.644-0.046,0.64,0.955,0,1c-0.666,0.047-1.328,0.149-1.95,0.399C746.731,861.693,746.474,860.726,747.064,860.488z
		 M746.586,868.845c0.236-0.102,0.513-0.128,0.861-0.124c0.645,0.008,0.645,1.008,0,1c-0.043-0.001-0.069-0.003-0.104-0.004
		c-0.042,0.326-0.167,0.68-0.184,0.904c-0.046,0.653,0.181,1.344-0.098,1.973c-0.242,0.543-0.939,0.728-1.318,0.22
		c-0.236-0.315-0.289-0.785-0.292-1.209c-0.047-0.071-0.083-0.153-0.087-0.259c-0.021-0.639-0.262-1.465,0.08-2.058
		C745.693,868.855,746.145,868.767,746.586,868.845z M745.578,863.145c0.161-0.011,0.325,0.052,0.426,0.241
		c0.222,0.415,0.253,0.803,0,1.212c-0.143,0.231-0.445,0.321-0.684,0.18c-0.443-0.262-0.589-0.729-0.54-1.224
		C744.824,863.12,745.298,862.987,745.578,863.145z M734.218,874.534c-0.29-0.021-0.785-0.218-1.039-0.069
		c-0.161,0.095-0.372,0.146-0.555,0.172c-0.459,0.065-0.957,0.114-1.367-0.15c-0.286-0.185-0.315-0.534-0.101-0.785
		c0.147-0.174,0.337-0.295,0.54-0.395c0.048-0.193,0.197-0.352,0.459-0.335c0.846,0.054,1.77,0.088,2.416,0.709
		C734.872,873.97,734.659,874.565,734.218,874.534z M730.788,854.28c0.101,0.031,0.209,0.036,0.313,0.059
		c0.019-0.016,0.029-0.035,0.051-0.05c0.494-0.318,1.027-0.35,1.594-0.259c0.202,0.033,0.386,0.281,0.367,0.482
		c-0.114,1.206-1.772,0.987-2.591,0.732C729.909,855.054,730.171,854.088,730.788,854.28z M727.974,856.511
		c0.339-0.485,1.094-0.094,0.914,0.387c0.03,0.058,0.052,0.123,0.06,0.198c0.037,0.386-0.04,0.769-0.355,1.021
		c-0.294,0.235-0.712,0.164-0.835-0.221C727.607,857.43,727.693,856.91,727.974,856.511z M721.517,870.218
		c0.325,0.083,0.677,0.149,1.027,0.159c0.04-0.057,0.095-0.108,0.171-0.149c0.399-0.212,0.733-0.526,1.169-0.673
		c0.422-0.142,1.001,0.025,0.982,0.567c-0.022,0.625-0.616,0.85-1.117,1.055c-0.789,0.323-1.696,0.21-2.498,0.006
		C720.627,871.023,720.892,870.059,721.517,870.218z M725.429,878.438c-0.045,0.318-0.486,0.458-0.734,0.299
		c-0.774-0.494-1.16-1.344-1.586-2.118c-0.756-0.188-1.084-1.017-1.856-1.248c-0.616-0.186-0.354-1.15,0.266-0.965
		c0.202,0.061,0.395,0.141,0.578,0.238c0.073-0.229,0.279-0.396,0.568-0.279c0.147,0.06,0.29,0.126,0.434,0.191
		c-0.022-0.201-0.024-0.396,0.069-0.595c0.25-0.534,0.942-0.666,1.378-0.249c0.267,0.255,0.4,0.539,0.364,0.909
		c-0.038,0.391,0.104,0.494,0.25,0.863C725.495,876.332,725.557,877.543,725.429,878.438z M724.989,863.638
		c-0.561-0.042-1.042-0.412-1.445-0.777c-0.401-0.364-0.851-0.799-1.07-1.305c-0.015-0.033-0.014-0.064-0.021-0.097l-0.013-0.006
		c-0.61-0.199-0.349-1.165,0.266-0.965c1.278,0.417,2.254,1.268,2.766,2.517C725.59,863.296,725.289,863.66,724.989,863.638z
		 M724.766,857.806c-0.52-0.852-1.007-1.583-1.77-2.242c-0.692-0.597-1.37-1.181-1.855-1.966c-0.34-0.55,0.525-1.052,0.863-0.504
		c0.007,0.011,0.016,0.02,0.022,0.029c0.042-0.011,0.08-0.026,0.129-0.027c1.019-0.012,1.383,0.729,1.95,1.462
		c0.676,0.876,1.341,1.76,1.574,2.863C725.795,857.97,725.068,858.303,724.766,857.806z M726.173,855.812
		c-0.161-0.777-0.107-1.554-0.101-2.341c0.005-0.645,1.005-0.646,1,0c-0.005,0.691-0.076,1.393,0.065,2.075
		C727.268,856.175,726.304,856.443,726.173,855.812z M728.072,861.429c-0.641-0.036-0.645-1.037,0-1
		c0.31,0.018,0.561,0.091,0.835,0.235c0.571,0.301,0.065,1.164-0.505,0.863C728.303,861.459,728.192,861.426,728.072,861.429z
		 M728.703,874.22c0.079-0.161,0.204-0.231,0.335-0.247c0.121-0.226,0.4-0.395,0.703-0.266c0.687,0.292,0.604,1.183,0.063,1.563
		c-0.294,0.207-0.787,0.111-1.028-0.13C728.508,874.872,728.551,874.527,728.703,874.22z M737.914,883.354
		c-1.156,2.639-5.334,1.536-7.528,1.96c-0.445,0.086-1.212,0.081-1.366-0.477c-0.324-1.179-0.076-2.746-0.083-3.961
		c-0.003-0.457,0.495-0.583,0.789-0.393c0.769-0.732,1.91-0.861,2.931-0.88c1.468-0.027,3.077-0.216,4.53-0.118
		C739.255,879.625,738.486,882.046,737.914,883.354z M741.827,866.214c-0.506-0.157-0.965-0.615-1.27-1.033
		c-0.168-0.23-0.087-0.451,0.083-0.587c-0.432-0.269-0.171-1.054,0.398-0.897c0.706,0.193,1.994,0.984,1.942,1.838
		C742.946,866.104,742.32,866.367,741.827,866.214z M742.423,871.521c-0.136-0.629,0.828-0.896,0.964-0.266
		c0.021,0.097,0.042,0.194,0.063,0.292c0.106,0.079,0.178,0.202,0.164,0.382c-0.006,0.075-0.019,0.157-0.031,0.239
		c0.199,0.965,0.352,1.943,0.24,2.928c-0.046,0.405-0.523,0.698-0.854,0.354c-0.898-0.937-0.532-2.073-0.391-3.203
		C742.527,872.004,742.476,871.762,742.423,871.521z M779.749,872.846c-0.035-0.375-0.084-0.748-0.094-1.125
		c-0.017-0.646,0.983-0.644,1,0c0.01,0.377,0.059,0.75,0.094,1.125C780.81,873.487,779.81,873.481,779.749,872.846z
		 M780.142,876.135c-0.038-0.2-0.068-0.398-0.08-0.602c-0.038-0.645,0.962-0.641,1,0c0.003,0.113,0.018,0.226,0.045,0.336
		C781.228,876.499,780.264,876.768,780.142,876.135z M781.239,864.461c0.456-0.588,0.857-1.21,1.406-1.719
		c0.472-0.438,1.181,0.268,0.707,0.707c-0.547,0.508-0.951,1.132-1.406,1.719C781.552,865.677,780.85,864.964,781.239,864.461z
		 M781.437,874.252c-0.031-1.26-0.088-2.56,0.715-3.608c0.442-0.577,1.076-0.82,1.339-1.577c0.177-0.51,0.389-0.921,0.749-1.324
		c0.263-0.295,0.627-0.143,0.773,0.13c0.105,0.054,0.189,0.151,0.219,0.31c0.009,0.048,0.004,0.088,0.011,0.134
		c0.003,0,0.005-0.001,0.007-0.001c-0.001,0.009-0.004,0.016-0.005,0.023c0.06,0.425,0.049,0.795-0.044,1.234
		c-0.069,0.33-0.365,0.41-0.614,0.324c-0.131,0.171-0.272,0.34-0.424,0.512c-0.525,0.598-0.645,1.243-0.833,2
		c-0.193,0.776-0.376,2.254-1.393,2.344C781.66,874.776,781.442,874.506,781.437,874.252z M855.469,868.825
		c0.448-0.465,0.72-0.986,0.871-1.612c0.138-0.564,0.926-0.402,0.972,0.094c0.23,0.119,0.377,0.386,0.192,0.666
		c-0.397,0.606-0.766,1.285-1.43,1.638C855.574,869.877,855.068,869.24,855.469,868.825z M854.099,872.386
		c0.244-0.422,0.066-1.075,0.057-1.54c-0.014-0.646,0.986-0.644,1,0c0.014,0.686,0.17,1.419-0.193,2.044
		C854.639,873.447,853.774,872.944,854.099,872.386z M849.03,862.554c0.027-0.643,1.027-0.646,1,0
		c-0.008,0.195-0.032,0.389-0.042,0.584c-0.032,0.642-1.032,0.645-1,0C848.998,862.942,849.022,862.749,849.03,862.554z
		 M834.423,866.146c-0.104-0.313-0.194-0.676-0.516-0.836c-0.249-0.124-0.506-0.116-0.758-0.227
		c-0.674-0.296-0.458-1.358-0.056-1.758c0.458-0.454,1.165,0.253,0.707,0.707c-0.06,0.046-0.079,0.107-0.076,0.177
		c0.107,0.012,0.212,0.03,0.313,0.071c0.241,0.1,0.478,0.2,0.674,0.377c0.366,0.327,0.523,0.769,0.676,1.223
		C835.593,866.493,834.627,866.754,834.423,866.146z M832.093,857.458c0.021-0.345,0.376-0.661,0.731-0.419
		c0.036,0.024,0.064,0.055,0.1,0.08c0.001-0.001,0.001-0.001,0.001-0.001c0.004,0.002,0.006,0.006,0.009,0.009
		c0.929,0.667,1.563,1.548,2.111,2.55c0.31,0.565-0.554,1.07-0.863,0.504c-0.313-0.57-0.654-1.105-1.079-1.574
		c-0.091,0.075-0.201,0.142-0.354,0.184c-0.74,0.205-1.402-0.416-1.618-1.062C830.927,857.117,831.884,856.857,832.093,857.458z
		 M835.347,877.79c-0.763,1.284-3.109,0.131-3.795-0.716c-0.159-0.196-0.225-0.519,0-0.707c0.483-0.406,1.068-0.676,1.709-0.589
		c-0.61-0.553-1.076-1.125-1.122-1.84c-0.529-0.182-0.927-0.555-1.29-1.049c-0.222-0.302,0.075-0.773,0.432-0.752
		c1.187,0.072,2.322-0.302,3.5-0.375c0.645-0.04,0.641,0.96,0,1c-0.517,0.032-1.021,0.121-1.526,0.206
		c0.02,0.052,0.029,0.108,0.026,0.169c-0.011,0.217-0.029,0.344-0.101,0.549c-0.015,0.043-0.037,0.084-0.062,0.123
		c-0.017,0.812,1.027,1.347,1.554,1.895C835.143,876.194,835.768,877.082,835.347,877.79z M837.53,863.388
		c0.908-0.08,1.088,0.197,1.322,0.967c0.151,0.496,2.01,0.241,2.339,0.243c0.808,0.005,1.614,0.017,2.422,0.04
		c0.644,0.019,0.646,1.019,0,1c-0.969-0.027-1.938-0.04-2.906-0.041c-0.552-0.001-1.329,0.134-1.872-0.037
		c-0.391-0.123-0.632-0.283-0.842-0.643c-0.272-0.466,0.117-0.58-0.463-0.529C836.888,864.444,836.894,863.444,837.53,863.388z
		 M841.415,875.448c0.212,0.372-0.054,0.802-0.436,0.906c-0.836,0.229-1.863,0.076-2.707-0.068
		c-0.635-0.109-0.365-1.073,0.266-0.965c0.178,0.03,0.362,0.047,0.546,0.066c-0.2-0.272-0.166-0.735,0.23-0.816
		c1.159-0.237,2.33-0.229,3.508-0.268c0.646-0.021,0.644,0.979,0,1c-0.497,0.016-0.993,0.021-1.488,0.042
		C841.36,875.38,841.392,875.406,841.415,875.448z M852.152,878.718c-0.36,2.517-0.873,3.24-3.361,3.046
		c-1.914-0.149-3.841,0.052-5.761-0.085c-1.52-0.108-2.731,0.411-4.159,0.649c-0.466,0.077-0.871-0.457-0.486-0.836
		c0.409-0.403,0.65-0.78,1.16-1.052c1.108-0.59-1.382-1.354-1.605-1.404c-0.629-0.142-0.362-1.105,0.266-0.965
		c0.87,0.196,2.446,0.676,2.726,1.692c0.08,0.291,0.05,0.544-0.047,0.771c0.049-0.007,0.097-0.019,0.146-0.021
		c1.25-0.075,2.472,0.253,3.729,0.251c1.321-0.002,2.719-0.175,4.031,0c1.303,0.174,2.084-0.127,2.306-1.674
		c0.112-0.779,0.057-1.363-0.111-1.869c-0.796-1.167-2.016-1.822-2.762-3.04c-0.807-1.314-2.338-2.151-3.813-2.942
		c-0.043-0.014-0.089-0.023-0.13-0.039c-0.663-0.249-1.256-0.693-1.835-1.089c-0.529-0.36-0.033-1.225,0.504-0.863
		c1.644,1.121,3.271,1.21,5.047,1.908c0.687,0.271,1.063,0.823,1.343,1.469c0.76,1.75,2.24,2.781,2.71,4.413
		c0.012,0.021,0.027,0.036,0.038,0.057c0.06,0.11,0.065,0.215,0.049,0.313C852.207,877.803,852.222,878.232,852.152,878.718z
		 M851.73,874.453c-0.196-0.072-0.388-0.251-0.367-0.482c0.117-1.297,0.573-2.518,0.768-3.8c0.097-0.636,1.061-0.365,0.965,0.266
		c-0.014,0.089-0.036,0.176-0.052,0.264c0.09,0.08,0.151,0.197,0.153,0.354C853.209,871.958,853.52,875.108,851.73,874.453z
		 M852.822,863.888v-0.25c0-0.645,1-0.645,1,0v0.25C853.822,864.532,852.822,864.532,852.822,863.888z M885.173,881.213
		c0.071-0.113,0.093-0.235,0.065-0.367c-0.061-0.643,0.94-0.637,1,0c0.021,0.231-0.014,0.417-0.101,0.633
		C885.898,882.068,884.931,881.811,885.173,881.213z M878.343,881.574c-0.208-0.167-0.428-0.315-0.648-0.464
		c-0.533-0.356-0.033-1.224,0.504-0.863c0.293,0.196,0.577,0.399,0.852,0.62C879.553,881.271,878.84,881.975,878.343,881.574z
		 M879.849,884.139c-0.275-0.368-0.51-0.729-0.676-1.16c-0.231-0.603,0.735-0.861,0.965-0.266c0.131,0.341,0.357,0.632,0.574,0.922
		C881.099,884.151,880.229,884.649,879.849,884.139z M880.182,881.973c-0.162-0.258-0.297-0.532-0.458-0.792
		c-0.343-0.548,0.522-1.05,0.863-0.504c0.162,0.259,0.296,0.533,0.458,0.792C881.389,882.017,880.523,882.518,880.182,881.973z
		 M880.515,878.389c-0.153-0.229-0.245-0.476-0.301-0.744c-0.131-0.629,0.833-0.896,0.965-0.266c0.04,0.192,0.09,0.342,0.199,0.506
		C881.737,878.422,880.871,878.922,880.515,878.389z M882.596,883.979c-0.087,0.637-1.051,0.364-0.965-0.266
		c0.03-0.218,0.024-0.44,0.024-0.659c0.001-0.645,1.001-0.645,1,0C882.654,883.366,882.638,883.669,882.596,883.979z
		 M883.071,879.137c0.007-0.306,0.035-0.61,0.042-0.916c0.014-0.644,1.014-0.646,1,0c-0.007,0.306-0.035,0.61-0.042,0.916
		C884.058,879.78,883.058,879.782,883.071,879.137z M904.631,875.062c-0.052-0.184-0.083-0.358-0.06-0.549
		c0.078-0.632,1.078-0.639,1,0c-0.027,0.098-0.02,0.192,0.024,0.283C905.772,875.417,904.808,875.681,904.631,875.062z
		 M906.155,871.221v-0.333c0-0.645,1-0.645,1,0v0.333C907.155,871.865,906.155,871.865,906.155,871.221z M909.407,876.944
		c-0.679,0.486-1.414,0.86-2.203,1.134c-0.611,0.212-0.871-0.755-0.266-0.965c0.708-0.245,1.356-0.597,1.965-1.032
		C909.429,875.704,909.927,876.572,909.407,876.944z M916.638,889.812c-0.104,0.38-0.534,0.52-0.885,0.534
		c-0.553,0.023-1.096-0.091-1.648-0.08c-0.773,0.014-1.553,0.036-2.29-0.229c-0.233-0.084-0.401-0.348-0.361-0.586
		c-0.118-0.075-0.198-0.202-0.173-0.396c0.307-2.291,3.356-1.596,4.632-0.557C916.3,888.813,916.792,889.251,916.638,889.812z
		 M916.971,886.646c-0.094,0.271-0.335,0.407-0.615,0.35c-1.476-0.304-1.748-1.656-1.433-2.949c0.147-0.602,1.033-0.376,0.968,0.198
		C916.71,884.651,917.274,885.769,916.971,886.646z M916.955,881.286c-0.531,0.182-0.898,0.672-1.444,0.824
		c-0.381,0.106-1.251-0.066-1.466,0.278c-0.339,0.547-1.204,0.045-0.863-0.504c0.367-0.592,0.853-0.684,1.51-0.677
		c0.791,0.01,1.279-0.641,1.998-0.887C917.302,880.112,917.562,881.078,916.955,881.286z M918.613,869.054c0,0.645-1,0.645-1,0
		v-0.166c0-0.645,1-0.645,1,0V869.054z M923.238,884.179c-0.044-0.001-0.089-0.002-0.133-0.003
		c-0.831,0.671-2.067,1.927-2.169,3.106c0.004,0.169,0.005,0.339,0.034,0.514c0.104,0.623-0.814,0.903-0.965,0.266
		c-0.037-0.22-0.054-0.435-0.063-0.647v-0.02c-0.02-0.461,0.012-0.914,0.06-1.392c0.024-0.247,0.1-0.485,0.141-0.729
		c0.026-0.159-0.005-0.221-0.074-0.257c-0.065,0.019-0.13,0.044-0.197,0.062c-0.441,0.114-0.763-0.366-0.561-0.727
		c0.036-0.218,0.192-0.408,0.433-0.42c0.979-0.732,2.298-0.789,3.495-0.753C923.882,883.198,923.884,884.198,923.238,884.179z
		 M942.473,877.465c0.085-0.181,0.183-0.353,0.323-0.494c0.221-0.223,0.455-0.331,0.762-0.386c0.424-0.077,0.835,0.135,1.257,0.069
		c0.631-0.098,0.901,0.866,0.266,0.965c-0.35,0.054-0.657,0.037-1.005-0.021c-0.261-0.044-0.495-0.082-0.632,0.176
		c-0.236,0.447-0.352,0.948-0.648,1.364c-0.232,0.326-0.811,0.34-0.914-0.119c-0.074-0.332-0.105-0.69-0.24-1.006
		C941.398,877.447,942.192,876.961,942.473,877.465z M934.93,872.879c0.031,0.235,0.05,0.474,0.083,0.709
		c0.087,0.63-0.877,0.902-0.965,0.266c-0.032-0.235-0.051-0.473-0.083-0.709C933.88,872.515,934.844,872.242,934.93,872.879z
		 M933.555,876.838c0.131,0.484,0.253,0.971,0.375,1.458c0.156,0.626-0.809,0.891-0.965,0.266c-0.121-0.486-0.244-0.974-0.375-1.458
		C932.422,876.48,933.387,876.216,933.555,876.838z M931.613,870.429c0.251-0.032,0.497-0.041,0.75-0.042
		c0.645-0.002,0.645,0.998,0,1c-0.253,0.001-0.499,0.01-0.75,0.042C930.975,871.512,930.983,870.511,931.613,870.429z
		 M927.03,880.471c-0.552,0.034-1.089-0.017-1.633-0.102c-0.636-0.1-0.365-1.063,0.266-0.965c0.456,0.071,0.907,0.095,1.367,0.066
		C927.675,879.431,927.671,880.431,927.03,880.471z M934.788,888.522c-0.92-0.011-2.409,0.391-3.232-0.092
		c-0.379-0.222-0.539-0.589-0.609-1.007c-0.21-1.246-1.099-1.774-2.115-2.377c-0.626-0.371-0.82-0.778-0.674-1.281
		c-0.375-0.633-0.287-1.236,0.272-2.023c0.723-1.018,1.886-1.217,2.993-0.76c0.733,0.303,1.255,0.925,1.936,1.31
		c0.663,0.374,1.344,0.679,1.917,1.187c0.389,0.345,0.362,0.927,0.501,1.376c0.195,0.63,0.571,1.261,0.557,1.944
		C936.311,887.825,935.921,888.535,934.788,888.522z M937.155,881.137c-0.017,0.361-0.418,0.646-0.752,0.432
		c-0.435-0.278-0.703-0.663-0.972-1.096c-0.306-0.49,0.351-0.938,0.737-0.638c-0.005-0.371-0.013-0.743-0.014-1.114
		c-0.002-0.645,0.998-0.645,1,0C937.158,879.526,937.191,880.331,937.155,881.137z M937.971,873.863
		c0.099,0.609-0.835,0.862-0.965,0.24c-0.056-0.268-0.049-0.479,0.093-0.719C937.422,872.839,938.258,873.318,937.971,873.863z
		 M939.03,881.512c-0.032-0.251-0.041-0.497-0.042-0.75c0-0.131,0.047-0.228,0.112-0.306c0-0.44-0.025-0.882-0.028-1.319
		c-0.002-0.229,0.125-0.372,0.286-0.438c-0.022-0.324,0.219-0.654,0.597-0.502c0.273,0.11,0.52,0.26,0.785,0.384
		c0.201,0.094,0.285,0.363,0.23,0.564c-0.087,0.314-0.245,0.564-0.462,0.805c-0.13,0.145-0.283,0.172-0.424,0.141
		c0.004,0.464-0.002,0.927-0.057,1.392c0.002,0.011,0.001,0.021,0.002,0.03c-0.002,0-0.003,0-0.005-0.001
		c-0.005,0.045-0.006,0.089-0.013,0.134C939.924,882.255,939.096,882.015,939.03,881.512z M973.532,879.539
		c0.07,0.041,0.14,0.083,0.208,0.125c0.552,0.333,0.049,1.198-0.504,0.863c-0.069-0.042-0.139-0.084-0.208-0.125
		C972.475,880.072,972.978,879.207,973.532,879.539z M971.996,883.494c-0.663,0.184-1.151-0.191-1.216-0.857
		c-0.059-0.6,0.804-0.626,0.967-0.108C972.356,882.379,972.611,883.323,971.996,883.494z M972.927,886.324
		c-0.225-0.235-0.421-0.482-0.578-0.769c-0.312-0.564,0.553-1.069,0.863-0.504c0.118,0.214,0.253,0.389,0.422,0.565
		C974.079,886.083,973.373,886.792,972.927,886.324z M973.385,883.657c-0.17-0.178-0.33-0.364-0.5-0.542
		c-0.446-0.465,0.26-1.173,0.707-0.707c0.17,0.178,0.33,0.364,0.5,0.542C974.537,883.416,973.831,884.125,973.385,883.657z
		 M974.173,885.838c0.073-0.235,0.136-0.474,0.208-0.709c0.189-0.614,1.155-0.353,0.965,0.266c-0.073,0.235-0.136,0.474-0.208,0.709
		C974.948,886.718,973.982,886.456,974.173,885.838z M998.552,955.949c-0.846-0.894-1.16-2.112-2-3
		c-0.443-0.468,0.263-1.176,0.707-0.707c0.846,0.894,1.16,2.112,2,3C999.702,955.71,998.996,956.418,998.552,955.949z
		 M1004.988,874.804c0.008,0.025,0.017,0.05,0.024,0.075c0.215,0.609-0.751,0.869-0.965,0.266c-0.04-0.115-0.054-0.219-0.06-0.341
		C1003.956,874.159,1004.956,874.162,1004.988,874.804z M1004.802,879.032c-0.616-0.776-1.325-1.477-1.87-2.31
		c-0.354-0.541,0.512-1.042,0.863-0.504c0.497,0.76,1.15,1.396,1.714,2.106C1005.905,878.824,1005.202,879.537,1004.802,879.032z
		 M1006.76,877.782c-0.343-0.313-0.653-0.651-0.958-1c-0.423-0.483,0.281-1.193,0.707-0.707c0.305,0.349,0.615,0.688,0.958,1
		C1007.944,877.511,1007.235,878.216,1006.76,877.782z M1033.388,871.895c-0.094,0.636-1.058,0.365-0.965-0.266
		c0.026-0.181,0.005-0.354-0.018-0.533c-0.082-0.639,0.919-0.631,1,0C1033.44,871.373,1033.428,871.62,1033.388,871.895z
		 M1046.322,874.429h0.291c0.645,0,0.645,1,0,1h-0.291C1045.678,875.429,1045.678,874.429,1046.322,874.429z M1044.571,878.304
		c0.638,0.055,0.643,1.056,0,1c-0.43-0.037-0.859-0.042-1.291-0.042c-0.645,0-0.645-1,0-1
		C1043.712,878.262,1044.142,878.267,1044.571,878.304z M1040.813,876.613c0.626-0.138,1.243-0.292,1.883-0.352
		c0.643-0.06,0.637,0.941,0,1c-0.548,0.051-1.081,0.198-1.617,0.316C1040.451,877.717,1040.184,876.752,1040.813,876.613z
		 M1037.788,874.369c-0.421,0.161-0.851,0.282-1.292,0.375c-0.629,0.132-0.896-0.832-0.266-0.965
		c0.441-0.092,0.87-0.213,1.292-0.375C1038.125,873.173,1038.384,874.141,1037.788,874.369z M1035.506,871.546
		c0.097-0.636,1.06-0.365,0.965,0.266c-0.019,0.12-0.019,0.239,0,0.359c0.095,0.631-0.868,0.901-0.965,0.266
		C1035.459,872.127,1035.459,871.855,1035.506,871.546z M1045.014,885.587c-1.027-0.154-2.112-0.526-2.837-1.305
		c-0.075-0.081-0.107-0.169-0.122-0.257c-0.174-0.004-0.349-0.01-0.524-0.014c-0.14-0.003-0.244-0.058-0.323-0.133
		c-0.031,0.002-0.058,0.012-0.094,0.008c-0.945-0.11-1.89-0.248-2.84-0.304c-0.628-0.036-1.432-0.019-1.995-0.348
		c-0.832-0.485-0.885-2.066-0.605-2.897c0.08-0.238,0.351-0.451,0.615-0.35c0.914,0.351,1.077,1.151,1.721,1.795
		c0.271,0.271,0.127,0.629-0.128,0.779c1.081,0.079,2.154,0.197,3.232,0.324c0.127,0.015,0.222,0.073,0.299,0.146
		c0.038-0.008,0.073-0.022,0.118-0.021c0.778,0.016,1.491,0.017,2.264-0.097c0.455-0.067,0.876-0.048,1.309,0.11
		c0.668,0.245,1.857,0.937,1.857,1.777C1046.96,885.739,1045.625,885.679,1045.014,885.587z M1047.863,881.471
		c0,0.562-0.759,0.633-0.954,0.216c-0.08,0.111-0.203,0.193-0.379,0.2c-0.209,0.008-0.411,0.032-0.617,0.066
		c-0.631,0.104-0.9-0.86-0.266-0.965c0.294-0.048,0.585-0.09,0.883-0.102c0.146-0.006,0.253,0.046,0.333,0.121v-2.204
		c0-0.645,1-0.645,1,0V881.471z M1048.974,874.848c-0.373-0.528,0.495-1.026,0.863-0.504c0.098,0.138,0.214,0.207,0.362,0.278
		c0.582,0.277,0.074,1.14-0.504,0.863C1049.387,875.338,1049.169,875.125,1048.974,874.848z M1052.163,876.203
		c-0.025,0.005-0.029-0.002-0.045-0.002c0.004,0.014,0.013,0.016,0.014,0.039c0.007,0.134,0.012,0.273-0.02,0.405
		c-0.06,0.252-0.203,0.458-0.398,0.624c-0.43,0.366-1.021,0.462-1.551,0.6c-0.625,0.162-0.89-0.802-0.266-0.965
		c0.288-0.075,1.258-0.175,1.239-0.573c-0.026-0.556,0.177-0.977,0.761-1.093C1052.527,875.113,1052.795,876.077,1052.163,876.203z
		 M1057.926,869.408c0.69,0.577,1.382,1.179,2.237,1.496c0.6,0.223,0.34,1.189-0.266,0.965c-1.029-0.382-1.846-1.058-2.679-1.754
		C1056.724,869.701,1057.435,868.998,1057.926,869.408z M1060.721,886.604c-0.504,1.505-2.07,0.324-2.817-0.201
		c-0.327-0.229-0.313-0.631,0-0.863c0.445-0.332,0.938-0.593,1.417-0.875c0.233-0.139,0.452-0.061,0.593,0.094
		C1060.879,884.568,1060.939,885.949,1060.721,886.604z M1060.746,876.744c-0.474,0.121-1.129,0.197-1.492-0.226
		c-0.365-0.427-0.405-0.965-0.391-1.507c0.018-0.644,1.018-0.646,1,0c-0.006,0.227-0.051,0.576,0.084,0.779
		c0.093,0.139,0.416,0.019,0.533-0.012C1061.105,875.619,1061.37,876.584,1060.746,876.744z M1061.135,870.449
		c-0.834-0.706-1.696-1.38-2.416-2.209c-0.421-0.484,0.283-1.195,0.707-0.707c0.72,0.828,1.582,1.503,2.416,2.209
		C1062.335,870.159,1061.624,870.863,1061.135,870.449z M1063.58,884.238c0.962,0.145,1.938,0.11,2.908,0.107
		c0.645-0.002,0.645,0.998,0,1c-1.064,0.003-2.118,0.016-3.174-0.143C1062.679,885.107,1062.949,884.144,1063.58,884.238z
		 M1083.822,879.304c-0.004,0.123,0.003,0.245,0.023,0.367c0.109,0.631-0.854,0.9-0.965,0.266c-0.037-0.213-0.057-0.417-0.059-0.633
		C1082.816,878.658,1083.816,878.659,1083.822,879.304z M1080.099,882.765c-0.199-0.465-0.339-0.909-0.36-1.419
		c-0.027-0.646,0.973-0.643,1,0c0.014,0.322,0.097,0.618,0.224,0.915C1081.213,882.847,1080.352,883.356,1080.099,882.765z
		 M1082.67,881.219c0.134,0.222,0.206,0.449,0.26,0.702c0.133,0.629-0.831,0.896-0.965,0.266c-0.036-0.172-0.066-0.311-0.158-0.464
		C1081.474,881.169,1082.339,880.666,1082.67,881.219z M1103.474,876.348c-0.229-0.429-0.411-0.877-0.593-1.328
		c-0.24-0.599,0.728-0.856,0.965-0.266c0.148,0.371,0.304,0.736,0.491,1.09C1104.64,876.412,1103.776,876.918,1103.474,876.348z
		 M1105.349,867.885c0.342-0.564,0.763-1.068,1.245-1.518c0.472-0.438,1.18,0.267,0.707,0.707c-0.423,0.394-0.789,0.82-1.089,1.314
		C1105.878,868.939,1105.014,868.438,1105.349,867.885z M1111.236,889.404c-0.495,0.118-1.007,0.089-1.508,0.025
		c-1.013-0.129-1.928-0.144-2.94,0.023c-0.298,0.049-0.559-0.179-0.624-0.43c-0.095-0.057-0.171-0.149-0.199-0.295
		c-0.106-0.539-0.232-1.113,0.153-1.563c0.311-0.364,1.042-0.448,1.474-0.529c1.373-0.259,2.377-0.467,3.431,0.667
		C1111.487,887.802,1112.532,889.098,1111.236,889.404z M1110.471,883.296c0.09,0.352,0.123,0.725,0.235,1.069
		c0.093,0.285,0.343,0.266,0.616,0.271c0.644,0.014,0.646,1.014,0,1c-0.521-0.011-1.109-0.107-1.401-0.597
		c-0.266-0.442-0.289-0.988-0.415-1.479C1109.346,882.937,1110.311,882.672,1110.471,883.296z M1112.113,881.596h-3.041
		c-0.645,0-0.645-1,0-1h3.041C1112.758,880.596,1112.758,881.596,1112.113,881.596z M1114.087,883.448
		c0.064-0.169,0.211-0.306,0.443-0.312c0.752-0.021,2.667-0.543,2.929,0.545c0.18,0.744-0.669,1.052-1.252,1.034
		c-0.643-0.021-1.338-0.14-1.935-0.388C1113.877,884.163,1113.87,883.677,1114.087,883.448z M1142.197,884.554
		c0.076-0.632,1.077-0.64,1,0c-0.079,0.651-0.126,1.304-0.167,1.958c-0.041,0.641-1.041,0.645-1,0
		C1142.071,885.857,1142.118,885.205,1142.197,884.554z M1138.572,885.387h-0.292c-0.645,0-0.645-1,0-1h0.292
		C1139.217,884.387,1139.217,885.387,1138.572,885.387z M1140.219,890.657c-0.44-0.394-0.867-0.809-1.12-1.352
		c-0.271-0.58,0.591-1.088,0.863-0.504c0.22,0.47,0.582,0.808,0.964,1.148C1141.408,890.381,1140.698,891.085,1140.219,890.657z
		 M1142.68,891.77c-0.184,0.617-1.148,0.354-0.965-0.266c0.21-0.708,0.688-1.069,1.321-1.397c1.085-0.563,1.204-1.419,1.202-2.553
		c-0.001-0.645,0.999-0.645,1,0c0.002,0.908-0.001,1.947-0.669,2.656C1144.049,890.763,1142.899,891.028,1142.68,891.77z
		 M1196.34,870.012c0.225-0.27,0.751-0.283,0.881,0.159c0.405,1.388-1.007,2.041-1.586,3.09c-0.262,0.473-0.728,2.331-1.545,2.234
		c-2.372-0.28,1.162-4.748,1.712-5.378C1195.967,869.928,1196.173,869.923,1196.34,870.012z M1165.939,869.328
		c-0.311-0.082-0.464-0.459-0.299-0.734c0.157-0.262,0.177-0.533,0.182-0.832c0.012-0.645,1.012-0.646,1,0
		c-0.004,0.218-0.022,0.429-0.062,0.635c0.182-0.028,0.344-0.104,0.412-0.268c0.243-0.587,1.211-0.33,0.965,0.266
		C1167.77,869.282,1166.83,869.563,1165.939,869.328z M1169.016,879.348c-0.583-1.063-1.027-2.185-1.426-3.328
		c-0.213-0.61,0.754-0.87,0.965-0.266c0.37,1.063,0.782,2.101,1.324,3.09C1170.189,879.409,1169.325,879.913,1169.016,879.348z
		 M1170.314,871.494c-0.103-0.015-0.203-0.039-0.305-0.055c-0.007,0.148-0.021,0.297-0.021,0.447c-0.001,0.645-1.001,0.645-1,0
		c0.001-0.294,0.008-0.583,0.042-0.875c0.003-0.025,0.016-0.043,0.021-0.065c-0.044-0.317,0.205-0.688,0.611-0.583
		c0.303,0.078,0.608,0.123,0.917,0.166C1171.217,870.618,1170.944,871.582,1170.314,871.494z M1172.629,881.806
		c-0.15,0.246-0.436,0.301-0.684,0.18c-1.556-0.754-0.594-2.253-0.582-3.515c0.002-0.189,0.093-0.316,0.216-0.395
		c-0.027-0.117-0.055-0.234-0.073-0.348c-0.104-0.631,0.86-0.901,0.965-0.266C1172.707,878.908,1173.476,880.419,1172.629,881.806z
		 M1173.996,872.203c-0.19,0.079-0.381,0.125-0.583,0.166c-0.629,0.128-0.897-0.836-0.266-0.965
		c0.202-0.041,0.393-0.086,0.583-0.166C1174.325,870.989,1174.582,871.958,1173.996,872.203z M1176.476,881.593
		c-1.164,0.682-1.627-1.573-1.511-2.255c0.108-0.635,1.072-0.365,0.965,0.266c-0.028,0.165-0.02,0.375,0.029,0.574
		c0.014-0.187,0.03-0.372,0.055-0.558c0.131-0.969,0.492-1.846,0.867-2.741c0.246-0.586,1.214-0.329,0.965,0.266
		c-0.343,0.817-0.72,1.648-0.84,2.535C1176.927,880.261,1177.088,881.233,1176.476,881.593z M1183.947,882.971
		c0.023,0.291-0.246,0.475-0.5,0.5c-1.325,0.133-3.42-0.05-4.693,0.787c-0.358,0.468-0.66,0.966-1.216,1.195
		c-0.53,0.219-0.789-0.521-0.426-0.858c0.011-0.028,0.012-0.056,0.028-0.085c0.202-0.356,0.473-0.625,0.767-0.859
		c0.1-0.151,0.195-0.286,0.28-0.356c0.506-0.423,1.023-0.819,1.599-1.144c1.065-0.602,2.492-0.438,3.661-0.472
		c0.257-0.008,0.521,0.233,0.5,0.5C1183.905,882.442,1183.905,882.707,1183.947,882.971z M1186.93,883.395
		c-0.118,0.313-0.428,0.455-0.734,0.299c-0.702-0.356-0.891-1.169-0.957-1.89c-0.054-0.579,0.747-0.627,0.95-0.166
		c0.01,0.009,0.02,0.011,0.028,0.021C1186.665,882.15,1187.203,882.672,1186.93,883.395z M1188.48,867.286
		c-0.953-0.255-1.69-0.839-1.475-1.907c0.128-0.632,1.092-0.364,0.965,0.266c-0.094,0.461,0.425,0.583,0.775,0.677
		C1189.368,866.488,1189.104,867.452,1188.48,867.286z M1188.738,871.054c0.029-0.124,0.021-0.246-0.023-0.367
		c-0.144-0.628,0.82-0.895,0.965-0.266c0.049,0.215,0.081,0.413,0.059,0.633C1189.673,871.688,1188.673,871.695,1188.738,871.054z
		 M1191.432,867.51c0.205-0.395,0.342-0.811,0.485-1.213c-0.219,0.042-0.45,0.054-0.72,0.049c-0.645-0.011-0.646-1.011,0-1
		c0.624,0.011,0.798-0.081,1.041-0.641c0.12-0.276,0.245-0.62,0.514-0.79c0.636-0.402,1.244,0.199,1.386,0.798
		c0.046,0.197-0.022,0.477-0.23,0.564c-1.107,0.471-1.113,1.778-1.612,2.736C1191.997,868.586,1191.135,868.081,1191.432,867.51z
		 M1192.905,873.012c-0.003,0.645-1.003,0.645-1,0c0.003-0.625,0.037-1.254-0.107-1.867c-0.147-0.627,0.817-0.894,0.965-0.266
		C1192.928,871.582,1192.908,872.294,1192.905,873.012z M1229.423,884.52c-0.298-0.942-0.54-1.887-0.518-2.883
		c0.015-0.644,1.015-0.646,1,0c-0.021,0.909,0.21,1.757,0.482,2.617C1230.582,884.87,1229.616,885.132,1229.423,884.52z
		 M1232.913,882.238c0.681,0.28,0.978,0.809,1.225,1.475c0.225,0.605-0.742,0.865-0.965,0.266c-0.103-0.278-0.226-0.652-0.525-0.775
		C1232.06,882.961,1232.316,881.993,1232.913,882.238z M1238.013,893.27c-0.063,0.214-0.257,0.367-0.482,0.367
		c-1.132,0.001-2.247,0.12-3.372,0.157c-0.21,0.008-0.407-0.021-0.577-0.105c-0.303,0.194-0.857-0.072-0.783-0.56
		c0.049-0.324,0.104-0.646,0.159-0.968c-0.034-0.377-0.046-0.753-0.079-1.058c-0.13-1.218-0.206-2.413-0.057-3.633
		c0.034-0.282,0.222-0.447,0.429-0.479c0.356-0.86,1.445-1.842,1.748-2.096c1.263-1.057,3.022-0.32,3.175,1.331
		C1238.376,888.418,1238.639,891.146,1238.013,893.27z M1269.072,876.471c0.001,0.482,0.021,0.901,0.265,1.331
		c0.319,0.562-0.545,1.065-0.863,0.504c-0.331-0.583-0.4-1.174-0.401-1.835C1268.071,875.826,1269.071,875.826,1269.072,876.471z
		 M1266.717,874.367c0.17,0.135,0.341,0.263,0.523,0.38c0.542,0.346,0.041,1.212-0.504,0.863c-0.255-0.162-0.49-0.349-0.727-0.536
		C1265.505,874.674,1266.218,873.971,1266.717,874.367z M1263.08,878.911c-0.63,0.088-0.902-0.876-0.266-0.965
		c0.371-0.052,0.799-0.036,1.154-0.165c0.232-0.084,0.152-0.548,0.145-0.728c-0.002-0.044,0.012-0.077,0.019-0.115
		c0.01-0.339,0.355-0.671,0.733-0.441c0.759,0.461,1.431,1.039,2.061,1.661c0.459,0.454-0.248,1.16-0.707,0.707
		c-0.368-0.364-0.76-0.697-1.167-1.01c-0.072,0.307-0.216,0.586-0.507,0.753C1264.101,878.861,1263.572,878.842,1263.08,878.911z
		 M1266.663,882.779c0.636,0.098,0.365,1.062-0.266,0.965c-0.807-0.124-1.088-0.971-0.992-1.69c0.084-0.63,1.085-0.638,1,0
		C1266.368,882.334,1266.314,882.727,1266.663,882.779z M1268.322,889.679c-0.687,0.002-1.37,0.002-2.05-0.054
		c0.052,0.09,0.119,0.171,0.218,0.247c0.504,0.387,0.007,1.257-0.504,0.863c-0.38-0.292-0.675-0.606-0.771-1.091
		c-0.012-0.06-0.006-0.113,0-0.166c-0.05-0.01-0.101-0.014-0.15-0.025c-0.629-0.144-0.362-1.108,0.266-0.965
		c0.984,0.225,1.989,0.192,2.992,0.19C1268.967,888.677,1268.967,889.677,1268.322,889.679z M1270.655,883.929
		c-0.055,0.638-1.056,0.643-1,0c0.048-0.556,0.19-1.137,0.087-1.688c-0.043-0.007-0.086-0.016-0.129-0.02
		c-0.636-0.063-0.642-1.063,0-1c0.183,0.018,0.36,0.065,0.542,0.083c0.244,0.024,0.393,0.141,0.482,0.367
		C1270.929,882.406,1270.721,883.173,1270.655,883.929z M1270.465,877.729c-0.088-0.263-0.13-0.523-0.143-0.8
		c-0.03-0.645,0.97-0.642,1,0c0.009,0.194,0.045,0.351,0.107,0.534C1271.636,878.075,1270.67,878.336,1270.465,877.729z
		 M1318.011,875.201c0.319-0.277,0.73-0.063,0.838,0.234c0.27,0.14,0.434,0.517,0.161,0.806c-0.322,0.342-0.698,0.351-1.105,0.162
		c-0.164-0.075-0.235-0.266-0.248-0.432C1317.633,875.65,1317.772,875.407,1318.011,875.201z M1313.861,876.521
		c0.034-0.103,0.068-0.205,0.104-0.308c0.104-0.297,0.382-0.394,0.617-0.329c0.087-0.426,0.162-0.854,0.199-1.288
		c0.054-0.633,1.004-0.653,1,0c-0.001,0.113-0.001,0.227-0.002,0.339c0.132,0.047,0.252,0.147,0.317,0.319
		c0.012,0.031,0.024,0.062,0.036,0.092c0.231,0.073,0.418,0.288,0.339,0.591c-0.049,0.187-0.113,0.297-0.254,0.429
		c-0.075,0.071-0.181,0.106-0.289,0.123c-0.031,0.163-0.044,0.328-0.082,0.49c-0.06,0.254-0.329,0.374-0.569,0.351
		c-0.091,0.382-0.181,0.765-0.264,1.149c-0.124,0.576-0.953,0.408-0.982-0.133c-0.002-0.03-0.002-0.061-0.004-0.091
		c-0.229,0.134-0.535,0.128-0.678-0.157c-0.195-0.391-0.231-0.781-0.277-1.211C1313.021,876.415,1313.552,876.298,1313.861,876.521z
		 M1310.697,873.763c0.008-0.535,0.691-0.619,0.92-0.267c0.174-0.171,0.421-0.132,0.603,0.013c0.243-0.072,0.515,0.011,0.585,0.33
		c0.164,0.748,0.108,1.499,0.102,2.258c-0.006,0.645-1.006,0.646-1,0c0.003-0.339,0.022-0.682,0.022-1.022
		c-0.056-0.008-0.103-0.033-0.15-0.058c-0.086,0.08-0.181,0.154-0.287,0.22c-0.259,0.16-0.675,0.018-0.734-0.299
		C1310.683,874.544,1310.691,874.162,1310.697,873.763z M1308.85,872.178c0.156-0.32,0.603-0.3,0.81-0.051
		c0.275-0.041,0.583,0.11,0.58,0.47c-0.002,0.217-0.022,0.42-0.06,0.633c-0.065,0.366-0.438,0.417-0.709,0.28
		c-0.279,0.276-0.874,0.171-0.856-0.33C1308.627,872.819,1308.69,872.502,1308.85,872.178z M1309.739,880.805v0.708
		c0,0.645-1,0.645-1,0v-0.708C1308.739,880.16,1309.739,880.16,1309.739,880.805z M1307.781,875.138c0-0.645,1-0.645,1,0v0.625
		c0,0.645-1,0.645-1,0V875.138z M1300.588,885.428l0.08,0.051c0.029-0.107,0.101-0.206,0.236-0.272
		c0.18-0.088,0.296-0.575,0.439-0.755c0.402-0.504,1.104,0.208,0.707,0.707c-0.112,0.142-0.108,0.364-0.212,0.516
		c-0.118,0.176-0.238,0.302-0.431,0.396c-0.182,0.089-0.353,0.057-0.489-0.028c-0.098,0.259-0.395,0.471-0.724,0.32
		c-0.213-0.097-0.353-0.229-0.471-0.43C1299.395,885.376,1300.259,884.873,1300.588,885.428z M1296.489,882.472c0-0.645,1-0.645,1,0
		v0.583c0,0.645-1,0.645-1,0V882.472z M1284.064,872.696c0.155-0.021,0.31-0.041,0.466-0.059c0.641-0.072,0.633,0.929,0,1
		c-0.066,0.008-0.134,0.016-0.2,0.023C1283.7,873.746,1283.428,872.783,1284.064,872.696z M1286.171,882.218
		c0.008,0.21,0.009,0.419,0.026,0.628c0.055,0.643-0.945,0.638-1,0c-0.025-0.303-0.03-0.605-0.039-0.909
		c-0.285-0.106-0.565-0.226-0.838-0.367c-0.572-0.298-0.066-1.161,0.504-0.863c0.099,0.051,0.202,0.088,0.303,0.132
		c-0.004-0.22-0.005-0.439-0.014-0.659c-0.026-0.646,0.974-0.643,1,0c0.014,0.345,0.017,0.69,0.021,1.036
		c0.023,0.007,0.047,0.016,0.07,0.023C1286.735,881.403,1286.61,882.141,1286.171,882.218z M1287.03,876.721
		c-0.291-0.013-0.564-0.051-0.841-0.143c-0.608-0.203-0.348-1.17,0.266-0.965c0.194,0.065,0.371,0.099,0.575,0.107
		C1287.673,875.748,1287.675,876.748,1287.03,876.721z M1289.263,884.963c0.089,0.63-0.875,0.902-0.965,0.266
		c-0.137-0.969-0.175-1.924,0-2.891c0.115-0.634,1.078-0.364,0.965,0.266C1289.122,883.38,1289.152,884.184,1289.263,884.963z
		 M1291.504,875.848c-0.159,0.352-0.328,0.697-0.5,1.042c-0.287,0.578-1.149,0.071-0.863-0.504c0.172-0.346,0.341-0.691,0.5-1.042
		C1290.906,874.757,1291.768,875.266,1291.504,875.848z M1293.031,873.138l0.085-0.026c-0.584,0.257-1.094-0.604-0.504-0.863
		c0.144-0.063,0.261-0.101,0.419-0.11C1293.676,872.098,1293.672,873.098,1293.031,873.138z M1293.364,870.097v-0.084
		c0-0.645,1-0.645,1,0v0.084C1294.364,870.741,1293.364,870.741,1293.364,870.097z M1294.031,882.222
		c0.111-0.014,0.222-0.028,0.333-0.042c0.639-0.08,0.631,0.921,0,1c-0.111,0.014-0.222,0.028-0.333,0.042
		C1293.393,883.302,1293.4,882.301,1294.031,882.222z M1302.183,889.354c-0.343,0.584-1.529,0.601-2.111,0.574
		c-1.923-0.088-3.837-0.197-5.716-0.643c-0.455-0.108-0.437-0.644-0.153-0.873c0.104-0.52,0.288-0.92,0.641-1.338
		c0.147-0.176,0.419-0.177,0.605-0.078c0.315,0.165,0.479,0.371,0.75,0.595c0.48,0.396,1.275,0.41,1.864,0.414
		c0.764,0.005,1.547-0.049,2.306,0.066C1300.8,888.138,1302.726,888.428,1302.183,889.354z M1304.715,885.755
		c0.145-0.636,0.562-0.763,1.142-0.85c0.142-0.021,0.543,0.039,0.604-0.101c0.109-0.251,0.145-0.536,0.214-0.8
		c0.165-0.623,1.13-0.358,0.965,0.266c-0.132,0.497-0.201,1.205-0.72,1.47c-0.246,0.126-0.429,0.125-0.694,0.127
		c-0.152,0.002-0.302,0.037-0.454,0.053c-0.117,0.012-0.042-0.114-0.091,0.101C1305.537,886.649,1304.573,886.383,1304.715,885.755z
		 M1310.948,892.441c-0.711,1.767-3.15-0.98-3.968-1.053c-0.767-0.067-1.41-0.073-1.859-0.76c-0.312-0.476,0.016-1.635,0.126-2.325
		c-0.001-0.049,0.003-0.096,0.017-0.139c0.007-0.053,0.015-0.109,0.017-0.152c0.024-0.643,1.024-0.646,1,0
		c0,0.013-0.004,0.041-0.006,0.058c1.258,0.736,3.44-0.54,4.361,0.612c0.422,0.527,0.337,1.401,0.318,2.03
		C1310.938,891.245,1311.149,891.942,1310.948,892.441z M1311.965,880.979c-0.004-0.011-0.004-0.022-0.007-0.034
		c-0.075-0.059-0.137-0.139-0.159-0.258c-0.009-0.044-0.01-0.089-0.018-0.133v-0.003c-0.028-0.165-0.047-0.331-0.064-0.497
		c-0.065,0.007-0.135,0.007-0.212-0.007c-0.463-0.084-0.626-0.852-0.78-1.199c-0.259-0.584,0.603-1.093,0.863-0.504
		c0.034,0.077,0.067,0.154,0.099,0.233c0.253-0.411,0.893-0.314,0.928,0.227c0.016,0.238,0.027,0.477,0.044,0.715
		c0.046,0.056,0.079,0.124,0.1,0.205c0.182,0.055,0.326,0.205,0.314,0.455c-0.013,0.276-0.055,0.537-0.143,0.8
		C1312.771,881.449,1312.118,881.463,1311.965,880.979z M1370.965,884.839c0.015-0.056,0.041-0.097,0.067-0.139
		c-0.001-0.049-0.002-0.097-0.002-0.146c-0.005-0.646,0.995-0.645,1,0c0.004,0.539,0.019,1.07-0.143,1.591
		c-0.158,0.509-0.782,0.44-0.965,0C1370.746,885.718,1370.855,885.271,1370.965,884.839z M1370.881,890.672
		c0.103-0.636,1.066-0.365,0.965,0.266c-0.033,0.206-0.058,0.408-0.065,0.617c-0.024,0.643-1.024,0.646-1,0
		C1370.792,891.257,1370.834,890.966,1370.881,890.672z M1373.509,892.491c-1.671,1.537-3.967,0.412-4.544-1.596
		c-0.179-0.621,0.787-0.885,0.965-0.266c0.36,1.255,1.759,2.179,2.872,1.154C1373.275,891.349,1373.984,892.054,1373.509,892.491z
		 M1400.676,881.409c0.106,0.135,0.484,0.848,0.686,0.756c0.265-0.121,0.514-0.061,0.684,0.18c0.483,0.683,0.673,1.472,0.968,2.244
		c0.23,0.604-0.737,0.862-0.965,0.266c-0.219-0.572-0.381-1.149-0.674-1.681c-0.439,0.06-0.707-0.156-0.976-0.493
		c-0.132,0.254-0.256,0.512-0.368,0.771c0.002,0.622,0.035,1.346-0.186,1.934c-0.178,0.475-0.577,0.852-0.665,1.345
		c-0.099,0.553-1.038,0.428-0.982-0.133c0.005-0.046,0.016-0.087,0.021-0.133h-0.003c0.001-0.006,0.004-0.01,0.005-0.015
		c0.198-1.792,0.747-3.383,1.671-4.938C1400.041,881.258,1400.471,881.15,1400.676,881.409z M1398.03,881.638c0-0.645,1-0.645,1,0
		v0.292c0,0.645-1,0.645-1,0V881.638z M1396.923,876.38c0.156-0.625,1.121-0.36,0.965,0.266c-0.029,0.115-0.065,0.214-0.083,0.333
		c-0.097,0.636-1.06,0.365-0.965-0.266C1396.858,876.594,1396.895,876.495,1396.923,876.38z M1394.655,875.846c0-0.645,1-0.645,1,0
		v0.167c0,0.645-1,0.645-1,0V875.846z M1391.988,885.472v1.625c0,0.645-1,0.645-1,0v-1.625
		C1390.988,884.827,1391.988,884.827,1391.988,885.472z M1391.42,873.677c0.064,0.108,0.104,0.226,0.167,0.334
		c0.326,0.558-0.538,1.061-0.863,0.504c-0.063-0.108-0.104-0.226-0.167-0.334C1390.228,873.625,1391.093,873.122,1391.42,873.677z
		 M1389.013,878.854c-0.033,0.153-0.086,0.398-0.084,0.611c0.011-0.029,0.025-0.055,0.034-0.085
		c0.046-0.152,0.085-0.306,0.127-0.459c0.146-0.53,1.037-0.441,0.982,0.133c-0.014,0.14-0.046,0.247,0.062,0.354
		c0.385,0.382-0.053,0.933-0.474,0.833c-0.029,0.045-0.053,0.093-0.086,0.135c-0.247,0.313-0.761,0.488-1.117,0.226
		c-0.632-0.466-0.554-1.324-0.409-2.014C1388.181,877.958,1389.145,878.226,1389.013,878.854z M1385.655,875.096
		c0.654,0.074,1.305,0.081,1.95-0.065c0.628-0.142,0.895,0.822,0.266,0.965c-0.732,0.166-1.471,0.185-2.216,0.101
		C1385.022,876.024,1385.015,875.023,1385.655,875.096z M1377.756,891.88c0.292-1.022,0.819-2.387,1.689-3.049
		c0.504-0.384,0.988,0.446,0.524,0.841c0.342-0.133,0.733-0.171,1.144-0.2c0.644-0.047,0.64,0.954,0,1
		c-0.463,0.033-0.9,0.01-1.124,0.475c-0.131,0.272-0.232,0.563-0.381,0.826c-0.323,0.573-0.83,0.938-1.503,0.723
		C1377.848,892.412,1377.679,892.15,1377.756,891.88z M1374.238,896.472c-0.066-0.97,0.031-1.956-0.19-2.909
		c-0.146-0.627,0.819-0.894,0.965-0.266c0.242,1.046,0.152,2.112,0.226,3.175C1375.282,897.115,1374.282,897.111,1374.238,896.472z
		 M1375.072,886.93c0.041-0.322,0.099-0.642,0.161-0.96c-1.051,0.28-1.15-1.032-0.76-1.709c0.237-0.412,0.767-0.244,0.9,0.095
		c0.128-0.307,0.225-0.623,0.341-0.934c0.185-0.486,1.058-0.467,0.982,0.133c-0.006,0.044-0.016,0.088-0.021,0.132
		c0.001,0.001,0.003,0.001,0.003,0.001c-0.002,0.007-0.004,0.015-0.007,0.021c-0.022,0.161-0.05,0.322-0.078,0.482
		c0.308-0.163,0.702-0.018,0.729,0.405c0.011,0.182-0.005,0.292-0.06,0.466c-0.059,0.186-0.189,0.283-0.337,0.323
		c-0.311,0.597-0.515,1.249-0.922,1.796C1375.748,887.526,1375.003,887.482,1375.072,886.93z M1375.863,889.305
		c0.004-0.645,1.004-0.646,1,0c-0.004,0.585-0.028,1.167,0.042,1.75c0.076,0.64-0.924,0.632-1,0
		C1375.835,890.472,1375.859,889.89,1375.863,889.305z M1376.905,895.763c-0.005,0.645-1.005,0.646-1,0
		c0.002-0.302,0.025-0.59,0.101-0.883c0.054-0.208,0.265-0.377,0.482-0.367c0.171,0.008,0.346,0.035,0.517,0.026
		c0.002-0.004,0-0.002,0.002-0.007c0.015-0.067,0.021-0.136,0.021-0.204c0.005-0.328-0.032-0.653-0.04-0.981
		c-0.015-0.646,0.985-0.644,1,0c0.013,0.554,0.131,1.14-0.096,1.667c-0.188,0.44-0.572,0.515-0.978,0.514
		C1376.91,895.604,1376.906,895.68,1376.905,895.763z M1390.947,898.388c0.003,0.252-0.148,0.402-0.333,0.457
		c-0.063,0.03-0.132,0.048-0.209,0.043c-2.326-0.158-4.586-0.741-6.9-0.938c-1.865-0.157-3.741-0.057-5.6-0.271
		c-0.438-0.051-0.752-0.692-0.252-0.932c1.51-0.724,2.729-1.234,3.65-2.765c0.502-0.834,0.952-1.762,1.588-2.504
		c1.326-1.55,2.05-0.646,3.994-0.608c1.244,0.023,3.086-0.433,3.577,1.165c0.014,0.045,0.022,0.094,0.036,0.14
		c0.216,0.038,0.42,0.188,0.448,0.462c0.169,1.625,0.107,3.453-0.003,5.13C1390.944,897.978,1390.945,898.186,1390.947,898.388z
		 M1391.131,890.021c-0.08-0.303-0.136-0.611-0.208-0.916c-0.147-0.627,0.816-0.894,0.965-0.266
		c0.071,0.305,0.128,0.613,0.208,0.916C1392.26,890.379,1391.296,890.644,1391.131,890.021z M1392.072,880.263
		c0.023-0.502,0.168-0.959,0.351-1.424c0.234-0.593,1.201-0.335,0.965,0.266c-0.147,0.374-0.296,0.753-0.315,1.158
		C1393.042,880.904,1392.042,880.907,1392.072,880.263z M1393.657,884.486c-0.021,0.016-0.043,0.031-0.065,0.047
		c-0.424,0.487-1.128-0.223-0.707-0.707c0.081-0.094,0.156-0.15,0.269-0.203C1393.732,883.349,1394.24,884.211,1393.657,884.486z
		 M1395.405,888.763c-0.046,0.64-1.047,0.644-1,0c0.105-1.465-0.044-2.931,0.226-4.383c0.093-0.497,0.848-0.46,0.965,0
		c0.003,0.011,0.005,0.021,0.007,0.032c0.009-0.025,0.02-0.047,0.028-0.073c0.126-0.395,0.7-0.518,0.914-0.119
		c0.112,0.208,0.192,0.426,0.271,0.645c0.289,0.014,0.58,0.25,0.489,0.615c-0.064,0.258-0.147,0.45-0.338,0.637
		c-0.294,0.288-0.694,0.116-0.836-0.221c-0.024-0.06-0.042-0.12-0.064-0.181c-0.068,0.094-0.141,0.187-0.225,0.276
		c-0.11,0.117-0.248,0.151-0.382,0.137C1395.434,887.005,1395.469,887.887,1395.405,888.763z"/>
</g>
<g>
</g>
<g>
</g>
<g>
</g>
<g>
</g>
<g>
</g>
<g>
</g>
</svg>
