<?xml version="1.0" encoding="utf-8"?>
<!-- Generator: Adobe Illustrator 16.0.0, SVG Export Plug-In . SVG Version: 6.00 Build 0)  -->
<!DOCTYPE svg PUBLIC "-//W3C//DTD SVG 1.1//EN" "http://www.w3.org/Graphics/SVG/1.1/DTD/svg11.dtd">
<svg version="1.1" id="tree2" xmlns="http://www.w3.org/2000/svg" xmlns:xlink="http://www.w3.org/1999/xlink" x="0px" y="0px"
	 width="1920px" height="1080px" viewBox="0 0 1920 1080" enable-background="new 0 0 1920 1080" xml:space="preserve">
<path fill="#DA4362" d="M1553.682,887.43c-2.084-3.565-12.708-5.685-13.416-5.851s-17.75-2.001-17.75-2.001l5.542-0.5l-1.834-1.166
	l1.584-0.5l-2.375-1.375l0.5-1.209l-2.334-1.333l1.375-1.417c0,0-0.5,0.542-1.125-0.791s-2.25-1.834-2.25-1.834l0.167-1.791
	l-1.875-0.167l-0.667,1.167l-1.458-1.667l1.458-1.042l-2.416-0.791l-4.667-1.292l-3.167,0.917l-2.417,1.5l-0.25,1.833l0.667,3.375
	l0.75,2.417l2.167-0.333l1.458,1.708l1.5,1.667c0,0-0.333,2.791-0.458,2.875s-7.709,0.583-7.709,0.583l0.375,0.75l-4.666-0.125
	l2.791-1c0,0,1.417-1.417,1.167-1.584s-2.333-1.625-2.333-1.625l-2.084-2.25l2.875-0.875l-0.708-1.125l-2.167-0.75l2.167-0.416
	c0,0-0.75-1.5-1.167-1.875s-3.416-2.875-3.625-3.042s-4.083,0.333-4.083,0.333s-2.291,1.042-2.791,1.126s-2.709,1.833-2.709,1.833
	l3.25,1.375l-2.416,0.667l1.625,1.875l-2.25,1.083c0,0,2.666,1.042,2.458,1.125s-1.333,0.125-1.833,0.25s-3.167,2.167-3.167,2.167
	s1.875,0.875,1.5,0.958s-1.458,2-1.542,2.125s-1.166,1.708-1.166,1.708s-3.375,1.75-4.042,1.709s-6-1.209-6-1.209
	s-5.834-3.042-6.25-3.208s-3.917-2.25-4.875-2.584s-2.334-0.208-2.917-0.375s-9.458-4.625-9.458-4.625l-0.042-1.5l0.917-0.833
	c0,0,3.916-0.083,4.083-0.125s3.587-2.125,3.587-2.125l-2.712-1.583l1.625,0.125c0,0,1.167-1.459,1.083-1.834
	s-2.833-2.541-2.833-2.541l-3.792-0.917l4.709-0.75l-2.167-1.542l1.417-1.25l-5.625-3.541l-0.834,1.083l-3.083-0.292l-1.667-0.166
	l1.417-1.125l-2-0.875l-3.5-0.542c0,0-3.125,0.458-3.583,0.542s-3.542,2.583-3.792,3.833s0.958,4.542,0.958,4.542l2.75,0.333
	l3.042,3.542v3.75c0,0-4.208,0.333-4.333,0.333s-5,4.125-5,4.125s-0.209-1-1.459-2.666s-4.916-1.125-4.916-1.125v0.75l-1.584-0.209
	l0.542-1.25c0,0-3.125-1.625-4.041-1.625s-5.042,5.208-5.042,5.208l0.667,1.667l1.833,0.625l-0.458,1.25l-3.5,0.667l1.208,1.208
	l-2.708,0.833l3.958,2c0,0-6.583,3.542-7.875,3.792s-9.917,0.333-11.834,0.167s-24.416-9.833-24.416-9.833l-1-1.625l-0.125-1.667
	l1.458,0.125l-0.458,1.292c0,0,2.291,1.166,4.291,0.875s5.084-3.417,5.084-3.417l-4.042-0.542l4.458-3.291
	c0,0-2.75-0.917-2.833-1.042c-0.059-0.088-2.384-1.268-3.759-1.96c-0.751-0.019-1.652-0.102-2.217,0.358
	c-0.311,0.253-0.507,0.568-0.931,0.61c-0.885,0.089-1.197-0.186-1.344-1.05c-0.013-0.075,0.971-0.172,1,0
	c0.026,0.156,0.044,0.392,0.114,0.589c0.121-0.124,0.245-0.246,0.41-0.315c0.271-0.113,0.544-0.215,0.837-0.256
	c0.607-0.085,1.212-0.084,1.82-0.093c-0.409-0.206-0.682-0.342-0.682-0.342l5.25-0.584l-2.708-2.666c0,0,0.416-0.917,0-1.5
	s-2.75-3.334-3.5-3.625s-3.667,0.75-3.667,0.75l-4.833,0.75l-0.208,1.166l0.958,0.834l-1.208,1.083l1.583,0.625l-1.708,0.792
	l2.416,1.125l-2.416,1.166l2.416,0.959l-1.958,0.083l0.333,1l-1.583,0.458l-1.083,1.625l1.916,0.709l-2.041,0.458l-1.292,2.958
	l-1.292-2.083l-0.167-1.292l-3.916-0.958l2.666-1.042l-2.916-1.083l1.125-1.125l-2.084-0.667l1.292-0.666l-0.583-1.334l-2.584-1.666
	l-1.208,1.708l-1.292,0.583l-0.583,1.459l-1.417,0.833l1.667,0.958l-4.5-0.208l-0.25-0.958l-2.417-0.625l0.917-0.917l-0.708-1.375
	v-0.875l-3.625-1.958l-0.375,0.583l-1.167,1.792l-1.625,1.25l0.417,1.166l-1.959,1.459l2.5,0.416l0.042,0.959l-1.583,0.708
	l-2.542,2.833l3.083,2l-0.083,1.959l1.958,0.583v1.25c0,0-2.208,0.458-2.708,0.458s-5.458,0.167-5.75,0.167s-2.833,1.5-2.833,1.5
	s-9.042,0.083-9.875,0.042s-5.084-2.042-5.084-2.042l-2.458-1.5l-0.583,0.625l-2.584,0.25l-2.125,1.625l-0.75-0.792l-1.333-1.208
	c0,0-0.042-1,1.583-0.917s4.25-2.291,4.25-2.291s-1.125-1.167-1.708-1.667s-3.75-1.083-3.75-1.083l1.583-1.25
	c0,0-1.458-0.875-1.708-1s-4.458-0.834-5.042-0.834s-5.999,2.125-5.999,2.125s0.875,4.333,0.333,3.917s-6.042,0.583-6.042,0.583
	v1.167c0,0-0.875,0.375-1,0.375s-3.25-0.834-3.458-1.305s-5.584-5.695-5.709-5.695s-10.291-0.167-11.166-1.209
	s-10.083-3.666-10.083-3.666s-5.542,4.25-6.792,5.916s0.583,3.709,0.583,3.709l2.5,0.375l1.375-1.209l2.917,2.334
	c0,0,0.375,3.166-0.333,4.666s-4.667,2.834-5.292,2.917s-10.584,0.167-12.875,0.459s-6.5,3.875-6.5,3.875l0.166-5.959l2.584-2.833
	l1.291-1.25l1.375,0.667l0.792-0.542l2.167-1c0,0-0.167-1.083-0.25-1.555s-2.834-2.403-4.375-3.32s-7.417-2.042-7.417-2.042
	s-4.958,3.333-5,3.167s-5.042-2.667-6.125-2.667s-5.291,3.084-5.291,3.084l-1.375,0.041l0.25,1.042l2.666,0.917l-2.333,0.041
	l-0.208,1l2.75,0.625l-2.917,0.334l0.208,1.291l-0.25,1l1.167,0.834l-1.75,0.083l-2,1.208l2,1.417l-1.708,1.292l-1.375,2.916
	l-1.75,0.375l0.458,1.709c0,0,2.208,0.583,1.208,0.791s-11.5,0.042-13.583-1.208s-15.917-8.292-15.917-8.292l-4.541-0.5l0.083-0.75
	l3.125-0.792c0,0,4.542-0.375,4.583-0.375s0-0.666,0-0.666l-5.125-1.792l2.875-0.763v-0.654l-0.25-1.833l-2.958-3.708l0.625-0.834
	c0,0-3.208-2.416-3.667-2.333s-5.166,5.458-5.166,5.458l-1.001,2.251l3.542,0.833l-3.708,1.458l-0.334,1.375l-1.541,1l3.833,1.834
	c0,0-2.667,0.625-3.125,0.666s-1.708,1.5-1.833,1.625s-2.042,1.417-2.792,1.625s-8.375,2.75-9.542,3.083s-7.124,1.042-9.666,1.167
	s-4.917-1.333-4.917-1.333l-0.416-1.792c0,0,1.166,0.083,1.291,0.083s3.542-0.5,3.542-0.5s0.417-0.583-0.292-3.458
	s-4.5-6.013-4.5-6.013s-2.375-0.362-2.958-1.028s-3.834-2.917-3.834-2.917l-0.233-0.959c-0.611,0.123-1.222,0.099-1.85,0.087
	c-0.048-0.001-0.5,0.01-0.5-0.085c0-0.094,0.452-0.085,0.5-0.085c0.011,0,0.022-0.003,0.033-0.003
	c-0.053-0.002-0.107-0.001-0.16-0.006c-0.008-0.001-0.032-0.006-0.062-0.012c-0.457,0.014-0.923-0.076-1.335-0.247
	c-0.023-0.01-0.005-0.022,0.03-0.035c-0.106-0.05,0.163-0.099,0.2-0.103c0.221-0.022,0.467-0.027,0.684,0.03
	c0.176,0.047,0.356,0.067,0.535,0.096c0.127-0.014,0.257-0.015,0.374-0.01c0.01,0,0.095,0.015,0.18,0.032
	c0.415-0.072,0.833-0.115,1.255-0.135l-0.026-0.108l1.917-0.875l-2.167-1.708c0,0,1.334-0.458,1.334-0.583s-0.459-1.167-1.042-2.084
	s-2.708-2.333-3.792-2.75s-2.791-0.291-2.791-0.291s-2.042,1.041-3.042,1.083s-3.458,2.625-3.458,2.625l3.291,1.25l-3.125,1.583
	l1.5,1.209l-2.083,1c0,0,1.625,0.75,1.5,0.75s-1.042,1.083-2.125,1.208c-0.824,0.095-3.408,2.891-4.596,4.222
	c0.151,0.02,0.268,0.048,0.263,0.071c-0.048,0.263-0.131,0.525-0.258,0.761c0.003,0.08,0.008,0.158,0.008,0.239
	c0,0.039-0.098,0.064-0.228,0.079c-0.101,0.117-0.214,0.225-0.352,0.309c-0.048,0.029-0.107,0.055-0.162,0.082
	c-0.283,0.381-0.656,0.664-1.239,0.757c-0.069,0.011-0.888-0.003-0.854-0.061c0.065-0.11,0.152-0.197,0.25-0.271
	c-0.225,0.032-0.463,0.036-0.687-0.002c-0.169-0.029-0.173-0.094,0-0.121c0.535-0.083,1.082-0.429,1.519-0.733
	c0.146-0.102,0.304-0.217,0.456-0.341c0.059-0.135,0.115-0.267,0.172-0.396l-0.793-0.512v-0.416l-1.375-1.417l0.5-1.583
	l-3.917-1.125l-0.583,0.916l-0.583,0.959l-0.875,0.541l-0.917,0.792l-0.5,1.333l-0.75,0.25l0.083,0.959l1.334,0.75l1.166,0.208
	v1.083l-2.916,0.292v1.541l-1.5,0.292l-0.417,0.958l1.542,0.167c0,0-0.333,0.708-0.833,0.792s-7.459,0.25-7.459,0.25l-0.125-1.917
	l0.584-0.083l0.75-0.917c0,0,2.541-0.417,2.625-0.5s0.25-2.458,0-3.583s-3.75-4.792-3.75-4.792l-3.292-0.125l-0.375,1.667
	l-2.542,1.125c0,0-0.542,2.833-0.875,3.041s-0.042,2.917-0.042,2.917h2.417l0.542,0.708l1.791,0.375v2.584
	c0,0-0.958,0.375-2.041,0.333s-9.417,1.792-12.792,1.917s-12.625-1.708-12.625-1.708l-2.667-1.167l0.042-0.667l2.208-1l0.167-2.208
	l0.25-2.75l-1.958-1.542c0,0-2.084-2.541-2.959-2.916s-1.916,0.666-2.458,0.916s-2,1.737-2,1.737l-1.125,3.43l-0.916,0.583
	l-1.292,2.25l1.958,0.75l0.792,0.375l1.042-0.75l0.458,0.917l-0.625,1.416l-1.542,1.167l-1.625-1v-1.667l-0.792,0.042l-0.708-1.958
	l0.208-0.917l-2.25-2l1.167-1l-0.792-1l-4.166,0.167v1.25l-1.125,1.25l-1.292,1.625l-1.417,1.208l3.084,1.542
	c0,0-0.334,0.666-0.875,1.041s-2.625,2.125-2.917,2.167s-14.917,0.458-16.75,0s-11.208-2.666-11.208-2.666v-2.792l8.25-0.083
	l1.75-2.084l-4.042-1.833l1.625-1.917l-2.365-0.665c-0.14,0.011-0.279,0.015-0.41,0.015c-1.018,0-2.083-0.266-3.084,0.027
	c-0.063,0.019-0.192,0.02-0.332,0.012c-0.097,0.062-0.153,0.147-0.194,0.261c0.178,0.011,0.327,0.043,0.345,0.102
	c0.12,0.396,0.044,0.697-0.084,1.083c-0.044,0.132-0.456,0.103-0.737,0.06c-0.094,0.112-0.185,0.225-0.28,0.338
	c-0.087,0.103-0.961,0.115-0.982-0.022c-0.059-0.382,0.135-0.465,0.37-0.73c0.264-0.299,0.282-0.7,0.428-1.056
	c0.115-0.278,0.655-0.279,0.891-0.29c0.071-0.003,0.14-0.014,0.209-0.02c-0.048-0.008-0.296-0.051-0.213-0.093
	c0.84-0.428,1.894-0.481,2.817-0.502c0.319-0.008,1.005-0.036,1.518,0.093l1.23-1.402l-2.406-0.345
	c-0.125,0.042-0.247,0.093-0.375,0.124c0.021,0.027-0.012,0.057-0.115,0.073c-0.281,0.045-0.59,0.074-0.895,0.065
	c-0.533,0.021-1.073-0.036-1.599-0.166c-0.039-0.01-0.087-0.026-0.051-0.065c0.253-0.27,0.597-0.434,0.975-0.544
	c-0.026-0.028,0.006-0.059,0.112-0.078c0.195-0.036,0.388-0.053,0.581-0.065c0.342-0.042,0.692-0.056,1.029-0.063l0.785-1.021
	l-2.708-2l1.25-2.083l-4.084-2.042l-2.458,0.959l-0.167,1.833h-0.708l-0.542,2.167l-1.583,0.083l-0.042,1.625l1.709,0.875
	l-3.834,1.166l4.5,1.542v0.313c0.157-0.057,0.313-0.115,0.473-0.167c0.206-0.198,0.405-0.406,0.629-0.585
	c0.065-0.052,0.297-0.087,0.52-0.088c0.02-0.009,0.039-0.018,0.059-0.025c-0.006-0.08-0.003-0.159-0.013-0.239
	c-0.011-0.091,0.981-0.159,1,0c0.005,0.043,0.003,0.087,0.007,0.13c0.09,0.014,0.155,0.037,0.16,0.079
	c0.008,0.065,0.005,0.13,0.007,0.195c0.028,0.012,0.038,0.023,0.017,0.035c-0.005,0.003-0.011,0.004-0.016,0.007
	c0.007,0.437-0.086,0.867-0.133,1.304c-0.016,0.143-1.001,0.115-1,0c0.001-0.117,0.001-0.234,0.002-0.352
	c-0.057-0.013-0.105-0.031-0.127-0.064c-0.066-0.103-0.119-0.211-0.175-0.319c-0.247,0.238-0.506,0.46-0.823,0.587
	c-0.177,0.071-0.38,0.11-0.586,0.132v0.516l-4.833,0.625l0.75,1.125l-1.458,0.792l-1.584,1.458l6.292,2.834
	c0,0-5.917,0.375-7.833,0.291s-8.584,1-10.875,1.334s-10.292,1.583-11.126,1.583s-4.833-1.542-5.75-1.75s-7.458,1.292-8.208,1.334
	s-4.708-0.459-4.708-0.459l0.625-3.041l5.958-0.917l0.458-1.583l-3.25-0.5l2.125-1.167l-3.208-0.917l0.203-0.131
	c-0.648,0.188-1.306,0.323-1.979,0.396c0.021,0.279,0.168,0.593,0.15,0.903c-0.008,0.135-0.889,0.115-0.982,0.022
	c-0.192-0.192-0.272-0.335-0.351-0.605c-0.004-0.012,0.083-0.033,0.202-0.054c-0.017-0.069-0.031-0.138-0.042-0.205
	c-0.054,0.002-0.106,0.009-0.16,0.01c-0.046,0.001-0.556-0.071-0.482-0.107c0.22-0.107,0.446-0.197,0.675-0.279
	c0.016-0.031,0.031-0.063,0.058-0.088c0.252-0.236,0.579-0.345,0.912-0.417c0.946-0.207,1.876-0.167,2.838-0.153
	c0.005,0,0.032,0.004,0.048,0.006l0.868-0.56l-2.333-0.653l0.875-1.334l-1.708-0.708l0.875-1.417l-3-2.583l-3,4l-1.125,0.583
	l0.25,0.917l-1.709,1.5l2.584,1.083l-1.917-0.083l-0.75,1.583l-1.5,2.25l1.833,1.417l2.75-0.125l0.25,0.792l0.834,0.25v1.875
	c0,0-4.959-0.375-7.042-1.5s-19-0.459-20.75-0.125s-11.583,1.791-13.542,0.124s-11.625-2.791-11.625-2.791l-0.708-0.584
	l-6.667,0.292l-0.625,1.25l-0.25-1.75l4.542-0.417l0.458-0.791l1.792-1.209l-2-0.75l-0.03-0.054
	c-0.438,0.134-0.946,0.112-1.386,0.083c-0.597-0.039-1.192-0.032-1.788-0.022c-1.188,0.115-2.362,0.525-2.254,1.953
	c0.007,0.094-0.951,0.16-1,0c-0.192-0.626-0.268-1.219-0.25-1.873c-0.063-0.021-0.13-0.036-0.191-0.063
	c-0.023-0.015-0.023-0.03,0-0.045c1.173-0.736,2.874-0.394,4.176-0.391h0.117c0.771-0.125,1.551-0.213,2.293-0.145l-0.437-0.776
	l1.333-0.833l-1.291-1.584l-3.792-2.125l1.917-2.375l-4.917-2.541l-1.833,0.917l0.291,2.083l-2.125,0.583l-0.625,1.625l-1.708,1.667
	l2.458,0.917l-4.333,0.583l1,1.32l3.076,0.74c0.074-0.042,0.311-0.057,0.333-0.059c0.134-0.006,0.506-0.05,0.615,0.06
	c0.32,0.321,1.239,1.146,0.666,1.587c-0.232,0.18-0.774,0.132-1.041,0.099c-0.284-0.036-0.548-0.113-0.813-0.2l-2.961,0.37
	l-1.125,1.708l-1.667,1.75l0.542,1.333l3.5,0.292l0.5,1.083c0,0-2.792,1.584-4.958,1.542s-11.792-2.083-13.375-3.167
	s-7.875-1.833-7.875-1.833l-0.042-1.167l1.667-1.167c0,0,2.541,0.042,2.708-0.666s0.625-4,0.292-5.25s-4.875-4.25-6.125-4.167
	s-6,6.417-6.25,6.792s0.416,2.708,0.416,2.708l3.584,0.083l0.125,0.709l0.833,0.25l0.292,0.958c0,0-5.167-0.167-5.959,0.083
	s-2.916,1.209-4.166,1.917s-2.875,0.083-2.875,0.083l0.291-5.041l0.792-0.709l0.458-1.166l0.667,0.445c0,0,1.042,0.43,1.333,0.43
	s1-0.43,1-0.43s1.542-2.695,1.459-3.279s-2.25-3.958-6-4.375s-12.125,7.959-12.209,8.376s0.417,2.416,0.417,2.541
	s0.667,1.209,0.667,1.209s0.958-0.084,1.125-0.25s0.708-0.834,0.708-0.834s0.792,0.292,0.917,0.375s0.625,0.625,1.083,0.625
	c0.374,0,1.325-0.029,1.891-0.176c-0.085-0.017-0.141-0.03-0.141-0.03c0.296-0.716,0.188-1.618-0.167-2.293
	c0.012,0.021,0.884-0.22,1,0c0.095,0.181,0.169,0.379,0.226,0.584l1.066,0.04l1.375,1.292c0,0,0.229,3.375-0.646,3.563
	s-9.375,1.625-11.063,1.125s-5.688-0.875-8.313-0.625s-12.375,1.313-13.375,1.625s-5.5-0.875-5.5-0.875l0.313-6.125l1.125-0.438
	l7-0.75l2.563-1.625l-1.875-1.563l-0.5-1.313l-1.5-1.5l-1.125-1.875l0.625-1.688l-4.25-2.625l1.625-2.5c0,0-1.813-0.563-1.875-0.75
	s-2-1-2.625-1.25s-1.5,0.313-1.5,0.313l-2.063,2.5l-1.938,2.313l-0.75,1.875l-2.438,1.063l3.25,1.625l1.188,1.063
	c0,0-3.25,1.875-4.188,1.813s-2.688,4.188-2.688,4.188l2.938-0.313l1.125,1.375l2.375,0.125c0,0,1.25,0.5,1.813,1
	s0.313,4.875,0.313,4.875s-10,2.5-11.5,0.5s-18.5-5-24.25-5.25s-12.25-0.5-14.75-1s-17.25-2.25-21.75-3.5s-16.5-2-16.5-2l-9.5,3.5
	l-38.25,2.75c0,0-47.25,1.5-51.5,3s-5.5,7-6.5,7s-4.493,0.982-7.5,1.5c-15.5,2.666,60.166,52.167,60.166,52.167
	s768.584,7.333,770.084,7.083s70.5-22.25,83-25S1555.766,890.995,1553.682,887.43z M1510.891,868.998
	c-0.115,0-0.421,0.026-0.5-0.085c-0.063-0.076-0.128-0.151-0.191-0.228c-0.076-0.08,0.318-0.103,0.35-0.104
	c0.131-0.006,0.51-0.05,0.615,0.06c0.115,0.12,0.133,0.141,0.227,0.272C1511.42,868.954,1510.914,868.998,1510.891,868.998z
	 M1122.766,863.536c0.113,0,0.422-0.026,0.5,0.085c0.155,0.224,0.238,0.443,0.292,0.709c0.014,0.064-0.964,0.179-1,0
	c-0.054-0.266-0.137-0.485-0.292-0.709C1122.236,863.579,1122.743,863.536,1122.766,863.536z M1087.599,875.455
	c0.128-0.222,0.982,0.031,1,0c-0.146,0.252-0.331,0.472-0.5,0.708c-0.08,0.111-0.385,0.085-0.5,0.085
	c-0.023,0-0.529-0.044-0.5-0.085C1087.268,875.927,1087.453,875.707,1087.599,875.455z M1006.417,874.245
	c0.403-0.095,0.808-0.183,1.209-0.28c0.064-0.025,0.126-0.058,0.189-0.081l-0.029,0.006c-0.227,0.041-0.48,0.038-0.707,0
	c-0.173-0.03-0.169-0.09,0-0.121c0.545-0.1,1.082-0.235,1.636-0.288c0.405-0.038,1.271-0.184,1.599,0.146
	c0.354,0.358-0.92,0.641-1.061,0.664c-0.681,0.111-1.388,0.166-2.078,0.12c-0.01-0.001-0.126-0.017-0.225-0.038
	c-0.118,0.004-0.237,0-0.354-0.012C1006.56,874.357,1006.214,874.293,1006.417,874.245z M952.682,876.371c0-0.127,1-0.127,1,0v0.25
	c0,0.127-1,0.127-1,0V876.371z M947.224,876.621c-0.045-0.194-0.074-0.383-0.083-0.583c-0.005-0.113,0.993-0.14,1,0
	c0.009,0.2,0.038,0.389,0.083,0.583C948.236,876.677,947.267,876.806,947.224,876.621z M891.174,869.997
	c0.171-0.011,0.46-0.036,0.615,0.06c0.088,0.055-0.331,0.104-0.35,0.104c-0.654,0.04-1.31,0.045-1.966,0.045
	c-0.048,0-0.5,0.009-0.5-0.085s0.452-0.085,0.5-0.085C890.041,870.036,890.607,870.031,891.174,869.997z M886.959,868.453
	c0.456-0.136,0.889-0.332,1.333-0.5c0.199-0.075,0.478-0.051,0.684-0.03c0.055,0.005,0.367,0.045,0.18,0.116
	c-0.444,0.168-0.876,0.364-1.333,0.5c-0.213,0.063-0.466,0.052-0.684,0.03C887.096,868.565,886.762,868.512,886.959,868.453z
	 M849.433,873.829c0,0.127-1,0.127-1,0v-0.875c0-0.127,1-0.127,1,0V873.829z M850.849,873.204c-0.029,0.172-1.013,0.074-1,0
	c0.043-0.25,0.094-0.48,0.209-0.708c0.111-0.219,0.991,0.018,1,0C850.942,872.724,850.892,872.954,850.849,873.204z
	 M830.599,874.996c-0.098-0.35-0.235-0.682-0.292-1.041c-0.013-0.078,0.974-0.169,1,0c0.057,0.359,0.194,0.691,0.292,1.041
	C831.61,875.037,830.653,875.189,830.599,874.996z M795.349,863.246c0-0.127,1-0.127,1,0v0.625c0,0.127-1,0.127-1,0V863.246z
	 M793.741,864.04c-0.016,0-0.03,0.005-0.046,0.005c-0.025,0.019-0.048,0.036-0.074,0.057c-0.173,0.135-0.781,0.107-0.963,0
	c-0.053-0.031-0.093-0.057-0.137-0.085c-0.113,0.082-0.234,0.149-0.379,0.176c-0.539,0.096-1.034,0.082-1.086-0.529
	c-0.007-0.08,0.607-0.126,0.874-0.068c0.066-0.102,0.126-0.199,0.167-0.266c0.081-0.13,0.994-0.132,1,0
	c0.008,0.149,0.04,0.253,0.086,0.342c0.263-0.061,0.732-0.049,0.813,0.053c0.027,0.04,0.063,0.07,0.096,0.104
	c0.205,0.019,0.408,0.075,0.655,0.188c0.086,0.039-0.329,0.104-0.35,0.104c-0.192,0.009-0.435,0.022-0.614-0.06
	C793.769,864.054,793.756,864.046,793.741,864.04z M795.765,874.038c-0.122,0.18-0.813,0.108-0.982,0.022
	c-0.039-0.02-0.078-0.036-0.117-0.056c-0.296,0.015-0.698-0.03-0.691-0.092c-0.009-0.083,0.019-0.152,0.083-0.209
	c0.112-0.161,0.68-0.112,0.886-0.053c0.179-0.521,0.12-1.105,0.114-1.655c-0.001-0.123,0.998-0.13,1,0
	C796.064,872.686,796.174,873.435,795.765,874.038z M796.724,866.746c0,0.127-1,0.127-1,0v-0.25c0-0.127,1-0.127,1,0V866.746z
	 M803.765,870.161c0.048,0,0.5-0.009,0.5,0.085s-0.452,0.085-0.5,0.085c-1.082,0-2.162,0.006-3.242,0.08
	c-0.339,0.023-0.962-0.116-0.266-0.164C801.425,870.167,802.595,870.161,803.765,870.161z M800.995,863.699
	c0.012-0.003,0.022-0.01,0.034-0.012c0.188-0.032,0.387-0.032,0.577-0.023c0.144,0.007,0.387,0.005,0.507,0.105
	c0.037,0.031,0.067,0.066,0.1,0.102c0.034,0.001,0.07,0,0.102,0.001c0.021,0.001,0.436,0.066,0.35,0.104
	c-0.325,0.146-0.675,0.159-1.026,0.116c-0.119-0.015-0.255-0.029-0.339-0.126c-0.004-0.005-0.006-0.006-0.01-0.011
	c-0.429,0.121-0.967,0.194-1.107-0.168C800.178,863.779,800.702,863.665,800.995,863.699z M798.557,862.788
	c0.01,0.199,0.044,0.388,0.083,0.583c0.013,0.065-0.964,0.179-1,0c-0.039-0.195-0.073-0.384-0.083-0.583
	C797.551,862.676,798.55,862.647,798.557,862.788z M798.905,866.382c0.259-0.075,0.544-0.083,0.81-0.057
	c0.046,0.005,0.106,0.012,0.164,0.025c0.073-0.104,0.146-0.208,0.22-0.313c0.058-0.101,0.592-0.132,0.854-0.076
	c0.263-0.052,0.792-0.02,0.854,0.076c0.223,0.351,0.479,0.717,0.818,0.582c0.188-0.074,1.012,0.026,0.863,0.086
	c-0.563,0.224-1.099,0.094-1.688,0.075c-0.064-0.002-0.106-0.019-0.16-0.026c-0.051,0.125-0.116,0.246-0.21,0.364
	c0,0,0.001,0.001,0.001,0.002c-0.001,0-0.002,0-0.002,0c-0.007,0.008-0.01,0.015-0.016,0.022c-0.099,0.118-0.91,0.122-0.982-0.022
	c-0.084-0.168-0.144-0.335-0.193-0.505c-0.239,0.039-0.493,0.025-0.743-0.03c-0.743,0.433-0.836,1.692-1.021,2.41
	c-0.049,0.189-1.013,0.048-1,0C797.712,868.072,797.793,866.705,798.905,866.382z M837.807,868.205
	c0.057,0.226,0.138,0.421,0.25,0.625c-0.015-0.025-0.879,0.221-1,0c-0.112-0.204-0.193-0.399-0.25-0.625
	C836.794,868.155,837.76,868.017,837.807,868.205z M837.706,873.894c-0.158,0.098-0.441,0.065-0.615,0.06
	c-0.121-0.004-0.243-0.003-0.347-0.032c-0.144-0.016-0.258-0.045-0.271-0.092c-0.058-0.204-0.12-0.534-0.323-0.636
	c-0.21-0.105-0.36-0.271-0.534-0.425c-0.081-0.073,0.323-0.104,0.35-0.104c0.143-0.007,0.494-0.048,0.615,0.06
	c0.104,0.094,0.204,0.208,0.317,0.292c0.11,0.081,0.236,0.096,0.35,0.166c0.069,0.043,0.135,0.284,0.181,0.467
	c0.044,0.016,0.079,0.033,0.087,0.056c-0.011,0.034-0.022,0.068-0.034,0.103C837.604,873.825,837.764,873.858,837.706,873.894z
	 M837.474,871.621c0.104-0.371,0.261-0.71,0.458-1.041c0.133-0.223,0.979,0.035,1,0c-0.197,0.331-0.354,0.67-0.458,1.041
	C838.42,871.814,837.462,871.663,837.474,871.621z M852.349,875.288c-0.057,0.148-1,0.111-1,0v-1.584c0-0.127,1-0.127,1,0v0.596
	c0.1,0.017,0.168,0.04,0.167,0.071C852.509,874.693,852.464,874.985,852.349,875.288z M854.891,872.579
	c-0.013-0.079,0.974-0.169,1,0c0.032,0.204,0.032,0.38,0,0.584c-0.026,0.169-1.013,0.079-1,0
	C854.923,872.959,854.923,872.783,854.891,872.579z M854.308,873.329c0-0.128,1-0.126,1,0c-0.001,0.266-0.007,0.528-0.042,0.792
	c-0.021,0.163-1.012,0.087-1,0C854.301,873.857,854.307,873.595,854.308,873.329z M853.099,874.538
	c0.008-0.268,0.041-0.528,0.084-0.792c0.027-0.17,1.013-0.078,1,0c-0.043,0.264-0.076,0.524-0.084,0.792
	C854.095,874.674,853.095,874.656,853.099,874.538z M884.474,879.246c-0.051,0.07-0.306,0.109-0.546,0.108
	c-0.2,0.227-0.434,0.426-0.639,0.664c-0.154,0.179-0.979-0.027-0.965-0.045c0.332-0.385,0.757-0.651,0.941-1.145
	c0.007-0.019,0.029-0.034,0.062-0.048c-0.028-0.074-0.048-0.151-0.062-0.243c-0.012-0.081,0.976-0.167,1,0
	c0.013,0.084,0.031,0.154,0.056,0.223c0.218,0.016,0.411,0.046,0.402,0.068C884.663,878.987,884.572,879.109,884.474,879.246z
	 M949.664,878.228c-0.186,0.078-0.419,0.068-0.615,0.06c-0.021-0.001-0.435-0.068-0.35-0.104c0.448-0.189,0.557-0.768,0.691-1.187
	c0.064-0.2,1.01-0.029,1,0C950.25,877.431,950.132,878.03,949.664,878.228z M949.474,873.121c0.017-0.226-0.021-0.362-0.232-0.478
	c-0.088-0.048,0.33-0.104,0.35-0.104c0.182-0.009,0.448-0.032,0.615,0.06c0.227,0.124,0.286,0.265,0.268,0.522
	C950.463,873.269,949.466,873.227,949.474,873.121z M1002.474,877.829c-0.019,0.149-0.88,0.106-0.982,0.022
	c-0.22-0.181-0.626-0.521-0.572-0.854c0.051-0.313,0.323-0.447,0.597-0.546v-0.83c0-0.127,1-0.127,1,0v0.723
	c0.122,0.018,0.211,0.042,0.208,0.069C1002.67,876.891,1002.532,877.353,1002.474,877.829z M1039.016,878.913
	c-0.145,0.223-0.972-0.044-1,0c0.073-0.113,0.088-0.13,0.184-0.23c0.104-0.109,0.485-0.065,0.615-0.06
	c0.031,0.002,0.426,0.024,0.35,0.104C1039.114,878.789,1039.065,878.852,1039.016,878.913z M1040.731,881.37
	c-0.15,0.007-0.485,0.047-0.615-0.06c-0.232-0.19-0.549-0.388-0.688-0.667c-0.177-0.354-0.118-0.769-0.08-1.147
	c0.016-0.154,1.01-0.097,1,0c-0.033,0.332-0.11,0.767,0.047,1.082c0.146,0.293,0.438,0.484,0.686,0.688
	C1041.165,881.334,1040.755,881.369,1040.731,881.37z M1041.307,879.08c0,0.127-1,0.127-1,0v-0.292c0-0.127,1-0.127,1,0V879.08z
	 M1050.724,876.038c0.068-0.202,1.009-0.025,1,0c-0.057,0.169-0.061,0.24,0.065,0.395c0.019,0.022-0.818,0.224-0.965,0.045
	C1050.7,876.326,1050.657,876.235,1050.724,876.038z M1050.182,879.455c-0.082,0.111-0.383,0.085-0.5,0.085
	c-0.022,0-0.529-0.042-0.5-0.085c0.28-0.379,0.542-0.759,0.5-1.25c-0.009-0.101,0.987-0.151,1,0
	c0.004,0.043-0.007,0.081-0.008,0.122c0.019,0.002,0.042,0.003,0.058,0.004c0.024,0.001,0.434,0.035,0.35,0.104
	C1050.725,878.73,1050.441,879.073,1050.182,879.455z M1051.449,879.394c-0.088-0.107-0.125-0.17-0.143-0.313
	c-0.011-0.089,0.98-0.16,1,0c-0.003,0.103,0.033,0.192,0.107,0.269C1052.433,879.371,1051.596,879.572,1051.449,879.394z
	 M1053.307,877.913c0,0.127-1,0.127-1,0v-0.25c0-0.127,1-0.127,1,0V877.913z M1052.682,875.996c-0.001-0.184-0.009-0.36-0.041-0.541
	c-0.013-0.071,0.969-0.174,1,0c0.032,0.181,0.04,0.357,0.041,0.541C1053.683,876.121,1052.683,876.124,1052.682,875.996z
	 M1084.558,877.788c-0.004-0.634-0.339-0.883-0.885-1.1c-0.457-0.182-0.807-0.406-0.949-0.9c-0.012-0.039,0.944-0.194,1,0
	c0.164,0.572,0.608,0.716,1.104,0.932c0.488,0.213,0.727,0.523,0.73,1.068C1085.559,877.913,1084.559,877.917,1084.558,877.788z
	 M1085.433,877.163c0.009-0.301,0.05-0.584,0.125-0.875c0.049-0.189,1.013-0.048,1,0c-0.075,0.291-0.116,0.574-0.125,0.875
	C1086.429,877.298,1085.43,877.281,1085.433,877.163z M1098.266,878.163c-0.006,0.14-1.005,0.113-1,0
	c0.011-0.247,0.071-0.417,0.226-0.605c0.147-0.179,0.983,0.022,0.965,0.045C1098.309,877.781,1098.275,877.942,1098.266,878.163z
	 M1099.516,880.205c-0.006,0.138-1.005,0.115-1,0c0.009-0.228,0.039-0.443,0.083-0.667c0.035-0.177,1.013-0.067,1,0
	C1099.555,879.762,1099.524,879.978,1099.516,880.205z M1102.224,875.746c0.164,0.593-0.129,1.467,0.574,1.789
	c0.575,0.264,1.229,0.173,1.843,0.168c0.048,0,0.5-0.009,0.5,0.085s-0.452,0.085-0.5,0.085c-0.807,0.007-1.723,0.11-2.499-0.168
	c-0.336-0.12-0.715-0.311-0.794-0.7c-0.085-0.419-0.009-0.843-0.124-1.259C1101.212,875.703,1102.17,875.553,1102.224,875.746z
	 M1105.797,882.131c0.144,0.077,0.215,0.175,0.064,0.291c-0.446,0.345-1.243,0.26-1.767,0.219c-0.617-0.048-1.342-0.105-1.896-0.413
	c-0.057-0.032,0.037-0.061,0.051-0.065c0.152-0.052,0.305-0.079,0.458-0.115c-0.165-0.029-0.316-0.083-0.454-0.154
	c-0.268-0.027-0.52-0.097-0.65-0.274c-0.164-0.222-0.168-0.407-0.087-0.553c-0.096-0.165-0.189-0.331-0.293-0.485
	c0.032,0.048,0.851-0.223,1,0c0.026,0.039,0.052,0.089,0.077,0.132c0.476-0.023,0.809,0.095,1.221,0.376
	c0.192,0.132,0.405,0.227,0.626,0.305c0.217,0.004,0.431,0.02,0.631,0.076c0.075,0.021,0.229,0.084,0.373,0.171
	c0.299,0.057,0.597,0.112,0.879,0.188c0.031,0.003,0.054,0.018,0.068,0.043C1106.055,881.995,1105.938,882.072,1105.797,882.131z
	 M1107.956,876.978c-0.553,0.27-1.161,0.502-1.777,0.552c-0.506,0.042-1.197,0.107-1.604-0.261c-0.023-0.015-0.023-0.03,0-0.045
	c0.051-0.024,0.104-0.038,0.155-0.06c-0.087-0.001-0.175-0.002-0.258-0.011c-0.038-0.004-0.382-0.065-0.18-0.116
	c0.735-0.186,1.481-0.246,2.23-0.232c0.064-0.005,0.129-0.011,0.193-0.016c0.167-0.012,0.45-0.033,0.606,0.058
	c0.168,0.015,0.337,0.025,0.505,0.048C1107.825,876.895,1108.039,876.937,1107.956,876.978z M1121.641,862.996
	c0.032,0.237,0.041,0.47,0.042,0.709c0,0.126-1,0.128-1,0c-0.001-0.239-0.01-0.472-0.042-0.709
	C1120.629,862.91,1121.619,862.833,1121.641,862.996z M1121.349,872.871c0.042,0.25,0.084,0.5,0.125,0.75
	c0.013,0.076-0.972,0.171-1,0c-0.041-0.25-0.083-0.5-0.125-0.75C1120.336,872.796,1121.32,872.7,1121.349,872.871z
	 M1120.599,864.288c0.013,0.07-0.968,0.175-1,0c-0.021-0.056-0.021-0.111,0-0.167c0.032-0.175,1.013-0.07,1,0
	C1120.578,864.177,1120.578,864.232,1120.599,864.288z M1120.016,860.536c0.12,0,0.415-0.026,0.5,0.085
	c0.157,0.205,0.301,0.42,0.458,0.625c0.028,0.037-0.477,0.085-0.5,0.085c-0.119,0-0.415,0.026-0.5-0.085
	c-0.157-0.205-0.301-0.42-0.458-0.625C1119.487,860.584,1119.992,860.536,1120.016,860.536z M1116.516,875.621c0,0.127-1,0.127-1,0
	c-0.001-0.325-0.018-0.646-0.057-0.966c-0.271,0.046-0.769,0.036-0.812-0.068c-0.492,0.083-1.015-0.08-1.174-0.591
	c-0.01-0.032,0.938-0.199,1,0c0.01,0.03,0.024,0.067,0.035,0.103c0.174-0.109,0.902-0.128,0.965,0.022
	c0.002,0.005,0.004,0.011,0.007,0.016c0.008,0,0.017-0.001,0.024-0.001c0.005-0.022,0.009-0.045,0.011-0.056c0.03-0.149,1-0.111,1,0
	V875.621z M1117.474,868.788c0,0.127-1,0.127-1,0v-2.125c0-0.127,1-0.127,1,0V868.788z M1117.641,862.996v-0.916
	c0-0.127,1-0.127,1,0v0.916C1118.641,863.123,1117.641,863.123,1117.641,862.996z M1119.408,866.891
	c0.163-0.094,0.438-0.067,0.615-0.06c0.02,0.001,0.438,0.054,0.35,0.104c-0.377,0.218-0.706,0.471-1,0.792
	c-0.163,0.177-0.975-0.034-0.965-0.045C1118.703,867.361,1119.031,867.108,1119.408,866.891z M1119.091,871.998
	c0.186-0.009,0.443-0.029,0.615,0.06c-0.058-0.015-0.115-0.028-0.173-0.042c0.164-0.093,0.437-0.068,0.615-0.06
	c0.02,0.001,0.438,0.055,0.35,0.104c-0.498,0.282-1.246,0.306-1.757,0.042C1118.653,872.058,1119.071,871.999,1119.091,871.998z
	 M1119.492,875.851c0.025-0.123,0.038-0.246,0.033-0.372c-0.01-0.259-0.046-0.515-0.052-0.773c-0.003-0.12,0.997-0.134,1,0
	c0.009,0.37,0.163,0.876-0.008,1.225c-0.183,0.374-0.628,0.355-0.992,0.36c-0.048,0.001-0.5,0.009-0.5-0.085
	c0-0.095,0.452-0.084,0.5-0.085C1119.231,876.123,1119.465,875.981,1119.492,875.851z M1124.714,881.835
	c-0.234,0.271-0.652,0.397-0.989,0.482c-0.818,0.206-2.809,0.592-3.73,0.023c-0.258,0-0.522-0.033-0.521-0.095
	c0.006-0.233,0.024-0.469,0.039-0.703c-0.003-0.048,0.002-0.101,0.004-0.151c0.012-0.207,0.022-0.413,0.012-0.618
	c-0.023-0.447-0.22-0.807-0.275-1.233c-0.079-0.61,0.413-1.005,0.872-1.331c0.836-0.594,1.606-0.841,2.609-0.524
	c0.419,0.132,1.347,0.624,1.495,1.087c0.162,0.505-0.199,1.026,0.056,1.528C1124.474,880.672,1125.085,881.405,1124.714,881.835z
	 M1128.077,873.099c-1.277,0.18-3.429,0.898-4.461-0.246c-0.073-0.082,0.316-0.104,0.35-0.104c0.902-0.023,1.765-0.199,2.66-0.277
	c0.481-0.042,1.166-0.096,1.584,0.203c0.27,0.193,0.142,0.28-0.054,0.327C1128.235,873.033,1128.216,873.078,1128.077,873.099z
	 M1167.557,876.621c0,0.127-1,0.127-1,0v-0.594c-0.099-0.016-0.166-0.039-0.166-0.072v-0.5c0-0.127,1-0.127,1,0v0.303
	c0.099,0.016,0.166,0.039,0.166,0.072V876.621z M1168.599,872.288c-0.014,0.151-1.009,0.101-1,0c0.074-0.832,0.045-1.666,0.042-2.5
	c0-0.126,1-0.128,1,0C1168.644,870.622,1168.673,871.456,1168.599,872.288z M1172.125,870.912c0.219-0.056,0.461-0.053,0.684-0.03
	c0.039,0.004,0.382,0.064,0.18,0.116c-0.454,0.115-0.912,0.103-1.373,0.16c-0.566,0.07-0.837,0.474-0.934,1.005
	c-0.031,0.174-1.013,0.071-1,0C1169.925,870.821,1171.125,871.167,1172.125,870.912z M1227.683,870.871c0.002-0.132,1.002-0.122,1,0
	c-0.006,0.361-0.036,0.722-0.042,1.083c-0.002,0.132-1.002,0.122-1,0C1227.646,871.593,1227.677,871.232,1227.683,870.871z
	 M1217.599,871.871c0.164,0.461,0.58,0.705,1.016,0.874c0.187,0.072-0.124,0.111-0.18,0.116c-0.205,0.021-0.485,0.046-0.684-0.03
	c-0.488-0.189-0.967-0.439-1.152-0.96C1216.592,871.852,1217.525,871.666,1217.599,871.871z M1214.641,869.288
	c0.063-0.199,1.01-0.032,1,0c-0.02,0.054-0.033,0.109-0.042,0.166c-0.038,0.181-1.013,0.062-1,0
	C1214.607,869.397,1214.621,869.342,1214.641,869.288z M1214.905,872.143c0.113-0.042,0.232-0.057,0.354-0.063
	c0.354-0.237,0.298-0.951,0.299-1.292c0-0.128,1-0.126,1,0c-0.001,0.42,0.047,1.02-0.313,1.295c-0.153,0.117-0.29,0.155-0.465,0.174
	c-0.255,0.185-0.185,0.793-0.181,1.031c0.002,0.122-0.998,0.132-1,0C1214.593,872.961,1214.502,872.292,1214.905,872.143z
	 M1213.476,882.777c-0.287,0.033-0.576,0.055-0.864,0.077c0.098,0.021,0.196,0.032,0.294,0.057c0.085,0.021,0.078,0.063,0,0.086
	c-0.098,0.028-0.196,0.039-0.294,0.064c0.119,1.078-1.191,2.726,0.336,3.184c0.141,0.042-0.668,0.145-0.863,0.086
	c-1.615-0.484-0.465-1.903-0.459-3.067c-1.152,0.162-2.326,0.14-3.492,0.106c-0.037-0.001-0.521-0.066-0.299-0.125
	c0.424-0.112,0.851-0.191,1.28-0.258c-0.006,0-0.012-0.001-0.018-0.001c-0.588-0.043,0.198-0.162,0.385-0.155
	c0.22,0.009,0.439,0.005,0.659,0.01c-0.257-0.054-0.514-0.106-0.769-0.168c-0.286-0.019-0.573-0.035-0.858-0.062
	c-0.621-0.057,0.319-0.164,0.504-0.146c0.31,0.028,0.618,0.05,0.927,0.071c1.179-0.005,2.355-0.017,3.531,0.095
	C1213.766,882.658,1213.759,882.745,1213.476,882.777z M1213.183,873.077c0,0,0,0.001,0,0.002c-0.005,0.028-0.042,0.047-0.09,0.063
	c-0.059,0.043-0.119,0.084-0.178,0.127c-0.142,0.103-0.456,0.067-0.615,0.06c-0.021-0.001-0.436-0.042-0.35-0.104
	c0.078-0.057,0.157-0.11,0.234-0.167c0.026-0.161,0.037-0.313,0.039-0.478c0.001-0.109,0.699-0.121,0.925-0.05
	c0.106-0.001,0.214,0.006,0.292,0.01c0.02,0.001,0.438,0.048,0.35,0.104C1213.581,872.779,1213.383,872.93,1213.183,873.077z
	 M1212.808,871.829c0.121-0.317,0.243-0.631,0.333-0.958c0.053-0.192,1.012-0.043,1,0c-0.09,0.327-0.212,0.641-0.333,0.958
	C1213.729,872.037,1212.803,871.843,1212.808,871.829z M1216.53,883.995c0.227,0.055-0.381,0.129-0.432,0.128
	c-0.291-0.006-0.501-0.041-0.541,0.331c-0.041,0.379,0.033,0.663,0.208,1c-0.011-0.02-0.886,0.22-1,0
	c-0.546-1.05-0.073-1.384,0.646-1.473c-0.533-0.216-0.662-0.601-0.336-1.223c0.176-0.335,0.396-0.665,0.524-1.022
	c0.329-0.911-0.585-0.855-1.335-0.863c-0.571-0.006-0.572-0.176,0-0.17c0.81,0.009,1.626,0.039,2.39,0.333
	c0.031,0.003,0.054,0.018,0.068,0.043C1216.746,882,1215.009,883.627,1216.53,883.995z M1226.446,884.349
	c-0.969,0.427-2.196,0.644-3.262,0.763c-0.122,0.014-0.757-0.086-0.734-0.096c0.919-0.414,3.054-1.298,1.416-2.455
	c-0.158-0.112-0.281-0.198-0.387-0.271c-0.78,0.021-1.451-0.042-2.229-0.292c-0.109-0.035-0.051-0.067,0.014-0.088
	c-0.337-0.018-0.745-0.135-0.132-0.162c1.076-0.048,2.144-0.169,3.218-0.229c0.066-0.081,0.119-0.162,0.17-0.243
	c0.08-0.461,0.156-0.922,0.193-1.364c-0.062-0.208-0.159-0.412-0.282-0.608c-0.056-0.013-0.104-0.028-0.124-0.056
	c-1.466-1.878-4.419-3.129-6.701-3.043c-0.07,0.003-0.784-0.064-0.564-0.125c0.032-0.009,0.05-0.014,0.079-0.021
	c-0.071,0.018-0.144,0.031-0.215,0.05c-0.079,0.02-0.156,0.025-0.234,0.04c0.041,0.029,0.076,0.045,0.118,0.077
	c0.046,0.036-0.023,0.059-0.051,0.065c-0.676,0.163-2.463,0.558-2.641-0.418c-0.006-0.031,0.068-0.051,0.151-0.063
	c-0.035-0.051-0.081-0.084-0.109-0.146c-0.027-0.061,0.476-0.085,0.5-0.085c0.585-0.007,1.012,0.044,1.444,0.23
	c0.272,0.016,0.545,0.032,0.815,0.059c1.126-0.094,2.439-0.326,2.823-0.331c0.098-0.001,0.748,0.066,0.354,0.146
	c-0.064,0.013-0.138,0.024-0.215,0.036c0.057,0.008,0.113,0.009,0.17,0.021c0.357,0.082,0.618,0.33,0.895,0.543
	c0.198,0.061,0.401,0.133,0.611,0.219c0.625,0.075,1.252,0.136,1.881,0.152c1.566,0.043,2.116,0.961,2.24,2.129
	c0.023-0.109,0.037-0.219,0.064-0.328c0.035-0.14,0.979-0.132,1,0c0.026,0.171,0.037,0.341,0.048,0.511
	c0.141,0.019,0.247,0.045,0.244,0.073C1226.927,879.833,1227.127,884.05,1226.446,884.349z M1226.891,877.913
	c-0.187-0.938-0.17-1.882-0.167-2.834c0-0.128,1-0.126,1,0c-0.003,0.952-0.02,1.896,0.167,2.834
	C1227.903,877.979,1226.926,878.091,1226.891,877.913z M1228.349,875.538c-0.421-0.659-0.457-1.363-0.458-2.125c0-0.127,1-0.127,1,0
	c0.001,0.632,0.042,1.222,0.292,1.781c0.07,0.002,0.142,0.007,0.211,0.014c0.1-0.496,0.171-0.996,0.205-1.504
	c0.01-0.146,1.007-0.106,1,0c-0.045,0.662-0.129,1.314-0.291,1.959c-0.027,0.107-0.349,0.107-0.62,0.08
	c-0.062,0.497-0.049,0.999-0.047,1.503c0.001,0.125-0.999,0.128-1,0c-0.003-0.544-0.013-1.084,0.066-1.62
	C1228.545,875.636,1228.4,875.62,1228.349,875.538z M1257.224,866.869c0.111,0,0.425-0.027,0.5,0.085
	c0.234,0.347,0.482,0.677,0.774,0.978c0.077,0.079-0.319,0.104-0.35,0.104c-0.131,0.006-0.509,0.05-0.615-0.06
	c-0.305-0.315-0.564-0.659-0.81-1.022C1256.694,866.91,1257.201,866.869,1257.224,866.869z M1256.641,872.265v-0.311
	c0-0.023,0.049-0.043,0.117-0.059c0.003-0.008,0.005-0.017,0.008-0.024c0.089-0.212,1.002-0.004,1,0
	c-0.039,0.093-0.063,0.19-0.091,0.286c0.013,0.075,0.024,0.147,0.038,0.227c0.28-0.024,0.612-0.007,0.726,0.133
	c0.193,0.239,0.218,0.68,0.035,0.938c-0.079,0.111-0.386,0.085-0.5,0.085c-0.009,0-0.096-0.008-0.19-0.018
	c-0.04,0.187-0.072,0.382-0.143,0.558c-0.059,0.148-1,0.112-1,0v-0.166c-0.022-0.012-0.039-0.025-0.042-0.042
	C1256.505,873.341,1256.506,872.786,1256.641,872.265z M1255.391,867.079c0.116,0.469,0.175,0.948,0.292,1.417
	c0.013,0.051-0.953,0.188-1,0c-0.117-0.469-0.176-0.948-0.292-1.417C1254.378,867.028,1255.344,866.891,1255.391,867.079z
	 M1254.808,871.329c-0.107-0.904-1.087-0.913-1.739-1.257c-0.556-0.293-0.629-0.809-0.803-1.368c-0.011-0.033,0.938-0.198,1,0
	c0.093,0.3,0.146,0.663,0.313,0.934c0.199,0.321,0.556,0.446,0.897,0.563c0.599,0.204,1.247,0.413,1.332,1.129
	C1255.818,871.42,1254.826,871.488,1254.808,871.329z M1260.697,876.412c-0.415-0.005-0.835-0.047-1.243-0.115
	c-0.926-0.154-0.507,0.383-0.761,0.88c-0.244,0.479-1.655,0.202-2.031,0.13c-1.039-0.203-0.285-1.299,0.114-1.761
	c0.652-0.754,1.106-1.066,2.104-1.061c0.616,0.005,1.251,0.043,1.863,0.161c0.25-0.063,0.896-0.045,0.896,0.058
	c0.001,0.375,0.015,0.748,0.033,1.121C1261.908,876.341,1261.31,876.419,1260.697,876.412z M1265.119,875.14
	c-0.919,0.17-1.964,0.226-2.836-0.163c-0.086-0.038,0.328-0.104,0.35-0.104c0.194-0.009,0.433-0.021,0.615,0.06
	c0.311,0.139,0.605,0.158,0.921,0.122c-0.277-0.135-0.55-0.218-0.869-0.226c-0.021-0.001-0.437-0.051-0.35-0.104
	c0.159-0.099,0.44-0.063,0.615-0.06c0.594,0.014,1.156,0.106,1.683,0.393C1265.329,875.101,1265.12,875.139,1265.119,875.14z
	 M1267.724,873.871c0,0.127-1,0.127-1,0v-0.08c-0.092,0.012-0.188,0.017-0.285,0.016c0.013,0.035,0.021,0.071,0.035,0.106
	c0.006,0.016-0.923,0.207-1,0c-0.123-0.33-0.241-0.659-0.333-1c-0.012-0.045,0.948-0.191,1,0c0.005,0.017,0.012,0.032,0.016,0.048
	c0.082-0.1,0.161-0.186,0.21-0.237c0.07-0.075,0.27-0.077,0.432-0.069c0.226-0.072,0.926-0.057,0.926,0.05V873.871z
	 M1271.516,872.329c-0.013,0.102-0.44,0.084-0.5,0.085c-0.428,0.005-1.318,0.144-1.656-0.211c-0.309-0.323-0.298-0.772-0.227-1.2
	c-0.215,0.014-0.419,0.001-0.45-0.09c-0.187-0.546-0.17-1.098-0.167-1.667c0.001-0.129,1.001-0.125,1,0
	c-0.002,0.406-0.008,0.805,0.055,1.197c0.245-0.002,0.542,0.039,0.625,0.075c0.253-0.006,0.563,0.037,0.636,0.08
	C1271.512,871.006,1271.613,871.577,1271.516,872.329z M1294.557,869.746c-0.003-0.119,0.997-0.134,1,0
	c0.007,0.292,0.034,0.583,0.042,0.875c0.003,0.119-0.997,0.134-1,0C1294.591,870.329,1294.563,870.038,1294.557,869.746z
	 M1295.581,873.144c-0.117,0.108-0.476,0.066-0.615,0.06c-0.027-0.001-0.43-0.03-0.35-0.104c0.468-0.433,0.889-0.898,1.232-1.436
	c0.143-0.223,0.973,0.043,1,0C1296.494,872.217,1296.063,872.698,1295.581,873.144z M1296.391,870.205
	c0.073-0.251,0.114-0.488,0.125-0.75c0.006-0.139,1.005-0.114,1,0c-0.011,0.262-0.052,0.499-0.125,0.75
	C1297.334,870.4,1296.38,870.243,1296.391,870.205z M1300.124,872.653c-0.198,0.181-0.439,0.301-0.695,0.377
	c-0.006,0.601-0.014,1.2,0.045,1.8c0.01,0.098-0.985,0.154-1,0c-0.055-0.568-0.051-1.138-0.045-1.707
	c-0.284-0.01-0.579-0.059-0.744-0.26c-0.272-0.331-0.304-0.744-0.294-1.158c0.003-0.134,1.003-0.12,1,0
	c-0.006,0.269-0.009,0.564,0.093,0.819c0.006,0.016,0.016,0.031,0.021,0.047c0.14-0.046,0.456-0.056,0.683-0.031
	c0.253-0.332,0.223-0.747,0.078-1.21c-0.01-0.032,0.938-0.198,1,0C1300.4,871.764,1300.505,872.306,1300.124,872.653z
	 M1338.989,864.997c-0.313,0.115-0.643,0.123-0.974,0.126c-0.048,0-0.5,0.009-0.5-0.085s0.452-0.085,0.5-0.085
	c0.037-0.014,0.073-0.028,0.11-0.042c0.201-0.074,0.476-0.051,0.684-0.03C1338.862,864.886,1339.179,864.928,1338.989,864.997z
	 M1339.349,863.704c-0.032-0.305-0.046-0.611-0.083-0.916c-0.011-0.09,0.98-0.16,1,0c0.037,0.305,0.051,0.611,0.083,0.916
	C1340.358,863.799,1339.365,863.86,1339.349,863.704z M1343.266,873.329c-0.101,0.146-0.904,0.151-1,0
	c-0.089-0.14-0.181-0.276-0.269-0.416c-0.169,0.363-0.322,0.734-0.439,1.125c-0.044,0.148-0.929,0.136-1,0
	c-0.254-0.48-0.484-0.967-0.792-1.417c0.034,0.05,0.848-0.223,1,0c0.076,0.111,0.138,0.229,0.205,0.344
	c0.144-0.312,0.299-0.619,0.462-0.927c0.082-0.155,0.904-0.14,1,0c0.126,0.184,0.241,0.373,0.361,0.561
	c0.26-0.354,0.513-0.713,0.722-1.103c0.118-0.221,0.987,0.023,1,0C1344.164,872.152,1343.687,872.719,1343.266,873.329z
	 M1348.155,867.331c-0.238,0.054-0.476,0.079-0.715,0.087c0.014,0.207,0.017,0.414,0.033,0.62c0.008,0.101-0.923,0.146-1,0
	c-0.107-0.203-0.16-0.42-0.234-0.637c-0.038-0.114-0.075-0.241-0.146-0.342c-0.126-0.183-0.285-0.163,0.091-0.198
	c-0.001,0-0.002-0.001-0.002-0.001c-0.039,0.002-0.078,0.009-0.117,0.01c-0.183,0.005-0.976-0.101-0.385-0.155
	c0.116-0.011,0.246-0.021,0.38-0.026c0.104-0.01,0.219-0.021,0.339-0.032c-0.001-0.054-0.009-0.106-0.009-0.16
	c-0.001-0.124,0.999-0.129,1,0c0,0.051,0.007,0.102,0.008,0.152c0.413,0.055,0.755,0.217,0.825,0.64
	C1348.209,867.313,1348.187,867.328,1348.155,867.331z M1351.016,867.496c-0.078,0.111-0.386,0.085-0.5,0.085
	c-0.022,0-0.529-0.043-0.5-0.085c0.165-0.235,0.269-0.504,0.417-0.75c0.135-0.223,0.978,0.036,1,0
	C1351.284,866.992,1351.181,867.261,1351.016,867.496z M1356.081,869.811c-0.393,0.299-0.931,0.297-1.405,0.249
	c-0.04-0.004-0.077-0.011-0.117-0.016c-0.207,0.264-0.177,0.735-0.126,1.16c0.011,0.091-0.981,0.159-1,0
	c-0.052-0.438-0.086-0.966,0.191-1.276c-0.157-0.02-0.313-0.043-0.478-0.049c-1.154-0.04-0.793-1.233-0.839-2.05
	c-0.006-0.11,0.992-0.143,1,0c0.027,0.482-0.196,1.337,0.106,1.753c0.113,0.155,0.355,0.14,0.58,0.131
	c0.029-0.008,0.053-0.021,0.085-0.027c0.62-0.114,1.254-0.045,1.873,0.042C1355.967,869.73,1356.15,869.758,1356.081,869.811z
	 M1368.065,872.411c-0.635,0.021-1.167-0.021-1.077-0.792c0.043-0.369,0.214-0.56-0.433-0.521c-0.243,0.015-0.487,0.034-0.731,0.032
	c-0.409-0.004-0.801-0.031-1.198-0.133c-0.085-0.021-0.078-0.063,0-0.086c0.08-0.023,0.167-0.032,0.248-0.053
	c-0.098-0.019-0.197-0.03-0.295-0.052c-0.164-0.036-0.178-0.091,0-0.121c0.223-0.037,0.484-0.047,0.707,0
	c0.075,0.017,0.149,0.028,0.225,0.043c0.879-0.114,1.811-0.048,2.645,0.142c0.205,0.047-0.146,0.112-0.18,0.116
	c-0.11,0.014-0.221,0.016-0.331,0.025c0.114,0.022,0.232,0.03,0.345,0.066c0.031,0.003,0.054,0.018,0.068,0.043
	c-0.027,0.202-0.074,0.406-0.078,0.611c-0.002,0.102-0.012,0.218,0.021,0.315c0.087,0.262,0.286,0.184-0.2,0.199
	C1368.137,872.236,1368.764,872.389,1368.065,872.411z M1368.974,861.371c-0.045,0.187-1.013,0.053-1,0
	c0.179-0.736,0.506-1.437,0.375-2.208c-0.013-0.075,0.971-0.172,1,0C1369.479,859.935,1369.152,860.635,1368.974,861.371z
	 M1369.991,860.682c0.366-0.346,0.796-0.624,1.162-0.968c0.004-0.008,0.009-0.017,0.013-0.024c0.039-0.078,0.077-0.143,0.116-0.208
	c0.032-0.158,0.135-0.275,0.297-0.354c0.059-0.046,0.119-0.09,0.191-0.124c0.124-0.166,0.247-0.334,0.388-0.488
	c0.162-0.178,0.976,0.033,0.965,0.045c-0.103,0.111-0.188,0.235-0.276,0.357c0.299,0.062,0.583,0.182,0.859,0.348
	c0.024,0.015-0.693,0.112-0.836,0.083c-0.103-0.021-0.203-0.048-0.305-0.072c-0.063,0.081-0.12,0.168-0.192,0.242
	c-0.027,0.028-0.059,0.051-0.086,0.077c0.047,0.403,0.455,0.536,0.794,0.711c0.082,0.043-0.129,0.083-0.129,0.083
	c-0.352,0.057-0.705,0.046-1.057,0.088c-0.454,0.054-0.298,0.611-0.213,0.894c0.011,0.036-0.94,0.197-1,0
	c-0.051-0.169-0.097-0.363-0.085-0.536c-0.194-0.014-0.386-0.041-0.556-0.088C1370.008,860.737,1369.951,860.72,1369.991,860.682z
	 M1417.905,876.164c-0.199,0.075-0.478,0.051-0.684,0.03c-0.055-0.005-0.367-0.045-0.18-0.116c0.973-0.369,1.654-1.271,1.807-2.29
	c0.025-0.167,1.012-0.081,1,0C1419.685,874.886,1418.936,875.773,1417.905,876.164z M1421.994,877.266
	c-0.228,0.038-0.479,0.04-0.707,0l-0.146-0.018c-0.048,0-0.5,0.009-0.5-0.085s0.452-0.085,0.5-0.085
	c0.288,0.003,0.569,0.017,0.854,0.066C1422.164,877.175,1422.166,877.236,1421.994,877.266z M1424.773,874.953
	c-0.197,0.009-0.429,0.018-0.615-0.06c-0.063-0.021-0.128-0.044-0.192-0.065c-0.019-0.001-0.438-0.05-0.35-0.104
	c0.155-0.096,0.444-0.069,0.615-0.06c0.314,0.019,0.6,0.063,0.892,0.185C1425.207,874.884,1424.796,874.952,1424.773,874.953z
	 M1427.141,875.581h-0.583c-0.048,0-0.5,0.009-0.5-0.085s0.452-0.085,0.5-0.085h0.583c0.048,0,0.5-0.009,0.5,0.085
	S1427.188,875.581,1427.141,875.581z M1428.661,873.891c-0.229,0.038-0.478,0.037-0.707,0c-0.229-0.038-0.466-0.131-0.696-0.146
	c-0.019-0.001-0.438-0.05-0.35-0.104c0.155-0.096,0.444-0.07,0.615-0.06c0.391,0.025,0.753,0.126,1.138,0.188
	C1428.833,873.798,1428.831,873.861,1428.661,873.891z M1442.557,867.371c-0.111,0.219-0.991-0.018-1,0
	c0.183-0.359,0.444-0.619,0.729-0.901c0.229-0.228,0.509-0.489,0.185-0.763c-0.123-0.104-0.233-0.208-0.34-0.33
	c-0.471-0.541,0.132-1.002,0.568-1.278c0.154-0.098,0.444-0.067,0.615-0.06c0.02,0.001,0.438,0.049,0.35,0.104
	c-0.27,0.171-0.816,0.485-0.706,0.89c0.108,0.395,0.472,0.633,0.79,0.857c0.006,0.008,0.012,0.015,0.018,0.022
	C1443.402,866.438,1442.85,866.797,1442.557,867.371z M1441.658,863.266c0.771-0.374,0.854-1.266,0.982-2.02
	c0.029-0.172,1.013-0.074,1,0c-0.133,0.774-0.228,1.682-1.018,2.064c-0.177,0.086-0.426,0.068-0.615,0.06
	C1441.987,863.369,1441.571,863.308,1441.658,863.266z M1443.974,859.998c-0.599,0-1.194,0.004-1.79,0.071
	c-0.217,0.024-0.472,0.031-0.684-0.03c-0.199-0.058,0.138-0.111,0.18-0.116c0.762-0.086,1.527-0.095,2.294-0.095
	c0.048,0,0.5-0.009,0.5,0.085S1444.021,859.998,1443.974,859.998z M1452.932,866.913c-0.042,0.139-0.082,0.277-0.125,0.416
	c-0.062,0.198-1.011,0.033-1,0c0.043-0.139,0.083-0.277,0.125-0.416C1451.992,866.716,1452.942,866.879,1452.932,866.913z
	 M1444.741,862.269c-0.085-0.065,0.327-0.104,0.35-0.104c0.156-0.007,0.479-0.045,0.615,0.06c0.195,0.148,0.385,0.268,0.616,0.354
	c0.188,0.071-0.126,0.111-0.18,0.116c-0.206,0.021-0.484,0.045-0.684-0.03C1445.195,862.564,1444.967,862.439,1444.741,862.269z
	 M1447.974,871.288c-0.109-0.797-0.044-1.619-0.237-2.404c-0.059-0.236-0.229-0.986-0.583-0.95c-0.35,0.036-0.695,0.089-1.047,0.103
	c-0.337,0.013-0.964-0.138-0.266-0.164c0.717-0.027,2.209-0.479,2.653,0.349c0.497,0.927,0.341,2.059,0.479,3.067
	C1448.985,871.373,1447.996,871.452,1447.974,871.288z M1449.741,859.432c0.59-0.497,1.267-1.019,1.44-1.811
	c0.04-0.183,1.013-0.06,1,0c-0.074,0.337-0.25,0.62-0.461,0.882c0.541,0.153,1.134,0.448,1.703,0.411
	c0.17-0.011,0.46-0.036,0.615,0.06c0.089,0.055-0.331,0.104-0.35,0.104c-0.787,0.051-1.478-0.111-2.195-0.312
	c-0.248,0.255-0.524,0.488-0.788,0.71c-0.127,0.106-0.468,0.066-0.615,0.06C1450.066,859.535,1449.658,859.502,1449.741,859.432z
	 M1450.956,861.516c0.329,0.402,0.503,0.859,0.643,1.355c0.012,0.041-0.945,0.193-1,0c-0.133-0.473-0.292-0.926-0.607-1.311
	C1449.973,861.538,1450.81,861.337,1450.956,861.516z M1451.307,868.163c0.163,0.317,0.339,0.622,0.542,0.916
	c0.029,0.043-0.478,0.085-0.5,0.085c-0.113,0-0.423,0.026-0.5-0.085c-0.203-0.294-0.379-0.599-0.542-0.916
	C1450.316,868.182,1451.194,867.944,1451.307,868.163z M1495.366,868.686c0.012,0.01,0.77-0.213,0.965-0.045
	c0.495,0.427,0.739,0.922,0.559,1.561c0.295-0.023,0.709,0.005,0.709,0.087v1.042c0,0.127-1,0.127-1,0v-0.262
	c-0.169,0.489-0.298,0.961-0.292,1.553c0.001,0.124-0.999,0.13-1,0c-0.008-0.824,0.229-1.37,0.496-2.127
	C1496.065,869.749,1495.995,869.227,1495.366,868.686z M1494.141,870.163c0.082,0.531,0.173,1.059,0.291,1.583
	c0.013,0.059-0.959,0.184-1,0c-0.118-0.524-0.209-1.052-0.291-1.583C1493.128,870.083,1494.114,869.995,1494.141,870.163z
	 M1492.817,883.315c-0.158,0.178-0.416,0.199-0.643,0.221c-0.612,0.058-1.369,0.117-1.967-0.067
	c-0.733-0.227-0.631-1.112-0.901-1.681c0.005,0.01,0.896-0.217,1,0c0.016,0.032,0.022,0.067,0.035,0.101
	c0.085-0.053,0.437-0.061,0.465-0.061c0.581-0.009,1.638-0.192,1.972,0.455C1492.921,882.56,1493.056,883.048,1492.817,883.315z
	 M1492.849,875.746c-0.199-0.581-0.341-1.18-0.667-1.708c0.024,0.039,0.862-0.223,1,0c0.326,0.528,0.468,1.127,0.667,1.708
	C1493.856,875.77,1492.918,875.949,1492.849,875.746z M1494.258,875.912c-0.023-0.001-0.434-0.037-0.35-0.104
	c0.643-0.513,1.36-0.848,1.815-1.562c0.142-0.223,0.973,0.042,1,0c-0.466,0.731-1.191,1.081-1.851,1.606
	C1494.741,875.958,1494.41,875.919,1494.258,875.912z M1497.474,882.163c0,0.127-1,0.127-1,0v-0.417
	c-0.073,0.429-0.123,0.859-0.167,1.292c-0.016,0.155-1.01,0.097-1,0c0.044-0.433,0.094-0.863,0.167-1.292
	c0.029-0.172,1.013-0.074,1,0v-2.125c0-0.127,1-0.127,1,0V882.163z M1498.641,872.038c-0.039-0.148-0.071-0.298-0.109-0.445
	c-0.322,0.212-0.619,0.455-0.908,0.718c-0.119,0.108-0.474,0.066-0.615,0.06c-0.026-0.001-0.431-0.031-0.35-0.104
	c0.403-0.366,0.792-0.729,1.291-0.958c0.138-0.063,0.308-0.066,0.469-0.062c-0.011-0.027-0.016-0.056-0.027-0.083
	c-0.001-0.002,0.909-0.213,1,0c0.12,0.281,0.173,0.58,0.25,0.875C1499.653,872.085,1498.69,872.229,1498.641,872.038z
	 M1518.516,872.746c0.014,0.083,0.027,0.167,0.041,0.25c0.013,0.076-0.972,0.17-1,0c-0.014-0.083-0.027-0.167-0.041-0.25
	C1517.503,872.669,1518.487,872.576,1518.516,872.746z M1516.432,870.83c0.001,0.294,0.008,0.583,0.042,0.875
	c0.011,0.092-0.981,0.159-1,0c-0.034-0.292-0.041-0.581-0.042-0.875C1515.432,870.704,1516.432,870.703,1516.432,870.83z
	 M1515.724,873.538v1.167c0,0.127-1,0.127-1,0v-1.167C1514.724,873.411,1515.724,873.411,1515.724,873.538z M1513.807,868.205
	c0.004-0.135,1.003-0.118,1,0c-0.012,0.393-0.077,0.777-0.125,1.166c-0.02,0.16-1.011,0.089-1,0
	C1513.729,868.982,1513.795,868.598,1513.807,868.205z M1513.932,872.913c-0.122-0.188-0.195-0.366-0.25-0.583
	c-0.013-0.05,0.952-0.188,1,0c0.055,0.217,0.128,0.396,0.25,0.583C1514.903,872.869,1514.076,873.136,1513.932,872.913z
	 M1518.535,877.811c-0.003,0,0.162,0.025,0.146,0.061c-0.437,0.982-2.138,2.413-3.229,2.521c-0.257,0.025-0.919,0.124-0.956-0.265
	c-0.136-1.42,0.074-2.868-0.064-4.298c-0.004-0.038,0.146-0.069,0.329-0.085c0.451-0.481,1.012-0.836,1.48-1.313
	c0.054-0.055,0.205-0.063,0.372-0.055c0.202-0.319,0.499-0.612,0.67-0.737c0.143-0.104,0.99,0.01,0.982,0.022
	c-0.253,0.428-0.489,0.812-0.743,1.15c0.024,0.333,0.326,0.584,0.993,0.598c0.377,0.008,0.717,0.13,0.133,0.167
	c-0.933,0.06-1.497,0.067-2.196,0.699c-0.088,0.317-0.151,0.643-0.196,0.973C1516.767,877.637,1518.077,877.738,1518.535,877.811z
	 M1519.807,872.038c0,0.127-1,0.127-1,0v-0.542c0-0.127,1-0.127,1,0V872.038z"/>
<g>
</g>
<g>
</g>
<g>
</g>
<g>
</g>
<g>
</g>
<g>
</g>
</svg>
