<?xml version="1.0" encoding="utf-8"?>
<!-- Generator: Adobe Illustrator 16.0.0, SVG Export Plug-In . SVG Version: 6.00 Build 0)  -->
<!DOCTYPE svg PUBLIC "-//W3C//DTD SVG 1.1//EN" "http://www.w3.org/Graphics/SVG/1.1/DTD/svg11.dtd">
<svg version="1.1" id="mountain_1" xmlns="http://www.w3.org/2000/svg" xmlns:xlink="http://www.w3.org/1999/xlink" x="0px" y="0px"
	 width="1920px" height="1080px" viewBox="0 0 1920 1080" enable-background="new 0 0 1920 1080" xml:space="preserve">
<path fill="#DA6669" d="M1571.156,882.207c-0.375-1.417-6.042-2.333-7.292-2.583s-7.666,0.583-11.5,0.916s-6.166,0.5-15.166,0.667
	s-5.417-1.083-8.25-1.917s-5.75-2-7.417-2s-12.25,1-14.25,0.75s-4.667-1.166-7.667-2.334s-16.583,0.251-18.083,0.501
	s-20.417,1.583-22.667,2.833s-1.916,5.646-1.916,5.646s-1.167-0.146-1.917-0.063s-6.75,0.084-7.917,0s-3.166-1.5-3.5-2.166
	s-2.083-2.917-3.083-3.917s-5.083-2-5.833-2.083s-3.667,0.833-3.834,1.083s-3.583,2.25-6,2.667s-7,0.25-9.583,0.083
	s-4.834-1.75-6-2.25s-9.833-1.25-11.083-2s-10.667-5.166-13.334-6.166s-8.416,0.583-11.75,2.166s-12.75,6.334-15.167,6.667
	s-3.5,0-4.666-0.167s-2.584-2-2.584-2l-2.5-1.916l-0.75-0.834l-1.916,0.667l-0.834-1.5l-1.25,0.167l-1.416-1.834l-1.084-0.083
	l-0.916-1.5l-0.334,0.083l-1.25-1.666l-1.583,0.25l-1.083-1.417l-0.917-1.833l-1.333,0.083l-1.167-1.833l-0.917,1.416l-1.833-2
	c0,0-2-0.666-2.333-1s-1-1.416-1-1.416l-1.083-1.584l-0.834-1.25l-1.333-0.166l-0.917-0.167l-0.5-2.417l-1.583,1.25
	c0,0-2.25-0.25-2.5-0.333s-0.75-0.583-0.917-0.917s-2-0.5-2-0.5l-2.416,0.084l-1.667-1l-1.083,0.583l-1.917-0.5l-2.25-0.5
	l-1.917,0.25c0,0-1.083-1.583-1.166-1.833s-0.917-1.084-1.167-1.25s-2.333-0.834-3.167-1.667s-2.083-1.333-2.083-1.333l-0.833-1.25
	l-0.584,0.833h-2.833l-0.5,1.75c0,0-1.75,0-2,0s-2.917-0.667-2.917-0.667l-1.083,1.917l-2,0.75l-1,1l-1.167-0.417l-0.833,1
	c0,0-1.667,0.5-1.833,0.25s-1.084-1.583-1.084-1.583s-1.5,0.833-1.75,1s-1.166,1.833-1.166,1.833l-2-0.083l-1.667-1.083l-1.333,4.25
	l-1.5-1.25l-1.417,0.333l-1.334,2.167l-1.583-0.584l-1.417,2.417c0,0-1.583-1.417-1.833-1.417s-0.583,0.667-0.583,0.667
	l-1.917,0.417v1.583c0,0-0.5-0.833-0.75-0.917s-1.75,0.084-1.75,0.084l-1.417,0.583l-1.25-0.25l-1,0.75l-1.416-1.083
	c0,0-1.584,2.083-1.667,1.083s-2.083-2.5-2.083-2.5s-2.584,1.333-3.084,1.333s-2.5,0.667-2.75,0.833s-1.083,1.834-1.083,1.834
	s-1.917,0-2.167,0s-0.833-1-0.916-1.25s-1.417-0.167-1.417-0.167l-0.75,1.917c0,0-1.083,1.666-1.833,1.583s-1.917,2.5-1.917,2.5
	l-1.083-0.666l-3.083-0.417v3.75c0,0-1.667-0.417-2-0.417h-1.167c-0.25,0-0.417,1.75-0.833,1.834s-1.417,0.666-1.417,0.666v4
	l-1.084-3.083l-0.75-1.667l-1.833-0.083l-0.5,1.25l-0.667,2.75l-1.327,1.917l-2.339,1.416l0.75-2.834c0,0,1.5-2.999,1.583-3.416
	s-0.75-0.583-0.75-0.583l-0.583,0.333l-1.334,3.167l-1.666,1.583c0,0-0.334,5.084-0.667,5.084s-2.667,0-2.667,0l-1.833-0.5
	l-0.5-1.917c0,0,1.667,0.417,1.917,0.417s1.416,0.519,1.416,0.519s0.834-2.353,0.834-2.853s0-2.5,0-2.5l0.833-3.083
	c0,0-1.167-0.083-1.417-0.083s-0.916,1.75-0.916,1.75l-1,3.416v-1.75l-1-1.333c0,0-2.583,0-2.833,0s-2.084,0.333-2.417,0.333
	s-2.333,0.417-2.75,0.417s-3.417,0.416-3.417,0.416l-1-1.083l-2.166-0.5l-1.167,2.166c0,0-2.417,0.584-2.667,0.584
	s-2.333,0.833-3,0.833s-5.666-0.833-6-0.833s-2.333,0.083-2.583,0.083s-0.833-1.5-0.833-1.5v-2.833l-1.834-0.75v5.667l-1.75,0.5
	l-1-1l-1.666-0.334c0,0-0.75,2.084-1.25,2.334s-2.417,1.666-3.584,1.916s-4.666-1.916-5.416-2.416s-2.75-0.833-4.167-0.833
	s-1.917,0.416-2.833,0.75s-3,0.25-3.5,0.083s-3.834-1.417-4.5-1.417s-1.75,0.667-2.5,0.834s-6.417-0.084-7.167-0.251
	s-1.834-1.333-2.334-1.417s-2.583-2.166-3.75-2.583s-6.999,0.834-8.666,1.084s-4.417,0-5.875-0.084s-2.292-1-2.958-1.333
	s-3.334-1.833-4.167-1.917s-4,0.75-4.917,0.917s-1.583,0.917-1.583,0.917l-2.917-0.417l-2.5-0.083l-1.166-0.5l-0.334-1.75
	l-1.583-1.917v0.333l-1.167,0.75l-1,2.75l-0.666-1.583l-1.25-1l-0.834,0.917l-0.916,1.333l-0.5,1.333l-0.917,0.667l-1.083,1.167
	h-2.334l-1.166-0.334l1.25-0.583l1.25-0.917l-0.834-0.25h-1.25l-2.416-0.333l-0.417,1l0.417,1.25l-0.917,0.083l-0.75-2l-0.583-1.5
	l-0.917-0.583l-0.5-0.917l-0.75-0.833l-2.083,0.667v1.75c0,0-1.25-1.584-1.5-1.75s-0.75-0.667-1.084-0.917s0-1.583,0-1.583
	l-1.333-0.5l-0.917,0.5l-0.416,1.25l-0.667,0.25l-1.667-1.667l-0.5,1l-1.333,0.917l-0.5,1l-0.833,0.583l-0.667,1.167l-0.833,0.5
	l-1.167,0.583l-1.083-1.083l-1.417,1.5l-1.25-1.5l-0.833-1.084l-1.667-0.083v0.833l-1.333,0.5l-2.167-0.083v-1.083l-1.584-0.584
	l-0.583,1.5c0,0-0.417-1.083-0.667-1.25s-0.5,0.167-0.5,0.167l-2.083-0.833l-0.667,2.5l-0.833-1.167c0,0-0.833-1.583-1.083-1.667
	s-2.167-0.916-2.167-0.916v1.416l-1.5,0.5c0,0-1.5-2.083-1.75-2.166s-1.833-1.25-1.833-1.25l-1.667-0.5h-2.417l-2.333-2.334v2.334
	l-1.833,0.75c0,0-0.667-0.667-0.917-0.917s-1.583-1.653-1.583-1.653l-2-0.514l-1.167,0.917l-1.167,1.333
	c0,0-1.333,1.917-1.416,1.667s-1.167-1.417-1.167-1.417l-1.167-1.083h-1.833v1.583c0,0-1.833-0.916-2.083-0.75
	s-1.417,1.25-1.417,1.25s-1.5,1.5-1.75,1.5s-1.333-0.75-1.333-0.75l-0.584-1.333c0,0-2-0.417-2.25-0.583s-1.25-1.417-1.416-1.82
	s-1.584-1.097-1.834-1.18s-1.666,0.083-1.666,0.083s-0.5,1.333-0.75,1.097s-0.584,1.736-0.584,1.736l-0.666,1l-1.5-1.166l-0.5,1
	c0,0-0.834,0.75-0.834,1v2.083c0,0.25-1.583,1.333-1.583,1.333s-0.5-0.833-0.667-1.166s-0.416-1.167-0.416-1.167l-0.75-0.75
	l-0.917-0.25l-0.583,0.667l-1.75,0.167l-1.084-0.084v1.667l1.084,1.083l-0.75,1.584l-2.084-1.75h-1.333l-1.25,0.5l-1-0.5
	l-0.667,0.833c0,0-2.333-1-2.583-1.083s-1.583-0.584-1.583-0.584l-2.667-0.5c0,0-2,0.917-2.25,0.834s-1.667-0.584-1.667-0.584
	l-1.833,1.334l-1.917,0.916c0,0-4.833-0.583-5.083-0.833s-1.25-0.834-2.583-1s-3,2.416-3.334,2.583s-3.25,0.583-3.583,0.583
	s-2.667,0.417-2.667,0.417l-3.333-4.75l0.917,4c0,0-3.667-0.417-4.417-0.5s-3.167,0.083-4.667,0.167s-5.999,1.166-5.999,1.166
	l-1.834-6.916l-0.416,3.916l-0.584-2.083l-1.333-3.75l-0.662-1.833l-1.171,1.083c0,0,1.083,4.417,1.166,4.667
	s-0.833,3.25-0.833,3.25s0.083-1.167,0-1.5s-1.167-2.75-1.333-3.084s-1.667-3.736-1.667-3.736l-0.583-3.514v0.834
	c0,0-2.25,1.666-2.75,1.916s-2,3.334-2,3.334l-2.167-4.084l-0.917,3.834l-2.25,1.583l-1.916,0.167l-1.917-0.334v-1.583
	c0,0-2.583-0.833-2.833-0.833s-2.251-1.32-2.251-1.32v1.32l-0.916,1.583l-0.917,2.917l-1.25-0.917v-4l-1.417,0.417l-1.833,1.083
	l-1.333,2.083l-2.584,2.75l0.75-2.333v-1.417l-2.75-0.916c0,0-1.833-0.667-2.083-0.667s-0.917,0.25-0.917,0.25l-2.416,1.583
	l-1.167,4.084l-0.75-0.917l-1.417-2.583l-0.916-1.084l-1.25-0.25v3.667l-0.834-1.417l-1.083-1.416l-0.5-2l-0.917-1.417l-2.75-0.403
	v-1.347l-1.916-0.917l-1.25,1.167l-1.917-1.167l-0.667,1.75l-1-0.833l-0.75-1.75l-2.416-0.833l-0.584,1.416l-1.666-1.333h-1.917
	l-0.583,1.833c0,0-0.833-1.333-1.166-1.833s-1.834-1.5-1.834-1.5l-1.333-1v-2.167l-1.333-1.833l-2.167,1.5v2l-1.167,1.333
	l-1.833-0.5c0,0-1.833-3-2.5-2.833s-0.833,2.5-0.833,2.5l1.333,2.5l2,1.833c0,0-3.667,1-4.167,1.167s-5.166,0.847-5.166,0.847
	l-5.5,1.986h-2.5l-2.834-1.986l-1.333-1.847l-0.667,0.833l-1.666-0.333l-2.167-2.333v-2.5l-1.833-1.834l-1.334,0.334l-1.333,1.833
	l-2.833-1.833l-1.667,0.5v2l-2.667,1.167v-2.334l-2.666-1.833l-2,0.833l-2.5-0.666v3.666h-2.167v-1.666l-1.833,0.833l-1.167-1
	l-1.167,0.5l-2-0.5c0,0-0.666,1.5-1.833,1.333s-3,2.334-3,2.334l-1.333-2l-1.833-1.5l-0.833,1.166l-1.833,1.5v1l-1.5-1l-0.833,1.667
	l-2.167-1l-1.167-1.833l-0.833-0.667v2.167l-2.5,0.833v-1.667l-3-1l-1.833,2.167l-1.333-1.167l-1.333-0.833l-0.833,2.333l-1.5-2.166
	l-1-2l-1,1.166l-1,0.334l-2.167-1l-1.5-1.334l-1-1.833l-1.667-0.667v2.667l-2.5,0.167l-3.833-1.167c0,0-2.167-1.667-2.667-1.667
	s-3.167,0.5-3.167,0.5l-2.167-2l-3.167-1.833l-1.333,4.667l-1.333-3v-3.167c0,0-1.5,2-1.5,1.5s-1.833-0.333-1.833-0.333l-2.5,0.333
	v2.833l-1.833-2v-1.666l-3.667-0.667l-0.833,1.833v3.167l-1.833,0.833v-4h-2.833l-1.333,3l-1.667,3l-0.833-1.833l-3,3.333h-3.833
	l-1.167,3.667l-0.833-4.167l-1.667,4c0,0-0.667-3.166-0.833-3.833s-2.167-1.167-2.167-1.167v3l-2.333,1.5l-1-2.666
	c0,0-1.833,1.333-2.167,1.833s-2.333,3.333-2.333,3.333s-2.5,1.834-3,2s-3,1.834-3,1.834s0-0.667,0-1.167s0-1.5,0-1.5h-1.833
	l-1.5,1.667c0,0-1-0.334-1.5-0.667s-1.667-1-1.667-1l-1.667,1.333c0,0-0.667,2.834-0.667,3.334s-2.167,1.333-2.167,1.333v-4.667
	l-2,1c0,0-3.5,5-3.833,4s-2,0-2,0l-0.667,2.334l-2.5,0.166l-1.833-1.666l-3,2.832c0,0-3.151,2.707-4.792,3.001
	c-44.625,8.001,328.625,18.499,328.625,18.499s552.417-7.916,555.5-8.166s7.75,0.5,10.083,0.75s8.75,1.417,10.834,1.334
	s2.5-0.584,2.916-1s1-2.584,1.167-3.167s2.833,0.25,4.333,0s3.542-1.417,3.542-1.75S1571.531,883.624,1571.156,882.207z
	 M815.225,871.374c-0.877-0.199-1.748-0.426-2.625-0.625c-0.226-0.051,0.382-0.129,0.432-0.128c0.327,0.005,2.226,0.111,0.782-0.271
	c-0.37-0.101-0.742-0.197-1.115-0.289c-0.923-0.233-1.83-0.481-2.724-0.813c-0.16-0.06,0.688-0.131,0.863-0.086
	c1.094,0.279,1.532,0.051,2.203-0.377c-1.378,0.111-2.712,0.309-4.113,0.105c-0.014-0.002-0.199-0.03-0.129-0.083
	c0.729-0.546-1.342-0.63-1.824-0.747c-0.134-0.032,0.665-0.134,0.863-0.086c0.78,0.188,1.572,0.275,2.359,0.42
	c0.003,0.001,0.208,0.037,0.129,0.083c-1.008,0.588,1.774,0.193,2.078,0.165c0.44-0.041,0.802-0.065,1.244-0.082
	c0.062-0.002,0.686,0.06,0.615,0.104c-0.758,0.482-1.486,0.841-2.347,0.87c0.179,0.051,0.355,0.102,0.534,0.152
	c1.112,0.294,2.229,0.558,3.324,0.912c0.195,0.063-0.134,0.111-0.18,0.116c-0.668,0.073-1.32,0.091-1.992,0.082
	c0.84,0.012,1.662,0.303,2.484,0.489C816.22,871.318,815.424,871.419,815.225,871.374z M849.836,875.163
	c-0.254-0.009-0.511-0.031-0.732-0.118c-0.073,0.059-0.151,0.11-0.215,0.184c-0.149,0.171-0.961-0.055-0.982-0.022
	c0.15-0.227,0.264-0.472,0.409-0.701c-0.118-0.012-0.236-0.023-0.354-0.029c-0.02-0.001-0.438-0.05-0.35-0.104
	c0.156-0.097,0.443-0.068,0.615-0.06c0.251,0.013,0.499,0.05,0.75,0.063c0.012,0.001,0.395,0.04,0.367,0.082
	c-0.018,0.026-0.03,0.054-0.047,0.08c0.175,0.007,0.326,0.038,0.359,0.107c0.088,0.186,0.217,0.348,0.445,0.355
	c0.021,0.001,0.437,0.051,0.35,0.104C850.293,875.201,850.01,875.169,849.836,875.163z M889.281,875.831
	c-0.021-0.051-0.026-0.103-0.043-0.151c-0.029,0.05-0.052,0.103-0.082,0.151c-0.082,0.134-0.945,0.153-1,0
	c-0.126-0.355-0.167-0.688-0.125-1.063c0.012-0.105,0.449-0.11,0.741-0.076c0.063-0.122,0.135-0.238,0.196-0.361
	c0.068-0.137,0.959-0.146,1,0c0.094,0.334,0.113,0.668,0.119,1.011c0.037,0.014,0.065,0.03,0.068,0.052
	c0.021,0.159,0.063,0.29,0.125,0.438C890.282,875.833,889.372,876.044,889.281,875.831z M894.539,873.601
	c-0.081,0.004-0.17,0.005-0.258,0.003v1.063c0.022,0.262,0.035,0.523,0,0.79c-0.019,0.145-1,0.114-1,0v-0.79
	c-0.037-0.423-0.11-0.844-0.125-1.272c-0.001-0.031,0.062-0.049,0.125-0.06v-0.878c0-0.127,1-0.127,1,0v0.871
	c0.204,0.031,0.406,0.082,0.607,0.169C894.974,873.533,894.561,873.6,894.539,873.601z M906.469,873.144
	c-0.072-0.378-0.188-0.726-0.375-1.063c0.016,0.027,0.877-0.221,1,0c0.188,0.337,0.303,0.685,0.375,1.063
	C907.481,873.212,906.502,873.319,906.469,873.144z M1011.822,876.204c-0.862,0.12-1.734,0.209-2.588,0.384
	c-0.421,0.086-1.97,0.407-0.03,0.37c0.359-0.008,0.718-0.02,1.077-0.024c0.572-0.007,0.571,0.163,0,0.17
	c-1.014,0.013-2.086,0.131-3.057-0.229c-0.075-0.028-0.088-0.06,0-0.086c1.059-0.313,2.143-0.467,3.235-0.614
	c0.455-0.062,0.395-0.031-0.062-0.098c-0.515-0.074-1.032-0.138-1.552-0.167c-0.668-0.038-1.334-0.054-2.003-0.056
	c-0.571-0.002-0.572-0.172,0-0.17c1.673,0.006,3.332,0.09,4.979,0.399C1011.986,876.114,1012,876.179,1011.822,876.204z
	 M1199.719,878.916h-1.688c-0.169,0.001-0.338,0.007-0.508,0.01c-0.029,0.099-0.174,0.1-0.427,0.008
	c-1.483,0.028-2.964,0.08-4.448,0.042c-0.427-0.011-0.417-0.138,0-0.164c0.225-0.014,0.449-0.028,0.673-0.043
	c0.07-0.012,0.151-0.022,0.272-0.022h0.079c1.765-0.116,3.527-0.237,5.296-0.25c0.572-0.004,0.571,0.166,0,0.17
	c-0.802,0.006-1.603,0.038-2.403,0.08h3.153C1200.291,878.746,1200.291,878.916,1199.719,878.916z M1204.65,880.687
	c-1.009,0.229-2.021,0.401-3.057,0.417c-0.029,0.001-0.522-0.014-0.5-0.085c0.115-0.361,0.441-0.534,0.821-0.608
	c-0.129-0.009-0.259-0.028-0.259-0.079c0-0.094,0.452-0.086,0.5-0.085c0.848,0.013,1.679,0.12,2.494,0.354
	C1204.728,880.623,1204.737,880.667,1204.65,880.687z M1290.861,876.791c-0.978-0.532-2.378-1.834-3.57-1.376
	c-0.556,0.214-0.976,0.346-1.564,0.373c-0.693,0.032-1.767-0.019-1.494-0.976c0.083-0.29,0.716-0.421,0.959-0.458
	c0.79-0.12,1.678-0.311,2.248-0.921c0.529-0.565,1.258-1.807,0.904-2.636c-0.367-0.858-1.348-0.969-2.143-1.263
	c-0.012,0.001-0.024,0.002-0.037,0.003c-0.338,0.02-0.963-0.123-0.266-0.164c1.648-0.097,2.737-1.378,4.32-1.378
	c0.269,0,1.218-0.009,1.204,0.483c-0.018,0.607-0.354,1.124-0.415,1.72c-0.094,0.918-0.039,1.859-0.039,2.782
	c0,0.599-0.283,1.804,0,2.35c0.265,0.511,0.648,0.907,0.875,1.438C1291.874,876.84,1290.975,876.853,1290.861,876.791z
	 M1337.492,884.068c-1.439,0.192-3.125-0.245-4.479,0.226c-1.229,0.428-2.405,0.995-3.724,1.057
	c-0.891,0.042-1.834-0.069-2.659-0.423c-0.97-0.415-1.979-1.096-3.001-1.34c-1.022-0.245-1.923-0.037-2.917-0.037
	c-0.569,0-1.864-0.014-2.114-0.725c-0.476-1.354-1.098-2.864-1.129-4.308c-0.004-0.157,0.877-0.068,0.982-0.022
	c0.104,0.044,0.184,0.105,0.278,0.156c0.229-0.039,0.496-0.061,0.597,0.031c1.13,1.034,2.352,2.015,3.683,2.797
	c0.375,0.111,0.755,0.212,1.142,0.308c0.072,0.018-0.133,0.055-0.365,0.078c0.736,0.311,1.458,0.654,2.183,0.978
	c1.166,0.416,2.396,0.7,3.624,0.653c0.696-0.081,1.368-0.233,2.038-0.42c1.049-0.409,1.511-0.875,2.454-1.403
	c2.302-1.289,5.626-1.095,8.205-0.987c0.038,0.002,0.366,0.005,0.367,0.082C1342.676,882.994,1339.232,883.835,1337.492,884.068z"/>
<g>
</g>
<g>
</g>
<g>
</g>
<g>
</g>
<g>
</g>
<g>
</g>
</svg>
