<?xml version="1.0" encoding="utf-8"?>
<!-- Generator: Adobe Illustrator 16.0.0, SVG Export Plug-In . SVG Version: 6.00 Build 0)  -->
<!DOCTYPE svg PUBLIC "-//W3C//DTD SVG 1.1//EN" "http://www.w3.org/Graphics/SVG/1.1/DTD/svg11.dtd">
<svg version="1.1" id="mountain_3" xmlns="http://www.w3.org/2000/svg" xmlns:xlink="http://www.w3.org/1999/xlink" x="0px" y="0px"
	 width="1920px" height="1080px" viewBox="0 0 1920 1080" enable-background="new 0 0 1920 1080" xml:space="preserve">
<path fill="#E2B891" d="M657.282,867.873c2.385-2.61,32-8.668,32.5-8.834s33.167-7.499,34.167-7.666s12.333,0.334,13,0
	s13.667,1.5,14.167,1.5s16.333,0.583,16.833,0.708s6.167-1.208,8.5-1.208s6.5,1.499,9.667,2.666s6.333,2.501,10.167,3.834
	s8.833,2.5,9.333,2.833s19.334,7.5,21.334,8s10,3.001,11.5,3.167s5.666-0.333,6.833,0s16.334-2.334,23.667-4.167
	s33.167-9.167,37-10.667s27.166-10.166,32.666-10.333s13.668-2.167,15.834-2.5s14-2.001,16.833-2.167s6.167-0.667,11.167,0
	s14.5,5,14.833,5.5s3.834,3,4.167,3.5s25.333,7.333,27.666,7s8.166-2.833,8.833-3s5.667-4.667,8.667-5.5s12.833-6.167,14.333-6.667
	s26.334-7,30.667-7s13.833-7.332,15-7.666s5.833,0.5,6.333,0s10.166-5.667,12-5.667s5.167,0,5.167,0s11-3.5,12-4
	s7.5-4.458,7.5-4.458s19.166,6.125,24,6.125s11.334,3.499,12.834,4.166s7,2.334,7.5,2.334s5.666,0,6.833,0
	s10.001,0.332,14.667,2.166s9.333,3.333,12.833,5s6.333,0.167,6.833,0.167s3.667,2.333,3.667,2.333s5.333-0.167,5.833,0
	s14.668-4.999,17.334-6.666s7-1.833,10.833-1.5s11.834,1.334,13.167,2.167s5.666,3.666,7.833,4.166s17.834,4,18.667,4
	s3.832,0.834,6.666,3.167s4.001,4.332,6.334,4.666s11.999,1.833,13.666,3s6,3.167,7.667,4.667s4.999,5.167,8.333,6.667
	s8.333,4.333,10,4.5s4.501,1.833,4.834,0s0.667-3.666,0-4.333s-2.5-1.834-2.5-1.834s11,4.167,16,4.167s28.5,0.5,35-1
	s28.666-8.25,30.833-9.625s8.333-6.874,8.833-7.208s6.167-3.333,6.667-3.5s3.833-2.5,3.833-2.5s1.334-1,1.834-1.167
	s16.665,2,21.499,2s15.168,2.576,17.834,2.788s6.333,1.044,6.833,1.378s1.001,0.834,2.167,1.167s12.5,0.167,13,0.167
	s5.834,1.832,9.5,3.166s9.666,3.251,13.333,3.709s6.667-0.458,7.667,0s0-2.791,5,0s39.333,7.792,42.333,8.792s26.166,6,30,7
	s66.666,6.334,70,5.5s31.667-3.501,31.667-3.501s8.667,2.834,9.5,2.834s38.333-4.999,40.333-5.833s7.667-4.834,15.167-5.167
	c10.833-4.5,21.167-8.75,28.667-9.625s8.334-3.708,10-3.208s11.334,7.334,13,8.5s8.334,4.334,10.5,4.5s4.334-1.001,9.5,0.666
	s8.999,2.668,12.166,3.834s9.167,1.667,10.167,3s1.5,1.999,1.5,2.666s-1032.501,9.667-1040.501,9.667
	S597.283,933.54,657.282,867.873z"/>
<g>
</g>
<g>
</g>
<g>
</g>
<g>
</g>
<g>
</g>
<g>
</g>
</svg>
