<?xml version="1.0" encoding="utf-8"?>
<!-- Generator: Adobe Illustrator 16.0.0, SVG Export Plug-In . SVG Version: 6.00 Build 0)  -->
<!DOCTYPE svg PUBLIC "-//W3C//DTD SVG 1.1//EN" "http://www.w3.org/Graphics/SVG/1.1/DTD/svg11.dtd">
<svg version="1.1" id="sol" xmlns="http://www.w3.org/2000/svg" xmlns:xlink="http://www.w3.org/1999/xlink" x="0px" y="0px"
	 width="130px" height="130.001px" viewBox="1327.78 783.124 130 130.001" enable-background="new 1327.78 783.124 130 130.001"
	 xml:space="preserve">
<path fill="#FCFAE0" d="M1445.189,809.689c-0.032,0.01-0.071,0.016-0.104,0.024c-0.113,0.045-0.242,0.071-0.38,0.085
	c-0.148,0.024-0.307,0.043-0.479,0.052c-3.761,0.176-7.584,0.487-11.337,0.073c-2.697-0.297-5.329-1.168-8.054-1.235
	c-0.426-0.012-0.849-0.01-1.272-0.011c-1.059,0.055-2.117,0.091-3.168,0.084c-0.981,0.052-1.964,0.116-2.948,0.202
	c-1.085,0.095-2.952,0.423-3.729-0.57c0.016-0.025,0.037-0.04,0.068-0.044c1.778-0.479,3.618-1.068,5.478-1.1
	c2.821-0.047,4.7-1.808,7.452-2.056c1.002-0.092,2.205,0.031,3.295-0.088c0.507-0.13,1.011-0.273,1.507-0.437
	c0.071-0.039,0.149-0.067,0.219-0.113c0.945-0.629,1.792-1.38,2.783-1.937c1.1-0.616,2.66-0.595,4.087-0.587
	c-11.752-11.687-27.944-18.909-45.826-18.909c-15.198,0-29.166,5.23-40.235,13.97c1.994-0.047,4.041-0.068,5.938,0.466
	c3.146,0.886,5.883,1.661,9.204,1.664c2.622,0.004,5.157,0.101,7.728,0.644c2.759,0.583,5.567,0.389,8.367,0.389
	c0.642,0,0.642,0.961,0,0.961c-1.381,0-2.748-0.054-4.109-0.135c-0.058,0.175-0.207,0.319-0.453,0.322
	c-2.688,0.034-5.316,0.487-8.015,0.461c-3.021-0.03-5.779,0.229-8.746,0.754c-2.765,0.49-5.804,0.168-8.604,0.153
	c-2.599-0.015-5.188-0.004-7.781,0.157c-6.17,6.374-11.034,14.015-14.195,22.482c5.018-0.182,9.981-0.69,15.034-0.035
	c6.693,0.869,13.39,1.352,20.087,2.133c2.742,0.321,5.076,1.946,7.745,2.503c2.935,0.612,5.9,0.6,8.884,0.552
	c6.27-0.102,12.516,0.396,18.778,0.473c0.641,0.008,0.643,0.969,0,0.961c-2.702-0.033-5.4-0.145-8.099-0.252
	c-0.041,0.2-0.19,0.377-0.465,0.377c-5.499,0.002-10.938,0.371-16.438,0.188c-2.473-0.083-5.08-0.064-7.509-0.586
	c-2.742-0.591-5.58-0.28-8.368-0.474c-2.361-0.163-4.76-0.283-7.062-0.856c-2.422-0.604-5.603,0.229-8.112,0.281
	c-5.385,0.113-10.785-0.022-16.176-0.046c-1.555,5.567-2.399,11.432-2.399,17.494c0,35.899,29.102,65,65,65
	c35.897,0,65-29.101,65-65C1457.78,833.742,1453.1,820.456,1445.189,809.689z"/>
</svg>
