<?xml version="1.0" encoding="utf-8"?>
<!-- Generator: Adobe Illustrator 16.0.0, SVG Export Plug-In . SVG Version: 6.00 Build 0)  -->
<!DOCTYPE svg PUBLIC "-//W3C//DTD SVG 1.1//EN" "http://www.w3.org/Graphics/SVG/1.1/DTD/svg11.dtd">
<svg version="1.1" xmlns="http://www.w3.org/2000/svg" xmlns:xlink="http://www.w3.org/1999/xlink" x="0px" y="0px" width="700px"
	 height="110px" viewBox="0 0 700 110" enable-background="new 0 0 700 110" xml:space="preserve">
<symbol  id="leaf" viewBox="-68.336 -47.163 137.307 93.385">
	<path fill="#A33D57" d="M23.664,28.889c-42-4.333-64-3-92,17.333c7-17,27.97-93.385,101.303-93.385
		c13.657,0,27.364,7.718,27.364,7.718S45.918-5.895,20.251-5.895s-50.588,20.45-50.588,20.45s21-13.667,50.667-13.667
		s45.333-32,45.333-32C74.997-8.445,65.664,33.222,23.664,28.889z"/>
</symbol>
<g id="tronco">
	<path fill="#A33D57" d="M659.146,99.052l-3.5-0.25l-6.5-5.5h-2h-6.25l-9.153-7.942c4.436-0.796,9.948-1.808,10.403-1.808
		c0.75,0,8,0.75,8,0.75l1.25-7.25v-5.25l-1.75-10.25l-3-5.5l1.5-6.5l3.25-5l7.5-7.5l4.25-3.25v-9.75l2.25-5.5l-15.25-1.25
		l-9.75,1.25c0,0-15.25,3-16,3s-27.5-2.25-27.5-2.25s-16.5-0.5-19.5-0.5s-15.75,0-15.75,0l-26.58-1.094l-5.212-2.156l-7.25-4.75
		l7.25-7.75h-6.25l-5.25,2.25l-5.75,2.75l-9.151,8.356l-20.807-0.856l-18,7.75c0,0-6.75,1-10,1s-21.75-0.25-28-0.25
		s-15.25-2-20-1.75s-33.25,0.5-37,1s-13-1.75-21.75-1s-20.25,2.25-23.25,3.5s-14,3.25-14,3.25s-31.809-1.348-49.012-2.064
		l2.512-9.769l-1.667-1.667h-6.667l-2.666,4.333l-8.742,6.744c-6.36,0.023-15.689-0.118-20.008-1.078c-6.75-1.5-50.75-4.25-51.75-4
		s-33,3.5-35.25,3.5s-21,2.25-27.25,3.25s-20.5-0.25-20.5-0.25l-16.75-6.75l-22.75-1c0,0-9.25,0.75-10,1s-14.25,2.75-14.25,2.75
		l-6.708-0.5l-2.333,12c0,0,4,8.833,4,9.833s-1.208,6.167-1.208,6.167s-0.75,5.459,0,6.854s-0.958,10.479-0.958,10.479l2.667,6.417
		l-3.5,9.417l11.542,2.333h10l15.25-3c0,0,16.75-1.5,17.5-1s8.75,1.5,9.5,1.5s22.25-0.25,24-0.25s23.5,0,23.5,0l26.25-0.5h7.75
		l6.264,1.096l-5.597,2.321l-5,2.389l-11.666,4.611c0,0-10.334-0.667-11.334,0s-6-0.667-7,0s-6.333,0.192-6.333,0.192l-5.333,3.141
		c0,0-5.667-0.334-7.667,0s-9.333,0-9.333,0l-3.667,2.667l2,1.667h6h7h8.333l6-2h8.667l6.333-0.667l8.334-0.333l8.666-1l11-0.334
		l10.334-4.333l9.711-4.334l18.288-2.083l13.25-2.75l26.5,0.75l15.75,4.25c0,0,8.5,1.25,11,0s13.25-4.75,15.75-5.25s11.75-1,16-1.25
		s19.75-2.5,20.5-2.5s9,0,9,0s7-1.5,11.75-1.5s14.75,1.75,15.75,1.75s19.25-0.25,22.75-0.5c2.717-0.194,23.499-2.195,32.67-3.081
		l0.872,1.831l-5.167,4.5l-7.167,1.833l-6.666-0.333l-2,5.056l8,1.944l14-1.944l7-5.723l2.666-4.462l0,0
		c3.722,1.564,7.666,3.129,8.542,3.129c1.75,0,13.25,3.25,17.25,3.25s29.5-9,33.75-9.75s11.25-2,14-2s7,0,12,0s24.25,0.75,26.5,0.75
		s10.75,0,12.25,0s31.5,8,32.25,8s22,4,26.5,4c1.829,0,4.315-0.083,6.677-0.181l5.073,5.236l10.25,8.444h6.5c0,0,8.25-0.75,9,0
		s8.25,2.75,8.25,2.75h1.5l3.25,1.5l1.25-3l-1.5-2L659.146,99.052z"/>
</g>
<g id="lianas">
	<g>
		<g>
			<g>
				<path fill="#A33D57" d="M157.319,29.282l1.403,3.206c0,0,0.282-0.15,0.811-0.432c0.525-0.286,1.323-0.674,2.202-1.306
					c1.847-1.174,4.131-3.175,6.78-5.36c0.668-0.539,1.363-1.103,2.105-1.612c0.732-0.564,1.509-1.006,2.306-1.486
					c1.627-0.832,3.566-1.422,5.636-1.793c2.072-0.371,4.292-0.504,6.58-0.571c2.304-0.09,4.595-0.048,6.98-0.089
					c2.366-0.051,4.758-0.176,7.092-0.646c1.168-0.206,2.309-0.571,3.412-0.985c1.077-0.493,2.144-1.025,3.012-1.83
					c0.235-0.172,0.432-0.397,0.629-0.619c0.19-0.226,0.411-0.426,0.568-0.669c0.315-0.491,0.583-0.993,0.797-1.512
					c0.425-1.044,0.581-2.199,0.401-3.271c-0.167-1.079-0.673-2.021-1.249-2.813c-0.585-0.794-1.266-1.449-1.955-2.019
					c-2.804-2.235-5.575-3.329-7.455-4.128c-1.907-0.762-3.02-1.127-3.02-1.127s1.096,0.417,2.96,1.266
					c1.831,0.878,4.549,2.114,7.157,4.404c1.253,1.143,2.526,2.662,2.758,4.534c0.107,0.923-0.065,1.883-0.478,2.779
					c-0.21,0.449-0.468,0.879-0.754,1.285c-0.144,0.203-0.344,0.358-0.511,0.541c-0.173,0.178-0.342,0.361-0.562,0.503
					c-0.781,0.666-1.765,1.097-2.753,1.499c-1.03,0.329-2.09,0.62-3.205,0.762c-2.212,0.341-4.524,0.357-6.838,0.298
					c-2.3-0.067-4.692-0.22-7.001-0.237c-2.321-0.04-4.651-0.014-6.923,0.282c-2.264,0.299-4.468,0.842-6.466,1.748
					c-0.958,0.506-1.903,1-2.702,1.559c-0.846,0.526-1.599,1.082-2.325,1.613c-2.872,2.156-5.096,3.918-6.767,4.866
					c-0.813,0.533-1.487,0.81-1.936,1.03C157.56,29.167,157.319,29.282,157.319,29.282z"/>
			</g>
		</g>
	</g>
	<g>
		<g>
			<g>
				<path fill="#A33D57" d="M275.354,30.802v3.5c0,0,3.431-0.109,8.723,0.079c2.644,0.073,5.748,0.184,9.098,0.142
					c3.344-0.04,6.951-0.249,10.498-0.983c1.775-0.369,3.507-0.826,5.217-1.591c1.622-0.831,3.038-1.841,4.355-2.892
					c2.597-2.116,4.813-4.463,5.896-6.995c0.54-1.246,0.669-2.616,0.24-3.667c-0.42-1.057-1.194-1.706-1.833-2.13
					c-0.322-0.223-0.629-0.383-0.903-0.51c-0.266-0.142-0.503-0.237-0.699-0.308c-0.386-0.149-0.592-0.229-0.592-0.229
					s0.2,0.092,0.576,0.265c0.189,0.082,0.419,0.191,0.674,0.348c0.263,0.142,0.556,0.319,0.856,0.556
					c0.601,0.453,1.296,1.128,1.616,2.115c0.328,0.979,0.141,2.2-0.435,3.336c-1.153,2.302-3.433,4.454-6.064,6.334
					c-1.325,0.932-2.771,1.825-4.288,2.485c-1.498,0.559-3.226,0.92-4.92,1.158c-3.41,0.489-6.891,0.479-10.154,0.314
					c-3.265-0.161-6.323-0.459-8.961-0.697C278.983,30.916,275.354,30.802,275.354,30.802z"/>
			</g>
		</g>
	</g>
	<g>
		<g>
			<g>
				<path fill="#A33D57" d="M402.228,28.588l2.922,1.927c0,0,0.113-0.17,0.324-0.489c0.22-0.314,0.5-0.806,0.952-1.364
					c0.847-1.156,2.196-2.732,4.126-4.323c1.929-1.582,4.423-3.191,7.344-4.463c2.913-1.288,6.226-2.247,9.62-2.826
					c6.808-1.17,13.867-0.629,18.942,0.603c2.549,0.594,4.614,1.333,6.029,1.917c0.714,0.279,1.256,0.543,1.629,0.716
					c0.373,0.173,0.572,0.266,0.572,0.266s-0.192-0.104-0.555-0.301c-0.361-0.196-0.888-0.494-1.585-0.818
					c-1.382-0.674-3.411-1.547-5.948-2.309c-5.052-1.562-12.191-2.577-19.32-1.809c-3.555,0.38-7.088,1.162-10.276,2.34
					c-3.194,1.159-6.018,2.73-8.26,4.348c-2.244,1.624-3.884,3.307-4.93,4.559c-0.551,0.606-0.91,1.142-1.182,1.487
					C402.368,28.401,402.228,28.588,402.228,28.588z"/>
			</g>
		</g>
	</g>
	<g>
		<g>
			<g>
				<path fill="#A33D57" d="M544.499,24.215l1.045,3.341c0,0,0.898-0.287,2.471-0.789c0.783-0.258,1.742-0.559,2.861-0.857
					c1.117-0.307,2.365-0.679,3.761-1.022c2.793-0.708,6.052-1.534,9.544-2.42c3.496-0.933,7.25-1.978,10.862-3.408
					c1.832-0.705,3.563-1.376,5.354-1.999c1.779-0.623,3.546-1.228,5.244-1.853c3.398-1.24,6.52-2.627,8.97-4.205
					c2.471-1.546,4.222-3.271,5.249-4.604c0.553-0.641,0.879-1.221,1.124-1.598c0.242-0.379,0.371-0.582,0.371-0.582
					s-0.141,0.195-0.403,0.561c-0.267,0.362-0.623,0.919-1.206,1.523c-1.094,1.261-2.911,2.855-5.415,4.23
					c-2.486,1.407-5.615,2.59-9.043,3.625c-1.715,0.522-3.501,1.022-5.324,1.546c-1.815,0.517-3.704,1.128-5.493,1.701
					c-3.609,1.198-7.326,2.007-10.832,2.732c-3.535,0.685-6.835,1.324-9.663,1.872c-1.421,0.266-2.725,0.573-3.882,0.821
					c-1.157,0.24-2.163,0.492-2.99,0.713C545.446,23.971,544.499,24.215,544.499,24.215z"/>
			</g>
		</g>
	</g>
	<g>
		<g>
			<g>
				<path fill="#A33D57" d="M552.552,66.146l-0.395,3.478c0,0,0.139,0.016,0.398,0.045c0.256,0.044,0.65,0.038,1.125,0.153
					c0.969,0.148,2.319,0.548,3.846,1.343c1.522,0.802,3.17,2.084,4.781,3.703c1.611,1.623,3.191,3.561,4.783,5.525
					c1.596,1.959,3.228,3.94,4.979,5.604c1.734,1.676,3.63,2.979,5.398,3.752c1.78,0.757,3.373,1.045,4.48,1.1
					c0.551,0.068,0.99,0.021,1.285,0.035c0.296,0.001,0.453,0.001,0.453,0.001s-0.157-0.014-0.452-0.04
					c-0.293-0.041-0.729-0.03-1.269-0.146c-1.086-0.147-2.618-0.569-4.258-1.441c-1.632-0.892-3.317-2.279-4.842-4.029
					c-1.54-1.739-2.957-3.796-4.373-5.88c-1.413-2.087-2.848-4.205-4.415-6.088c-1.569-1.877-3.3-3.508-5.041-4.631
					c-1.74-1.118-3.406-1.774-4.598-2.069c-0.588-0.191-1.07-0.237-1.392-0.316C552.725,66.18,552.552,66.146,552.552,66.146z"/>
			</g>
		</g>
	</g>
	<g>
		<g>
			<g>
				<path fill="#A33D57" d="M424.804,59.653l-1.564,3.131c-0.093,0.1,1.719,0.32,2.441,3.417c0.185,0.733,0.285,1.624,0.318,2.542
					c0.01,0.905-0.003,1.849-0.331,2.516c-0.288,0.642-1.309,1.599-1.877,2.804c-0.618,1.179-0.869,2.435-1.039,3.709
					c-0.203,2.578,0.604,5.127,1.983,6.981c1.344,1.89,3.071,3.203,4.654,4.041c1.593,0.845,3.036,1.234,4.035,1.482
					c1.016,0.175,1.597,0.275,1.597,0.275s-0.566-0.153-1.558-0.421c-0.965-0.337-2.342-0.854-3.795-1.807
					c-1.445-0.944-2.951-2.35-4.002-4.172c-1.096-1.797-1.541-4.053-1.18-6.156c0.24-1.028,0.563-2.094,1.116-2.92
					c0.114-0.222,0.271-0.415,0.429-0.604c0.141-0.191,0.315-0.384,0.505-0.576c0.355-0.373,0.83-0.856,1.216-1.464
					c0.762-1.284,0.828-2.549,0.934-3.64c0.063-1.098,0.046-2.123-0.101-3.12c-0.241-1.978-1.119-3.744-2.098-4.703
					c-0.453-0.521-0.912-0.799-1.215-1.006C424.967,59.761,424.804,59.653,424.804,59.653z"/>
			</g>
		</g>
	</g>
	<g>
		<g>
			<g>
				<path fill="#A33D57" d="M396.215,70.958l-0.387-3.479c0,0-0.647,0.133-1.782,0.366c-0.573,0.094-1.229,0.315-1.988,0.543
					c-0.769,0.208-1.596,0.525-2.489,0.884c-3.601,1.401-7.951,3.948-11.949,6.964c-1.019,0.755-1.96,1.636-2.825,2.552
					c-0.852,0.938-1.571,1.97-2.141,3.031c-1.116,2.155-1.488,4.376-1.624,6.227c-0.139,1.861-0.093,3.402-0.07,4.48
					c0.04,1.077,0.063,1.692,0.063,1.692s0.032-0.614,0.088-1.689c0.072-1.073,0.165-2.612,0.463-4.416
					c0.292-1.799,0.85-3.875,2.041-5.742c1.193-1.864,2.991-3.442,5.014-4.705c4.104-2.56,8.528-4.634,11.921-5.608
					c0.847-0.256,1.622-0.478,2.319-0.599c0.693-0.142,1.293-0.291,1.792-0.322C395.649,71.023,396.215,70.958,396.215,70.958z"/>
			</g>
		</g>
	</g>
	<g>
		<g>
			<g>
				<path fill="#A33D57" d="M258.518,81.294l-0.327-3.484c0,0-0.936,0.152-2.574,0.418c-0.817,0.133-1.81,0.295-2.949,0.48
					c-1.136,0.197-2.429,0.351-3.799,0.723c-1.376,0.331-2.868,0.689-4.445,1.068c-0.784,0.202-1.604,0.354-2.414,0.612
					c-0.811,0.252-1.64,0.509-2.482,0.771c-1.68,0.536-3.433,1.034-5.177,1.643c-1.729,0.645-3.485,1.299-5.242,1.953
					c-7.068,2.575-13.611,6.21-18.98,7.699c-0.667,0.198-1.305,0.388-1.913,0.568c-0.62,0.131-1.208,0.254-1.761,0.37
					c-0.554,0.115-1.073,0.224-1.553,0.323c-0.482,0.086-0.932,0.112-1.335,0.164c-1.62,0.18-2.546,0.282-2.546,0.282
					s0.931-0.048,2.561-0.133c0.408-0.028,0.863-0.028,1.352-0.086c0.488-0.072,1.015-0.15,1.579-0.233
					c0.564-0.084,1.166-0.174,1.799-0.269c0.623-0.146,1.279-0.3,1.962-0.46c5.531-1.194,12.332-4.463,19.415-6.575
					c1.771-0.544,3.543-1.088,5.287-1.624c1.752-0.498,3.502-0.885,5.179-1.314c0.84-0.208,1.665-0.412,2.473-0.612
					c0.806-0.207,1.617-0.307,2.394-0.459c1.557-0.278,3.028-0.542,4.387-0.785c1.351-0.285,2.616-0.358,3.727-0.484
					c1.112-0.114,2.081-0.215,2.879-0.297C257.607,81.389,258.518,81.294,258.518,81.294z"/>
			</g>
		</g>
	</g>
	<g>
		<g>
			<g>
				<path fill="#A33D57" d="M304.051,77.83l-1.893,2.944c0,0,0.354,0.18,0.975,0.493c0.631,0.292,1.479,0.803,2.584,1.24
					c2.16,0.979,5.151,1.978,8.174,2.691c3.042,0.662,6.101,1.032,8.395,1.183c1.144,0.102,2.104,0.095,2.77,0.132
					c0.667,0.025,1.048,0.039,1.048,0.039s-0.375-0.068-1.033-0.188c-0.654-0.133-1.598-0.261-2.709-0.523
					c-2.231-0.473-5.16-1.269-7.967-2.317c-2.791-1.103-5.444-2.439-7.308-3.631c-0.958-0.546-1.675-1.139-2.212-1.486
					C304.351,78.039,304.051,77.83,304.051,77.83z"/>
			</g>
		</g>
	</g>
	<g>
		<g>
			<g>
				<path fill="#A33D57" d="M493.432,66.705l-3.486-0.306c0,0-0.025,0.744,0,2.045c0.087,1.3,0.266,3.226,1.214,5.367
					c0.441,1.075,1.172,2.14,2.046,3.131c0.898,0.982,2.019,1.807,3.229,2.494c2.458,1.337,5.285,1.986,8.064,2.287
					c5.587,0.554,11.065-0.134,15.118-0.718c2.03-0.302,3.711-0.597,4.888-0.799c1.177-0.204,1.85-0.32,1.85-0.32
					s-0.68,0.063-1.869,0.171c-1.189,0.107-2.888,0.267-4.926,0.404c-4.062,0.262-9.56,0.486-14.809-0.47
					c-2.605-0.492-5.132-1.323-7.088-2.608c-0.96-0.657-1.794-1.386-2.419-2.193c-0.602-0.82-1.087-1.645-1.351-2.494
					c-0.585-1.671-0.613-3.22-0.599-4.289C493.366,67.323,493.432,66.705,493.432,66.705z"/>
			</g>
		</g>
	</g>
	<g>
		<g>
			<g>
				<path fill="#A33D57" d="M612.548,74.141l0.279,3.489c0,0,0.17-0.007,0.488-0.02c0.318-0.004,0.788-0.08,1.392,0.013
					c1.2,0.074,2.973,0.471,4.925,1.572c1.952,1.081,4.051,2.811,5.959,5.016c1.9,2.211,3.597,4.901,4.844,7.788
					c0.613,1.448,1.096,2.947,1.44,4.452c0.303,1.511,0.451,3.024,0.355,4.476c-0.186,2.89-1.772,5.446-4.013,6.315
					c-2.159,0.986-4.262,0.903-5.651,0.885c-1.407-0.155-2.212-0.243-2.212-0.243s0.799,0.143,2.197,0.393
					c1.399,0.107,3.506,0.357,5.882-0.532c0.611-0.176,1.149-0.57,1.743-0.917c0.515-0.452,1.081-0.905,1.49-1.523
					c0.873-1.184,1.437-2.679,1.664-4.25c0.212-1.575,0.161-3.215-0.055-4.852c-0.257-1.627-0.663-3.254-1.209-4.833
					c-1.114-3.147-2.715-6.121-4.608-8.652c-1.902-2.525-4.093-4.622-6.306-6.053c-2.201-1.452-4.436-2.153-6.041-2.367
					c-0.798-0.165-1.449-0.129-1.889-0.147C612.783,74.145,612.548,74.141,612.548,74.141z"/>
			</g>
		</g>
	</g>
	<g>
		<g>
			<g>
				<path fill="#A33D57" d="M125.854,74.552v-3.5c0,0-1.083,0.028-2.979,0.078c-1.9,0.064-4.613,0.12-7.89,0.322
					c-3.271,0.211-7.115,0.525-11.178,1.335c-4.058,0.805-8.324,2.104-12.3,4.009c-1.978,0.973-3.91,2.014-5.723,3.199
					c-0.915,0.583-1.812,1.167-2.644,1.79c-0.848,0.599-1.692,1.174-2.536,1.719c-3.375,2.164-6.78,3.843-9.917,4.516
					c-3.128,0.764-5.878,0.386-7.646-0.224c-0.441-0.165-0.835-0.313-1.178-0.44c-0.324-0.172-0.599-0.318-0.822-0.438
					c-0.448-0.238-0.687-0.365-0.687-0.365s0.232,0.139,0.667,0.399c0.218,0.131,0.488,0.292,0.804,0.481
					c0.339,0.146,0.729,0.314,1.165,0.503c1.751,0.707,4.55,1.24,7.804,0.62c3.261-0.53,6.838-2.076,10.386-4.106
					c1.793-0.99,3.519-2.247,5.347-3.24c1.809-1.058,3.743-1.976,5.693-2.815c3.925-1.642,8.06-2.672,11.99-3.249
					c3.935-0.58,7.673-0.697,10.881-0.742c3.209-0.036,5.907,0.044,7.792,0.076C124.774,74.525,125.854,74.552,125.854,74.552z"/>
			</g>
		</g>
	</g>
</g>
<g id="hojas">
	
		<use xlink:href="#leaf"  width="137.307" height="93.385" x="-68.336" y="-47.163" transform="matrix(0.0514 0.0294 0.0294 -0.0514 195.8613 14.5503)" overflow="visible"/>
	
		<use xlink:href="#leaf"  width="137.307" height="93.385" x="-68.336" y="-47.163" transform="matrix(-0.0049 -0.0603 0.0603 -0.0049 206.0327 21.0547)" overflow="visible"/>
	
		<use xlink:href="#leaf"  width="137.307" height="93.385" x="-68.336" y="-47.163" transform="matrix(0.0418 -0.0183 -0.0183 -0.0418 204.1245 11.748)" overflow="visible"/>
	
		<use xlink:href="#leaf"  width="137.307" height="93.385" x="-68.336" y="-47.163" transform="matrix(-0.0363 0.0098 -0.0098 -0.0363 206.8164 4.1309)" overflow="visible"/>
	
		<use xlink:href="#leaf"  width="137.307" height="93.385" x="-68.336" y="-47.163" transform="matrix(-0.0629 -0.0553 0.0553 -0.0629 268.1362 22.3672)" overflow="visible"/>
	
		<use xlink:href="#leaf"  width="137.307" height="93.385" x="-68.336" y="-47.163" transform="matrix(0.0737 0.0421 0.0421 -0.0737 425.9072 9.646)" overflow="visible"/>
	
		<use xlink:href="#leaf"  width="137.307" height="93.385" x="-68.336" y="-47.163" transform="matrix(0.0621 0.0138 0.0138 -0.0621 570.3672 14.6167)" overflow="visible"/>
	
		<use xlink:href="#leaf"  width="137.307" height="93.385" x="-68.336" y="-47.163" transform="matrix(-0.0544 -0.0232 -0.0232 0.0544 635.666 105.4941)" overflow="visible"/>
	
		<use xlink:href="#leaf"  width="137.307" height="93.385" x="-68.336" y="-47.163" transform="matrix(0.0568 0.0325 0.0325 -0.0568 625.2891 103.2891)" overflow="visible"/>
	
		<use xlink:href="#leaf"  width="137.307" height="93.385" x="-68.336" y="-47.163" transform="matrix(-0.0501 -0.0727 -0.0727 0.0501 501.1387 87.3086)" overflow="visible"/>
	
		<use xlink:href="#leaf"  width="137.307" height="93.385" x="-68.336" y="-47.163" transform="matrix(-0.0533 -0.049 0.049 -0.0533 438.9648 91.5947)" overflow="visible"/>
	
		<use xlink:href="#leaf"  width="137.307" height="93.385" id="XMLID_2_" x="-68.336" y="-47.163" transform="matrix(0.0691 0.0395 0.0395 -0.0691 111.2861 92.1582)" overflow="visible"/>
	
		<use xlink:href="#leaf"  width="137.307" height="93.385" x="-68.336" y="-47.163" transform="matrix(0.0493 0.0282 0.0282 -0.0493 99.9482 94.6885)" overflow="visible"/>
	
		<use xlink:href="#leaf"  width="137.307" height="93.385" x="-68.336" y="-47.163" transform="matrix(0.01 -0.0572 0.0572 0.01 108.833 105.6094)" overflow="visible"/>
	
		<use xlink:href="#leaf"  width="137.307" height="93.385" x="-68.336" y="-47.163" transform="matrix(0.0537 -0.0195 0.0195 0.0537 95.0903 103.5771)" overflow="visible"/>
	<path fill="none" stroke="#A33D57" stroke-width="0.5" stroke-miterlimit="10" d="M90.258,30.178
		c-6.689-5.449-7.693-15.289-2.244-21.978c4.359-5.351,12.231-6.155,17.582-1.795c4.281,3.487,4.923,9.785,1.436,14.065
		c-2.79,3.424-7.828,3.939-11.252,1.149c-2.739-2.232-3.151-6.262-0.919-9.002c1.786-2.192,5.01-2.521,7.202-0.735
		c1.753,1.428,2.017,4.008,0.588,5.761c-1.143,1.403-3.207,1.613-4.609,0.471c-1.122-0.914-1.291-2.565-0.376-3.688
		c0.731-0.897,2.052-1.032,2.95-0.301"/>
	<path fill="none" stroke="#A33D57" stroke-width="0.5" stroke-miterlimit="10" d="M641.285,56.163
		c6.299-11.634,20.837-15.959,32.472-9.66c9.309,5.04,12.768,16.669,7.729,25.977c-4.031,7.447-13.336,10.214-20.782,6.183
		c-5.956-3.225-8.17-10.668-4.946-16.625c2.58-4.766,8.535-6.537,13.301-3.957c3.813,2.064,5.23,6.828,3.166,10.64
		c-1.651,3.05-5.463,4.184-8.512,2.532c-2.44-1.321-3.348-4.37-2.026-6.81c1.057-1.952,3.496-2.677,5.447-1.621
		c1.563,0.846,2.143,2.797,1.297,4.358"/>
	<g>
	</g>
	<g>
	</g>
	<g>
	</g>
	<g>
	</g>
	<g>
	</g>
	<g>
	</g>
	<g>
	</g>
	<g>
	</g>
	<g>
	</g>
</g>
</svg>
