<?xml version="1.0" encoding="utf-8"?>
<!-- Generator: Adobe Illustrator 16.0.0, SVG Export Plug-In . SVG Version: 6.00 Build 0)  -->
<!DOCTYPE svg PUBLIC "-//W3C//DTD SVG 1.1//EN" "http://www.w3.org/Graphics/SVG/1.1/DTD/svg11.dtd">
<svg version="1.1" id="Layer_1" xmlns="http://www.w3.org/2000/svg" xmlns:xlink="http://www.w3.org/1999/xlink" x="0px" y="0px"
	 width="100px" height="100px" viewBox="0 0 100 100" enable-background="new 0 0 100 100" xml:space="preserve">
<g>
	<path fill="#FFFFFF" d="M45.287,46.417h52.975c-0.153-2.209-0.442-4.381-0.882-6.5H45.287V46.417z"/>
	<path fill="#FFFFFF" d="M45.287,33.417h50.259c-0.959-2.673-2.152-5.234-3.544-7.667H45.287V33.417z"/>
	<path fill="#FFFFFF" d="M7.082,72.916h85.479c1.126-2.08,2.104-4.251,2.922-6.5H4.161C4.978,68.665,5.956,70.836,7.082,72.916z"/>
	<path fill="#FFFFFF" d="M1.357,52.916c0.15,2.384,0.467,4.722,0.949,7h95.029c0.482-2.278,0.799-4.616,0.949-7H45.287H1.357z"/>
	<path fill="#FFFFFF" d="M18.453,86.893H81.19c2.634-2.231,5.026-4.738,7.134-7.477H11.318
		C13.426,82.154,15.818,84.661,18.453,86.893z"/>
	<path fill="#FFFFFF" d="M49.821,98.394c7.71,0,14.995-1.804,21.47-5.001h-42.94C34.826,96.59,42.112,98.394,49.821,98.394z"/>
	<path fill="#FFFFFF" d="M71.29,6.25c-6.475-3.197-13.76-5-21.469-5c-1.531,0-3.04,0.091-4.535,0.23V6.25H71.29z"/>
	<path fill="#FFFFFF" d="M45.287,19.25h42.27c-1.915-2.361-4.049-4.536-6.367-6.5H45.287V19.25z"/>
	<polygon fill="#ED3E3E" points="45.287,12.75 81.189,12.75 71.29,6.25 45.287,6.25 	"/>
	<path fill="#ED3E3E" d="M71.29,6.25l9.899,6.5C78.181,10.201,74.861,8.012,71.29,6.25z"/>
	<polygon fill="#ED3E3E" points="45.287,25.75 92.002,25.75 87.557,19.25 45.287,19.25 	"/>
	<path fill="#ED3E3E" d="M87.557,19.25l4.445,6.5C90.693,23.46,89.208,21.286,87.557,19.25z"/>
	<polygon fill="#ED3E3E" points="45.287,39.917 97.38,39.917 95.546,33.417 45.287,33.417 	"/>
	<path fill="#ED3E3E" d="M95.546,33.417l1.834,6.5C96.919,37.689,96.301,35.521,95.546,33.417z"/>
	<polygon fill="#ED3E3E" points="45.287,46.417 45.287,52.916 98.285,52.916 98.262,46.417 	"/>
	<path fill="#ED3E3E" d="M98.262,46.417l0.023,6.5c0.064-1.024,0.108-2.054,0.108-3.095C98.394,48.675,98.34,47.542,98.262,46.417z"
		/>
	<path fill="#ED3E3E" d="M4.161,66.416h91.322l1.854-6.5H2.307C2.777,62.143,3.396,64.313,4.161,66.416z"/>
	<path fill="#ED3E3E" d="M97.336,59.916l-1.854,6.5C96.246,64.313,96.865,62.143,97.336,59.916z"/>
	<path fill="#ED3E3E" d="M11.318,79.416h77.006l4.236-6.5H7.082C8.32,75.201,9.743,77.37,11.318,79.416z"/>
	<path fill="#ED3E3E" d="M92.561,72.916l-4.236,6.5C89.899,77.37,91.323,75.201,92.561,72.916z"/>
	<path fill="#ED3E3E" d="M28.351,93.393h42.94l9.899-6.5H18.453C21.461,89.44,24.781,91.63,28.351,93.393z"/>
	<path fill="#ED3E3E" d="M81.19,86.893l-9.899,6.5C74.861,91.63,78.182,89.44,81.19,86.893z"/>
	<path fill="#0C6ABF" d="M2.263,39.917c-0.439,2.119-0.729,4.291-0.882,6.5h43.906v-6.5H2.263z"/>
	<path fill="#0C6ABF" d="M45.287,25.75H7.64c-1.392,2.433-2.584,4.994-3.544,7.667h41.19V25.75z"/>
	<path fill="#0C6ABF" d="M45.287,6.25V1.479C39.256,2.04,33.541,3.688,28.352,6.25H45.287z"/>
	<path fill="#0C6ABF" d="M45.287,12.75H18.453c-2.319,1.964-4.452,4.139-6.367,6.5h33.201V12.75z"/>
	<path fill="#0C6ABF" d="M45.287,6.25H28.352c-3.57,1.763-6.89,3.952-9.899,6.5h26.833V6.25z"/>
	<path fill="#0C6ABF" d="M45.287,19.25H12.086c-1.652,2.036-3.136,4.211-4.446,6.5h37.646V19.25z"/>
	<path fill="#0C6ABF" d="M45.287,33.417H4.096c-0.755,2.104-1.372,4.273-1.833,6.5h43.024V33.417z"/>
	<path fill="#0C6ABF" d="M45.287,46.417H1.381c-0.078,1.126-0.132,2.259-0.132,3.405c0,1.041,0.044,2.07,0.108,3.095h43.929V46.417z
		"/>
</g>
</svg>
